<?xml version='1.0' encoding='utf-8'?>
<svg xmlns="http://www.w3.org/2000/svg" viewBox="310.0 224.1 174.5 292.0" width="512" height="512"><path fill="#D09F81" fill-opacity="0.086274512" d="M465.347 275.674C467.588 273.233 467.297 274.101 470.296 273.057C474.47 271.603 474.399 277.473 472.42 279.904C472.305 279.361 470.078 271.178 469.24 276.508C468.097 277.856 467.191 278.944 465.424 279.472C465.313 277.881 465.217 277.233 465.347 275.674Z" /><path fill="#D09F81" fill-opacity="0.37254903" d="M469.24 276.508C470.078 271.178 472.305 279.361 472.42 279.904C469.89 282.404 468.725 283.646 465.276 284.461C465.397 282.619 465.427 281.323 465.424 279.472C467.191 278.944 468.097 277.856 469.24 276.508C468.883 278.596 467.706 280.832 470.457 279.952C470.658 278.523 471.682 275.355 469.24 276.508Z" /><path fill="#F54915" d="M369.931 234.097C377.755 237.018 384.388 242.669 381.011 251.738C378.841 257.565 373.6 259.707 368.364 261.807C380.098 265.538 385.007 271.916 379.587 284.105C372.425 289.141 375 287.218 367.574 288.815C366.56 288.656 365.449 288.487 364.482 288.145C361.109 286.958 358.371 284.439 356.906 281.178C354.956 276.755 355.793 270.695 359.194 267.006C360.737 265.334 364.01 265.426 365.207 262.128C363.616 259.079 358.846 257.098 356.789 252.409C353.268 244.382 357.909 238.019 365.486 234.394C367.099 234.235 368.308 234.152 369.931 234.097ZM370.252 255.654C373.221 255.063 375.641 252.919 376.586 250.043C377.532 247.168 376.855 244.006 374.816 241.769C372.777 239.532 369.691 238.566 366.741 239.241C362.267 240.265 359.446 244.691 360.406 249.178C361.366 253.666 365.752 256.55 370.252 255.654ZM375.527 271.044C371.903 268.087 371.399 267.34 366.361 268.395C362.013 269.907 359.609 274.217 361.293 278.615C362.113 280.818 363.826 282.571 366.009 283.442C369.849 284.951 374.642 282.933 376.065 279.011C377.137 276.059 376.423 273.864 375.527 271.044Z" /><path fill="#D19E7F" d="M366.361 268.395C371.399 267.34 371.903 268.087 375.527 271.044C376.423 273.864 377.137 276.059 376.065 279.011C374.642 282.933 369.849 284.951 366.009 283.442C363.826 282.571 362.113 280.818 361.293 278.615C359.609 274.217 362.013 269.907 366.361 268.395ZM365.358 271.57L364.72 272.312C360.718 276.777 363.895 276.984 367.088 281.532C370.184 283.354 370.516 279.747 372.267 278.924C373.599 278.298 373.497 278.905 374.008 277.15C374.055 275.652 374.086 274.154 374.102 272.655C372.019 270.938 371.491 270.586 369.036 269.533C367.295 270.087 366.67 270.178 365.358 271.57Z" /><path fill="#D19E7F" fill-opacity="0.63921571" d="M369.036 269.533C371.491 270.586 372.019 270.938 374.102 272.655C374.086 274.154 374.055 275.652 374.008 277.15C371.046 276.459 371.484 275.331 368.181 276.493C368.913 272.813 369.087 272.293 365.358 271.57C366.67 270.178 367.295 270.087 369.036 269.533Z" /><path fill="#D19E7F" fill-opacity="0.25882354" d="M365.358 271.57C369.087 272.293 368.913 272.813 368.181 276.493C367.856 278.238 367.411 279.841 367.088 281.532C363.895 276.984 360.718 276.777 364.72 272.312L365.358 271.57Z" /><path fill="#D19E7F" fill-opacity="0.9137255" d="M368.181 276.493C371.484 275.331 371.046 276.459 374.008 277.15C373.497 278.905 373.599 278.298 372.267 278.924C370.516 279.747 370.184 283.354 367.088 281.532C367.411 279.841 367.856 278.238 368.181 276.493Z" /><path fill="#D68E6A" d="M366.361 268.395C371.399 267.34 371.903 268.087 375.527 271.044C375.055 271.584 374.58 272.121 374.102 272.655C372.019 270.938 371.491 270.586 369.036 269.533C367.581 269.226 367.639 269.199 366.361 268.395Z" /><path fill="#D09F81" d="M396.358 259.981C398.142 259.899 401.614 259.94 403.456 260.058C412.168 262.713 418.543 267.084 416.198 277.8C414.88 283.823 408.639 285.4 403.46 286.789C403.187 291.155 403.12 294.579 403.033 298.954C399.971 299.125 393.907 299.083 390.897 298.862L391.004 298.704C392.965 296.253 390.989 274.24 391.454 269.499C391.992 264.009 391.938 264.22 396.358 259.981Z" /><path fill="#F54915" d="M334.435 262.92C335.915 262.96 336.823 262.965 338.3 262.87C346.373 264.72 350.544 270.305 348.901 278.993C348.156 282.932 345.92 284.624 343.582 287.59C343.426 291.26 343.405 294.934 343.521 298.606C341.121 298.921 334.386 298.984 332.04 298.677C332.095 295.111 332.119 291.562 331.887 287.999C319.955 282.964 321.419 267.255 334.435 262.92ZM332.04 298.677C334.386 298.984 341.121 298.921 343.521 298.606C343.405 294.934 343.426 291.26 343.582 287.59C339.135 289.02 336.478 288.608 331.887 287.999C332.119 291.562 332.095 295.111 332.04 298.677ZM343.885 271.439C343.627 271.106 343.365 270.776 343.097 270.451C340.099 266.855 335.065 266.52 331.553 269.646C321.25 286.314 350.527 289.767 343.885 271.439Z" /><path fill="#D19E7F" d="M331.887 287.999C336.478 288.608 339.135 289.02 343.582 287.59C343.426 291.26 343.405 294.934 343.521 298.606C341.121 298.921 334.386 298.984 332.04 298.677C332.095 295.111 332.119 291.562 331.887 287.999ZM338.286 294.361C338.768 294.246 339.138 293.859 339.23 293.372C339.323 292.885 339.121 292.39 338.715 292.106C338.309 291.822 337.774 291.802 337.348 292.056C336.815 292.375 336.594 293.035 336.828 293.611C337.062 294.187 337.681 294.506 338.286 294.361Z" /><path fill="#CEA083" fill-opacity="0.9254902" d="M337.348 292.056C337.774 291.802 338.309 291.822 338.715 292.106C339.121 292.39 339.323 292.885 339.23 293.372C339.138 293.859 338.768 294.246 338.286 294.361C337.681 294.506 337.062 294.187 336.828 293.611C336.594 293.035 336.815 292.375 337.348 292.056Z" /><path fill="#D19E7F" d="M331.553 269.646C335.065 266.52 340.099 266.855 343.097 270.451C343.365 270.776 343.627 271.106 343.885 271.439C350.527 289.767 321.25 286.314 331.553 269.646ZM337.487 276.549C341.158 277.029 342.494 280.709 341.935 272.245C340.932 271.71 340.062 271.149 339.098 270.554C337.533 270.457 336.066 270.384 334.503 270.193L333.783 270.886C327.488 276.703 335.736 281.23 336.311 280.781C336.869 278.639 335.901 279.623 337.487 276.549Z" /><path fill="#D19E7F" fill-opacity="0.24705882" d="M339.098 270.554C340.062 271.149 340.932 271.71 341.935 272.245C342.494 280.709 341.158 277.029 337.487 276.549C338.548 274.048 337.615 272.827 339.098 270.554Z" /><path fill="#D68E6A" d="M331.553 269.646C335.065 266.52 340.099 266.855 343.097 270.451C343.365 270.776 343.627 271.106 343.885 271.439C342.762 271.603 342.825 271.549 341.935 272.245C340.932 271.71 340.062 271.149 339.098 270.554C337.533 270.457 336.066 270.384 334.503 270.193C333.167 269.823 332.909 269.73 331.553 269.646Z" /><path fill="#CEA083" d="M429.93 260.173C431.871 259.882 433.124 259.792 434.978 260.347C438.873 262.559 441.323 262.195 444.232 266.584C448.12 272.45 446.615 280.838 440.518 284.62C434.423 288.401 425.655 286.461 422.037 280.001C418.642 273.939 420.424 265.499 426.916 262.254C427.784 261.825 428.583 261.494 429.298 260.796L429.93 260.173Z" /><path fill="#D19E7F" d="M457.948 260.796L458.746 261.162C458.56 266.101 459.316 281.948 458.734 285.372C458.69 282.291 451.371 283.022 450.158 275.996C449.08 269.745 450.067 262.6 457.23 260.987L457.948 260.796ZM457.852 276.07C458.886 274.035 459.089 271.678 458.415 269.496C458.106 268.482 457.694 268.251 456.889 267.672C456.242 270.157 455.357 274.455 457.852 276.07Z" /><path fill="#CEA083" fill-opacity="0.87058824" d="M456.889 267.672C457.694 268.251 458.106 268.482 458.415 269.496C459.089 271.678 458.886 274.035 457.852 276.07C455.357 274.455 456.242 270.157 456.889 267.672Z" /><path fill="#D09F81" d="M367.574 288.815C375 287.218 372.425 289.141 379.587 284.105C379.236 289.192 379.477 293.407 379.552 298.469C383.061 298.554 387.616 298.484 391.004 298.704L390.897 298.862C387.411 298.948 369.958 299.223 367.775 298.688C368.05 297.271 368.047 295.874 369.5 295.193L370.073 294.904C371.646 294.794 375.285 294.571 374.838 291.896C373.807 290.719 372.19 293.46 370.497 293.347C367.441 290.552 368.519 289.753 367.574 288.815Z" /><path fill="#D09F81" fill-opacity="0.72156864" d="M370.497 293.347C372.19 293.46 373.807 290.719 374.838 291.896C375.285 294.571 371.646 294.794 370.073 294.904C370.31 294.216 370.366 294.062 370.497 293.347Z" /><path fill="#FEFEFE" fill-opacity="0.9254902" d="M335.292 261.421C336.129 260.573 336.973 260.948 338.162 261.078C338.208 261.675 338.254 262.273 338.3 262.87C336.823 262.965 335.915 262.96 334.435 262.92L335.292 261.421Z" /><path fill="#CEA083" d="M405.482 450.698C408.475 452.914 412.039 456.351 414.856 458.918C414.196 459.107 413.713 459.193 413.043 459.322C412.351 461.46 412.192 462.085 413.425 463.934C415.314 466.658 413.656 466.136 413.964 469.151C414.47 480.116 414.323 494.921 414.053 506.036C411.192 506.053 408.331 506.011 405.472 505.91C406.113 501.1 405.844 491.437 405.84 486.158C405.899 474.337 405.78 462.516 405.482 450.698Z" /><path fill="#D09F81" d="M341.784 505.72C352.469 498.05 363.548 483.075 374.507 475.958C375.61 475.247 376.962 475.033 378.231 475.369C382.029 476.337 382.932 480.352 378.882 481.26C378.711 481.298 378.634 482.058 378.625 482.744C378.609 483.875 377.413 485.109 376.722 485.914C370.593 491.65 363.813 498.16 357.349 503.43C357.891 501.211 357.786 500.891 355.534 501.035C354.178 500.802 351.766 500.024 352.538 502.368C354.35 503.689 354.627 503.217 355.909 505.015L355.556 505.831C352.879 505.962 344.453 506.031 341.784 505.72Z" /><path fill="#D19E7F" d="M414.856 458.918C417.735 461.184 426.491 468.649 428.861 471.182C426.958 478.759 423.277 473.471 419.683 470.807C421.115 466.995 419.723 467.546 418.362 463.962C418.077 463.21 417.948 463.174 417.31 462.858C415.171 460.662 415.617 460.741 413.043 459.322C413.713 459.193 414.196 459.107 414.856 458.918Z" /><path fill="#D19E7F" fill-opacity="0.81960785" d="M417.31 462.858C417.948 463.174 418.077 463.21 418.362 463.962C419.723 467.546 421.115 466.995 419.683 470.807C416.914 469.14 415.098 465.946 413.964 469.151C413.656 466.136 415.314 466.658 413.425 463.934L414.211 463.882C415.905 463.788 416.01 463.864 417.31 462.858Z" /><path fill="#CEA083" fill-opacity="0.43137255" d="M413.043 459.322C415.617 460.741 415.171 460.662 417.31 462.858C416.01 463.864 415.905 463.788 414.211 463.882L413.425 463.934C412.192 462.085 412.351 461.46 413.043 459.322Z" /><path fill="#CEA083" fill-opacity="0.9254902" d="M355.534 501.035C357.786 500.891 357.891 501.211 357.349 503.43L356.919 503.891C356.582 504.266 356.246 504.64 355.909 505.015C354.627 503.217 354.35 503.689 352.538 502.368C353.603 502.277 354.179 502.237 354.982 501.515L355.534 501.035Z" /><path fill="#D19E7F" fill-opacity="0.65098041" d="M352.538 502.368C351.766 500.024 354.178 500.802 355.534 501.035L354.982 501.515C354.179 502.237 353.603 502.277 352.538 502.368Z" /><path fill="#D09F81" fill-opacity="0.63921571" d="M469.24 276.508C471.682 275.355 470.658 278.523 470.457 279.952C467.706 280.832 468.883 278.596 469.24 276.508Z" /></svg>