<?xml version='1.0' encoding='utf-8'?>
<svg xmlns="http://www.w3.org/2000/svg" viewBox="43.1 689.7 226.8 238.0" width="512" height="512"><path fill="#F54915" d="M80.3472 783.297L80.3707 782.714C83.0141 726.43 145.32 699.73 187.744 737.018C191.611 740.417 194.762 745.112 198.192 749.006C214.098 755.602 227.741 772.602 230.105 789.747C230.304 791.192 230.495 792.64 230.709 794.078C233.09 798.284 234.131 800.843 235.275 805.586C252.092 809.124 259.846 820.421 258.863 837.55C258.535 843.267 259.322 849.493 257.847 855.174C255.818 864.476 244.666 874.692 234.653 872.289C231.951 871.621 227.493 870.124 225.514 868.131C223.397 862.29 225.103 849.093 224.41 841.987C220.615 844.275 203.532 852.15 202.389 844.688C200.242 830.663 207.094 762.281 193.53 756.881C193.125 753.816 188.182 746.724 186.026 744.86C150.564 705.72 86.7112 732.39 86.4876 783.474C86.4454 793.112 86.197 802.824 86.2686 812.473C86.2544 819.716 85.506 842.251 86.8059 847.313C84.5214 848.218 84.0943 848.128 81.5688 848.238C80.7385 848.25 81.0725 848.489 81.1191 849.245C81.8937 861.837 91.2209 873.644 103.993 875.633C104.534 875.718 105.078 875.875 105.604 876.012C107.301 876.087 109 876.123 110.699 876.122C121.396 876.282 132.096 876.286 142.793 876.132C144.283 872.708 147.217 868.043 151.154 866.917C158.218 864.896 165.244 867.015 167.456 874.707C170.663 885.857 158.556 896.229 148.604 889.26C145.524 887.104 144.754 885.594 142.746 882.332C133.144 882.37 121.429 882.089 112.035 882.508L106.318 882.472C85.8549 879.735 75.0832 867.597 75.3679 846.833C71.6372 845.73 68.7697 844.569 65.5705 842.323C59.8876 838.403 56.0306 832.352 54.876 825.546C54.2839 822.195 54.457 819.516 54.2564 816.271C53.0788 797.217 60.6342 785.957 80.3472 783.297ZM235.086 828.334C235.282 839.755 235.588 852.179 236.012 863.552C240.806 860.563 241.889 859.978 245.565 855.495C246.079 849.998 245.945 826.276 245.434 820.594C243.667 817.964 242.123 816.687 240.046 814.511C239.81 813.768 239.805 812.611 238.748 812.469C234.444 811.889 235.91 818.17 235.721 821.449C235.598 823.526 235.651 826.421 235.086 828.334ZM208.902 783.001C213.194 783.576 217.165 784.679 221.156 786.394C218.522 775.763 215.617 772.887 208.75 765.053C208.407 764.07 207.586 761.266 207.1 760.22C206.961 759.92 206.487 760.579 206.399 760.886C206.082 761.993 205.836 762.404 205.047 763.197L205.115 763.486C206.882 770.439 208.055 775.865 208.902 783.001ZM155.58 872.755C153.386 872.71 151.341 873.867 150.25 875.771C149.159 877.676 149.194 880.024 150.343 881.895C151.492 883.765 153.571 884.859 155.763 884.747C158.989 884.582 161.505 881.893 161.456 878.663C161.407 875.433 158.81 872.822 155.58 872.755ZM221.514 795.028C217.222 791.183 214.236 790.181 208.579 788.925L208.583 820.01C208.561 826.448 208.299 834.472 208.757 840.729C214.806 839.717 216.71 838.79 221.836 834.859C230.7 827.445 228.375 817.445 228.459 807.251C228.489 803.521 224.303 797.333 221.514 795.028ZM79.1897 789.587C60.4517 792.97 59.244 808.233 61.0565 824.063C61.5836 828.666 64.2789 832.791 67.6625 835.809C71.778 838.653 74.8692 840.458 79.8988 841.529C79.9946 836.207 80.6126 792.021 79.8464 789.725L79.1897 789.587ZM230.248 835.957C229.79 836.545 229.668 836.773 229.293 837.435C228.322 842.526 228.493 839.742 226.509 842.709C226.441 844.514 235.712 839.914 230.248 835.957Z" /><path fill="#D09F81" fill-opacity="0.88235295" d="M230.248 835.957C235.712 839.914 226.441 844.514 226.509 842.709C228.493 839.742 228.322 842.526 229.293 837.435C229.668 836.773 229.79 836.545 230.248 835.957Z" /><path fill="#CEA083" d="M235.275 805.586C252.092 809.124 259.846 820.421 258.863 837.55C258.535 843.267 259.322 849.493 257.847 855.174C255.818 864.476 244.666 874.692 234.653 872.289C231.951 871.621 227.493 870.124 225.514 868.131C223.397 862.29 225.103 849.093 224.41 841.987C224.898 841.266 228.421 838.218 229.293 837.435C228.322 842.526 228.493 839.742 226.509 842.709C226.441 844.514 235.712 839.914 230.248 835.957C231.279 834.795 234.126 829.921 235.086 828.334C235.282 839.755 235.588 852.179 236.012 863.552C240.806 860.563 241.889 859.978 245.565 855.495C246.079 849.998 245.945 826.276 245.434 820.594C243.667 817.964 242.123 816.687 240.046 814.511C239.81 813.768 239.805 812.611 238.748 812.469C234.444 811.889 235.91 818.17 235.721 821.449C235.688 816.158 235.539 810.87 235.275 805.586Z" /><path fill="#D09F81" d="M198.192 749.006C214.098 755.602 227.741 772.602 230.105 789.747C230.304 791.192 230.495 792.64 230.709 794.078C227.883 791.975 225.6 788.726 222.193 787.078C221.791 786.884 221.512 786.665 221.156 786.394C218.522 775.763 215.617 772.887 208.75 765.053C208.407 764.07 207.586 761.266 207.1 760.22C206.961 759.92 206.487 760.579 206.399 760.886C206.082 761.993 205.836 762.404 205.047 763.197C203.822 760.804 203.264 758.696 202.086 756.315C200.824 753.765 199.372 751.607 198.192 749.006Z" /><path fill="url(#gradient_2)" d="M221.514 795.028C224.303 797.333 228.489 803.521 228.459 807.251C228.375 817.445 230.7 827.445 221.836 834.859C222.033 830.649 221.483 826.195 221.393 821.75C221.217 812.955 221.708 803.701 221.514 795.028Z" /><path fill="#D09F81" d="M86.8059 847.313C91.4963 849.978 94.9273 854.658 100.504 855.966C101.745 856.257 103.03 856.276 104.116 855.527C106.291 854.027 105.659 809.473 106.391 803.888C108.728 786.073 117.681 770.36 132.076 759.507C146.964 748.282 165.165 742.883 183.74 745.572C184.423 747.297 185.566 752.054 184.948 753.672C184.555 753.969 183.544 754.112 183.064 754.249C172.906 753.528 165.759 753.914 156.017 757.147C133.493 764.624 115.805 786.625 114.215 810.391C112.987 828.739 115.169 848.341 113.382 866.541C111.66 868.943 110.988 869.743 110.346 872.624L109.617 873.249C107.772 872.329 107.463 872.015 105.557 871.947C105.483 870.353 105.681 867.156 104.023 866.634C99.2539 865.032 86.1003 859.891 86.7771 853.763C86.9976 851.767 85.2961 850.711 83.6922 850.767C83.0735 850.174 82.2392 848.978 81.5688 848.238C84.0943 848.128 84.5214 848.218 86.8059 847.313Z" /><path fill="#CEA083" d="M106.318 882.472L112.035 882.508C122.737 908.36 152.364 904.03 175.358 902.944C175.856 902.144 176.361 901.349 176.875 900.559C179.425 896.645 182.51 893.556 187.333 892.684C190.751 892.059 194.276 892.867 197.081 894.919C199.908 897.008 201.756 900.164 202.196 903.651C203.163 911.493 196.971 916.441 189.633 916.974C183.653 917.409 179.871 913.687 175.73 910.039C141.66 909.602 122.062 917.748 106.318 882.472Z" /><path fill="#D19E7F" fill-opacity="0.98823529" d="M109.617 873.249L110.346 872.624L110.699 876.122C109 876.123 107.301 876.087 105.604 876.012L105.388 874.751C107.183 874.355 108.076 874.202 109.617 873.249Z" /><path fill="#CEA083" fill-opacity="0.12156863" d="M105.557 871.947C107.463 872.015 107.772 872.329 109.617 873.249C108.076 874.202 107.183 874.355 105.388 874.751C105.417 873.704 105.435 872.996 105.557 871.947Z" /></svg>