<?xml version='1.0' encoding='utf-8'?>
<svg xmlns="http://www.w3.org/2000/svg" viewBox="555.5 102.5 177.5 238.4" width="512" height="512"><path fill="#F54915" d="M635.372 303.519C634.107 304.247 634.472 304.038 632.989 304.384C629.022 303.518 623.909 292.626 621.767 288.972C618.249 283.087 614.697 277.222 611.112 271.377L590.413 237.147C577.017 215.146 565.538 202.165 571.055 174.644C574.168 158.54 583.624 144.363 597.295 135.3C611.436 125.784 628.831 122.409 645.504 125.948C657.625 128.469 672.092 136.65 680.165 146.108C683.249 149.721 686.732 155.333 689.405 159.404C707.834 166.224 720.833 182.374 722.43 201.769C723.066 209.484 722.899 221.775 719.556 228.9C714.284 240.141 706.199 251.342 699.577 261.871C690.903 275.696 682.077 289.424 673.1 303.053C668.48 310.202 663.993 317.485 659.257 324.527C658.008 326.385 654.687 330.875 652.489 328.602C645.785 321.67 640.959 311.359 635.372 303.519ZM652.154 313.793C658.163 307.514 671.399 286.703 676.748 278.505L706.628 233.085C710.038 227.803 713.292 221.419 713.994 215.107C715.958 197.435 709.899 181.202 694.669 171.627C699.117 201.121 693.203 208.889 678.099 233.226L653.696 272.501C650.327 277.967 642.857 289.83 640.283 295.316C644.824 300.894 648.029 307.884 652.154 313.793ZM634.423 291.61C641.795 279.151 650.02 265.998 657.574 253.551L655.496 253.138C636.3 249.508 627.781 242.13 620.175 224.156L619.784 223.249C623.242 224.523 626.866 225.295 630.543 225.539C630.872 228.371 639.472 236.647 641.957 238.651C646.682 242.461 656.033 245.085 662.028 246.243C669.386 235.192 686.981 209.339 688.902 197.412C696.401 150.854 644.483 112.463 602.388 139.752C589.497 148.136 580.481 161.313 577.333 176.365C572.413 200.772 585.187 217.382 598.261 236.992C598.63 237.736 599.12 238.376 599.55 239.085C601.124 242.178 603.814 246.411 605.732 249.439C606.136 250.477 608.345 254.063 609.049 255.054L609.442 255.591L609.646 256.003C610.834 258.529 612.566 261.004 613.891 263.559L616.163 267.315C616.702 268.237 617.257 269.148 617.828 270.05C618.547 271.636 619.853 273.341 620.704 275.048L621.809 276.377C621.962 276.847 621.923 276.824 622.146 277.183C622.955 278.651 623.873 280.085 624.791 281.488C625.343 282.43 625.599 282.829 626.274 283.705C627.471 282.199 627.602 281.995 628.357 280.181C628.677 279.586 628.791 279.378 629.039 278.763C631.762 284.166 630.654 283.125 631.655 288.505C632.031 290.525 632.589 291.133 634.423 291.61Z" /><path fill="#CEA083" d="M689.405 159.404C707.834 166.224 720.833 182.374 722.43 201.769C723.066 209.484 722.899 221.775 719.556 228.9C714.284 240.141 706.199 251.342 699.577 261.871C690.903 275.696 682.077 289.424 673.1 303.053C668.48 310.202 663.993 317.485 659.257 324.527C658.008 326.385 654.687 330.875 652.489 328.602C645.785 321.67 640.959 311.359 635.372 303.519C636.46 301.153 638.859 297.503 640.283 295.316C644.824 300.894 648.029 307.884 652.154 313.793C658.163 307.514 671.399 286.703 676.748 278.505L706.628 233.085C710.038 227.803 713.292 221.419 713.994 215.107C715.958 197.435 709.899 181.202 694.669 171.627C693.135 167.02 691.505 163.745 689.405 159.404Z" /><path fill="#CEA083" fill-opacity="0.27058825" d="M672.634 158.262C675.1 159.838 672.881 159.707 674.076 162.752C674.726 164.407 674.837 164.11 674.612 165.644C670.506 164.198 670.325 161.737 672.634 158.262Z" /><path fill="#F54915" d="M619.784 223.249C600.839 216.266 590.508 195.833 596.116 176.437C601.724 157.041 621.364 145.273 641.112 149.477C660.861 153.681 674.005 172.428 671.226 192.427C668.447 212.425 650.689 226.879 630.543 225.539C626.866 225.295 623.242 224.523 619.784 223.249ZM627.964 218.663C640.604 220.724 653.256 215.05 660.124 204.241C666.993 193.431 666.755 179.568 659.521 169C657.29 165.742 654.476 162.924 651.22 160.69C651.027 160.558 650.833 160.428 650.637 160.299C640.955 153.964 628.608 153.348 618.344 158.687C608.08 164.027 601.497 174.491 601.127 186.055C600.757 197.619 606.658 208.482 616.56 214.467C616.096 189.118 625.822 175.741 646.285 162.861C648.06 163.655 651.399 163.928 651.773 164.638C653.104 167.162 651.562 166.605 655.347 167.63C656.062 169.23 655.451 169.494 654.935 171.208C645.888 175.152 636.335 184.687 631.623 193.274C627.937 199.992 626.726 211.213 627.964 218.663ZM623.184 216.925C623.848 215.759 624.305 214.601 623.863 213.211C623.721 212.766 623.406 212.396 622.989 212.185C622.363 211.864 620.109 211.598 619.292 211.445C616.936 213.938 621.085 215.824 623.184 216.925Z" /><path fill="#D09F81" d="M646.285 162.861C648.06 163.655 651.399 163.928 651.773 164.638C653.104 167.162 651.562 166.605 655.347 167.63C656.062 169.23 655.451 169.494 654.935 171.208C645.888 175.152 636.335 184.687 631.623 193.274C627.937 199.992 626.726 211.213 627.964 218.663C623.93 218.006 620.059 216.581 616.56 214.467C616.096 189.118 625.822 175.741 646.285 162.861ZM623.184 216.925C623.848 215.759 624.305 214.601 623.863 213.211C623.721 212.766 623.406 212.396 622.989 212.185C622.363 211.864 620.109 211.598 619.292 211.445C616.936 213.938 621.085 215.824 623.184 216.925Z" /><path fill="#D19E7F" fill-opacity="0.65882355" d="M651.22 160.69C654.476 162.924 657.29 165.742 659.521 169C657.531 169.656 656.821 170.174 654.935 171.208C655.451 169.494 656.062 169.23 655.347 167.63C656.326 166.016 652.21 163.803 651.502 161.549L651.22 160.69Z" /><path fill="#D19E7F" fill-opacity="0.05882353" d="M650.637 160.299C650.833 160.428 651.027 160.558 651.22 160.69L651.502 161.549C652.21 163.803 656.326 166.016 655.347 167.63C651.562 166.605 653.104 167.162 651.773 164.638C651.399 163.928 648.06 163.655 646.285 162.861C649.164 160.64 649.572 162.88 650.637 160.299Z" /><path fill="#D09F81" d="M619.784 223.249C623.242 224.523 626.866 225.295 630.543 225.539C630.872 228.371 639.472 236.647 641.957 238.651C646.682 242.461 656.033 245.085 662.028 246.243C661.053 248.154 658.805 251.696 657.574 253.551L655.496 253.138C636.3 249.508 627.781 242.13 620.175 224.156L619.784 223.249Z" /><path fill="#D09F81" fill-opacity="0.94901961" d="M600.527 227.524C600.815 227.192 600.911 226.974 601.243 226.81C604.033 228.977 609.227 239.464 610.887 243.101C606.663 248.046 610.238 238.986 604.624 240.541C604.549 239.22 604.494 238.623 604.235 237.31C603.888 236.576 602.978 234.285 602.478 233.798L602.318 233.801C602.484 233.707 599.022 238.52 600.687 232.312C601.135 230.64 601.907 229.999 600.908 228.227L600.527 227.524Z" /><path fill="#D09F81" fill-opacity="0.87450981" d="M604.624 240.541C610.238 238.986 606.663 248.046 610.887 243.101C612.303 245.572 613.966 249.27 615.189 251.89C613.534 252.784 614.175 252.47 612.754 252.772C611.868 251.119 611.667 249.52 609.809 249.265C607.786 250.487 608.817 253.081 609.049 255.054C608.345 254.063 606.136 250.477 605.732 249.439C609.591 249.986 608.116 243.449 606.714 242.085C605.722 241.121 604.867 243.137 604.624 240.541Z" /><path fill="#D09F81" fill-opacity="0.027450981" d="M600.527 227.524L600.908 228.227C601.907 229.999 601.135 230.64 600.687 232.312C599.022 238.52 602.484 233.707 602.318 233.801L602.478 233.798C602.978 234.285 603.888 236.576 604.235 237.31C603.586 242.543 603.569 242.284 599.55 239.085C599.12 238.376 598.63 237.736 598.261 236.992C598.256 235.896 598.299 228.122 599.792 228.096C600.019 228.329 600.117 228.526 600.259 228.774L600.405 228.51L600.287 228.573L600.157 228.067L600.557 227.982C600.547 227.83 600.537 227.677 600.527 227.524Z" /><path fill="#D09F81" fill-opacity="0.7647059" d="M604.235 237.31C604.494 238.623 604.549 239.22 604.624 240.541C604.867 243.137 605.722 241.121 606.714 242.085C608.116 243.449 609.591 249.986 605.732 249.439C603.814 246.411 601.124 242.178 599.55 239.085C603.569 242.284 603.586 242.543 604.235 237.31Z" /><path fill="#CEA083" fill-opacity="0.74117649" d="M609.442 255.591C609.456 254.916 609.172 251.055 610.718 251.636C612.376 252.259 613.453 257.358 609.646 256.003L609.442 255.591Z" /></svg>