<?xml version='1.0' encoding='utf-8'?>
<svg xmlns="http://www.w3.org/2000/svg" viewBox="246.0 751.6 250.9 228.0" width="512" height="512"><path fill="#F74C1B" d="M282.767 778.506C284.528 775.417 286.332 775.986 288.224 778.53C288.587 782.845 288.988 782.343 289.679 786.017C293.566 788.567 293.442 789.813 298.145 786.441L300.108 786.47C301.74 790.874 300.563 790.009 305.592 790.269C311.378 790.363 319.32 789.984 324.709 790.309C325.664 794.821 330.196 818.137 331.409 820.318C356.491 819.653 383.119 820.912 408.328 820.353C418.481 820.128 433.331 820.985 443.035 819.721C443.68 819.568 445.152 819.277 445.735 819.362C457.082 821.006 468.732 819.689 480.042 820.383C482.117 820.495 484.177 820.799 486.196 821.291C486.894 825.677 466.253 894.668 463.311 902.671C454.662 902.658 445.101 902.451 436.549 903.056C429.016 902.678 350.911 902.902 349.246 903.567C349.187 905.308 349.124 904.448 350.219 906.333C361.534 924.638 370.447 920.423 389.52 919.523C395.549 919.238 403.633 920.957 409.902 919.898C413.872 919.227 412.958 916.893 417.176 920.194C424.765 920.699 466.57 919.456 469.914 921.105C470.824 922.613 470.764 921.878 470.415 923.342C469.318 924.078 468.199 924.465 466.859 924.475C450.192 924.599 433.447 924.303 416.782 924.56C411.017 924.7 405.581 924.23 399.982 924.568C398.333 924.543 396.768 924.593 395.121 924.641L394.869 924.947C391.017 925.658 391.276 925.807 387.082 926.201C386.591 925.318 386.549 925.221 385.907 924.479C372.504 925.328 363.387 926.115 353.229 917.573L351.822 917.956C350.503 917.389 349.73 917.045 348.469 916.306C347.571 915.17 347.086 913.505 346.26 912.913C344.853 909.674 343.091 906.516 343.967 903.016L344.191 902.035C343.197 896.953 342.098 891.983 340.96 886.876C335.856 863.974 331.901 840.744 326.354 817.953C325.64 815.019 323.871 811.889 323.093 808.913C323.374 808.435 323.655 807.956 323.935 807.478C323.647 803.65 322.312 798.337 321.836 794.517C315.661 794.196 308.257 794.38 301.975 794.401C299.778 794.251 297.441 794.39 295.228 794.459C292.936 794.539 289.73 794.313 287.372 794.218C285.7 789.387 284.444 783.651 282.767 778.506ZM430.683 884.716C410.879 884.244 391.069 884.05 371.259 884.135C366.002 884.121 351.916 885.99 349.049 881.023C349.777 879.604 351.866 878.409 353.253 877.436C377.571 876.624 402.873 877.886 426.626 876.905C429.23 867.193 432.481 857.169 435.125 847.373C436.377 842.73 440.031 829.158 441.685 825.602C442.405 826.367 442.075 825.984 442.111 827.001C442.182 829.012 443.624 826.639 444.887 827.356C446.165 828.081 445.895 828.368 446.425 829.585L430.683 884.716ZM332.083 824.914C337.968 847.815 341.57 875.621 347.718 898.703C358.344 898.955 370.938 898.557 381.746 898.546L457.178 898.445L461.78 894.546C464.227 887.966 467.237 876.431 469.317 869.311C473.766 854.432 478.085 839.514 482.273 824.559C472.459 824.069 457.686 824.328 447.766 824.601L446.653 824.272C444.752 824.429 443.243 824.462 441.346 824.534C430.876 824.479 335.788 823.542 332.083 824.914Z" /><path fill="#D6B8AB" d="M441.685 825.602C442.405 826.367 442.075 825.984 442.111 827.001C442.182 829.012 443.624 826.639 444.887 827.356C446.165 828.081 445.895 828.368 446.425 829.585L430.683 884.716C410.879 884.244 391.069 884.05 371.259 884.135C366.002 884.121 351.916 885.99 349.049 881.023C349.777 879.604 351.866 878.409 353.253 877.436C377.571 876.624 402.873 877.886 426.626 876.905C429.23 867.193 432.481 857.169 435.125 847.373C436.377 842.73 440.031 829.158 441.685 825.602Z" /><path fill="#DAB6A7" fill-opacity="0.95294118" d="M446.653 824.272L447.766 824.601C447.242 826.132 446.652 827.985 446.425 829.585C445.895 828.368 446.165 828.081 444.887 827.356C443.624 826.639 442.182 829.012 442.111 827.001C442.075 825.984 442.405 826.367 441.685 825.602L441.346 824.534C443.243 824.462 444.752 824.429 446.653 824.272Z" /><path fill="#F75322" d="M331.409 820.318C356.491 819.653 383.119 820.912 408.328 820.353C418.481 820.128 433.331 820.985 443.035 819.721C442.361 821.683 441.946 821.804 442.346 823.472C444.2 824.38 444.861 823.958 446.653 824.272C444.752 824.429 443.243 824.462 441.346 824.534C430.876 824.479 335.788 823.542 332.083 824.914C331.614 823.52 331.551 821.809 331.409 820.318Z" /><path fill="#D8BAAE" d="M344.191 902.035C345.87 909.136 348.575 912.472 353.229 917.573L351.822 917.956C350.503 917.389 349.73 917.045 348.469 916.306C347.571 915.17 347.086 913.505 346.26 912.913C344.853 909.674 343.091 906.516 343.967 903.016L344.191 902.035Z" /><path fill="#D8BAAE" d="M289.679 786.017C293.566 788.567 293.442 789.813 298.145 786.441L300.108 786.47C301.74 790.874 300.563 790.009 305.592 790.269C302.487 790.315 294.275 790.734 290.979 790.228C290.339 790.13 289.811 786.799 289.679 786.017Z" /><path fill="#D6B8AB" d="M385.907 924.479C388.731 924.312 392.331 924.323 395.121 924.641L394.869 924.947C391.017 925.658 391.276 925.807 387.082 926.201C386.591 925.318 386.549 925.221 385.907 924.479Z" /><path fill="#D8BAAE" d="M295.228 794.459C297.441 794.39 299.778 794.251 301.975 794.401C303.003 798.112 304.753 803.756 305.444 807.391C309.462 807.371 316.506 806.41 319.211 808.314C319.977 810.603 319.148 811.554 318.022 813.616L306.863 813.634C307.621 821.27 310.513 832.854 312.231 840.733L319.87 876.908C323.825 876.874 332.248 877.82 334.239 881.845C333.136 885.116 324.805 884.18 321.707 884.137C326.039 897.181 331.626 895.483 337.698 902.419C338.541 905.817 338.72 906.785 340.351 909.92C338.883 910.958 338.349 911.297 337.146 912.55C332.168 913.681 330.125 915.323 328.795 920.429C328.644 920.991 328.486 921.552 328.321 922.11C332.597 937.676 346.619 929.468 345.543 919.268C346.643 918.358 346.566 918.087 348.001 918.421C349.518 919.634 350.632 920.124 352.38 920.968C352.802 939.321 331.233 943.01 322.953 928.759C317.396 919.195 323.718 911.006 332.462 906.146C314.364 895.856 315.386 885.024 311.246 866.422L301.405 822.816C299.583 814.406 297.643 803.168 295.408 795.094L295.228 794.459Z" /><path fill="#F74C1B" d="M430.998 928.935C435.053 925.593 439.117 924.848 442.133 929.99C442.313 930.116 442.494 930.243 442.674 930.369C462.019 940.123 448.55 969.578 428.545 959.866C418.253 954.869 417.152 938.737 426.739 932.244C427.989 931.398 430.412 930.278 430.998 928.935ZM439.214 956.867C445.57 955.195 449.372 948.693 447.712 942.334C446.051 935.975 439.556 932.162 433.194 933.811C426.816 935.464 422.991 941.98 424.656 948.354C426.32 954.729 432.842 958.543 439.214 956.867Z" /><path fill="#FEFEFE" d="M430.998 928.935C435.053 925.593 439.117 924.848 442.133 929.99C438.856 929.252 432.468 929.666 430.998 928.935Z" /><path fill="#F74C1B" d="M362.697 927.588C364.244 927.471 369.069 926.529 368.883 929.181C369.333 929.955 370.643 930.299 371.488 930.761C379.785 935.293 382.567 945.575 378.117 953.802C375.674 958.32 371.377 960.471 366.44 961.749C359.398 961.724 353.312 959.994 350.079 953.212C344.197 940.872 352.819 932.461 362.697 927.588ZM365.776 957.325C372.37 956.48 377.023 950.439 376.156 943.848C375.289 937.257 369.231 932.625 362.643 933.515C356.087 934.4 351.482 940.422 352.345 946.981C353.208 953.54 359.214 958.166 365.776 957.325Z" /><path fill="#D6B8AB" d="M335.074 807.254C356.099 806.317 382.961 807.044 404.398 807.071L436.554 807.265C439.819 807.278 449.648 806.484 451.709 808.107C452.167 809.946 451.298 811.842 450.091 813.205C439.255 813.039 428.744 813.498 417.925 813.52L338.539 813.636C337.389 812.436 335.412 810.222 334.179 809.293C334.515 808.233 334.519 808.245 335.074 807.254Z" /><path fill="#D6B8AB" d="M259.82 777.997L259.18 775.969C258.828 774.821 256.018 764.125 256.676 763.727C260.16 761.62 262.477 762.267 262.523 766.498C262.618 775.19 274.195 770.933 279.75 772.043C284.637 773.02 291.666 771.484 296.558 772.37C297.83 772.788 299.452 782.165 299.788 784.003L298.476 784.836C294.97 782.484 297.192 780.913 293.786 778.724C288.698 775.453 290.783 775.545 288.224 778.53C286.332 775.986 284.528 775.417 282.767 778.506C277.091 778.527 265.27 778.273 259.82 777.997Z" /><path fill="#D8BAAE" fill-opacity="0.52549022" d="M399.982 924.568C405.581 924.23 411.017 924.7 416.782 924.56C415.098 935.245 409.633 936.731 399.999 937.965C403.611 935.284 398.348 932.587 396.485 931.518C395.488 930.945 395.685 929.119 395.645 927.998C396.375 928.68 397.24 929.385 397.673 930.316C397.843 930.682 398.036 931.339 398.375 931.637C399.271 932.425 400.821 932.804 401.996 932.621C403.518 932.386 406.197 931.534 407.107 930.185C407.253 929.969 407.384 929.743 407.539 929.535C407.992 928.927 408.488 928.38 408.778 927.67C408.993 927.145 409.417 925.815 409.055 925.291C408.624 924.666 401.205 924.77 399.982 924.568Z" /><path fill="#DAB6A7" fill-opacity="0.98823529" d="M350.219 906.333C349.124 904.448 349.187 905.308 349.246 903.567C350.911 902.902 429.016 902.678 436.549 903.056C431.026 906.163 414.591 903.131 406.843 904.428C406.513 904.376 401.808 904.898 401.434 904.953C389.409 902.4 371.586 904.653 359.258 905.277C356.374 905.423 354.928 902.472 351.286 904.487L350.219 906.333Z" /><path fill="#D6B8AB" fill-opacity="0.86274511" d="M401.434 904.953C401.808 904.898 406.513 904.376 406.843 904.428C407.667 906.843 407.637 906.724 409.978 907.762C404.396 908.701 405.847 907.484 404.584 911.562C396.489 911.827 398.527 915.076 393.294 916.195C393.895 915.299 397.467 910.186 395.555 909.773C394.972 909.647 392.07 911.561 391.138 911.975C392.685 909.992 393.232 909.594 395.288 907.944C398.986 907.688 400.656 908.993 401.434 904.953Z" /><path fill="#D8BAAE" fill-opacity="0.7764706" d="M387.082 926.201C391.276 925.807 391.017 925.658 394.869 924.947C395.095 925.975 395.437 926.968 395.645 927.998C395.685 929.119 395.488 930.945 396.485 931.518C398.348 932.587 403.611 935.284 399.999 937.965C395.84 936.587 397.751 935.377 393.885 934.257C388.133 932.59 392.268 929.712 387.082 926.201Z" /><path fill="#D6B8AB" fill-opacity="0.98431373" d="M404.584 911.562C405.847 907.484 404.396 908.701 409.978 907.762C412.231 909.193 414.944 912.277 415.378 914.862C415.731 916.963 411.982 915.236 411.179 914.171C409.768 912.299 406.588 912.227 404.584 911.562Z" /><path fill="#D8BAAE" fill-opacity="0.89411765" d="M340.351 909.92L340.797 910.303C341.991 911.386 344.566 912.961 346.26 912.913C347.086 913.505 347.571 915.17 348.469 916.306C348.216 917.204 348.161 917.489 348.001 918.421C346.566 918.087 346.643 918.358 345.543 919.268C342.927 916.932 342.879 914.029 338.069 912.807L337.146 912.55C338.349 911.297 338.883 910.958 340.351 909.92Z" /><path fill="#D8BAAE" fill-opacity="0.95686275" d="M391.138 911.975C392.07 911.561 394.972 909.647 395.555 909.773C397.467 910.186 393.895 915.299 393.294 916.195C390.438 915.371 388.139 915.162 391.138 911.975Z" /><path fill="#D6B8AB" fill-opacity="0.11372549" d="M334.179 809.293C333.817 809.433 331.762 809.994 331.761 809.994C330.032 810.803 329.271 809.507 330.445 808.204C331.115 807.459 334.042 807.3 335.074 807.254C334.519 808.245 334.515 808.233 334.179 809.293Z" /><path fill="#D6B8AB" fill-opacity="0.29019609" d="M348.469 916.306C349.73 917.045 350.503 917.389 351.822 917.956C351.99 918.963 352.176 919.967 352.38 920.968C350.632 920.124 349.518 919.634 348.001 918.421C348.161 917.489 348.216 917.204 348.469 916.306Z" /><path fill="#DAB6A7" fill-opacity="0.86666667" d="M299.788 784.003C299.89 784.826 299.996 785.649 300.108 786.47L298.145 786.441L298.476 784.836L299.788 784.003Z" /></svg>