<?xml version='1.0' encoding='utf-8'?>
<svg xmlns="http://www.w3.org/2000/svg" viewBox="23.6 62.9 244.6 185.2" width="512" height="512"><path fill="#F74C1B" d="M33.5601 73.5556C41.3007 73.091 53.5262 73.445 61.5567 73.4451L118.936 73.5241C131.317 73.5226 143.698 73.4527 156.078 73.3144C162.767 73.2513 173.292 72.8835 179.697 73.5312L179.699 84.4273C192.768 84.1535 211.527 83.942 224.472 84.5069C224.515 95.5548 224.99 110.402 224.404 121.212C216.446 122.66 209.68 125.512 209.508 135.074C211.138 138.362 217.605 136.198 221.493 136.116C233.634 135.858 246.01 137.78 258.007 137.695C258.014 149.772 258.178 162.207 258.018 174.252C249.268 176.18 240.881 179.87 243.308 191.334C244.776 198.265 251.604 200.85 258.045 201.904C258.027 213.677 258.14 225.703 257.983 237.454L148.658 237.477C127.696 237.491 103.833 238.05 83.0388 237.459C82.6785 229.013 82.5432 223.567 83.131 215.052C82.5053 215.011 81.8799 214.966 81.2548 214.917C76.6775 214.528 68.849 214.896 63.9458 214.995C63.9355 207.905 63.8706 200.403 64.0462 193.349C71.0653 191.422 72.1665 190.092 75.5217 183.507C70.2799 183.458 64.9571 183.565 59.7402 183.402C56.9339 183.58 52.347 183.443 49.4039 183.451C48.8723 174.58 48.8534 167.774 49.2736 158.909C46.9604 158.17 36.8361 158.689 33.7295 158.724C33.7635 152.066 33.7361 145.407 33.6476 138.75C38.561 137.474 43.7869 136.024 45.4171 130.649C48.5452 120.335 42.0279 115.056 33.878 111.849L33.5601 73.5556ZM33.878 111.849C42.0279 115.056 48.5452 120.335 45.4171 130.649C43.7869 136.024 38.561 137.474 33.6476 138.75C33.7361 145.407 33.7635 152.066 33.7295 158.724C36.8361 158.689 46.9604 158.17 49.2736 158.909C49.6218 157.135 49.4878 152.858 49.4904 150.848C53.4314 151.017 56.4691 150.733 59.9227 149.65C64.6337 148.171 62.7485 142.252 64.3971 138.495C64.7079 137.787 66.0901 138.337 66.4203 136.578C66.8808 134.124 66.8061 131.691 65.4997 129.591C62.3143 124.469 56.194 123.454 50.914 122.165C50.9116 111.148 51.3748 96.0445 50.6659 85.3361C59.9897 83.8743 82.3781 84.536 92.8613 84.539C121.807 84.7891 150.754 84.7519 179.699 84.4273L179.697 73.5312C173.292 72.8835 162.767 73.2513 156.078 73.3144C143.698 73.4527 131.317 73.5226 118.936 73.5241L61.5567 73.4451C53.5262 73.445 41.3007 73.091 33.5601 73.5556L33.878 111.849ZM160.732 102.406C161.117 102.502 161.738 102.523 162.127 102.551L163.053 102.781C163.197 102.814 164.34 103.053 164.349 103.312C164.732 114.559 164.28 125.866 164.566 137.136C166.42 136.44 167.353 135.877 169.396 135.522C170.91 130.31 168.789 105.075 170.471 102.934C171.507 102.937 172.714 102.839 173.729 103.011C173.859 103.033 174.792 103.296 174.874 103.43C177.149 107.13 173.769 132.163 175.884 135.262C176.848 136.675 179.007 136.909 180.566 137.076C181.535 133.177 181.057 108.313 181.069 102.595L187.607 102.694C188.254 113.184 187.711 125.644 187.93 136.433C192.261 136.422 199.569 136.815 203.463 135.33C207.218 133.897 206.152 129.387 207.729 126.328C210.385 121.173 215.502 119.262 220.48 117.442C220.396 107.849 220.508 98.1299 220.539 88.5264C200.235 88.0776 177.822 88.5259 157.39 88.5177L54.6477 88.5689C54.6059 97.4929 54.1525 109.868 54.7943 118.501C65.5615 120.976 68.8063 123.219 71.297 134.015C71.3371 134.289 71.5394 136.877 71.6926 136.907C75.3091 137.634 80.7627 137.43 84.4552 137.312L84.4832 103.09L91.4144 103.033C92.0926 109.457 91.3406 114.402 91.6209 120.77C91.5816 125.477 91.3958 130.452 91.7543 135.149C91.9066 137.144 93.6233 135.273 94.7607 135.676C94.692 135.864 96.3081 135.842 96.3331 135.514C96.7791 129.663 96.6128 117.38 96.4894 112.01C96.506 108.872 96.3223 106.302 96.4166 102.969C98.5748 103.086 100.093 103.121 102.222 103.547C103.928 108.898 99.3721 130.713 103.729 134.689C105.258 134.526 104.612 134.818 105.745 133.81C106.482 128.512 106.058 115.956 105.975 110.158C104.184 108.164 102.999 107.483 103.649 104.801C105.94 102.624 108.579 102.961 111.664 102.912L111.71 122.98C111.704 125.907 111.511 132.65 111.842 135.224C114.943 134.715 115.468 135.354 115.57 132.154C115.401 123.523 115.276 111.881 115.628 103.428C117.528 102.901 119.476 103.123 121.462 103.194C121.389 107.422 120.415 134.075 122.144 136.214C123.793 136.204 123.033 136.441 124.425 135.271C127.502 128.581 123.126 104.911 126.301 103.061C127.857 103.066 129.181 102.916 130.62 103.344C131.676 110.338 129.206 131.413 131.242 137.223C132.822 137.939 132.022 137.841 133.727 137.526C134.958 136.535 135.538 135.344 135.552 133.771C135.646 123.687 135.049 113.113 135.171 103.05L141.405 103.046C141.507 108.047 140.644 133.001 141.904 135.539L144.982 134.802C145.736 133.244 146.177 124.912 144.72 123.935C143.603 120.706 143.626 109.277 143.576 105.24C143.56 103.993 144.189 103.149 145.107 102.381L149.637 102.887C149.979 106.433 149.786 106.847 149.928 110.057C149.841 119.602 149.381 127.821 149.733 137.558C151.559 137.496 153.387 137.486 155.214 137.529C155.622 127.643 155.534 117.743 154.95 107.866C155.107 106.178 155.027 104.792 154.973 103.096C155.992 102.581 159.466 102.485 160.732 102.406ZM59.7402 183.402C64.9571 183.565 70.2799 183.458 75.5217 183.507C72.1665 190.092 71.0653 191.422 64.0462 193.349C63.8706 200.403 63.9355 207.905 63.9458 214.995C68.849 214.896 76.6775 214.528 81.2548 214.917C81.8799 214.966 82.5053 215.011 83.131 215.052C83.4704 211.515 83.3722 207.644 83.3059 204.083C97.5393 203.337 106.132 197.382 100.957 182.284C90.3508 181.988 79.9494 182.9 69.3859 183.07C66.1199 183.123 62.9883 182.97 59.7402 183.402ZM53.1755 155.258C53.4293 163.129 53.3185 170.89 53.6148 178.639C55.6912 178.246 74.6415 179.107 74.9713 178.231C76.0225 175.437 72.9179 169.799 70.5037 168.024C68.5088 166.558 66.7822 165.963 64.3733 164.938C64.0277 160.371 64.1823 156.31 63.8942 151.932C60.5741 153.722 56.8559 154.415 53.1755 155.258ZM81.3088 173.705C83.0229 174.595 84.128 175.207 84.5043 172.992L83.7857 172.716C82.311 172.114 81.9597 172.224 81.3088 173.705ZM249.592 232.516L254.087 231.239C254.058 222.781 254.207 213.574 253.923 205.177C248.689 204.09 244.363 201.729 241.273 197.21C238.765 193.577 237.908 189.053 238.915 184.755C240.868 176.217 246.687 173.443 253.891 170.349C254.18 162.201 254.417 150.111 254.097 141.981C239.612 141.217 221.441 141.713 206.719 141.713L129.967 141.532C116.62 141.521 101.846 141.877 88.6272 141.562C88.618 149.556 88.2037 163.496 89.0098 171.008C100.405 172.688 108.396 180.374 106.257 192.504C105.394 197.352 102.595 201.639 98.5042 204.378C94.7232 206.912 91.5357 207.392 87.1815 208.088C87.4234 214.089 87.1511 226.733 87.894 231.57C89.9426 232.98 129.37 232.144 135.749 232.13L229.98 232.317C235.479 232.364 244.46 231.929 249.592 232.516Z" /><path fill="#A97E66" d="M33.5601 73.5556C41.3007 73.091 53.5262 73.445 61.5567 73.4451L118.936 73.5241C131.317 73.5226 143.698 73.4527 156.078 73.3144C162.767 73.2513 173.292 72.8835 179.697 73.5312L179.699 84.4273C150.754 84.7519 121.807 84.7891 92.8613 84.539C82.3781 84.536 59.9897 83.8743 50.6659 85.3361C51.3748 96.0445 50.9116 111.148 50.914 122.165C56.194 123.454 62.3143 124.469 65.4997 129.591C66.8061 131.691 66.8808 134.124 66.4203 136.578C66.0901 138.337 64.7079 137.787 64.3971 138.495C62.7485 142.252 64.6337 148.171 59.9227 149.65C56.4691 150.733 53.4314 151.017 49.4904 150.848C49.4878 152.858 49.6218 157.135 49.2736 158.909C46.9604 158.17 36.8361 158.689 33.7295 158.724C33.7635 152.066 33.7361 145.407 33.6476 138.75C38.561 137.474 43.7869 136.024 45.4171 130.649C48.5452 120.335 42.0279 115.056 33.878 111.849L33.5601 73.5556ZM59.6736 145.267C59.3406 143.607 57.7228 144.462 56.3237 144.74C56.6602 146.386 58.2664 145.539 59.6736 145.267ZM173.806 80.8673C173.229 79.9794 172.478 80.4363 171.596 80.7603C172.268 81.9486 172.825 81.5703 173.806 80.8673ZM61.5147 131.068C61.6319 130.799 61.6886 130.743 61.6701 130.598C61.4892 130.558 61.6112 130.563 61.2636 130.642C61.0118 130.893 61.0714 130.789 61.0111 130.96C61.179 130.996 61.3468 131.032 61.5147 131.068Z" /><path fill="#A97E66" fill-opacity="0.59215689" d="M56.3237 144.74C57.7228 144.462 59.3406 143.607 59.6736 145.267C58.2664 145.539 56.6602 146.386 56.3237 144.74Z" /><path fill="#A57B61" fill-opacity="0.94901961" d="M171.596 80.7603C172.478 80.4363 173.229 79.9794 173.806 80.8673C172.825 81.5703 172.268 81.9486 171.596 80.7603Z" /><path fill="#A97E66" fill-opacity="0.90196079" d="M61.2636 130.642C61.6112 130.563 61.4892 130.558 61.6701 130.598C61.6886 130.743 61.6319 130.799 61.5147 131.068C61.3468 131.032 61.179 130.996 61.0111 130.96C61.0714 130.789 61.0118 130.893 61.2636 130.642Z" /><path fill="#A97E66" d="M59.7402 183.402C62.9883 182.97 66.1199 183.123 69.3859 183.07C79.9494 182.9 90.3508 181.988 100.957 182.284C106.132 197.382 97.5393 203.337 83.3059 204.083C83.3722 207.644 83.4704 211.515 83.131 215.052C82.5053 215.011 81.8799 214.966 81.2548 214.917C76.6775 214.528 68.849 214.896 63.9458 214.995C63.9355 207.905 63.8706 200.403 64.0462 193.349C71.0653 191.422 72.1665 190.092 75.5217 183.507C70.2799 183.458 64.9571 183.565 59.7402 183.402ZM94.6362 197.165C94.8152 196.861 94.9129 196.831 94.8668 196.577C94.5357 196.35 93.9317 196.717 93.6387 196.821C93.4237 197.1 93.0355 197.257 93.2367 197.583C93.7913 197.629 94.1042 197.403 94.6362 197.165ZM97.4896 186.139C97.6005 185.841 97.6535 185.789 97.6248 185.631C97.483 185.643 97.3412 185.656 97.1994 185.668C96.9075 186.017 96.9785 185.894 96.8993 186.076L96.9164 186.121C97.0544 186.18 97.3488 186.142 97.4896 186.139Z" /><path fill="#A97E66" fill-opacity="0.85882354" d="M93.6387 196.821C93.9317 196.717 94.5357 196.35 94.8668 196.577C94.9129 196.831 94.8152 196.861 94.6362 197.165C94.1042 197.403 93.7913 197.629 93.2367 197.583C93.0355 197.257 93.4237 197.1 93.6387 196.821Z" /><path fill="#A97E66" fill-opacity="0.92941177" d="M97.1994 185.668C97.3412 185.656 97.483 185.643 97.6248 185.631C97.6535 185.789 97.6005 185.841 97.4896 186.139C97.3488 186.142 97.0544 186.18 96.9164 186.121L96.8993 186.076C96.9785 185.894 96.9075 186.017 97.1994 185.668Z" /><path fill="#F74C1B" d="M210.984 157.346L218.29 157.434L218.169 217.958C216.588 218.184 212.721 218.095 210.951 218.104C210.666 198.103 210.955 177.395 210.984 157.346Z" /><path fill="#F74C1B" d="M121.436 157.485L128.921 157.466C127.984 175.941 128.46 199.182 128.828 217.846C127.406 218.333 123.244 218.156 121.522 218.152L121.436 157.485Z" /><path fill="#F74C1B" d="M183.702 157.328C186.112 157.279 187.722 157.393 190.131 157.6C190.031 163.796 189.872 171.481 190.121 177.605C190.062 185.983 189.872 195.112 190.058 203.429C189.917 207.394 189.933 212.674 190.062 216.66L190.093 217.779C188.438 218.25 185.621 218.125 183.803 218.132C183.413 211.73 183.745 202.62 183.761 196.001L183.702 157.328Z" /><path fill="#F74C1B" d="M163.14 157.484L169.457 157.527L169.374 218.056L163.399 218.033C162.832 208.596 163.179 198.783 163.234 189.297L163.14 157.484Z" /><path fill="#F74C1B" d="M153.423 157.388L159.1 157.324C158.82 175.966 160.245 200.308 158.922 218.18C156.984 218.262 154.957 218.571 153.48 217.42C150.653 209.565 153.294 201.286 153.402 193.246C153.563 181.295 153.459 169.34 153.423 157.388Z" /><path fill="#F74C1B" d="M143.745 157.418L149.487 157.5C149.334 177.248 149.939 198.468 149.366 217.992C147.643 218.026 145.473 218.27 144.006 217.561C142.692 212.232 143.784 193.064 143.788 185.796C143.794 176.908 143.572 166.169 143.745 157.418Z" /><path fill="#F74C1B" d="M199.098 157.446C200.91 157.402 203.075 157.126 204.602 157.918C205.118 162.182 204.903 173.156 204.922 178.031L204.955 218.142L199.297 218.071L199.098 157.446Z" /><path fill="#F74C1B" d="M139.49 157.247L140.255 157.81C140.021 169.949 139.958 182.091 140.065 194.232C140.142 201.356 140.689 210.943 139.798 217.801L137.955 218.616C135.791 218.138 134.174 218.163 134.29 215.134C134.882 199.619 134.367 184.03 134.456 168.501C134.477 164.922 134.294 161.316 134.662 157.754C135.908 157.115 137.99 157.265 139.49 157.247Z" /><path fill="#F74C1B" d="M178.445 157.3C178.777 158.54 178.626 162.892 178.609 164.431C178.424 182.14 178.905 199.996 178.424 217.688C177.43 218.292 175.413 218.152 174.053 218.206C173.525 211.513 173.845 198.037 173.883 190.738C173.934 181.138 173.399 167.167 174.093 157.927C175.194 157.084 176.932 157.318 178.445 157.3Z" /><path fill="#F74C1B" d="M191.974 157.568L193.091 157.884C193.569 160.458 193.52 216.673 193.147 217.942L192.553 218.416C192.282 217.469 192.022 216.518 191.775 215.564C192.03 212.312 191.944 205.877 191.905 202.483L191.846 175.63C191.945 170.643 191.405 161.839 191.974 157.568Z" /><path fill="#FEFEFE" fill-opacity="0.039215688" d="M190.121 177.605C190.321 175.635 190.361 164.418 191.067 164.06C191.862 164.564 191.721 173.953 191.846 175.63L191.905 202.483C191.722 203.736 191.561 205.838 191.063 206.922L190.846 207.041C190.63 206.814 190.153 203.859 190.058 203.429C189.872 195.112 190.062 185.983 190.121 177.605Z" /><path fill="#FEFEFE" fill-opacity="0.51372552" d="M191.905 202.483C191.944 205.877 192.03 212.312 191.775 215.564C190.758 215.675 190.68 215.857 190.062 216.66C189.933 212.674 189.917 207.394 190.058 203.429C190.153 203.859 190.63 206.814 190.846 207.041L191.063 206.922C191.561 205.838 191.722 203.736 191.905 202.483Z" /><path fill="#F6EBE8" fill-opacity="0.56078434" d="M190.131 157.6C191.062 157.924 190.969 157.867 191.974 157.568C191.405 161.839 191.945 170.643 191.846 175.63C191.721 173.953 191.862 164.564 191.067 164.06C190.361 164.418 190.321 175.635 190.121 177.605C189.872 171.481 190.031 163.796 190.131 157.6Z" /><path fill="#FEFEFE" fill-opacity="0.070588239" d="M190.062 216.66C190.68 215.857 190.758 215.675 191.775 215.564C192.022 216.518 192.282 217.469 192.553 218.416C191.736 218.193 190.916 217.98 190.093 217.779L190.062 216.66Z" /><path fill="#A97E66" d="M71.297 134.015C71.3371 134.289 71.5394 136.877 71.6926 136.907C75.3091 137.634 80.7627 137.43 84.4552 137.312C84.677 143.369 85.1537 167.721 84.5043 172.992L83.7857 172.716C82.311 172.114 81.9597 172.224 81.3088 173.705C83.0229 174.595 84.128 175.207 84.5043 172.992C86.1043 177.081 93.9521 173.866 97.5423 176.755C100.719 179.312 75.6723 178.981 74.4995 179.044C71.973 179.181 54.6526 179.325 53.6148 178.639C55.6912 178.246 74.6415 179.107 74.9713 178.231C76.0225 175.437 72.9179 169.799 70.5037 168.024C68.5088 166.558 66.7822 165.963 64.3733 164.938C64.0277 160.371 64.1823 156.31 63.8942 151.932C67.3396 145.369 70.8922 142.37 71.297 134.015Z" /><path fill="#F75322" d="M160.732 102.406C161.117 102.502 161.738 102.523 162.127 102.551L163.053 102.781C163.197 102.814 164.34 103.053 164.349 103.312C164.732 114.559 164.28 125.866 164.566 137.136C166.42 136.44 167.353 135.877 169.396 135.522C170.289 139.535 165.125 137.294 161.937 137.396C161.886 137.388 160.787 137.286 160.788 137.131C160.851 126.578 159.645 112.862 160.732 102.406Z" /><path fill="#F6EBE8" d="M160.732 102.406C161.117 102.502 161.738 102.523 162.127 102.551C161.59 113.349 162.747 127.132 161.937 137.396C161.886 137.388 160.787 137.286 160.788 137.131C160.851 126.578 159.645 112.862 160.732 102.406Z" /><path fill="#FEFEFE" fill-opacity="0.46666667" d="M111.664 102.912C112.868 106.983 112.367 106.264 115.628 103.428C115.276 111.881 115.401 123.523 115.57 132.154C111.347 130.894 112.435 129.974 111.842 135.224C111.511 132.65 111.704 125.907 111.71 122.98L111.664 102.912Z" /><path fill="#FEFEFE" fill-opacity="0.36470589" d="M91.4144 103.033L91.7209 103.772C92.7893 107.034 93.8048 104.404 96.4166 102.969C96.3223 106.302 96.506 108.872 96.4894 112.01C94.3035 112.644 92.3651 111.102 92.2815 111.696C91.8444 114.802 92.2066 117.603 91.6209 120.77C91.3406 114.402 92.0926 109.457 91.4144 103.033Z" /><path fill="#FEFEFE" fill-opacity="0.32941177" d="M149.637 102.887L150.562 102.91C153.174 102.95 152.031 102.237 154.973 103.096C155.027 104.792 155.107 106.178 154.95 107.866L154.381 108.656C152.736 110.977 154.779 111.414 149.928 110.057C149.786 106.847 149.979 106.433 149.637 102.887Z" /><path fill="#FEFEFE" d="M144.72 123.935C143.603 120.706 143.626 109.277 143.576 105.24C143.56 103.993 144.189 103.149 145.107 102.381C145.629 105.296 146.144 121.541 144.72 123.935Z" /><path fill="#FEFEFE" fill-opacity="0.015686275" d="M111.842 135.224C112.435 129.974 111.347 130.894 115.57 132.154C115.468 135.354 114.943 134.715 111.842 135.224Z" /><path fill="#A97E66" fill-opacity="0.94509804" d="M81.3088 173.705C81.9597 172.224 82.311 172.114 83.7857 172.716L84.5043 172.992C84.128 175.207 83.0229 174.595 81.3088 173.705Z" /></svg>