<?xml version='1.0' encoding='utf-8'?>
<svg xmlns="http://www.w3.org/2000/svg" viewBox="289.5 31.2 226.5 218.9" width="512" height="512"><path fill="#F74C1B" d="M416.361 70.0714C417.203 62.9785 415.261 51.7663 420.151 46.7987C424.399 42.483 433.064 43.5477 436.762 48.2325C440.375 53.0297 439.286 64.036 439.597 70.1314L439.048 70.4837C439.001 74.3461 438.802 74.4479 439.57 78.011C441.926 78.0306 444.285 77.9855 446.634 78.0703L446.907 78.0011C447.011 76.8641 446.778 75.1359 447.695 74.4357L448.149 73.8021C448.669 73.0907 449.248 72.3954 449.496 71.5347L449.672 70.9936C449.934 65.9208 448.997 56.7679 452.741 53.2973C456.292 50.0063 463.826 50.6171 466.754 54.7275C470.227 60.1744 468.064 70.1159 468.86 76.5068C482.657 76.4217 502.474 74.0646 504.718 93.1156C505.318 98.2066 505.065 103.439 505.025 108.567C504.937 116.111 504.93 123.656 505.005 131.2L505.076 186.173C505.112 197.838 506.076 213.081 504.293 224.357C501.803 240.103 480.533 237.708 468.516 237.686L431.503 237.631L369.876 237.675C358.961 237.685 347.996 237.771 337.066 237.565C331.345 237.458 326.871 235.486 322.923 231.164C316.774 224.433 318.577 214.136 318.501 205.505C308.934 204.793 301.177 204.512 300.196 192.565C299.556 184.778 299.878 176.772 299.874 168.936L299.88 123.056C299.929 120.848 299.916 118.722 299.907 116.517C299.941 110.751 299.544 91.0231 300.695 86.5363C301.531 83.2645 303.126 80.2357 305.351 77.6955C313.015 68.9009 322.992 70.4127 333.092 69.943L333.303 69.3711C333.767 63.97 333.277 58.6093 333.595 53.2443C334.118 44.4417 345.924 41.2193 351.927 46.7812C357.71 52.1387 355.304 61.295 355.697 68.5344C355.906 69.1001 355.895 69.0564 355.966 69.6563C364.377 69.8625 362.971 70.7271 363.133 63.2411C363.05 59.3843 362.856 56.749 365.725 53.8185C367.668 51.8192 370.322 50.6695 373.109 50.6202C383.34 50.483 382.049 63.0817 381.972 69.887C390.034 70.5774 407.55 70.0974 416.361 70.0714ZM446.995 81.7165L446.634 78.0703C444.285 77.9855 441.926 78.0306 439.57 78.011C438.802 74.4479 439.001 74.3461 439.048 70.4837L439.597 70.1314C439.286 64.036 440.375 53.0297 436.762 48.2325C433.064 43.5477 424.399 42.483 420.151 46.7987C415.261 51.7663 417.203 62.9785 416.361 70.0714C407.55 70.0974 390.034 70.5774 381.972 69.887L381.468 77.9537C380.173 79.9128 380.63 80.3259 381.681 82.3285L382.037 87.9377C381.671 92.7071 383.801 101.859 379.654 105.638C372.97 111.728 365.037 109.381 363.472 100.09C362.551 94.6234 363.021 87.4352 363.106 81.5271L356.427 81.5463C354.13 81.511 351.833 81.5016 349.536 81.518C346.484 81.5113 343.021 81.4172 340.028 81.6827C336.1 82.2745 335.518 82.1183 331.558 83.6909C329.255 85.1112 327.969 85.9608 326.222 88.13C320.187 95.5885 321.91 106.528 322.037 116.376C358.996 117.05 396.156 116.024 433.137 116.041L433.198 120.551C430.965 120.636 430.767 121.006 428.014 120.971C426.077 119.758 417.917 120.596 415.052 120.622C411.806 120.036 396.133 120.798 391.918 120.782L358.882 120.585C352.448 120.496 343.003 120.076 336.808 120.549L336.358 120.636C333.991 120.53 331.624 120.466 329.255 120.444L328.262 120.327C326.947 120.139 325.257 119.786 324.121 120.738C323.858 120.959 323.58 121.478 323.988 121.738C325.015 122.341 326.785 122.061 327.839 121.947C333.328 121.791 338.992 122.044 344.622 121.916C353.205 122.339 359.682 121.421 367.601 121.565L399.368 121.984C405.475 122.055 413.992 122.354 420.023 121.973C423.125 121.888 424.808 122.209 427.975 121.791C430.239 121.76 430.925 122.008 433.172 122.503L433.546 124.098L433.658 124.465C456.111 124.444 478.752 124.671 501.184 124.413C501.769 115.611 501.117 106.325 501.378 97.5116C501.963 77.7817 482.292 80.539 468.612 80.9491C468.4 87.9478 469.152 96.2791 468.363 102.95C464.804 108.738 458.175 111.199 452.573 106.158C447.877 101.933 449.925 89.2792 450.085 83.0277C448.477 82.8537 448.461 82.6036 446.995 81.7165ZM349.596 69.5196C349.58 66.7321 350.12 53.0977 349.139 52.3917C336.221 43.095 339.634 66.5023 339.748 68.1187C340.47 70.8921 347.127 69.6394 349.596 69.5196ZM491.297 232.979C495.077 231.137 498.639 228.943 500.17 224.779C502.02 219.747 501.795 138.01 501.172 128.425L496.614 128.263C455.479 128.822 414.248 128.349 373.107 128.547C356.472 128.628 338.807 128.225 322.269 128.635C322.064 149.71 321.976 170.786 322.005 191.862C322.016 197.882 321.761 216.387 322.608 221.192C323.104 224.144 324.48 226.877 326.556 229.033C327.638 230.178 329.199 231.288 330.526 232.159C334.54 233.541 355.386 232.427 361.685 232.407L444.634 232.413C456.877 232.416 480.118 231.825 491.297 232.979ZM457.465 54.9232C456.023 55.8193 454.336 56.68 454.256 58.5145C453.855 67.8175 453.556 81.5419 454.064 90.4584C456.72 90.3889 459.234 90.3085 461.909 90.2915C467.186 89.6105 463.276 64.2884 464.423 58.9731C465.034 56.1415 459.871 54.9688 457.465 54.9232ZM377.879 67.0828C377.878 65.9994 378.063 59.2482 377.842 58.7483C374.983 52.2764 369.908 54.1735 367.271 58.8822C367.606 61.2403 367.534 67.9701 368.757 70.3327C370.818 74.3182 363.873 91.3837 373.285 88.1907C373.906 87.98 374.953 88.0464 375.389 87.4198C377.247 83.2579 374.633 72.5546 376.9 69.4027C377.594 68.4378 377.476 68.507 377.879 67.0828ZM374.411 102.703C377.271 96.6615 375.764 96.1171 369.639 95.5635C366.709 99.2668 368.812 103.487 374.411 102.703ZM464 93.9304C457.12 94.0523 448.402 94.9108 455.902 103.767C460.167 105.094 462.985 104.686 464.793 99.9277C465.092 99.1413 464.557 94.5178 464 93.9304Z" /><path fill="#A97E66" fill-opacity="0.79607844" d="M336.808 120.549C343.003 120.076 352.448 120.496 358.882 120.585L391.918 120.782C396.133 120.798 411.806 120.036 415.052 120.622C414.834 121.067 414.881 120.919 414.836 121.131C414.85 121.147 419.547 121.87 420.023 121.973C413.992 122.354 405.475 122.055 399.368 121.984L367.601 121.565C359.682 121.421 353.205 122.339 344.622 121.916C341.688 121.246 338.476 122.268 336.808 120.549Z" /><path fill="#D6B8AB" fill-opacity="0.84705883" d="M326.222 88.13C327.969 85.9608 329.255 85.1112 331.558 83.6909C332.145 85.6587 332.779 87.6347 333.356 89.6015C331.995 91.679 331.081 95.3441 329.27 96.0659C322.145 98.905 325.413 91.0228 325.953 89.1089L326.222 88.13Z" /><path fill="#D6B8AB" fill-opacity="0.98431373" d="M340.028 81.6827C343.021 81.4172 346.484 81.5113 349.536 81.518C348.968 82.4856 348.603 83.3945 348.079 84.323C344.116 84.1457 343.95 83.9913 340.391 85.3405C340.453 83.5233 340.429 83.4528 340.028 81.6827Z" /><path fill="#C39C8A" fill-opacity="0.38039216" d="M415.052 120.622C417.917 120.596 426.077 119.758 428.014 120.971L427.975 121.791C424.808 122.209 423.125 121.888 420.023 121.973C419.547 121.87 414.85 121.147 414.836 121.131C414.881 120.919 414.834 121.067 415.052 120.622Z" /><path fill="#D6B8AB" fill-opacity="0.89803922" d="M340.391 85.3405C343.95 83.9913 344.116 84.1457 348.079 84.323C345.707 87.2792 343.128 89.1149 340.391 85.3405Z" /><path fill="#C39C8A" fill-opacity="0.047058824" d="M327.839 121.947C326.785 122.061 325.015 122.341 323.988 121.738C323.58 121.478 323.858 120.959 324.121 120.738C325.257 119.786 326.947 120.139 328.262 120.327L329.255 120.444L330.111 121.371C329.347 121.56 328.598 121.742 327.839 121.947Z" /><path fill="#A97E66" fill-opacity="0.62352943" d="M336.358 120.636L336.808 120.549C338.476 122.268 341.688 121.246 344.622 121.916C338.992 122.044 333.328 121.791 327.839 121.947C328.598 121.742 329.347 121.56 330.111 121.371C332.699 121.516 334.381 121.951 336.358 120.636Z" /><path fill="#A97E66" fill-opacity="0.86666667" d="M428.014 120.971C430.767 121.006 430.965 120.636 433.198 120.551L433.172 122.503C430.925 122.008 430.239 121.76 427.975 121.791L428.014 120.971Z" /><path fill="#A97E66" fill-opacity="0.41176471" d="M329.255 120.444C331.624 120.466 333.991 120.53 336.358 120.636C334.381 121.951 332.699 121.516 330.111 121.371L329.255 120.444Z" /><path fill="#D6B8AB" d="M416.361 70.0714C417.203 62.9785 415.261 51.7663 420.151 46.7987C424.399 42.483 433.064 43.5477 436.762 48.2325C440.375 53.0297 439.286 64.036 439.597 70.1314L439.048 70.4837C439.001 74.3461 438.802 74.4479 439.57 78.011C441.926 78.0306 444.285 77.9855 446.634 78.0703L446.995 81.7165L443.712 81.5496L443.279 88.5928C435.827 95.5361 433.45 99.5477 433.113 110.167C433.059 112.125 433.067 114.084 433.137 116.041C396.156 116.024 358.996 117.05 322.037 116.376C321.91 106.528 320.187 95.5885 326.222 88.13L325.953 89.1089C325.413 91.0228 322.145 98.905 329.27 96.0659C331.081 95.3441 331.995 91.679 333.356 89.6015C332.779 87.6347 332.145 85.6587 331.558 83.6909C335.518 82.1183 336.1 82.2745 340.028 81.6827C340.429 83.4528 340.453 83.5233 340.391 85.3405C343.128 89.1149 345.707 87.2792 348.079 84.323C348.603 83.3945 348.968 82.4856 349.536 81.518C351.833 81.5016 354.13 81.511 356.427 81.5463L363.106 81.5271C363.021 87.4352 362.551 94.6234 363.472 100.09C365.037 109.381 372.97 111.728 379.654 105.638C383.801 101.859 381.671 92.7071 382.037 87.9377L381.681 82.3285C380.63 80.3259 380.173 79.9128 381.468 77.9537L381.972 69.887C390.034 70.5774 407.55 70.0974 416.361 70.0714ZM355.52 88.2761C358.623 90.4528 364.31 87.2585 356.982 82.795L355.52 88.2761ZM432.599 69.8492C432.313 64.6762 433.461 58.3479 432.001 53.2183C431.362 50.1935 425.467 50.5605 424.495 52.5168C422.752 56.0227 423.43 66.4544 423.695 70.0486C427.11 70.2112 429.17 70.2357 432.599 69.8492ZM387.119 83.3553C383.902 84.3497 383.958 83.9945 382.606 87.5109C387.071 87.7846 390.763 88.7308 387.119 83.3553Z" /><path fill="#D6B8AB" fill-opacity="0.80392158" d="M356.982 82.795C364.31 87.2585 358.623 90.4528 355.52 88.2761L356.982 82.795Z" /><path fill="#A57B61" d="M416.361 70.0714C417.203 62.9785 415.261 51.7663 420.151 46.7987C424.399 42.483 433.064 43.5477 436.762 48.2325C440.375 53.0297 439.286 64.036 439.597 70.1314L439.048 70.4837C439.001 74.3461 438.802 74.4479 439.57 78.011C437.301 77.9732 435.033 77.9766 432.765 78.0213L423.977 78.0209C421.619 77.9981 419.29 78.0264 416.934 78.0239C405.112 78.0948 393.29 78.0714 381.468 77.9537L381.972 69.887C390.034 70.5774 407.55 70.0974 416.361 70.0714ZM432.599 69.8492C432.313 64.6762 433.461 58.3479 432.001 53.2183C431.362 50.1935 425.467 50.5605 424.495 52.5168C422.752 56.0227 423.43 66.4544 423.695 70.0486C427.11 70.2112 429.17 70.2357 432.599 69.8492Z" /><path fill="#D6B8AB" d="M416.361 70.0714C417.203 62.9785 415.261 51.7663 420.151 46.7987C424.399 42.483 433.064 43.5477 436.762 48.2325C440.375 53.0297 439.286 64.036 439.597 70.1314L439.048 70.4837C436.915 70.4767 435.162 70.4578 433.016 70.3139L432.599 69.8492C432.313 64.6762 433.461 58.3479 432.001 53.2183C431.362 50.1935 425.467 50.5605 424.495 52.5168C422.752 56.0227 423.43 66.4544 423.695 70.0486C421.306 70.0554 418.723 70.0075 416.361 70.0714Z" /><path fill="#9A654E" d="M416.875 70.5244C419.22 70.563 421.567 70.571 423.913 70.5485L423.977 78.0209C421.619 77.9981 419.29 78.0264 416.934 78.0239L416.875 70.5244Z" /><path fill="#9A654E" d="M433.016 70.3139C435.162 70.4578 436.915 70.4767 439.048 70.4837C439.001 74.3461 438.802 74.4479 439.57 78.011C437.301 77.9732 435.033 77.9766 432.765 78.0213C432.75 75.9814 432.323 71.8486 433.016 70.3139Z" /><path fill="#A97E66" d="M349.536 81.518C351.833 81.5016 354.13 81.511 356.427 81.5463L356.982 82.795L355.52 88.2761C355.255 88.6112 355.222 88.6376 355.047 88.9848C350.683 97.6498 338.389 97.846 333.356 89.6015C332.779 87.6347 332.145 85.6587 331.558 83.6909C335.518 82.1183 336.1 82.2745 340.028 81.6827C340.429 83.4528 340.453 83.5233 340.391 85.3405C343.128 89.1149 345.707 87.2792 348.079 84.323C348.603 83.3945 348.968 82.4856 349.536 81.518Z" /><path fill="#F75322" d="M381.468 77.9537C393.29 78.0714 405.112 78.0948 416.934 78.0239C419.29 78.0264 421.619 77.9981 423.977 78.0209L432.765 78.0213C435.033 77.9766 437.301 77.9732 439.57 78.011C441.926 78.0306 444.285 77.9855 446.634 78.0703L446.995 81.7165L443.712 81.5496C440.275 81.4476 436.57 81.4509 433.127 81.515C416.319 81.8278 399.16 81.0743 382.389 81.72L381.681 82.3285C380.63 80.3259 380.173 79.9128 381.468 77.9537Z" /><path fill="#D8BAAE" fill-opacity="0.062745102" d="M382.606 87.5109C383.958 83.9945 383.902 84.3497 387.119 83.3553C390.763 88.7308 387.071 87.7846 382.606 87.5109Z" /><path fill="#A57B61" d="M299.907 116.517C306.268 116.301 312.108 116.631 318.504 115.944L318.496 123.403L318.501 205.505C308.934 204.793 301.177 204.512 300.196 192.565C299.556 184.778 299.878 176.772 299.874 168.936L299.88 123.056C299.929 120.848 299.916 118.722 299.907 116.517Z" /><path fill="#9A654E" d="M299.907 116.517C306.268 116.301 312.108 116.631 318.504 115.944L318.496 123.403C312.771 123.309 305.354 123.543 299.88 123.056C299.929 120.848 299.916 118.722 299.907 116.517Z" /><path fill="#A57B61" d="M299.907 116.517C299.941 110.751 299.544 91.0231 300.695 86.5363C301.531 83.2645 303.126 80.2357 305.351 77.6955C313.015 68.9009 322.992 70.4127 333.092 69.943C333.07 73.5009 332.92 75.2025 333.381 78.7409C325.699 81.3059 318.97 89.7564 318.638 97.7496C318.394 103.614 318.485 110.054 318.504 115.944C312.108 116.631 306.268 116.301 299.907 116.517Z" /><path fill="#A97E66" d="M322.037 116.376C358.996 117.05 396.156 116.024 433.137 116.041L433.198 120.551C430.965 120.636 430.767 121.006 428.014 120.971C426.077 119.758 417.917 120.596 415.052 120.622C411.806 120.036 396.133 120.798 391.918 120.782L358.882 120.585C352.448 120.496 343.003 120.076 336.808 120.549L336.358 120.636C333.991 120.53 331.624 120.466 329.255 120.444L328.262 120.327C326.947 120.139 325.257 119.786 324.121 120.738C323.858 120.959 323.58 121.478 323.988 121.738C325.015 122.341 326.785 122.061 327.839 121.947C333.328 121.791 338.992 122.044 344.622 121.916C353.205 122.339 359.682 121.421 367.601 121.565L399.368 121.984C405.475 122.055 413.992 122.354 420.023 121.973C423.125 121.888 424.808 122.209 427.975 121.791C430.239 121.76 430.925 122.008 433.172 122.503L433.546 124.098C429.757 122.957 417.023 123.365 412.352 123.355L367.007 123.396C358.136 123.437 349.265 123.426 340.394 123.363C336.193 123.326 324.97 122.555 321.843 124.264C322.04 121.885 321.998 118.817 322.037 116.376Z" /><path fill="#D6B8AB" d="M333.303 69.3711C333.767 63.97 333.277 58.6093 333.595 53.2443C334.118 44.4417 345.924 41.2193 351.927 46.7812C357.71 52.1387 355.304 61.295 355.697 68.5344C355.603 70.9507 351.875 69.9091 349.59 69.8914L349.596 69.5196C349.58 66.7321 350.12 53.0977 349.139 52.3917C336.221 43.095 339.634 66.5023 339.748 68.1187C339.33 70.3999 337.471 69.5668 334.985 69.9375C334.008 69.9847 334.099 69.9828 333.303 69.3711Z" /><path fill="#DAB6A7" d="M321.843 124.264C324.97 122.555 336.193 123.326 340.394 123.363C349.265 123.426 358.136 123.437 367.007 123.396L412.352 123.355C417.023 123.365 429.757 122.957 433.546 124.098L433.658 124.465C430.089 125.241 325.515 125.557 322.994 124.945C322.561 124.84 322.227 124.491 321.843 124.264Z" /><path fill="#A57B61" d="M339.748 68.1187C340.47 70.8921 347.127 69.6394 349.596 69.5196L349.59 69.8914C349.172 73.1059 349.292 74.8868 349.299 78.022C346.077 77.9559 342.901 78.0123 339.681 78.0243C337.67 78.1878 335.439 78.5168 333.381 78.7409C332.92 75.2025 333.07 73.5009 333.092 69.943L333.303 69.3711C334.099 69.9828 334.008 69.9847 334.985 69.9375C337.471 69.5668 339.33 70.3999 339.748 68.1187Z" /><path fill="#9A654E" d="M333.092 69.943L333.303 69.3711C334.099 69.9828 334.008 69.9847 334.985 69.9375C341.364 70.3943 339.904 70.0749 339.681 78.0243C337.67 78.1878 335.439 78.5168 333.381 78.7409C332.92 75.2025 333.07 73.5009 333.092 69.943Z" /><path fill="#A57B61" d="M363.133 63.2411C363.677 67.6584 363.455 73.385 363.544 77.9376C361.058 77.9319 358.572 77.9504 356.087 77.9932C353.824 78.0319 351.561 78.0415 349.299 78.022C349.292 74.8868 349.172 73.1059 349.59 69.8914C351.875 69.9091 355.603 70.9507 355.697 68.5344C355.906 69.1001 355.895 69.0564 355.966 69.6563C364.377 69.8625 362.971 70.7271 363.133 63.2411Z" /><path fill="#9A654E" d="M355.697 68.5344C355.906 69.1001 355.895 69.0564 355.966 69.6563C356.021 72.4334 355.959 75.2303 356.087 77.9932C353.824 78.0319 351.561 78.0415 349.299 78.022C349.292 74.8868 349.172 73.1059 349.59 69.8914C351.875 69.9091 355.603 70.9507 355.697 68.5344Z" /><path fill="#FEFEFE" d="M449.672 70.9936C450.109 73.0309 449.969 76.2036 449.826 78.2727C448.852 78.1981 447.879 78.1076 446.907 78.0011C447.011 76.8641 446.778 75.1359 447.695 74.4357L448.149 73.8021C448.669 73.0907 449.248 72.3954 449.496 71.5347L449.672 70.9936Z" /><path fill="#F74C1B" d="M476.019 141.101C482.936 140.524 489.005 145.677 489.557 152.596C490.11 159.515 484.935 165.566 478.014 166.093C471.128 166.619 465.115 161.476 464.565 154.592C464.015 147.708 469.137 141.676 476.019 141.101ZM478.718 162.22C483.424 161.302 486.522 156.776 485.673 152.056C484.825 147.337 480.344 144.173 475.613 144.953C472.49 145.467 469.886 147.624 468.799 150.596C467.713 153.568 468.311 156.896 470.365 159.303C472.42 161.711 475.611 162.825 478.718 162.22Z" /><path fill="#F75322" d="M348.362 171.56C351.932 171.54 356.458 172.056 360.006 172.646L360.005 189.128C358.129 189.111 356.253 189.139 354.378 189.212C350.08 189.319 346.559 189.173 342.261 189.009C341.969 184.164 342.105 178.043 342.153 173.067C344.345 172.621 346.216 172.089 348.362 171.56ZM346.071 185.222C349.901 185.349 352.134 185.27 355.932 184.956C356.466 182.901 356.116 178.825 356.061 176.668C352.342 176.553 349.529 176.61 345.835 176.667C345.819 179.726 345.928 182.161 346.071 185.222Z" /><path fill="#F74C1B" d="M379.082 171.542C382.998 171.448 387.969 171.91 391.874 172.411C391.853 174.012 391.506 188.088 391.394 188.304C390.8 188.678 386.798 188.547 385.875 188.556C381.978 188.57 378.081 188.55 374.185 188.494L374.195 173.202C375.884 172.586 377.326 172.014 379.082 171.542ZM378.006 184.806C381.071 184.957 383.539 185.001 386.623 184.968C389.123 184.913 388.016 179.266 387.998 176.917C384.905 176.656 382.899 176.648 379.812 176.707C376.195 177.324 377.807 180.859 378.006 184.806Z" /><path fill="#F74C1B" d="M443.669 171.54C448.415 171.466 451.075 172.085 455.49 173.099L455.037 188.465C453.528 188.592 450.969 188.522 449.356 188.538L437.612 188.509C437.63 184.379 437.469 177.463 437.791 173.617C440.42 172.635 440.933 172.241 443.669 171.54ZM441.573 184.703L442.235 184.679C444.594 184.559 449.094 184.677 451.561 184.751C451.868 181.491 451.663 179.818 451.708 176.692C447.929 176.611 445.513 176.735 441.892 176.796C441.133 178.905 441.523 182.332 441.573 184.703Z" /><path fill="#F74C1B" d="M374.096 199.621L391.792 199.531C391.97 205.329 391.716 210.113 391.725 215.719C386.094 215.841 379.685 215.914 374.061 215.81L374.096 199.621ZM387.654 210.899C388.055 207.951 387.979 206.523 387.992 203.567C384.613 203.512 381.407 203.547 378.052 203.524C377.862 211.439 377.558 211.895 384.999 211.475C385.914 211.424 386.799 211.142 387.654 210.899Z" /><path fill="#F74C1B" d="M410.231 172.177C414.212 171.203 419.357 172.234 423.325 172.887C423.319 177.623 423.544 183.674 422.978 188.344C422.945 188.612 420.726 188.551 420.625 188.551C415.645 188.647 410.663 188.641 405.682 188.532C405.702 185.467 405.557 176.592 406.149 173.322C406.176 173.174 406.78 173.035 406.95 173.019C408.184 172.903 409.059 172.58 410.231 172.177ZM409.566 185.06C411.802 185.238 418.206 186.016 419.702 184.377C419.847 181.609 419.649 179.245 419.752 176.627C416.149 176.594 412.923 176.646 409.34 176.687L409.566 185.06Z" /><path fill="#F75322" d="M438.069 199.556C443.862 199.429 449.657 199.429 455.45 199.556C455.529 202.741 455.76 212.655 455.34 215.461C449.478 215.529 443.615 215.544 437.753 215.508C437.475 210.597 437.483 204.445 438.069 199.556ZM450.9 210.594C451.443 207.287 451.369 206.87 451.465 203.53C447.983 203.452 445.029 203.519 441.612 203.517C441.363 210.9 442.54 212.463 450.9 210.594Z" /><path fill="#F75322" d="M342.453 199.554C348.315 199.439 353.982 199.496 359.821 199.481C360.006 204.86 359.989 210.245 359.77 215.623C354.062 215.507 348.026 215.677 342.302 215.728C342.241 210.618 342.314 204.677 342.453 199.554ZM355.379 210.582C356.401 208.598 356.036 205.894 356.065 203.551C352.618 203.472 349.85 203.537 346.442 203.558C345.988 209.64 347.913 212.907 354.573 210.826L355.379 210.582Z" /><path fill="#F74C1B" d="M405.97 199.707C411.924 199.65 417.171 199.472 423.171 199.698C423.501 205.285 423.528 209.943 423.021 215.504C417.255 215.679 411.486 215.734 405.718 215.667C405.539 211.52 405.441 203.628 405.97 199.707ZM409.781 211.39C413.413 211.487 415.451 211.622 418.987 211.039C419.525 208 419.41 206.572 419.455 203.547C416.028 203.493 412.843 203.542 409.441 203.541C409.15 207.027 409.222 207.868 409.781 211.39Z" /><path fill="#F74C1B" d="M342.242 147.066C348.146 146.985 354.051 146.976 359.955 147.039C360.005 149.609 360.524 160.831 359.376 162.242C353.316 162.44 348.14 162.361 342.133 162.204C342.021 157.538 341.965 151.664 342.242 147.066ZM355.045 157.736C356.632 156.265 356.064 153.174 356.129 150.999C351.733 150.822 350.347 150.794 345.916 151.024C345.901 152.269 345.287 157.371 348.498 158.412C349.677 158.794 354.374 159.097 355.045 157.736Z" /><path fill="#F74C1B" d="M447.78 146.723C450.449 146.673 452.694 146.852 455.327 147.188C455.641 152.093 455.55 157.04 455.458 161.955C452.646 162.124 449.83 162.226 447.013 162.263C443.891 162.179 440.769 162.133 437.646 162.125C437.496 157.099 437.51 152.069 437.691 147.044L447.78 146.723ZM450.376 156.823C451.506 155.01 451.766 153.357 451.479 151.218C451.319 150.023 442.789 150.681 441.572 150.784C441.736 155.435 441.122 158.526 446.76 158.501L447.779 158.511C449.223 158.521 449.513 157.847 450.376 156.823Z" /><path fill="#F74C1B" d="M475.949 172.717C480.401 172.245 482.66 172.735 486.946 173.022C486.912 174.57 486.69 188.211 486.693 188.204C485.808 188.805 483.69 188.547 482.625 188.584L469.583 188.625C469.54 183.416 469.534 178.207 469.562 172.999C471.858 172.959 473.659 172.9 475.949 172.717ZM473.542 184.953C477.154 185.03 479.551 184.908 483.083 184.849C483.374 181.474 483.247 179.779 483.316 176.529C479.929 176.473 476.73 176.513 473.364 176.52C473.162 180.674 473.205 180.926 473.542 184.953Z" /><path fill="#F74C1B" d="M405.902 146.966C412.167 146.853 416.765 146.752 423.06 147.081C423.317 152.849 423.273 156.373 422.99 162.111C417.28 162.688 411.548 162.238 405.797 162.357C405.463 157.231 405.498 152.087 405.902 146.966ZM415.917 158.052C423.072 150.578 419.283 150.569 411.45 150.637L410.624 150.819C407.027 151.564 410.755 161.378 415.917 158.052Z" /><path fill="#F74C1B" d="M374.256 147.058C380.054 146.958 385.853 146.947 391.651 147.027C392.076 152.353 392.024 156.669 391.604 161.982C385.355 162.28 380.314 162.147 374.11 161.998C374.005 157.624 373.971 151.361 374.256 147.058ZM384.618 158.637C387.786 158.241 388.759 154.341 387.803 151.116C387.715 150.821 383.426 150.759 382.397 150.723C378.578 151.007 377.108 150.145 377.772 154.261C378.539 159.006 380.987 158.467 384.618 158.637Z" /><path fill="#D6B8AB" d="M367.271 58.8822C367.606 61.2403 367.534 67.9701 368.757 70.3327C370.818 74.3182 363.873 91.3837 373.285 88.1907C373.906 87.98 374.953 88.0464 375.389 87.4198C377.247 83.2579 374.633 72.5546 376.9 69.4027C377.594 68.4378 377.476 68.507 377.879 67.0828C378.214 73.7871 377.973 83.6368 377.969 90.5611C374.289 90.5119 370.607 90.5058 366.927 90.543L366.974 72.078C366.944 67.9534 366.521 62.9426 367.271 58.8822Z" /><path fill="#D8BAAE" d="M367.518 94.5783C374.862 94.029 383.772 94.0195 376.221 103.814C369.707 107.168 364.657 100.986 367.518 94.5783ZM374.411 102.703C377.271 96.6615 375.764 96.1171 369.639 95.5635C366.709 99.2668 368.812 103.487 374.411 102.703Z" /><path fill="#A57B61" d="M439.597 70.1314C445.698 70.1754 442.402 72.1538 447.695 74.4357C446.778 75.1359 447.011 76.8641 446.907 78.0011L446.634 78.0703C444.285 77.9855 441.926 78.0306 439.57 78.011C438.802 74.4479 439.001 74.3461 439.048 70.4837L439.597 70.1314Z" /></svg>