<?xml version='1.0' encoding='utf-8'?>
<svg xmlns="http://www.w3.org/2000/svg" viewBox="769.5 714.7 240.5 203.7" width="512" height="512"><path fill="#F54915" d="M872.913 750.828C875.885 747.857 878.658 744.768 881.684 741.785C899.006 724.707 929.465 725.472 946.935 741.884C949.978 744.743 953.153 748.98 956.138 752.224C985.656 765.137 999.961 807.94 975.897 832.622C952.576 856.541 928.899 880.224 905.293 903.879C904.46 904.714 900.192 908.39 898.401 908.321C889.776 902.291 880.68 890.746 873.161 883.537C871.122 882.219 863.959 874.943 862.051 873.032L841.946 852.835L813.292 824.251C808.084 819.106 802.876 814.133 797.793 808.849C779.451 789.781 780.533 759.057 800.482 741.467C810.203 732.979 822.886 728.679 835.765 729.503C852.725 730.591 862.409 738.783 872.913 750.828ZM961.117 765.572C965.618 797.145 952.347 806.128 931.736 826.655L896.686 861.562C891.055 867.191 883.645 874.218 878.418 880.053C882.854 884.89 889.74 891.071 894.652 895.632C919.713 871.44 944.677 846.397 968.694 821.225C978.623 810.819 980.169 786.575 971.501 775.045C968.613 771.204 965.626 769.226 963.573 764.722L963.248 764.002L962.436 763.696L961.117 765.572ZM947.804 754.653C944.037 740.962 922.88 734.133 910.187 735.686C896.339 737.379 887.354 743.377 878.658 753.885C887.912 758.941 891.254 761.296 897.765 769.393C910.057 755.873 921.157 749.844 939.9 750.261C942.834 752.153 943.44 752.061 944.296 755.296C944.589 757.66 944.493 757.32 944.136 759.685C928.648 758.963 914.786 765.558 903.511 775.884L903.147 776.222C902.684 777.892 902.273 780.306 900.789 781.388C899.785 782.12 898.793 782.358 897.59 782.012C889.607 779.716 885.68 759.721 862.02 759.683C856.216 759.674 850.68 760.514 845.282 762.699C834.507 767.06 825.934 774.974 821.435 785.764C816.829 796.809 817.624 809.243 822.291 820.13C823.068 821.944 823.953 823.716 824.836 825.481C828.498 830.526 838.685 840.139 843.509 844.886C853.598 854.814 863.756 865.363 874.032 875.026C889.556 859.087 905.259 843.323 921.138 827.738C928.493 820.484 940.728 809.13 946.849 801.726C953.645 793.589 956.839 783.036 955.694 772.496C955.102 766.58 953.664 761.28 948.973 757.458C948.589 756.338 948.375 755.714 947.804 754.653ZM810.237 811.554C809.862 808.2 809.376 804.837 809.105 801.496C807.084 776.604 828.574 754.891 852.085 750.662C855.568 750.035 859.873 750.176 863.502 749.908C854.737 741.012 845.371 735.749 832.539 735.583C821.799 735.464 811.456 739.641 803.811 747.185C786.916 763.729 786.726 789.254 803.724 805.736C805.793 807.742 807.986 809.753 810.237 811.554ZM811.093 809.461C812.368 811.549 812.979 812.138 815.312 813.053C814.279 810.446 813.816 810.224 811.093 809.461Z" /><path fill="#D09F81" d="M956.138 752.224C985.656 765.137 999.961 807.94 975.897 832.622C952.576 856.541 928.899 880.224 905.293 903.879C904.46 904.714 900.192 908.39 898.401 908.321C889.776 902.291 880.68 890.746 873.161 883.537C875.821 882.594 876.291 881.978 878.418 880.053C882.854 884.89 889.74 891.071 894.652 895.632C919.713 871.44 944.677 846.397 968.694 821.225C978.623 810.819 980.169 786.575 971.501 775.045C968.613 771.204 965.626 769.226 963.573 764.722L963.248 764.002L962.436 763.696L961.117 765.572C960.02 761.569 957.73 756.186 956.138 752.224Z" /><path fill="#D09F81" d="M863.502 749.908C867.131 753.424 870.395 757.872 873.587 760.846L878.658 753.885C887.912 758.941 891.254 761.296 897.765 769.393C910.057 755.873 921.157 749.844 939.9 750.261C942.834 752.153 943.44 752.061 944.296 755.296C944.589 757.66 944.493 757.32 944.136 759.685C928.648 758.963 914.786 765.558 903.511 775.884L903.147 776.222C902.684 777.892 902.273 780.306 900.789 781.388C899.785 782.12 898.793 782.358 897.59 782.012C889.607 779.716 885.68 759.721 862.02 759.683C856.216 759.674 850.68 760.514 845.282 762.699C834.507 767.06 825.934 774.974 821.435 785.764C816.829 796.809 817.624 809.243 822.291 820.13C823.068 821.944 823.953 823.716 824.836 825.481L823.86 825.232C821.606 823.17 811.285 813.604 810.237 811.554C809.862 808.2 809.376 804.837 809.105 801.496C807.084 776.604 828.574 754.891 852.085 750.662C855.568 750.035 859.873 750.176 863.502 749.908ZM815.312 813.053C814.279 810.446 813.816 810.224 811.093 809.461C812.368 811.549 812.979 812.138 815.312 813.053Z" /><path fill="#D19E7F" fill-opacity="0.18039216" d="M811.093 809.461C813.816 810.224 814.279 810.446 815.312 813.053C812.979 812.138 812.368 811.549 811.093 809.461Z" /></svg>