<?xml version='1.0' encoding='utf-8'?>
<svg xmlns="http://www.w3.org/2000/svg" viewBox="786.5 31.9 235.8 200.6" width="512" height="512"><path fill="#F74C1B" d="M886.571 62.3282C893.286 51.618 898.612 45.5011 911.738 43.7308C925.224 41.9119 934.251 47.3937 942.588 57.6221C942.704 57.6907 942.819 57.7593 942.935 57.8279C954.448 58.8234 963.898 63.1487 971.465 72.0803C978.203 80.0059 981.448 90.32 980.462 100.676C979.558 110.668 974.666 119.875 966.891 126.217C950.906 139.492 931.422 137.924 915.723 125.3C913.833 126.971 912.014 128.624 910.018 130.172L910.745 130.204C917.289 130.345 926.695 134.645 931.972 138.357C924.875 138.938 929.661 138.635 925.344 140.203C922.012 142.092 924.282 142.381 922.287 144.186C918.891 143.254 917.784 142.746 914.669 141.246C914.135 140.924 912.645 140.222 912.195 140.194C907.903 139.925 911.334 135.477 910.166 134.722C909.367 134.205 905.763 135.387 904.843 135.667C902.728 136.778 901.065 137.692 899.022 138.928C904.024 139.808 909.077 139.68 912.637 143.715C915.521 147.998 917.496 146.694 922.121 145.294C925.131 143.201 926.304 142.464 929.969 141.403C932.321 141.141 932.502 140.879 932.409 138.617C935.021 140.339 938.017 142.862 940.308 145.024C947.29 142.251 948.797 145.533 954.711 146.684C990.247 153.602 1012.2 186.285 1012.3 221.331C971.89 222.5 930.886 220.807 890.428 221.528C884.303 221.637 877.841 221.681 871.734 221.504C871.681 216.834 872.159 212.873 872.639 208.25C854.083 207.341 833.342 208.915 814.304 208.394C814.58 204.093 815.275 195.958 816.655 191.874C810.436 191.002 803.464 192.163 796.719 191.457C796.529 188.093 796.712 185.438 797.104 182.108C801.091 148.228 824.986 129.443 857.107 124.829C855.445 122.54 853.857 119.836 852.174 117.436C847.225 116.7 839.747 111.089 836.478 107.15C817.174 83.883 836.833 47.9166 866.759 51.2607C874.081 52.079 881.929 56.384 886.571 62.3282ZM852.174 117.436C850.696 113.16 848.9 108.074 848.664 103.581C848.173 92.9794 851.918 82.6172 859.073 74.7784C872.917 59.879 896.643 57.771 911.613 72.1702C921.811 61.7317 928.318 58.8663 942.935 57.8279C942.819 57.7593 942.704 57.6907 942.588 57.6221C934.251 47.3937 925.224 41.9119 911.738 43.7308C898.612 45.5011 893.286 51.618 886.571 62.3282C881.929 56.384 874.081 52.079 866.759 51.2607C836.833 47.9166 817.174 83.883 836.478 107.15C839.747 111.089 847.225 116.7 852.174 117.436ZM946.122 216.517L987.502 216.36C991.544 216.34 1004.51 216.477 1007.96 215.72C1006.09 180.392 976.281 147.299 939.596 149.225C905.476 151.044 879.149 178.063 876.304 212.827C876.226 213.773 876.8 214.763 877.362 215.492C881.097 217.252 939.354 216.533 946.122 216.517ZM899.624 72.6597L899.888 73.4437C900.555 75.7561 904.269 76.1111 906.341 75.93C905.269 72.6865 902.72 72.771 899.624 72.6597ZM818.846 204.274C828.296 204.246 839.253 203.971 848.597 204.208L849.11 203.951C849.775 202.364 850.519 195.523 850.845 193.438C851.465 189.682 852.252 185.955 853.204 182.269C856.662 168.764 868.238 149.467 880.443 142.268C867.578 141.02 851.87 147.465 842.191 155.712C827.641 168.11 820.599 183.82 818.973 202.499C818.919 203.09 818.876 203.682 818.846 204.274ZM906.475 151.036C907.828 149.203 901.238 149.777 899.563 149.653L899.845 150.35C901.142 153.883 904.123 152.189 906.475 151.036ZM936.998 62.5216C918.076 65.312 905.013 82.9313 907.842 101.847C910.67 120.762 928.316 133.79 947.225 130.924C966.082 128.065 979.064 110.481 976.244 91.6189C973.424 72.7569 955.865 59.7391 936.998 62.5216ZM862.189 135.291C861.771 135.571 859.837 136.611 859.861 137.158C860.241 137.5 861.587 137.447 862.019 137.477C864.773 136.408 865.753 135.891 862.189 135.291ZM882.889 134.125C886.963 134.049 888.738 133.935 892.739 133.463C900.283 131.648 904.189 129.463 910.524 124.967C901.812 121.445 894.385 115.343 889.238 107.48C880.512 94.0225 881.269 81.0968 884.511 66.3147C853.927 69.5032 840.772 106.52 865.021 126.698C869.831 130.701 876.668 133.496 882.889 134.125Z" /><path fill="#A57B61" d="M886.571 62.3282C893.286 51.618 898.612 45.5011 911.738 43.7308C925.224 41.9119 934.251 47.3937 942.588 57.6221C942.704 57.6907 942.819 57.7593 942.935 57.8279C928.318 58.8663 921.811 61.7317 911.613 72.1702C896.643 57.771 872.917 59.879 859.073 74.7784C851.918 82.6172 848.173 92.9794 848.664 103.581C848.9 108.074 850.696 113.16 852.174 117.436C847.225 116.7 839.747 111.089 836.478 107.15C817.174 83.883 836.833 47.9166 866.759 51.2607C874.081 52.079 881.929 56.384 886.571 62.3282ZM911.814 63.9843C911.099 63.839 910.006 63.3147 909.508 63.5207C909.226 64.0457 909.395 67.2584 910.708 66.9142C911.814 66.624 913.448 65.5419 914.569 64.9735C915.247 64.3209 918.357 61.699 918.593 61.2083L918.479 60.9541C914.933 59.9241 917.825 63.9465 911.814 63.9843ZM928.116 57.1227C927.858 55.5617 924.789 56.5603 923.666 56.7589C924.407 58.4163 926.696 57.4794 928.116 57.1227ZM904.578 61.9265L903.916 61.4716C902.286 60.3144 901.404 60.4916 899.475 60.6219C901.727 61.8705 902.027 61.8564 904.578 61.9265Z" /><path fill="#A57B61" fill-opacity="0.36862746" d="M914.569 64.9735C913.448 65.5419 911.814 66.624 910.708 66.9142C909.395 67.2584 909.226 64.0457 909.508 63.5207C910.006 63.3147 911.099 63.839 911.814 63.9843C912.728 64.3256 913.646 64.6553 914.569 64.9735Z" /><path fill="#A57B61" fill-opacity="0.91764706" d="M911.814 63.9843C917.825 63.9465 914.933 59.9241 918.479 60.9541L918.593 61.2083C918.357 61.699 915.247 64.3209 914.569 64.9735C913.646 64.6553 912.728 64.3256 911.814 63.9843Z" /><path fill="#A57B61" fill-opacity="0.47843137" d="M923.666 56.7589C924.789 56.5603 927.858 55.5617 928.116 57.1227C926.696 57.4794 924.407 58.4163 923.666 56.7589Z" /><path fill="#A57B61" fill-opacity="0.88627452" d="M899.475 60.6219C901.404 60.4916 902.286 60.3144 903.916 61.4716L904.578 61.9265C902.027 61.8564 901.727 61.8705 899.475 60.6219Z" /><path fill="#A57B61" d="M857.107 124.829C862.555 130.526 869.085 135.492 877.185 136.569C879.125 138.94 873.514 138.551 871.805 138.937C843.303 141.738 822.796 164.931 816.655 191.874C810.436 191.002 803.464 192.163 796.719 191.457C796.529 188.093 796.712 185.438 797.104 182.108C801.091 148.228 824.986 129.443 857.107 124.829ZM862.019 137.477C864.773 136.408 865.753 135.891 862.189 135.291C861.771 135.571 859.837 136.611 859.861 137.158C860.241 137.5 861.587 137.447 862.019 137.477Z" /><path fill="#A57B61" fill-opacity="0.69803923" d="M862.189 135.291C865.753 135.891 864.773 136.408 862.019 137.477C861.587 137.447 860.241 137.5 859.861 137.158C859.837 136.611 861.771 135.571 862.189 135.291Z" /><path fill="#A97E66" d="M910.018 130.172L910.745 130.204C917.289 130.345 926.695 134.645 931.972 138.357C924.875 138.938 929.661 138.635 925.344 140.203C922.012 142.092 924.282 142.381 922.287 144.186C918.891 143.254 917.784 142.746 914.669 141.246C914.135 140.924 912.645 140.222 912.195 140.194C907.903 139.925 911.334 135.477 910.166 134.722C909.367 134.205 905.763 135.387 904.843 135.667C902.728 136.778 901.065 137.692 899.022 138.928C904.024 139.808 909.077 139.68 912.637 143.715C915.521 147.998 917.496 146.694 922.121 145.294C925.131 143.201 926.304 142.464 929.969 141.403C932.321 141.141 932.502 140.879 932.409 138.617C935.021 140.339 938.017 142.862 940.308 145.024C937.64 145.506 935.643 145.414 933.001 145.614C927.532 146.03 922.467 147.665 917.405 149.755L916.646 150.073L915.843 150.392C907.722 142.761 899.061 141.502 888.812 139.098C894.574 137.442 897.844 136.561 903.44 134.089C905.149 132.954 908.178 131.133 910.018 130.172Z" /><path fill="#F75322" d="M877.185 136.569C877.043 136.557 886.82 138.675 883.138 139.169C880.457 139.529 875.057 138.917 871.805 138.937C873.514 138.551 879.125 138.94 877.185 136.569Z" /><path fill="#A57B61" d="M880.443 142.268C894.125 142.947 901.165 145.398 913.042 151.624C892.785 162.807 881.493 175.277 875.075 198.004C874.503 200.075 873.987 202.161 873.526 204.26C870.639 204.27 850.063 204.692 848.597 204.208L849.11 203.951C849.775 202.364 850.519 195.523 850.845 193.438C851.465 189.682 852.252 185.955 853.204 182.269C856.662 168.764 868.238 149.467 880.443 142.268ZM906.475 151.036C907.828 149.203 901.238 149.777 899.563 149.653L899.845 150.35C901.142 153.883 904.123 152.189 906.475 151.036Z" /><path fill="#A97E66" fill-opacity="0.15686275" d="M899.563 149.653C901.238 149.777 907.828 149.203 906.475 151.036C904.123 152.189 901.142 153.883 899.845 150.35L899.563 149.653Z" /><path fill="#A97E66" d="M884.511 66.3147C893.907 65.7958 901.845 68.333 908.94 74.6376L909.673 75.3003C895.338 108.264 913.553 111.621 910.524 124.967C901.812 121.445 894.385 115.343 889.238 107.48C880.512 94.0225 881.269 81.0968 884.511 66.3147ZM906.341 75.93C905.269 72.6865 902.72 72.771 899.624 72.6597L899.888 73.4437C900.555 75.7561 904.269 76.1111 906.341 75.93Z" /><path fill="#A57B61" fill-opacity="0.87843138" d="M899.624 72.6597C902.72 72.771 905.269 72.6865 906.341 75.93C904.269 76.1111 900.555 75.7561 899.888 73.4437L899.624 72.6597Z" /><path fill="#F75322" d="M882.889 134.125C886.963 134.049 888.738 133.935 892.739 133.463C891.448 134.741 889.866 136.116 887.769 135.343C886.424 134.847 882.001 136.202 882.889 134.125Z" /><path fill="#A97E66" fill-opacity="0.015686275" d="M904.843 135.667C905.763 135.387 909.367 134.205 910.166 134.722C911.334 135.477 907.903 139.925 912.195 140.194C912.645 140.222 914.135 140.924 914.669 141.246C913.672 143.024 916.104 142.287 912.637 143.715C909.077 139.68 904.024 139.808 899.022 138.928C901.065 137.692 902.728 136.778 904.843 135.667Z" /><path fill="#A57B61" fill-opacity="0.91764706" d="M931.972 138.357L932.409 138.617C932.502 140.879 932.321 141.141 929.969 141.403C928.022 140.251 927.629 140.46 925.344 140.203C929.661 138.635 924.875 138.938 931.972 138.357Z" /><path fill="#A97E66" fill-opacity="0.45882353" d="M925.344 140.203C927.629 140.46 928.022 140.251 929.969 141.403C926.304 142.464 925.131 143.201 922.121 145.294L922.287 144.186C924.282 142.381 922.012 142.092 925.344 140.203Z" /></svg>