<?xml version='1.0' encoding='utf-8'?>
<svg xmlns="http://www.w3.org/2000/svg" viewBox="818.2 223.8 192.4 342.3" width="512" height="512"><path fill="#D09F81" d="M948.55 460.427C952.575 460.565 954.77 461.909 957.37 465.123C961.707 470.484 966.955 474.594 971.512 479.753C978.734 487.93 968.767 491.406 966.399 496.672C964.899 496.135 961.618 494.364 960.504 494.328C955.317 494.16 950.046 494.214 944.86 494.169C943.512 490.997 942.293 487.771 941.208 484.499C946.553 486.814 949.517 488.268 954.634 490.935C956.558 488.264 958.244 485.661 960.061 482.936C958.989 481.732 956.624 479.154 955.902 477.802C951.689 469.911 945.51 478.236 940.678 483.567C939.96 481.99 939.223 480.934 938.574 479.249L938.962 478.644C940.474 476.329 940.964 474.157 942.93 472.109C947.853 466.953 943.788 466.965 945.508 464.12C946.741 462.938 947.585 461.843 948.55 460.427Z" /><path fill="#F54915" d="M843.812 540.782C828.898 524.003 828.549 498.823 842.995 481.638C857.44 464.452 882.305 460.465 901.399 472.272C904.59 474.246 907.523 476.608 910.131 479.306C911.09 480.298 912.002 481.333 912.867 482.409C914.873 484.905 916.608 487.607 918.043 490.47C919.435 493.247 920.538 496.161 921.333 499.164C924.839 512.412 922.15 526.535 914.02 537.567C905.89 548.598 893.196 555.349 879.505 555.922C875.519 556.089 871.529 555.727 867.639 554.848C866.97 554.696 866.306 554.53 865.645 554.349C864.772 554.109 863.906 553.844 863.049 553.552C861.168 553.885 859.066 553.748 857.528 554.11C855.335 552.519 853.932 550.349 852.27 548.193C849.153 546.084 846.312 543.595 843.812 540.782ZM869.059 548.363C882.928 551.533 897.416 546.822 906.768 536.102C916.121 525.382 918.823 510.389 913.801 497.078C912.096 492.558 909.558 488.399 906.319 484.815C901.437 479.413 895.128 475.501 888.119 473.531C888.296 474.667 888.445 475.801 888.661 476.931L889.293 480.197C889.588 481.755 890.165 483.786 890.528 485.469C892.795 485.511 901.719 485.004 903.88 486.057C903.879 486.057 905.542 487.868 905.769 488.108C906.117 489.366 906.564 490.457 907.863 490.951C908.371 494.72 908.043 494.821 907.691 498.502C902.786 498.168 898.984 497.918 894.179 499.32C875.173 504.871 864.887 522.573 866.976 541.864C867.379 545.59 866.685 545.134 869.059 548.363ZM882.762 474.946C882.336 473.949 881.95 474.383 881.058 474.782C881.652 475.757 881.853 475.613 882.762 474.946ZM873.224 492.857C874.142 487.194 873.945 478.319 873.989 472.264C858.699 473.726 845.728 484.11 840.955 498.709C836.181 513.309 840.513 529.349 851.986 539.561C852.162 539.718 852.339 539.873 852.518 540.026C855.655 542.717 859.204 544.887 863.029 546.454C865.032 543.031 863.399 540.513 859.538 540.011C858.119 539.622 857.794 539.632 856.522 538.924L856.073 538.204C854.812 536.136 853.792 536.045 853.147 534.095C855.246 512.485 858.916 507.886 873.224 492.857Z" /><path fill="#CEA083" d="M873.989 472.264C878.737 471.81 883.527 472.24 888.119 473.531C888.296 474.667 888.445 475.801 888.661 476.931L889.293 480.197C889.588 481.755 890.165 483.786 890.528 485.469C892.795 485.511 901.719 485.004 903.88 486.057C903.879 486.057 905.542 487.868 905.769 488.108C906.117 489.366 906.564 490.457 907.863 490.951C908.371 494.72 908.043 494.821 907.691 498.502C902.786 498.168 898.984 497.918 894.179 499.32C875.173 504.871 864.887 522.573 866.976 541.864C867.379 545.59 866.685 545.134 869.059 548.363C867 547.893 864.984 547.254 863.029 546.454C865.032 543.031 863.399 540.513 859.538 540.011C858.119 539.622 857.794 539.632 856.522 538.924L856.073 538.204C854.812 536.136 853.792 536.045 853.147 534.095C855.246 512.485 858.916 507.886 873.224 492.857C874.142 487.194 873.945 478.319 873.989 472.264ZM882.762 474.946C882.336 473.949 881.95 474.383 881.058 474.782C881.652 475.757 881.853 475.613 882.762 474.946Z" /><path fill="#D09F81" fill-opacity="0.44705883" d="M881.058 474.782C881.95 474.383 882.336 473.949 882.762 474.946C881.853 475.613 881.652 475.757 881.058 474.782Z" /><path fill="#D19E7F" fill-opacity="0.95294118" d="M906.319 484.815C909.558 488.399 912.096 492.558 913.801 497.078C912.602 496.684 912.21 496.759 911.181 495.985C911.181 495.317 909.773 488.185 907.863 490.951C906.564 490.457 906.117 489.366 905.769 488.108C905.967 486.989 906.104 485.929 906.319 484.815Z" /><path fill="#D19E7F" fill-opacity="0.85490197" d="M907.863 490.951C909.773 488.185 911.181 495.317 911.181 495.985C909.9 497.417 909.892 497.335 908.137 498.262L907.691 498.502C908.043 494.821 908.371 494.72 907.863 490.951Z" /><path fill="#D09F81" d="M904.793 469.66L905.446 469.14C916.619 460.076 920.247 455.548 930.227 469.295C929.187 470.88 927.382 472.821 926.13 474.27C922.045 475.14 918.952 477.397 915.642 479.799C912.02 477.451 913.54 479.091 911.869 475.617C911.084 474.948 910.421 474.362 909.672 473.641C908.731 471.97 907.43 473.101 906.318 471.687C906.005 471.288 905.851 470.854 905.48 470.429L904.793 469.66Z" /><path fill="#D09F81" d="M936.223 489.64C936.748 492.216 938.315 497.374 939.083 500.187C944.025 500.361 948.643 500.411 953.581 500.486C951.627 501.086 949.162 502.189 947.175 501.3C945.572 500.572 942.542 503.526 945.773 503.866C947.138 504.01 948.365 505.19 949.422 505.768C952.552 507.48 950.466 504.295 955.142 504.69C955.102 507.422 953.946 510.066 955 511.327C955.009 512.353 955.162 513.491 954.909 514.479C954.813 515.207 952.141 515.578 951.983 515.484C946.456 512.175 941.462 507.136 935.694 504.168C933.635 503.108 931.227 502.285 929.055 501.158C926.498 495.592 925.496 496.102 931.454 495.369C934.502 497.753 935.13 499.424 936.011 494.398C936.234 492.423 936.253 491.661 936.223 489.64Z" /><path fill="#CEA083" fill-opacity="0.94901961" d="M930.771 479.071C933.617 482.238 934.767 485.747 936.223 489.64C936.253 491.661 936.234 492.423 936.011 494.398C935.714 492.761 935.255 486.97 932.787 486.572C932.067 486.931 931.363 489.267 930.834 490.164C924.239 492.708 925.456 492.677 924.424 486.44C928.08 483.358 926.678 483.761 930.649 482.499C930.931 482.181 930.584 480.77 930.662 480.027L930.771 479.071Z" /><path fill="#CEA083" fill-opacity="0.86666667" d="M924.424 486.44C925.456 492.677 924.239 492.708 930.834 490.164C930.814 492.411 930.681 493.283 931.454 495.369C925.496 496.102 926.498 495.592 929.055 501.158C927.056 500.38 926.592 500.043 924.465 499.477C923.512 495.859 925.348 492.35 922.529 490.454C922.348 490.333 922.824 488.155 922.844 487.625C923.379 487.241 923.906 486.846 924.424 486.44Z" /><path fill="#CEA083" fill-opacity="0.13725491" d="M954.455 500.467C962.53 500.564 959.83 501.54 959.5 510.11C957.52 507.584 957.956 511.729 955.31 510.177C954.966 510.77 955.145 510.497 955 511.327C953.946 510.066 955.102 507.422 955.142 504.69C954.711 503.061 954.75 502.138 954.455 500.467Z" /><path fill="#D19E7F" fill-opacity="0.23921569" d="M930.834 490.164C931.363 489.267 932.067 486.931 932.787 486.572C935.255 486.97 935.714 492.761 936.011 494.398C935.13 499.424 934.502 497.753 931.454 495.369C930.681 493.283 930.814 492.411 930.834 490.164Z" /><path fill="#D09F81" fill-opacity="0.63529414" d="M953.581 500.486L954.455 500.467C954.75 502.138 954.711 503.061 955.142 504.69C950.466 504.295 952.552 507.48 949.422 505.768C948.365 505.19 947.138 504.01 945.773 503.866C942.542 503.526 945.572 500.572 947.175 501.3C949.162 502.189 951.627 501.086 953.581 500.486Z" /><path fill="#CEA083" fill-opacity="0.49019608" d="M918.043 490.47C919.66 489.434 921.217 488.608 922.844 487.625C922.824 488.155 922.348 490.333 922.529 490.454C925.348 492.35 923.512 495.859 924.465 499.477L923.783 499.481C922.923 499.491 922.229 499.255 921.333 499.164C920.538 496.161 919.435 493.247 918.043 490.47Z" /><path fill="#D09F81" fill-opacity="0.96078432" d="M904.793 469.66L905.48 470.429C905.851 470.854 906.005 471.288 906.318 471.687C907.43 473.101 908.731 471.97 909.672 473.641C908.531 475.312 909.613 475.802 910.712 477.547C910.502 478.318 910.434 478.572 910.131 479.306C907.523 476.608 904.59 474.246 901.399 472.272C902.796 471.084 903.265 470.66 904.793 469.66Z" /><path fill="#D19E7F" fill-opacity="0.89411765" d="M911.869 475.617C913.54 479.091 912.02 477.451 915.642 479.799C914.753 480.721 913.883 481.628 912.867 482.409C912.002 481.333 911.09 480.298 910.131 479.306C910.434 478.572 910.502 478.318 910.712 477.547C911.083 476.881 911.469 476.265 911.869 475.617Z" /><path fill="#D09F81" fill-opacity="0.58431375" d="M910.712 477.547C909.613 475.802 908.531 475.312 909.672 473.641C910.421 474.362 911.084 474.948 911.869 475.617C911.469 476.265 911.083 476.881 910.712 477.547Z" /><path fill="#CEA083" d="M959.994 256.219C977.078 263.072 1000.64 291.763 997.313 313.898C997.193 314.7 995.789 315.936 995.012 315.908C986.93 316.984 975.561 316.557 967.441 316.579C943.815 316.718 920.188 316.699 896.562 316.521C883.04 316.496 869.52 316.751 856.011 316.771C851.772 316.777 848.225 316.278 848.047 311.347C847.9 307.267 848.619 301.494 849.463 297.498C853.879 297.382 858.297 297.403 862.711 297.562C862.134 300.083 861.683 303.565 861.272 306.204C872.923 305.66 888.532 306.445 900.485 306.363C929.532 306.165 958.852 306.858 987.885 306.536C985.856 293.642 981.102 287.25 974.388 276.556C973.234 274.719 972.135 269.567 970.566 268.177C969.821 269.479 969.522 270.15 968.284 271.078C965.787 264.364 963.192 262.114 959.994 256.219Z" /><path fill="#D09F81" d="M914.146 233.784C925.833 235.37 942.9 245.443 949.24 255.582C947.533 254.818 946.703 254.226 945.132 253.198C944.122 252.013 942.197 248.81 940.774 248.512C939.469 248.239 939.887 250.84 941.081 251.37C942.816 252.14 943.286 251.929 944.288 253.465C943.559 257.428 944.316 259.804 944.418 263.745C944.724 275.507 942.544 282.495 933.868 290.379C924.37 291.118 903.826 290.498 893.623 290.514L832.013 291.11C830.026 291.11 829.332 291.406 828.233 290.306L828.651 287.567C829.395 287.999 829.395 287.966 829.974 288.428C830.731 289.033 830.577 287.416 831.019 287.169C833.148 285.975 836.513 286.709 838.896 286.46C843.769 286.344 848.939 286.368 853.786 286.502C855.615 282.208 857.36 279.777 859.799 275.947C864.716 275.917 871.1 276.043 875.899 275.802C873.555 278.9 871.454 281.954 869.252 285.156C884.619 285.162 899.99 286.089 915.358 285.589C933.85 284.987 935.493 268.002 933.947 253.661C928.077 253.432 918.895 253.794 913.644 253.118C913.996 250.25 913.855 247.944 913.759 245.085C917.347 244.884 930.298 243.284 932.676 244.035C934.824 247.189 937.546 247.505 941.218 248.713C939.194 247.173 935.636 245.049 934.408 243.364C931.223 240.741 927.637 240.364 923.815 239.261C920.656 238.349 916.733 235.809 914.146 233.784ZM865.882 286.801C868.58 284.819 861.312 284.416 860.59 284.362C859.422 288.808 862.655 287.474 865.882 286.801Z" /><path fill="#D19E7F" fill-opacity="0.89411765" d="M860.59 284.362C861.312 284.416 868.58 284.819 865.882 286.801C862.655 287.474 859.422 288.808 860.59 284.362Z" /><path fill="#D09F81" d="M866.302 268.659C879.715 259.013 888.289 248.599 906.019 247.349C905.982 249.237 906.024 250.868 905.7 252.737C899.508 252.112 899.569 252.52 900.471 258.833C896.241 259.673 892.352 263.149 888.71 264.779C885.678 263.357 875.059 264.613 886.015 266.572C885.471 267.192 884.895 267.826 884.369 268.457C882.029 268.748 868.577 268.983 866.302 268.659Z" /><path fill="#D09F81" fill-opacity="0.30588236" d="M886.015 266.572C875.059 264.613 885.678 263.357 888.71 264.779C887.486 265.814 887.485 265.808 886.015 266.572Z" /><path fill="#FAF4F3" fill-opacity="0.54901963" d="M944.696 463.183L945.508 464.12C943.788 466.965 947.853 466.953 942.93 472.109C942.204 470.898 942.253 470.858 942.209 469.404C941.332 469.077 937.153 473.895 936.537 475.468C935.211 472.892 942.8 464.723 944.696 463.183Z" /><path fill="#D09F81" fill-opacity="0.12156863" d="M936.537 475.468C937.153 473.895 941.332 469.077 942.209 469.404C942.253 470.858 942.204 470.898 942.93 472.109C940.964 474.157 940.474 476.329 938.962 478.644L938.574 479.249C937.905 477.622 937.402 476.981 936.537 475.468Z" /><path fill="#FEFEFE" fill-opacity="0.25098041" d="M944.696 463.183C945.701 462.006 946.595 460.662 947.827 459.818L948.55 460.427C947.585 461.843 946.741 462.938 945.508 464.12L944.696 463.183Z" /></svg>