<?xml version='1.0' encoding='utf-8'?>
<svg xmlns="http://www.w3.org/2000/svg" viewBox="518.9 285.4 232.8 197.6" width="512" height="512"><path fill="#F74C1B" d="M551.623 347.165C563.26 347.59 572.819 350.104 585.011 346.918C595.864 344.083 616.276 331.8 620.906 321.502C628.667 304.243 634.105 295.432 655.305 297.541C663.794 298.755 671.977 303.351 679.998 305.631C692.04 309.053 705.922 304.896 693.504 321.649C691.429 320.514 691.535 320.642 689.081 320.344C687.383 320.031 686.471 319.936 684.783 319.409C683.112 318.121 682.789 317.278 680.903 316.633C678.716 316.298 671.002 316.21 677.46 318.276L679.477 318.934C680.931 319.8 681.123 320.498 682.367 321.611C684.092 322.233 685.808 322.8 687.532 323.414C689.742 324.572 689.78 324.788 690.063 327.122L690.345 327.266C702.409 332.925 714.95 336.019 728.8 332.423C731.886 331.622 737.091 327.819 740.9 327.114C741.187 327.48 741.761 327.903 741.518 328.472C735.269 343.128 724.54 353.769 711.76 362.685C712.739 363.041 714.909 363.297 714.967 364.444C715.75 379.706 721.916 385.793 736.961 386.567C737.921 402.668 736.579 419.734 737.219 435.933C737.363 439.558 737.299 443.616 736.954 447.221C720.345 449.281 715.634 456.3 715.385 472.384C708.678 473.018 699.301 472.747 692.359 472.727L654.936 472.617L608.476 472.607C599.508 472.626 589.065 472.911 580.197 472.438C579.375 463.5 579.001 458.608 571.781 452.054C566.915 447.638 559.803 448.58 557.616 446.495C555.487 444.886 555.44 443.49 553.512 442.303L552.989 441.97C553.262 440.658 553.638 440.611 553.978 439.472C555.779 439.253 555.923 439.296 557.541 438.537C557.661 433.576 557.6 428.613 557.357 423.658C556.654 419.974 555.881 412.368 556.156 408.547C556.6 402.371 554.482 397.359 555.389 391.642C554.932 388.505 555.432 389.057 552.243 387.734C549.827 387.229 546.631 385.614 544.379 384.542C542.851 383.891 539.948 381.917 538.312 380.93C535.296 379.781 530.086 378.291 528.932 375.206C530.682 371.539 548.183 351 551.623 347.165ZM603.225 365.976C603.268 365.951 603.992 365.487 604.045 365.487C604.244 365.486 604.738 364.756 604.413 364.705C599.959 364.004 594.988 364.769 590.501 365.156C586.42 365.15 584.636 364.476 580.157 364.651C578.496 368.476 590.459 365.955 591.277 365.942C595.032 365.882 598.023 366.486 602.272 366.063L603.225 365.976ZM628.926 406.222C637.927 408.3 640.071 420.237 638.33 427.996C635.819 439.189 622.971 442.936 617.694 431.346C614.533 424.404 616.465 421.312 616.815 414.68C616.774 411.735 617.092 409.89 618.436 407.203C618.289 406.527 618.166 406.389 618.614 405.842C617.669 405.127 617.658 405.216 617.294 404.106C618.707 402.184 631.266 398.164 634.697 396.427C649.172 389.101 668.527 380.885 674.094 364.255C675.225 360.878 675.543 356.538 676.236 353.018C677.039 353.303 677.844 353.581 678.651 353.852C680.053 354.916 681.516 355.898 683.031 356.794C689.138 360.381 698.31 362.871 705.179 360.833C716.075 357.6 727.758 345.265 732.971 335.615C714.621 339.535 705.037 338.406 687.617 330.778C685.576 329.59 683.129 328.592 680.9 327.76C670.324 323.816 662.271 318.709 652.621 327.624L651.869 328.3C648.202 332.816 646.93 338.073 644.289 343.15C637.243 356.697 624.185 364.375 610.655 370.155C610.597 371.09 610.546 372.026 610.5 372.962C609.029 373.016 608.501 373.04 607.031 373.315C604.92 373.464 603.019 373.362 600.903 373.302C600.753 373.358 600.604 373.414 600.454 373.47C594.683 377.681 589.037 375.951 582.356 376.512C580.527 376.156 580.257 375.728 578.828 374.427L579.575 373.814C577.837 373.384 576.095 372.944 574.356 372.512C571.116 381.06 568.578 383.774 561.062 388.454C561.186 392.287 560.952 400.422 561.475 403.593C561.526 406.39 561.486 409.142 561.498 411.935C561.364 422.58 561.375 433.226 561.532 443.871C574.365 446.533 582.709 455.112 583.969 468.444C596.733 468.863 610.36 468.512 623.204 468.592C652.466 468.775 681.886 468.286 711.139 468.619C713.303 454.475 718.21 446.223 733.285 443.919L733.154 390.404C718.569 387.377 712.934 381.802 711.494 366.957C699.471 365.945 692.068 365.783 681.18 360.286C677.298 356.009 678.877 370.367 673.086 374.506C672.608 374.848 664.363 383.85 663.452 384.858C658.575 388.066 653.543 391.032 648.375 393.746C645.338 395.344 631.278 402.01 629.933 403.278L629.827 403.92C629.52 404.684 629.22 405.452 628.926 406.222ZM603.04 412.856C598.31 414.768 597.564 417.147 595.062 413.222C597.15 410.676 600.832 408.456 603.634 406.718C608.021 405.794 607.186 406.483 607.403 410.308C608.499 417.96 607.58 430.133 606.502 437.74C606.356 438.769 603.297 439.821 603.269 435.004C603.226 427.637 603.326 420.137 603.04 412.856ZM629.32 434.501C631.419 432.898 636.769 426.95 633.419 423.941C632.475 423.093 632.455 418.902 632.274 417.5C633.352 412.943 631.845 410.379 625.824 409.956C618.333 414.898 616.2 435.062 629.32 434.501Z" /><path fill="#D6B8AB" d="M551.623 347.165C563.26 347.59 572.819 350.104 585.011 346.918C595.864 344.083 616.276 331.8 620.906 321.502C628.667 304.243 634.105 295.432 655.305 297.541C663.794 298.755 671.977 303.351 679.998 305.631C692.04 309.053 705.922 304.896 693.504 321.649C691.429 320.514 691.535 320.642 689.081 320.344C687.383 320.031 686.471 319.936 684.783 319.409C683.112 318.121 682.789 317.278 680.903 316.633C678.716 316.298 671.002 316.21 677.46 318.276L679.477 318.934C680.931 319.8 681.123 320.498 682.367 321.611C684.092 322.233 685.808 322.8 687.532 323.414C689.742 324.572 689.78 324.788 690.063 327.122C674.867 322.456 668.474 313.502 651.565 323.363C644.452 330.833 644.575 332.563 640.725 341.871C637.809 348.922 624.497 360.352 617.416 362.374C601.651 370.977 588.496 372.464 571.218 367.745L570.474 371.498C567.956 384.566 555.838 383.038 557.337 389.006C554.699 389.471 556.179 389.02 555.389 391.642C554.932 388.505 555.432 389.057 552.243 387.734C549.827 387.229 546.631 385.614 544.379 384.542C542.851 383.891 539.948 381.917 538.312 380.93C535.296 379.781 530.086 378.291 528.932 375.206C530.682 371.539 548.183 351 551.623 347.165ZM603.225 365.976C603.268 365.951 603.992 365.487 604.045 365.487C604.244 365.486 604.738 364.756 604.413 364.705C599.959 364.004 594.988 364.769 590.501 365.156C586.42 365.15 584.636 364.476 580.157 364.651C578.496 368.476 590.459 365.955 591.277 365.942C595.032 365.882 598.023 366.486 602.272 366.063L603.225 365.976Z" /><path fill="#C39C8A" d="M616.837 329.339C620.565 325.638 624.761 322.421 628.609 318.787C632.307 315.296 635.195 313.067 640.25 312.102C649.489 310.34 647.622 320.854 651.565 323.363C644.452 330.833 644.575 332.563 640.725 341.871C637.809 348.922 624.497 360.352 617.416 362.374C621.795 357.383 625.815 355.388 626.464 347.748C627.152 339.64 621.828 335.252 616.837 329.339Z" /><path fill="#C39C8A" d="M538.312 380.93C542.987 374.102 545.202 367.92 548.577 360.512C555.094 361.906 564.791 365.301 571.218 367.745L570.474 371.498C567.956 384.566 555.838 383.038 557.337 389.006C554.699 389.471 556.179 389.02 555.389 391.642C554.932 388.505 555.432 389.057 552.243 387.734C549.827 387.229 546.631 385.614 544.379 384.542C542.851 383.891 539.948 381.917 538.312 380.93Z" /><path fill="#D8BAAE" fill-opacity="0.8509804" d="M580.157 364.651C584.636 364.476 586.42 365.15 590.501 365.156C594.988 364.769 599.959 364.004 604.413 364.705C604.738 364.756 604.244 365.486 604.045 365.487C603.992 365.487 603.268 365.951 603.225 365.976L602.272 366.063C598.023 366.486 595.032 365.882 591.277 365.942C590.459 365.955 578.496 368.476 580.157 364.651Z" /><path fill="#D6B8AB" d="M555.389 391.642C556.179 389.02 554.699 389.471 557.337 389.006C557.878 396.395 557.809 416.598 557.357 423.658C556.654 419.974 555.881 412.368 556.156 408.547C556.6 402.371 554.482 397.359 555.389 391.642Z" /><path fill="#D6B8AB" d="M557.541 438.537C557.692 441.046 557.568 443.908 557.616 446.495C555.487 444.886 555.44 443.49 553.512 442.303L552.989 441.97C553.262 440.658 553.638 440.611 553.978 439.472C555.779 439.253 555.923 439.296 557.541 438.537Z" /><path fill="#F74C1B" d="M682.562 406.064C695.05 406.208 697.187 416.305 695.645 426.757C694.722 433.014 692.364 436.172 686.634 438.238C685.17 438.264 682.485 438.341 681.127 437.793C673.018 434.52 671.746 421.346 674.317 414.193C675.874 409.86 678.672 407.709 682.562 406.064ZM686.576 434.161C692.312 430.269 692.612 423.763 691.446 417.251C690.455 411.716 687.945 409.782 682.485 410.034L681.752 410.654C675.171 416.077 675.157 436.576 686.576 434.161Z" /><path fill="#F74C1B" d="M654.656 406.104C667.847 406.134 669.647 421.783 665.241 431.431C663.33 435.617 661.776 436.601 657.667 438.247C651.498 438.452 647.557 436.268 645.683 430.193C642.655 420.377 644.335 409.693 654.656 406.104ZM656.417 434.679C659.858 432.59 662.264 430.043 662.849 425.998C663.884 418.848 663.322 410.986 654.946 409.964C644.813 414.716 646.375 433.806 656.417 434.679Z" /><path fill="#C39C8A" d="M651.869 328.3L652.621 327.624C662.271 318.709 670.324 323.816 680.9 327.76C683.129 328.592 685.576 329.59 687.617 330.778C686.722 331.12 686.355 331.187 685.415 331.393C684.291 331.051 683.211 330.614 682.05 330.416C680.908 329.889 674.225 326.461 673.824 328.433C673.153 331.738 676.152 331.567 678.37 331.493C682.014 331.53 681.463 330.853 684.058 333.171C679.885 339.755 677.94 346.101 678.651 353.852C677.844 353.581 677.039 353.303 676.236 353.018C675.543 356.538 675.225 360.878 674.094 364.255C668.527 380.885 649.172 389.101 634.697 396.427C631.266 398.164 618.707 402.184 617.294 404.106C617.658 405.216 617.669 405.127 618.614 405.842C618.166 406.389 618.289 406.527 618.436 407.203C612.367 405.04 611.395 405.421 607.403 410.308C607.186 406.483 608.021 405.794 603.634 406.718C600.082 404.554 599.526 407.027 597.246 406.639C597.017 406.42 594.74 400.346 592.107 399.148C590.87 398.585 586.554 389.463 588.265 387.911C588.573 387.631 592.532 387.085 593.543 386.809C593.883 385.663 599.805 385.005 601.862 383.407L601.973 383.108L602.119 383.064L602.09 383.201C602.114 383.154 602.138 383.106 602.161 383.058L602.093 383.032C601.79 383.11 600.101 383.746 600.093 382.986C600.249 382.816 605.997 379.586 606.58 378.258C607.106 377.062 609.337 375.893 610.599 375.36C610.548 374.521 610.509 373.805 610.5 372.962C610.546 372.026 610.597 371.09 610.655 370.155C624.185 364.375 637.243 356.697 644.289 343.15C646.93 338.073 648.202 332.816 651.869 328.3ZM634.933 360.189C635.41 360.257 635.88 360.022 636.109 359.598C636.339 359.174 636.281 358.653 635.963 358.29C635.645 357.928 635.136 357.802 634.686 357.974C634.196 358.161 633.895 358.656 633.953 359.177C634.011 359.698 634.414 360.114 634.933 360.189ZM622.854 397.318C622.864 397.042 622.914 396.97 622.806 396.788C622.559 396.735 622.438 396.825 622.139 396.914C621.882 397.169 621.684 397.291 621.666 397.486C622.045 397.56 622.474 397.387 622.854 397.318Z" /><path fill="#D8BAAE" d="M651.869 328.3L652.621 327.624C662.271 318.709 670.324 323.816 680.9 327.76C683.129 328.592 685.576 329.59 687.617 330.778C686.722 331.12 686.355 331.187 685.415 331.393C684.291 331.051 683.211 330.614 682.05 330.416C680.908 329.889 674.225 326.461 673.824 328.433C673.153 331.738 676.152 331.567 678.37 331.493C682.014 331.53 681.463 330.853 684.058 333.171C679.885 339.755 677.94 346.101 678.651 353.852C677.844 353.581 677.039 353.303 676.236 353.018C675.545 349.107 670.635 341.993 667.714 339.026C655.217 340.888 654.584 341.463 651.869 328.3Z" /><path fill="#DAB6A7" d="M610.599 375.36C608.385 381.867 600.068 386.466 593.543 386.809C593.883 385.663 599.805 385.005 601.862 383.407L601.973 383.108L602.119 383.064L602.09 383.201C602.114 383.154 602.138 383.106 602.161 383.058L602.093 383.032C601.79 383.11 600.101 383.746 600.093 382.986C600.249 382.816 605.997 379.586 606.58 378.258C607.106 377.062 609.337 375.893 610.599 375.36Z" /><path fill="#C39C8A" fill-opacity="0.94901961" d="M634.686 357.974C635.136 357.802 635.645 357.928 635.963 358.29C636.281 358.653 636.339 359.174 636.109 359.598C635.88 360.022 635.41 360.257 634.933 360.189C634.414 360.114 634.011 359.698 633.953 359.177C633.895 358.656 634.196 358.161 634.686 357.974Z" /><path fill="#C39C8A" fill-opacity="0.85490197" d="M622.139 396.914C622.438 396.825 622.559 396.735 622.806 396.788C622.914 396.97 622.864 397.042 622.854 397.318C622.474 397.387 622.045 397.56 621.666 397.486C621.684 397.291 621.882 397.169 622.139 396.914Z" /><path fill="#D6B8AB" fill-opacity="0.91764706" d="M607.031 373.315C608.501 373.04 609.029 373.016 610.5 372.962C610.509 373.805 610.548 374.521 610.599 375.36C609.337 375.893 607.106 377.062 606.58 378.258C605.997 379.586 600.249 382.816 600.093 382.986C600.101 383.746 601.79 383.11 602.093 383.032L602.161 383.058C602.138 383.106 602.114 383.154 602.09 383.201L602.119 383.064L601.973 383.108L601.862 383.407C599.805 385.005 593.883 385.663 593.543 386.809C592.532 387.085 588.573 387.631 588.265 387.911C586.554 389.463 590.87 398.585 592.107 399.148C594.74 400.346 597.017 406.42 597.246 406.639C599.526 407.027 600.082 404.554 603.634 406.718C600.832 408.456 597.15 410.676 595.062 413.222C594.108 413.288 594.28 413.538 593.35 413.715C585.58 415.196 575.054 415.789 567.394 415.342C567.529 414.654 567.665 413.996 567.775 413.303C567.552 410.789 566.143 398.461 566.669 396.643C568.061 393.747 568.629 391.658 570.366 388.644C570.772 388.284 575.946 382.055 576.142 381.702C577.995 380.769 578.722 380.398 580.767 379.948C586.251 380.325 597.401 381.288 602.44 379.138C604.41 378.298 606.957 376.383 608.812 375.155C609.961 374.394 607.254 373.416 607.031 373.315Z" /><path fill="#F74C1B" d="M618.614 405.842C624.484 407.104 623.333 405.284 629.244 403.343C629.432 403.281 629.855 403.955 629.827 403.92C629.52 404.684 629.22 405.452 628.926 406.222C637.927 408.3 640.071 420.237 638.33 427.996C635.819 439.189 622.971 442.936 617.694 431.346C614.533 424.404 616.465 421.312 616.815 414.68C616.774 411.735 617.092 409.89 618.436 407.203C618.289 406.527 618.166 406.389 618.614 405.842ZM629.32 434.501C631.419 432.898 636.769 426.95 633.419 423.941C632.475 423.093 632.455 418.902 632.274 417.5C633.352 412.943 631.845 410.379 625.824 409.956C618.333 414.898 616.2 435.062 629.32 434.501Z" /><path fill="#FEFEFE" d="M618.614 405.842C624.484 407.104 623.333 405.284 629.244 403.343C629.432 403.281 629.855 403.955 629.827 403.92C629.52 404.684 629.22 405.452 628.926 406.222C620.076 407.793 621.883 407.173 616.815 414.68C616.774 411.735 617.092 409.89 618.436 407.203C618.289 406.527 618.166 406.389 618.614 405.842Z" /><path fill="#F74C1B" d="M603.634 406.718C608.021 405.794 607.186 406.483 607.403 410.308C608.499 417.96 607.58 430.133 606.502 437.74C606.356 438.769 603.297 439.821 603.269 435.004C603.226 427.637 603.326 420.137 603.04 412.856C598.31 414.768 597.564 417.147 595.062 413.222C597.15 410.676 600.832 408.456 603.634 406.718Z" /><path fill="#D6B8AB" fill-opacity="0.8509804" d="M574.356 372.512C576.095 372.944 577.837 373.384 579.575 373.814L578.828 374.427L578.149 374.554C575.686 374.928 574.296 376.611 573.013 378.585L572.609 379.214C571.515 382.339 570.094 383.323 567.899 385.645C562.308 389.232 558.23 393.839 566.669 396.643C566.143 398.461 567.552 410.789 567.775 413.303C567.57 413.09 566.579 411.97 566.367 411.823C562.326 409.035 567.505 404.64 561.475 403.593C560.952 400.422 561.186 392.287 561.062 388.454C568.578 383.774 571.116 381.06 574.356 372.512Z" /><path fill="#D6B8AB" fill-opacity="0.81176472" d="M600.454 373.47C600.604 373.414 600.753 373.358 600.903 373.302C603.019 373.362 604.92 373.464 607.031 373.315C607.254 373.416 609.961 374.394 608.812 375.155C606.957 376.383 604.41 378.298 602.44 379.138C597.401 381.288 586.251 380.325 580.767 379.948C582.036 379.57 585.507 378.977 585.875 377.218C584.645 376.982 583.593 376.802 582.356 376.512C589.037 375.951 594.683 377.681 600.454 373.47Z" /><path fill="#D8BAAE" fill-opacity="0.97647059" d="M663.452 384.858C664.363 383.85 672.608 374.848 673.086 374.506C678.877 370.367 677.298 356.009 681.18 360.286C681.128 360.985 681.088 361.097 680.923 361.8C679.017 364.843 677.784 370.834 678.673 374.521C675.747 377.351 667.278 383.397 663.452 384.858Z" /><path fill="#D6B8AB" d="M579.575 373.814C587.994 374.816 592.059 374.598 600.454 373.47C594.683 377.681 589.037 375.951 582.356 376.512C580.527 376.156 580.257 375.728 578.828 374.427L579.575 373.814Z" /><path fill="#D6B8AB" fill-opacity="0.63921571" d="M678.673 374.521C677.784 370.834 679.017 364.843 680.923 361.8C681.02 362.223 681.708 364.379 681.714 364.345C681.47 364.633 680.913 364.434 680.745 364.77C680.891 365.857 687.15 367.226 678.673 374.521Z" /><path fill="#D8BAAE" fill-opacity="0.42352942" d="M572.609 379.214C573.901 380.889 574 380.845 576.142 381.702C575.946 382.055 570.772 388.284 570.366 388.644C569.45 387.306 569.092 386.719 567.899 385.645C570.094 383.323 571.515 382.339 572.609 379.214Z" /><path fill="#F6EBE8" fill-opacity="0.23137255" d="M561.475 403.593C567.505 404.64 562.326 409.035 566.367 411.823C566.579 411.97 567.57 413.09 567.775 413.303C567.665 413.996 567.529 414.654 567.394 415.342C566.61 414.739 562.778 411.063 562.322 410.182C562.002 410.266 561.742 411.458 561.498 411.935C561.486 409.142 561.526 406.39 561.475 403.593Z" /><path fill="#DAB6A7" fill-opacity="0.85882354" d="M678.37 331.493C676.152 331.567 673.153 331.738 673.824 328.433C674.225 326.461 680.908 329.889 682.05 330.416L678.37 331.493Z" /><path fill="#D8BAAE" d="M600.903 373.302C604.511 372.288 607.152 371.555 610.655 370.155C610.597 371.09 610.546 372.026 610.5 372.962C609.029 373.016 608.501 373.04 607.031 373.315C604.92 373.464 603.019 373.362 600.903 373.302Z" /><path fill="#D8BAAE" fill-opacity="0.92156863" d="M682.05 330.416C683.211 330.614 684.291 331.051 685.415 331.393C684.914 332.119 684.668 332.526 684.058 333.171C681.463 330.853 682.014 331.53 678.37 331.493L682.05 330.416Z" /><path fill="#DAB6A7" d="M544.379 384.542C546.631 385.614 549.827 387.229 552.243 387.734L551.526 393.672C551.25 396.091 550.773 397.863 548.976 399.536C547.862 399.925 546.971 399.929 546.83 400.749C545.478 408.604 545.603 423.265 546.961 430.993C547.339 433.146 552.925 438.429 553.978 439.472C553.638 440.611 553.262 440.658 552.989 441.97L551.999 443.07C548.286 443.84 541.195 436.674 540.734 433.188C539.037 420.374 539.028 405.836 540.264 392.954C540.404 391.496 543.572 386.01 544.379 384.542Z" /><path fill="#D8BAAE" fill-opacity="0.0078431377" d="M552.243 387.734C555.432 389.057 554.932 388.505 555.389 391.642C554.482 397.359 556.6 402.371 556.156 408.547C555.881 412.368 556.654 419.974 557.357 423.658C557.6 428.613 557.661 433.576 557.541 438.537C555.923 439.296 555.779 439.253 553.978 439.472C552.925 438.429 547.339 433.146 546.961 430.993C545.603 423.265 545.478 408.604 546.83 400.749C546.971 399.929 547.862 399.925 548.976 399.536C550.773 397.863 551.25 396.091 551.526 393.672L552.243 387.734Z" /><path fill="#D8BAAE" fill-opacity="0.44313726" d="M689.081 320.344C691.535 320.642 691.429 320.514 693.504 321.649C691.287 324.222 690.556 324.085 690.345 327.266L690.063 327.122C689.78 324.788 689.742 324.572 687.532 323.414C688.371 322.244 688.481 321.601 689.081 320.344Z" /><path fill="#D8BAAE" fill-opacity="0.23137255" d="M684.783 319.409C686.471 319.936 687.383 320.031 689.081 320.344C688.481 321.601 688.371 322.244 687.532 323.414C685.808 322.8 684.092 322.233 682.367 321.611C683.371 320.591 683.659 320.29 684.783 319.409Z" /><path fill="#D8BAAE" fill-opacity="0.66274512" d="M680.903 316.633C682.789 317.278 683.112 318.121 684.783 319.409C683.659 320.29 683.371 320.591 682.367 321.611C681.123 320.498 680.931 319.8 679.477 318.934C680.282 318.285 680.613 317.655 680.903 316.633Z" /><path fill="#D6B8AB" fill-opacity="0.5529412" d="M679.477 318.934L677.46 318.276C671.002 316.21 678.716 316.298 680.903 316.633C680.613 317.655 680.282 318.285 679.477 318.934Z" /></svg>