<?xml version='1.0' encoding='utf-8'?>
<svg xmlns="http://www.w3.org/2000/svg" viewBox="320.3 511.9 153.6 222.0" width="512" height="512"><path fill="#F74C1B" d="M432.969 528.419C444.533 522.098 452.065 527.227 452.531 540.142C452.658 543.673 452.561 547.234 452.524 550.767C457.023 553.902 457.549 553.856 463.089 554.083C463.295 563.649 463.967 578.331 463.016 587.477L452.66 587.674L452.584 672.257L452.574 696.148C452.585 701.101 452.487 705.576 452.316 710.81C451.957 721.789 438.366 723.915 431.698 717.525C428.117 714.093 428.602 703.509 428.622 698.314C424.812 698.101 418.214 698.878 416.076 696.987C415.651 695.74 415.495 695.535 415.448 694.239C409.371 695.02 409.575 693.329 409.671 688.501C409.915 676.379 409.954 664.211 409.757 652.088C410.005 638.252 409.632 623.8 409.769 609.917C409.827 604.079 410.221 585.472 409.159 580.553C407.683 578.727 407.596 544.792 408.547 542.058C410.809 541.937 413.011 541.896 415.27 541.82C415.516 540.913 415.513 540.933 415.631 539.995L415.779 540.535C416.212 542.308 426.6 541.877 428.469 541.682C428.542 538.507 428.894 535.708 429.505 532.586C430.491 531.227 431.081 530.157 432.342 529.011L432.969 528.419ZM428.496 651.927L428.259 587.938C423.471 587.694 420.605 587.596 415.859 587.921C415.35 593.006 415.771 602.107 415.784 607.664C415.843 621.43 415.803 635.197 415.665 648.962C415.707 649.525 415.706 651.394 416.099 651.879C416.93 652.203 427.22 651.978 428.496 651.927ZM425.124 550.152C426.245 549.999 426.403 550.081 427.108 549.369C425.517 547.425 423.824 547.99 421.394 548.105L420.629 548.427C420.458 548.497 418.988 549.03 418.899 549.527C418.937 549.315 418.8 549.71 418.963 549.751C420.398 550.113 423.742 550.089 425.124 550.152ZM432.363 654.031C434.995 654.867 435.55 654.747 438.501 654.089C442.424 653.214 443.511 655.299 446.201 656.634C446.937 656.463 447.323 656.272 448.026 655.994C449.006 653.065 448.514 594.639 448.541 587.83C443.243 587.479 437.859 587.62 432.543 587.67C431.843 608.715 432.345 632.793 432.363 654.031ZM448.591 551.997C448.215 546.529 449.363 537.69 447.313 532.651C446.763 531.299 444.249 530.176 442.763 529.998C434.263 528.979 433.455 533.067 432.666 540.082C434.466 543.055 434.501 544.504 434.091 548.254C433.742 551.441 434.716 550.655 436.788 552.781C440.633 552.296 444.704 552.078 448.591 551.997ZM459.15 570.546C452.549 570.369 443.113 570.186 436.59 570.543L436.23 570.878C429.378 577.164 441.889 579.559 432.565 580.154C429.644 580.141 426.724 580.101 423.803 580.031C424.158 578.674 424.007 576.035 424.262 575.765C426.556 573.403 422.55 572.941 421.328 573.717C421.096 573.865 421.293 578.649 421.082 579.953C419.239 581.321 420.816 583.041 422.233 584.058C434.123 583.014 446.879 584.834 459.031 583.451C459.156 579.241 459.079 574.82 459.15 570.546ZM425.051 558.966C422.509 559.71 421.635 559.737 419.62 561.28C421.157 565.29 424.44 564.715 428.555 563.575C428.928 563.472 429.45 562.223 429.46 561.795C429.508 559.735 426.66 559.097 425.051 558.966ZM446.57 691.826C446.418 686.786 446.532 681.667 446.454 676.592C446.442 673.291 446.551 664.461 446.282 660.732C446.265 660.5 444.731 660.391 444.667 660.384C443.174 660.418 441.837 660.438 440.347 660.414C438.012 660.77 437.717 661.255 435.353 660.743C433.17 660.271 431.221 661.454 428.651 661.428C424.858 661.406 418.121 662.591 420.892 668.005C421.278 671.327 420.92 674.24 420.951 677.703C421.106 680.446 421.511 680.78 420.917 683.58C419.751 693.406 421.844 690.46 428.631 691.937C432.714 692.15 434.45 691.414 437.75 691.459C441.533 691.511 442.021 692.147 446.57 691.826ZM459.444 557.953C455.893 557.824 453.522 557.656 449.89 557.664C445.539 558.645 437.015 557.123 432.65 558.155C432.037 558.301 430.71 564.805 433.95 564.635C434.224 564.621 436.222 565.863 436.455 566.056C442.013 567.115 453.795 566.139 459.095 566.742C459.616 563.403 459.433 561.273 459.444 557.953ZM432.683 698.053C433.071 705.995 429.866 718.641 442.502 716.923C443.817 716.744 444.771 716.287 445.921 715.684L446.272 715.503C449.782 711.095 448.491 704.577 448.409 698.162C443.035 697.993 438.043 698.044 432.683 698.053Z" /><path fill="#A97E66" d="M415.631 539.995L415.779 540.535C416.212 542.308 426.6 541.877 428.469 541.682C428.586 544.424 428.657 550.321 428.257 553.234C428.237 553.38 427.152 553.541 427.028 553.565C423.725 553.982 418.943 553.832 415.516 553.794C415.631 561.762 415.8 572.292 415.494 580.143C413.053 580.157 411.572 580.315 409.159 580.553C407.683 578.727 407.596 544.792 408.547 542.058C410.809 541.937 413.011 541.896 415.27 541.82C415.516 540.913 415.513 540.933 415.631 539.995ZM425.124 550.152C426.245 549.999 426.403 550.081 427.108 549.369C425.517 547.425 423.824 547.99 421.394 548.105L420.629 548.427C420.458 548.497 418.988 549.03 418.899 549.527C418.937 549.315 418.8 549.71 418.963 549.751C420.398 550.113 423.742 550.089 425.124 550.152Z" /><path fill="#A57B61" d="M415.631 539.995L415.779 540.535C416.212 542.308 426.6 541.877 428.469 541.682C428.586 544.424 428.657 550.321 428.257 553.234C428.237 553.38 427.152 553.541 427.028 553.565C423.266 553.19 419.074 553.333 415.251 553.331C415.039 549.529 414.855 545.615 415.27 541.82C415.516 540.913 415.513 540.933 415.631 539.995ZM425.124 550.152C426.245 549.999 426.403 550.081 427.108 549.369C425.517 547.425 423.824 547.99 421.394 548.105L420.629 548.427C420.458 548.497 418.988 549.03 418.899 549.527C418.937 549.315 418.8 549.71 418.963 549.751C420.398 550.113 423.742 550.089 425.124 550.152Z" /><path fill="#A57B61" fill-opacity="0.019607844" d="M421.394 548.105C423.824 547.99 425.517 547.425 427.108 549.369C426.403 550.081 426.245 549.999 425.124 550.152C423.742 550.089 420.398 550.113 418.963 549.751C418.8 549.71 418.937 549.315 418.899 549.527C418.988 549.03 420.458 548.497 420.629 548.427L421.394 548.105Z" /><path fill="#D8BAAE" d="M409.159 580.553C411.572 580.315 413.053 580.157 415.494 580.143C415.473 583.155 415.442 584.885 415.859 587.921C415.35 593.006 415.771 602.107 415.784 607.664C415.843 621.43 415.803 635.197 415.665 648.962L415.603 649.425C415.083 653.492 414.744 651.962 409.757 652.088C410.005 638.252 409.632 623.8 409.769 609.917C409.827 604.079 410.221 585.472 409.159 580.553Z" /><path fill="#A57B61" d="M415.665 648.962C415.707 649.525 415.706 651.394 416.099 651.879C416.93 652.203 427.22 651.978 428.496 651.927C428.492 657.216 429.17 656.499 423.367 656.51C420.846 656.515 418.596 656.618 416.103 656.868C414.864 666.854 415.763 683.567 415.448 694.239C409.371 695.02 409.575 693.329 409.671 688.501C409.915 676.379 409.954 664.211 409.757 652.088C414.744 651.962 415.083 653.492 415.603 649.425L415.665 648.962Z" /><path fill="#D6B8AB" fill-opacity="0.93725491" d="M435.391 679.451C433.852 678.505 434.41 679.38 433.127 679.18C432.046 676.944 432.138 673.695 432.461 671.24C433.193 665.678 432.767 669.084 439.28 667.88C440.592 671.261 440.381 673.002 440.278 676.5C440.192 679.412 440.924 682.375 441.033 685.54L439.625 687.475C436.852 688.24 433.784 687.929 430.87 688.006C425.913 688.136 425.113 688.441 423.978 683.767C424.063 682.821 424.169 681.829 424.21 680.882C426.454 680.581 425.527 681.722 427.032 682.156L427.054 682.104C427.11 682.095 428.946 683.285 430.213 683.453C435.502 683.09 435.469 684.924 435.391 679.451Z" /><path fill="#A97E66" d="M419.837 557.762C425.327 557.387 431.612 557.793 437.25 557.531C439.364 557.433 447.935 557.425 449.89 557.664C445.539 558.645 437.015 557.123 432.65 558.155C432.037 558.301 430.71 564.805 433.95 564.635C434.224 564.621 436.222 565.863 436.455 566.056C442.013 567.115 453.795 566.139 459.095 566.742C456.675 567.193 448.711 567.016 445.923 567.019L419.057 567.055C419.003 564.277 418.962 562.476 419.156 559.69C418.979 558.72 418.651 557.901 419.837 557.762ZM419.62 561.28C421.157 565.29 424.44 564.715 428.555 563.575C428.928 563.472 429.45 562.223 429.46 561.795C429.508 559.735 426.66 559.097 425.051 558.966C422.509 559.71 421.635 559.737 419.62 561.28Z" /><path fill="#A97E66" d="M419.156 559.69C418.979 558.72 418.651 557.901 419.837 557.762C421.926 558.27 422.934 558.238 425.051 558.966C422.509 559.71 421.635 559.737 419.62 561.28C419.741 561.935 419.819 562.551 419.853 563.212C419.818 563.222 419.782 563.231 419.746 563.24C419.49 562.358 419.58 561.33 419.299 560.237L419.156 559.69Z" /><path fill="#A97E66" d="M419.117 570.159C423.582 570.305 428.05 570.365 432.518 570.339C433.939 570.389 435.167 570.411 436.59 570.543L436.23 570.878C429.378 577.164 441.889 579.559 432.565 580.154C429.644 580.141 426.724 580.101 423.803 580.031C424.158 578.674 424.007 576.035 424.262 575.765C426.556 573.403 422.55 572.941 421.328 573.717C421.096 573.865 421.293 578.649 421.082 579.953C419.239 581.321 420.816 583.041 422.233 584.058C421.566 584.087 419.384 584.275 419.333 583.69C419.102 581.004 419.14 572.449 419.117 570.159Z" /><path fill="#DAB6A7" d="M432.518 570.339C433.939 570.389 435.167 570.411 436.59 570.543L436.23 570.878C429.378 577.164 441.889 579.559 432.565 580.154C432.518 576.882 432.503 573.61 432.518 570.339Z" /><path fill="#D6B8AB" fill-opacity="0.9254902" d="M428.256 665.177C429.958 664.309 431.455 664.38 432.974 665.573C434.907 667.091 437.075 666.532 439.28 667.88C432.767 669.084 433.193 665.678 432.461 671.24C432.138 673.695 432.046 676.944 433.127 679.18C434.41 679.38 433.852 678.505 435.391 679.451L434.467 679.771C431.35 680.83 432.358 680.281 430.213 683.453C428.946 683.285 427.11 682.095 427.054 682.104L427.032 682.156C425.527 681.722 426.454 680.581 424.21 680.882C424.068 678.289 424.463 675.668 424.259 672.688C424.988 671.554 425.673 670.392 426.314 669.206C426.614 668.506 426.936 667.816 427.278 667.136C427.729 666.366 427.898 666.004 428.256 665.177Z" /><path fill="#D6B8AB" fill-opacity="0.019607844" d="M439.625 687.475C446.1 686.809 444.189 685.47 444.934 680.224C445.132 678.827 445.391 677.552 445.535 676.068L445.742 675.828L445.741 675.765C446.029 675.981 446.232 676.296 446.454 676.592C446.532 681.667 446.418 686.786 446.57 691.826C442.021 692.147 441.533 691.511 437.75 691.459C434.45 691.414 432.714 692.15 428.631 691.937C421.844 690.46 419.751 693.406 420.917 683.58L423.978 683.767C425.113 688.441 425.913 688.136 430.87 688.006C433.784 687.929 436.852 688.24 439.625 687.475Z" /><path fill="#D8BAAE" fill-opacity="0.062745102" d="M444.667 660.384C444.731 660.391 446.265 660.5 446.282 660.732C446.551 664.461 446.442 673.291 446.454 676.592C446.232 676.296 446.029 675.981 445.741 675.765L445.742 675.828L445.535 676.068C445.391 677.552 445.132 678.827 444.934 680.224C444.189 685.47 446.1 686.809 439.625 687.475L441.033 685.54C443.286 681.56 441.578 680.871 442.354 676.498C443.192 671.779 441.642 668.363 440.285 663.991C439.986 663.03 439.802 661.388 440.347 660.414C441.837 660.438 443.174 660.418 444.667 660.384Z" /><path fill="#D6B8AB" fill-opacity="0.67843139" d="M428.651 661.428C431.221 661.454 433.17 660.271 435.353 660.743C437.717 661.255 438.012 660.77 440.347 660.414C439.802 661.388 439.986 663.03 440.285 663.991C441.642 668.363 443.192 671.779 442.354 676.498C441.578 680.871 443.286 681.56 441.033 685.54C440.924 682.375 440.192 679.412 440.278 676.5C440.381 673.002 440.592 671.261 439.28 667.88C437.075 666.532 434.907 667.091 432.974 665.573C431.455 664.38 429.958 664.309 428.256 665.177C428.248 663.858 428.544 662.801 428.651 661.428Z" /><path fill="#DAB6A7" d="M418.95 660.123C426.581 660.196 437.238 659.673 444.667 660.384C443.174 660.418 441.837 660.438 440.347 660.414C438.012 660.77 437.717 661.255 435.353 660.743C433.17 660.271 431.221 661.454 428.651 661.428C424.858 661.406 418.121 662.591 420.892 668.005C421.278 671.327 420.92 674.24 420.951 677.703C421.106 680.446 421.511 680.78 420.917 683.58C419.751 693.406 421.844 690.46 428.631 691.937C423.928 692.017 422.516 691.143 418.666 693.873C419.399 685.645 418.916 668.866 418.95 660.123Z" /><path fill="#F6EBE8" d="M428.631 691.937C432.714 692.15 434.45 691.414 437.75 691.459C441.533 691.511 442.021 692.147 446.57 691.826C446.611 692.053 447.058 694.118 446.642 694.141C442.696 694.361 421.049 695.123 418.666 693.873C422.516 691.143 423.928 692.017 428.631 691.937Z" /><path fill="#D6B8AB" d="M432.33 553.603C432.311 550.195 432.119 543.204 432.666 540.082C434.466 543.055 434.501 544.504 434.091 548.254C433.742 551.441 434.716 550.655 436.788 552.781C440.633 552.296 444.704 552.078 448.591 551.997C448.589 552.047 448.614 553.546 448.228 553.615C443.391 554.486 437.218 553.74 432.33 553.603Z" /><path fill="#D6B8AB" fill-opacity="0.3137255" d="M420.892 668.005C418.121 662.591 424.858 661.406 428.651 661.428C428.544 662.801 428.248 663.858 428.256 665.177C427.898 666.004 427.729 666.366 427.278 667.136C426.397 664.196 427.677 663.002 423.527 663.269C423.17 669.026 423.231 667.476 427.278 667.136C426.936 667.816 426.614 668.506 426.314 669.206C422.72 670.983 422.719 671.663 420.892 668.005Z" /><path fill="#C39C8A" d="M432.363 654.031C434.995 654.867 435.55 654.747 438.501 654.089C442.424 653.214 443.511 655.299 446.201 656.634C442.371 656.089 438.359 656.42 434.489 656.364C432.34 656.333 431.773 656.471 432.363 654.031Z" /><path fill="#D6B8AB" fill-opacity="0.49411765" d="M420.892 668.005C422.719 671.663 422.72 670.983 426.314 669.206C425.673 670.392 424.988 671.554 424.259 672.688C424.027 673.892 423.922 679.444 420.951 677.703C420.92 674.24 421.278 671.327 420.892 668.005Z" /><path fill="#D6B8AB" fill-opacity="0.67843139" d="M420.951 677.703C423.922 679.444 424.027 673.892 424.259 672.688C424.463 675.668 424.068 678.289 424.21 680.882C424.169 681.829 424.063 682.821 423.978 683.767L420.917 683.58C421.511 680.78 421.106 680.446 420.951 677.703Z" /><path fill="#A97E66" fill-opacity="0.83529413" d="M421.082 579.953C421.293 578.649 421.096 573.865 421.328 573.717C422.55 572.941 426.556 573.403 424.262 575.765C424.007 576.035 424.158 578.674 423.803 580.031L421.082 579.953Z" /><path fill="#D6B8AB" fill-opacity="0.27843139" d="M423.527 663.269C427.677 663.002 426.397 664.196 427.278 667.136C423.231 667.476 423.17 669.026 423.527 663.269Z" /><path fill="#D6B8AB" fill-opacity="0.65490198" d="M435.391 679.451C435.469 684.924 435.502 683.09 430.213 683.453C432.358 680.281 431.35 680.83 434.467 679.771L435.391 679.451Z" /><path fill="#F74C1B" d="M344.039 612.005L343.955 566.185C343.942 558.253 343.72 550.192 344.267 542.348C344.934 532.803 358.73 530.204 364.347 536.854C368.192 541.404 367.346 546.532 367.532 552.127C367.594 574.068 367.347 596.052 367.511 617.992C367.512 618.097 369.278 618.797 369.317 618.813C370.476 622.345 369.933 630.943 369.926 635.073C371.382 635.437 376.555 635.454 378.47 635.549C379.015 640.576 378.951 645.543 378.52 650.581C375.417 650.641 372.587 650.667 369.475 650.799C368.355 650.865 367.999 650.852 366.837 650.779C363.942 650.095 339.065 650.092 336.359 650.98C334.398 651.005 332.426 650.978 330.457 650.995L330.48 635.623C332.319 635.355 334.181 635.244 336.038 635.285C336.524 633.493 336.364 621.084 336.305 618.393L336.574 612.643C339.126 612.388 341.497 612.224 344.039 612.005ZM337.405 635.968C336.812 635.706 336.565 635.627 336.038 635.285C334.181 635.244 332.319 635.355 330.48 635.623L330.457 650.995C332.426 650.978 334.398 651.005 336.359 650.98C339.065 650.092 363.942 650.095 366.837 650.779C367.999 650.852 368.355 650.865 369.475 650.799C372.587 650.667 375.417 650.641 378.52 650.581C378.951 645.543 379.015 640.576 378.47 635.549C376.555 635.454 371.382 635.437 369.926 635.073C368.816 636.093 367.615 635.609 366.07 635.536C359.888 635.837 342.165 634.717 337.405 635.968ZM347.997 611.444C348.552 612.282 349.576 614.278 350.28 614.889C350.502 615.082 351.193 614.985 351.5 614.849C354.276 613.623 357.531 615.655 360.006 613.978C361.083 613.248 361.491 612.335 362.337 611.732L363.14 611.171L363.218 564.118C363.243 557.19 363.659 549.46 363.216 542.662C362.729 535.176 347.935 534.854 347.907 543.585C347.833 566.16 347.644 588.869 347.997 611.444ZM344.529 623.404C339.193 628.068 345.173 632.214 350.526 629.2C353.19 627.7 358.915 630.051 361.762 631.813C362.306 628.168 364.259 620.249 358.608 626.774C354.344 625.504 348.88 623.687 344.529 623.404Z" /><path fill="#F74C1B" d="M366.07 635.536C367.615 635.609 368.816 636.093 369.926 635.073C371.382 635.437 376.555 635.454 378.47 635.549C379.015 640.576 378.951 645.543 378.52 650.581C375.417 650.641 372.587 650.667 369.475 650.799C368.355 650.865 367.999 650.852 366.837 650.779C363.942 650.095 339.065 650.092 336.359 650.98C334.398 651.005 332.426 650.978 330.457 650.995L330.48 635.623C332.319 635.355 334.181 635.244 336.038 635.285C336.565 635.627 336.812 635.706 337.405 635.968C342.165 634.717 359.888 635.837 366.07 635.536ZM369.649 647.263C371.792 647.016 373.105 647.543 373.478 645.847C373.67 645.673 373.558 645.74 373.819 645.653L373.893 645.7C373.956 646.211 373.799 647.35 374.845 646.844C375.065 646.415 375.255 640.008 375.285 638.927C373.356 638.951 371.426 638.942 369.497 638.9C369.475 641.87 369.498 644.289 369.649 647.263ZM361.622 643.484C363.909 643.398 364.012 641.931 363.214 641.622C358.693 639.869 346.547 640.047 342.698 640.207C340.146 640.983 339.972 643.064 342.986 643.547C349.28 644.556 355.317 643.846 361.622 643.484Z" /><path fill="#A57B61" d="M339.714 638.171C346.639 639.745 361.643 638.285 369.497 638.9C369.475 641.87 369.498 644.289 369.649 647.263C360.166 647.746 349.076 646.958 339.965 647.646C339.979 644.432 339.997 641.381 339.714 638.171ZM361.622 643.484C363.909 643.398 364.012 641.931 363.214 641.622C358.693 639.869 346.547 640.047 342.698 640.207C340.146 640.983 339.972 643.064 342.986 643.547C349.28 644.556 355.317 643.846 361.622 643.484Z" /><path fill="#F75322" d="M330.48 635.623C332.319 635.355 334.181 635.244 336.038 635.285C336.565 635.627 336.812 635.706 337.405 635.968C337.364 636.625 337.346 637.259 337.324 637.916C338.403 637.754 339.04 637.386 339.714 638.171C339.997 641.381 339.979 644.432 339.965 647.646C338.665 647.564 337.729 647.543 336.43 647.561C336.374 648.7 336.351 649.84 336.359 650.98C334.398 651.005 332.426 650.978 330.457 650.995L330.48 635.623Z" /><path fill="#F75322" d="M337.324 637.916C338.403 637.754 339.04 637.386 339.714 638.171C339.997 641.381 339.979 644.432 339.965 647.646C338.665 647.564 337.729 647.543 336.43 647.561L336.033 647.434C336.717 645.625 337.578 639.802 334.918 638.911C336.05 638.335 336.137 638.275 337.324 637.916Z" /><path fill="#FEFEFE" d="M334.918 638.911C337.578 639.802 336.717 645.625 336.033 647.434C332.219 646.981 334.638 644.549 334.232 641.721C334.018 640.229 333.77 639.975 334.918 638.911Z" /><path fill="#A57B61" d="M336.305 618.393C337.322 618.399 338.34 618.394 339.357 618.379C334.814 623.562 341.205 621.513 345.733 622.054C350.958 622.512 361.073 622.03 366.585 621.949C366.248 626.763 366.385 630.489 366.212 635.043L366.07 635.536C359.888 635.837 342.165 634.717 337.405 635.968C336.812 635.706 336.565 635.627 336.038 635.285C336.524 633.493 336.364 621.084 336.305 618.393ZM361.762 631.813C362.306 628.168 364.259 620.249 358.608 626.774C354.344 625.504 348.88 623.687 344.529 623.404C339.193 628.068 345.173 632.214 350.526 629.2C353.19 627.7 358.915 630.051 361.762 631.813Z" /><path fill="#F75322" d="M336.305 618.393C337.322 618.399 338.34 618.394 339.357 618.379C334.814 623.562 341.205 621.513 345.733 622.054C343.401 622.379 342.123 622.341 339.903 622.485L339.936 634.987C348.694 635.114 357.453 635.132 366.212 635.043L366.07 635.536C359.888 635.837 342.165 634.717 337.405 635.968C336.812 635.706 336.565 635.627 336.038 635.285C336.524 633.493 336.364 621.084 336.305 618.393Z" /><path fill="#A57B61" d="M344.039 612.005L344.422 618.362C342.643 618.448 341.111 618.372 339.357 618.379C338.34 618.394 337.322 618.399 336.305 618.393L336.574 612.643C339.126 612.388 341.497 612.224 344.039 612.005Z" /><path fill="#A97E66" d="M363.14 611.171C363.337 613.495 363.227 615.795 363.218 618.134L347.893 618.436C347.866 615.947 347.84 613.947 347.997 611.444C348.552 612.282 349.576 614.278 350.28 614.889C350.502 615.082 351.193 614.985 351.5 614.849C354.276 613.623 357.531 615.655 360.006 613.978C361.083 613.248 361.491 612.335 362.337 611.732L363.14 611.171Z" /><path fill="#F74C1B" d="M336.359 650.98C339.065 650.092 363.942 650.095 366.837 650.779C367.999 650.852 368.355 650.865 369.475 650.799C369.795 658.561 368.9 656.505 375.526 657.454C376.22 657.407 376.974 657.494 377.683 657.539C379.226 659.512 378.171 669.75 377.992 672.928C374.529 672.927 370.976 673.022 367.506 673.073C367.424 685.388 368.122 698.68 367.235 710.976C366.867 716.071 362.46 721.081 356.984 721.399C345.97 722.04 343.071 713.041 343.792 703.697C343.975 693.533 344.027 683.107 343.896 672.968C339.375 672.732 335.187 672.922 330.676 673.075C330.519 669.406 330.346 661.229 330.814 657.859C332.206 657.048 333.806 657.296 335.493 657.314C336.652 655.298 336.452 653.301 336.359 650.98ZM361.257 715.507L361.779 714.733C364.409 710.921 363.175 704.344 363.143 699.753C363.051 690.846 363.035 681.938 363.097 673.031C358.061 672.865 353.022 672.851 347.986 672.988L347.861 698.628C347.841 702.875 346.888 712.417 349.761 715.462C352.937 718.828 357.904 717.408 361.257 715.507ZM338.801 657.514C348.022 657.607 357.351 657.455 366.588 657.467C366.424 655.226 366.659 653.013 366.837 650.779C363.942 650.095 339.065 650.092 336.359 650.98C336.452 653.301 336.652 655.298 335.493 657.314C336.605 657.905 337.512 657.671 338.801 657.514ZM334.324 667.98L336.005 668.168C337.983 668.402 340.503 668.818 342.5 669.133C348.918 670.144 353.899 667.794 360.25 669.109C363.951 669.875 370.689 669.607 374.408 668.803C374.759 665.406 374.651 664.256 374.79 661.035C361.479 660.871 347.681 661.155 334.549 660.95C334.41 663.693 334.301 665.239 334.324 667.98Z" /><path fill="#A57B61" d="M336.359 650.98C339.065 650.092 363.942 650.095 366.837 650.779C366.659 653.013 366.424 655.226 366.588 657.467C357.351 657.455 348.022 657.607 338.801 657.514C337.512 657.671 336.605 657.905 335.493 657.314C336.652 655.298 336.452 653.301 336.359 650.98ZM357.346 654.01C360.143 654.023 360.464 654.243 363.092 653.534C363.093 653.537 362.832 652.659 362.677 652.646C357.976 652.255 352.976 653.02 348.263 653.249C347.864 653.268 347.494 653.299 347.246 653.394L347.2 653.451C347.553 654.047 356.387 654.1 357.346 654.01Z" /><path fill="#F75322" d="M336.359 650.98C339.065 650.092 363.942 650.095 366.837 650.779C358.589 651.147 347.833 650.891 339.483 650.827C340.909 657.394 340.348 653.15 338.801 657.514C337.512 657.671 336.605 657.905 335.493 657.314C336.652 655.298 336.452 653.301 336.359 650.98Z" /><path fill="#A57B61" fill-opacity="0.76862746" d="M357.346 654.01C356.387 654.1 347.553 654.047 347.2 653.451L347.246 653.394C347.494 653.299 347.864 653.268 348.263 653.249C352.976 653.02 357.976 652.255 362.677 652.646C362.832 652.659 363.093 653.537 363.092 653.534C362.08 653.209 356.317 652.009 357.346 654.01Z" /><path fill="#A57B61" fill-opacity="0.33333334" d="M357.346 654.01C356.317 652.009 362.08 653.209 363.092 653.534C360.464 654.243 360.143 654.023 357.346 654.01Z" /><path fill="#F75322" d="M366.837 650.779C367.999 650.852 368.355 650.865 369.475 650.799C369.795 658.561 368.9 656.505 375.526 657.454C371.917 657.873 369.7 657.205 366.588 657.467C366.424 655.226 366.659 653.013 366.837 650.779Z" /><path fill="#D6B8AB" d="M410.373 528.189C415.429 522.233 417.271 521.897 424.954 522.039C427.036 523.487 430.694 525.869 432.358 527.749L432.969 528.419L432.342 529.011C431.081 530.157 430.491 531.227 429.505 532.586C429.28 531.809 428.959 529.077 428.591 528.742C428.299 528.723 428.007 528.703 427.714 528.684C415.242 526.005 415.349 529.445 415.631 539.995C415.513 540.933 415.516 540.913 415.27 541.82C413.011 541.896 410.809 541.937 408.547 542.058C409.859 536.967 409.34 533.222 410.373 528.189Z" /></svg>