<?xml version='1.0' encoding='utf-8'?>
<svg xmlns="http://www.w3.org/2000/svg" viewBox="560.9 22.3 181.0 225.2" width="512" height="512"><path fill="#F74C1B" d="M631.622 208.647C627.307 203.834 619.685 192.429 615.787 186.628C598.429 160.337 577.985 126.677 574.373 94.883C570.937 64.6355 602.114 34.5097 631.493 33.1683C649.972 32.3246 656.785 36.9654 669.958 48.1358C710.631 58.5209 731.964 91.5531 719.984 132.786C711.065 163.484 692.136 191.684 674.322 217.867C670.438 223.464 664.248 232.714 659.979 237.551C650.459 225.329 644.286 214.394 635.724 202.812C634.144 204.89 633.023 206.399 631.622 208.647ZM635.724 202.812C613.8 166.858 575.354 101.697 614.614 65.2236C630.46 50.502 649.102 47.5227 669.958 48.1358C656.785 36.9654 649.972 32.3246 631.493 33.1683C602.114 34.5097 570.937 64.6355 574.373 94.883C577.985 126.677 598.429 160.337 615.787 186.628C619.685 192.429 627.307 203.834 631.622 208.647C633.023 206.399 634.144 204.89 635.724 202.812ZM660.199 229.607C663.857 226.548 671.491 215.359 674.154 211.221C692.901 182.094 714.795 151.267 719.037 116.069C723.05 82.7715 693.251 50.9376 660.406 51.7139C632.439 53.7033 606.801 67.4924 601.976 97.1875C597.759 123.147 610.204 145.884 620.849 168.479C624.707 176.833 655.886 229.789 660.199 229.607Z" /><path fill="#A57B61" d="M631.622 208.647C627.307 203.834 619.685 192.429 615.787 186.628C598.429 160.337 577.985 126.677 574.373 94.883C570.937 64.6355 602.114 34.5097 631.493 33.1683C649.972 32.3246 656.785 36.9654 669.958 48.1358C649.102 47.5227 630.46 50.502 614.614 65.2236C575.354 101.697 613.8 166.858 635.724 202.812C634.144 204.89 633.023 206.399 631.622 208.647ZM651.697 44.5552L649.694 44.4298C648.278 44.166 642.705 43.5835 641.799 44.7687C642.298 45.799 653.453 45.9949 654.539 44.7795C654.222 44.3432 652.143 44.5129 651.697 44.5552ZM631.107 48.7268C629.53 50.8521 632.994 49.6403 634.411 49.4721C634.712 49.2235 634.936 49.1246 634.976 48.7763C634.658 48.0653 631.621 48.6675 631.107 48.7268ZM620.115 56.7449C621.08 55.9182 621.638 55.3656 622.511 54.4439L624.206 53.815C628.085 52.4165 625.303 51.6691 621.624 53.921C620.405 54.5721 620.501 54.6726 619.634 55.8856C618.419 56.5535 616.928 57.0903 616.32 58.4267C616.339 58.5097 616.358 58.5928 616.377 58.6759C617.081 59.1416 619.416 57.1724 620.115 56.7449Z" /><path fill="#A57B61" fill-opacity="0.34901962" d="M651.697 44.5552C652.143 44.5129 654.222 44.3432 654.539 44.7795C653.453 45.9949 642.298 45.799 641.799 44.7687C642.705 43.5835 648.278 44.166 649.694 44.4298C648.74 44.4834 645.158 44.488 644.568 44.7547L644.456 44.7245L644.443 44.7653C646.923 45.5443 649.294 45.3465 651.697 44.5552Z" /><path fill="#A57B61" fill-opacity="0.85882354" d="M631.107 48.7268C631.621 48.6675 634.658 48.0653 634.976 48.7763C634.936 49.1246 634.712 49.2235 634.411 49.4721C632.994 49.6403 629.53 50.8521 631.107 48.7268Z" /><path fill="#A57B61" fill-opacity="0.84313726" d="M619.634 55.8856L620.115 56.7449C619.416 57.1724 617.081 59.1416 616.377 58.6759C616.358 58.5928 616.339 58.5097 616.32 58.4267C616.928 57.0903 618.419 56.5535 619.634 55.8856Z" /><path fill="#A57B61" fill-opacity="0.77254903" d="M621.624 53.921C625.303 51.6691 628.085 52.4165 624.206 53.815L622.511 54.4439L621.624 53.921Z" /><path fill="#A57B61" fill-opacity="0.96470588" d="M619.634 55.8856C620.501 54.6726 620.405 54.5721 621.624 53.921L622.511 54.4439C621.638 55.3656 621.08 55.9182 620.115 56.7449L619.634 55.8856Z" /><path fill="#A57B61" fill-opacity="0.074509807" d="M649.694 44.4298L651.697 44.5552C649.294 45.3465 646.923 45.5443 644.443 44.7653L644.456 44.7245L644.568 44.7547C645.158 44.488 648.74 44.4834 649.694 44.4298Z" /><path fill="#F74C1B" d="M653.758 76.4548C673.081 73.4821 691.166 86.703 694.196 106.016C697.226 125.33 684.06 143.454 664.755 146.542C645.369 149.643 627.152 136.408 624.108 117.013C621.065 97.6184 634.354 79.4401 653.758 76.4548ZM663.066 80.2463C650.476 78.7332 638.204 84.9064 631.913 95.9169C625.622 106.927 626.536 120.635 634.232 130.713C642.931 142.102 658.213 146.197 671.44 140.683C684.667 135.169 692.516 121.432 690.549 107.237C688.583 93.0419 677.295 81.9561 663.066 80.2463Z" /><path fill="#A57B61" d="M663.066 80.2463C677.295 81.9561 688.583 93.0419 690.549 107.237C692.516 121.432 684.667 135.169 671.44 140.683C658.213 146.197 642.931 142.102 634.232 130.713C663.345 131.159 674.785 104.222 663.066 80.2463ZM684.018 117.212C684.002 121.352 683.957 119.937 682.12 123.057C680.875 125.278 680.524 127.469 678.361 128.851C678.056 129.046 674.286 133.802 674.286 133.808C676.068 136.063 682.594 125.92 683.14 124.975C685.617 121.396 685.66 121.368 686.349 116.93L686.788 115.337C687.523 110.086 686.569 106.715 685.227 101.678C684.09 107.73 683.768 110.932 684.018 117.212ZM648.456 136.476C648.104 136.558 647.775 136.535 647.578 136.8C647.654 137.271 649.901 137.383 650.195 137.41C651.23 137.465 655.6 137.827 656.281 137.266C656.271 137.214 656.26 137.161 656.25 137.109C654.216 136.092 650.734 136.461 648.456 136.476ZM671.142 137.245C670.845 135.662 667.736 136.652 666.383 136.79C666.632 138.231 669.19 137.693 670.205 137.465L671.142 137.245Z" /><path fill="#A57B61" fill-opacity="0.85490197" d="M685.227 101.678C686.569 106.715 687.523 110.086 686.788 115.337C686.644 114.483 686.538 113.689 686.523 112.825L686.268 112.482L686.289 112.364C684.44 113.459 684.559 112.912 684.544 115.071C684.378 115.787 684.202 116.501 684.018 117.212C683.768 110.932 684.09 107.73 685.227 101.678Z" /><path fill="#A57B61" fill-opacity="0.3764706" d="M682.12 123.057L683.14 124.975C682.594 125.92 676.068 136.063 674.286 133.808C674.286 133.802 678.056 129.046 678.361 128.851C680.524 127.469 680.875 125.278 682.12 123.057Z" /><path fill="#A57B61" fill-opacity="0.53333336" d="M684.544 115.071C685.119 115.744 685.655 116.379 686.349 116.93C685.66 121.368 685.617 121.396 683.14 124.975L682.12 123.057C683.957 119.937 684.002 121.352 684.018 117.212C684.202 116.501 684.378 115.787 684.544 115.071Z" /><path fill="#A57B61" fill-opacity="0.65098041" d="M684.544 115.071C684.559 112.912 684.44 113.459 686.289 112.364L686.268 112.482L686.523 112.825C686.538 113.689 686.644 114.483 686.788 115.337L686.349 116.93C685.655 116.379 685.119 115.744 684.544 115.071Z" /><path fill="#A97E66" fill-opacity="0.5529412" d="M648.456 136.476C650.734 136.461 654.216 136.092 656.25 137.109C656.26 137.161 656.271 137.214 656.281 137.266C655.6 137.827 651.23 137.465 650.195 137.41C649.354 136.82 649.396 136.786 648.456 136.476Z" /><path fill="#A57B61" fill-opacity="0.61960787" d="M666.383 136.79C667.736 136.652 670.845 135.662 671.142 137.245L670.205 137.465C669.19 137.693 666.632 138.231 666.383 136.79Z" /><path fill="#A97E66" fill-opacity="0.85882354" d="M650.195 137.41C649.901 137.383 647.654 137.271 647.578 136.8C647.775 136.535 648.104 136.558 648.456 136.476C649.396 136.786 649.354 136.82 650.195 137.41Z" /></svg>