<?xml version='1.0' encoding='utf-8'?>
<svg xmlns="http://www.w3.org/2000/svg" viewBox="548.4 239.3 171.2 298.7" width="512" height="512"><path fill="#F54915" d="M659.405 487.88C668.812 466.151 669.997 473.682 677.854 489.48C701.477 491.572 698.743 492.423 684.236 508.069C685.974 513.514 685.587 518.489 687.232 523.571C685.812 525.254 685.117 526.001 683.506 527.464C678.366 524.576 672.999 521.39 667.63 519.016C663.263 521.094 654.8 527.986 650.423 524.532C649.331 521.961 649.942 520.164 650.755 517.51C651.202 515.778 651.573 513.938 651.956 512.185C652.075 511.847 652.189 511.507 652.299 511.166C654.37 504.622 645.122 503.222 640.678 494.572C637.347 493.819 625.14 493.608 621.059 493.513C623.679 490.371 623.63 491.262 623.511 487.289L624.396 487.336C633.944 487.919 649.613 487.802 659.405 487.88ZM659.831 495.923C656.905 496.236 653.958 496.396 651.045 496.7C653.396 499.17 655.928 501.275 658.119 503.679C659.379 505.484 659.598 505.271 660.142 507.357L660.425 507.371C661.102 510.244 660.856 510.468 661.167 513.37C664.799 511.655 664.888 511.588 668.575 510.765C671.463 512.027 671.491 512.322 673.472 514.714C674.811 515.121 678.926 517.321 678.272 513.817L678.112 512.993C677.828 511.491 677.479 510 677.111 508.517C677.275 506.891 677.41 506.482 677.271 504.846C678.999 502.819 686.937 497.834 683.76 496.397C680.21 495.82 677.104 496.402 673.684 495.681C673.234 495.586 672.651 493.591 672.29 492.907C669.895 489.072 669.562 484.871 665.044 491.69C662.716 495.772 664.777 495.852 659.831 495.923Z" /><path fill="#D19E7F" d="M623.511 487.289L624.396 487.336C633.944 487.919 649.613 487.802 659.405 487.88C658.328 490.68 650.586 489.701 647.299 490.706C642.415 492.198 644.284 491.132 640.678 494.572C637.347 493.819 625.14 493.608 621.059 493.513C623.679 490.371 623.63 491.262 623.511 487.289Z" /><path fill="#D19E7F" fill-opacity="0.54901963" d="M665.044 491.69C665.438 495.772 664.882 495.727 669.592 496.055L668.818 496.342C663.651 497.921 667.553 504.252 669.994 505.666C664.435 508.239 662.153 503.005 660.425 507.371L660.142 507.357C659.598 505.271 659.379 505.484 658.119 503.679C659.799 500.83 663.512 498.62 660.535 496.511L659.831 495.923C664.777 495.852 662.716 495.772 665.044 491.69Z" /><path fill="#D19E7F" fill-opacity="0.26274511" d="M669.994 505.666L670.78 505.379C670.123 507.951 669.12 508.903 668.575 510.765C664.888 511.588 664.799 511.655 661.167 513.37C660.856 510.468 661.102 510.244 660.425 507.371C662.153 503.005 664.435 508.239 669.994 505.666Z" /><path fill="#D19E7F" fill-opacity="0.92941177" d="M669.995 495.935C672.51 496.925 670.652 497.408 672.456 498.872L672.736 499.292C672.285 499.543 671.404 499.863 671.336 500.477C670.862 504.74 673.346 503.876 676.542 503.869C676.785 504.195 677.028 504.521 677.271 504.846C677.41 506.482 677.275 506.891 677.111 508.517C674.69 504.689 675.322 503.672 670.78 505.379L669.994 505.666C667.553 504.252 663.651 497.921 668.818 496.342L669.592 496.055L669.995 495.935Z" /><path fill="#D09F81" fill-opacity="0.078431375" d="M665.044 491.69C669.562 484.871 669.895 489.072 672.29 492.907C671.363 494.623 671.415 494.651 669.995 495.935L669.592 496.055C664.882 495.727 665.438 495.772 665.044 491.69Z" /><path fill="#D19E7F" fill-opacity="0.98431373" d="M672.736 499.292L673.539 499.839L674.221 500.29C675.75 501.32 675.837 502.174 676.542 503.869C673.346 503.876 670.862 504.74 671.336 500.477C671.404 499.863 672.285 499.543 672.736 499.292Z" /><path fill="#D19E7F" fill-opacity="0.50196081" d="M672.29 492.907C672.651 493.591 673.234 495.586 673.684 495.681C677.104 496.402 680.21 495.82 683.76 496.397C680.709 496.583 677.254 496.735 674.218 496.436C672.465 496.263 672.71 497.315 672.456 498.872C670.652 497.408 672.51 496.925 669.995 495.935C671.415 494.651 671.363 494.623 672.29 492.907Z" /><path fill="#F54915" d="M569.264 512.657C565.86 512.682 560.258 513.536 558.71 510.076C558.96 508.502 559.238 508.379 560.217 507.125C564.7 504.582 614.043 506.806 622.231 506.329C625.056 506.164 626.503 507.544 627.793 509.936C635.127 511.181 645.419 509.205 651.956 512.185C651.573 513.938 651.202 515.778 650.755 517.51C635.768 517.464 620.662 517.646 605.695 517.323C597.532 517.148 591.294 515.74 582.777 516.111C585.81 511.861 594.651 515.173 598.047 513.324C597.211 512.839 574.362 513.53 570.214 512.653L569.264 512.657Z" /><path fill="#D09F81" d="M709.334 463.081C709.47 466.155 709.581 468.539 709.436 471.62C703.064 471.097 689.652 471.879 681.748 471.599C662.518 470.918 638.764 469.434 619.681 470.713C620.253 467.896 619.871 466.88 618.869 464.232C642.77 463.621 667.22 464.303 691.163 464.437C695.812 464.462 704.27 465.826 708.539 464.817C709.211 464.659 709.129 463.987 709.334 463.081Z" /><path fill="#F54915" d="M621.059 493.513C605.629 493.129 576.955 493.786 560.494 492.593C559.523 492.522 558.897 491.081 558.493 490.218C558.515 488.633 558.503 488.747 559.437 487.457C563.803 485.18 595.963 487.303 603.085 486.479C606.501 486.084 620.3 486.538 623.511 487.289C623.63 491.262 623.679 490.371 621.059 493.513Z" /><path fill="#F54915" d="M619.681 470.713C616.068 471.858 562.732 471.943 560.679 470.926C559.494 470.339 558.975 469.841 558.656 468.521C558.367 467.328 558.954 466.363 559.566 465.428C563.597 463.691 610.364 464.552 618.869 464.232C619.871 466.88 620.253 467.896 619.681 470.713Z" /><path fill="#D19E7F" fill-opacity="0.91764706" d="M617.766 256.555C620.343 262.104 623.742 267.728 626.407 273.55L626.688 274.15C626.474 274.423 626.036 275.075 625.677 275.128C623.731 274.355 624.71 275.822 622.146 277.183C621.923 276.824 621.962 276.847 621.809 276.377C626.132 273.616 622.348 267.924 620.704 275.048C619.853 273.341 618.547 271.636 617.828 270.05C622.131 267.157 619.706 260.678 616.163 267.315L613.891 263.559C616.22 262.181 616.892 259.243 617.766 256.555Z" /><path fill="#D19E7F" fill-opacity="0.81568629" d="M609.049 255.054C608.817 253.081 607.786 250.487 609.809 249.265C611.667 249.52 611.868 251.119 612.754 252.772C614.175 252.47 613.534 252.784 615.189 251.89C616.016 253.344 617.007 255.087 617.766 256.555C616.892 259.243 616.22 262.181 613.891 263.559C612.566 261.004 610.834 258.529 609.646 256.003C613.453 257.358 612.376 252.259 610.718 251.636C609.172 251.055 609.456 254.916 609.442 255.591L609.049 255.054ZM614.816 261.604C615.895 258.403 616.72 256.569 613.328 255.688C611.962 258.492 612.515 259.636 614.816 261.604Z" /><path fill="#D19E7F" fill-opacity="0.75294119" d="M613.328 255.688C616.72 256.569 615.895 258.403 614.816 261.604C612.515 259.636 611.962 258.492 613.328 255.688Z" /><path fill="#D09F81" d="M629.039 278.763C631.762 284.166 630.654 283.125 631.655 288.505C632.031 290.525 632.589 291.133 634.423 291.61C634.313 291.791 634.207 291.975 634.107 292.162C632.539 295.112 632.398 293.363 630.888 291.007C629.351 288.611 627.644 286.184 626.274 283.705C627.471 282.199 627.602 281.995 628.357 280.181C628.677 279.586 628.791 279.378 629.039 278.763Z" /><path fill="#D19E7F" fill-opacity="0.97254902" d="M626.688 274.15C627.415 275.715 628.258 277.224 629.039 278.763C628.791 279.378 628.677 279.586 628.357 280.181L627.893 279.996C626.596 279.451 625.809 280.687 624.791 281.488C623.873 280.085 622.955 278.651 622.146 277.183C624.71 275.822 623.731 274.355 625.677 275.128C626.036 275.075 626.474 274.423 626.688 274.15Z" /><path fill="#D19E7F" fill-opacity="0.82352942" d="M616.163 267.315C619.706 260.678 622.131 267.157 617.828 270.05C617.257 269.148 616.702 268.237 616.163 267.315Z" /><path fill="#D19E7F" fill-opacity="0.81960785" d="M620.704 275.048C622.348 267.924 626.132 273.616 621.809 276.377L620.704 275.048Z" /><path fill="#D09F81" fill-opacity="0.87450981" d="M624.791 281.488C625.809 280.687 626.596 279.451 627.893 279.996L628.357 280.181C627.602 281.995 627.471 282.199 626.274 283.705C625.599 282.829 625.343 282.43 624.791 281.488Z" /></svg>