<?xml version='1.0' encoding='utf-8'?>
<svg xmlns="http://www.w3.org/2000/svg" viewBox="780.1 277.2 220.4 214.6" width="512" height="512"><path fill="#F74C1B" d="M826.981 432.645C806.905 415.916 797.47 403.54 794.615 376.861C790.09 334.58 816.106 295.176 859.478 289.526C877.182 287.219 891.477 290.391 905.426 301.735C945.916 304.382 979.014 335.035 984.755 375.204C990.495 415.372 967.307 454.069 929.179 467.951C891.05 481.832 848.411 467.102 826.981 432.645ZM905.426 301.735C891.477 290.391 877.182 287.219 859.478 289.526C816.106 295.176 790.09 334.58 794.615 376.861C797.47 403.54 806.905 415.916 826.981 432.645C809.999 405.339 809.714 370.828 826.242 343.244C842.771 315.661 873.338 299.637 905.426 301.735ZM825.393 384.991C826.457 384.593 836.991 384.709 839.086 384.846C856.744 386.002 850.662 387.75 856.734 371.31C862.2 356.751 874.507 345.833 889.613 342.139C892.5 341.412 895.825 341.15 897.522 338.691C898.609 333.754 898.003 312.033 898 305.585C896.624 305.588 894.119 305.513 892.836 305.678C867.765 308.702 849.187 319.785 833.258 339.628C824.239 350.864 818.013 368.824 817.788 383.576C817.779 384.13 818.177 384.818 818.479 385.273C820.421 386.266 822.213 386.075 824.241 385.405C824.628 385.276 825.012 385.138 825.393 384.991ZM901.715 340.372C914.66 341.649 926.623 347.157 934.902 357.324C942.582 366.756 944.576 373.959 946.779 385.425C954.962 385.238 969.337 383.24 976.741 385.902C977.491 385.77 978.108 385.753 978.729 385.426C980.582 383.761 981.756 382.802 981.538 379.998C978.409 339.867 942.647 305.738 901.716 305.545C901.631 314.953 901.015 331.474 901.715 340.372ZM817.522 389.97C819.289 413.105 827.56 433.182 845.512 448.6C855.264 457.143 866.859 463.316 879.391 466.634C885.753 468.067 891.191 468.957 897.768 468.752C898.626 463.55 898.056 442.426 898.38 435.065C870.098 431.641 856.615 417.575 852.96 389.665L841.103 389.761L817.522 389.97ZM946.655 389.618C942.658 418.051 930.385 430.932 901.868 435.077C901.88 443.846 901.117 461.005 901.674 469.006C911.196 469.176 923.026 466.469 931.68 462.5C951.779 453.428 968.637 437.157 976.268 416.306C979.308 408.001 981.695 398.712 981.598 389.829C970.203 389.217 957.314 390.301 946.655 389.618ZM930.148 418.404L930.204 418.009C942.767 406.67 946.29 384.524 937.862 369.799C937.7 368.684 935.223 364.59 934.52 363.413C929.749 355.429 914.943 344.687 905.458 345.894C898.3 343.101 890.614 345.645 883.721 348.27C860.359 357.165 848.432 391.895 864.266 412.444C875.217 431.024 907.21 437.222 924.144 423.907C926.609 422.198 928.295 420.819 930.148 418.404Z" /><path fill="#A57B61" d="M826.981 432.645C806.905 415.916 797.47 403.54 794.615 376.861C790.09 334.58 816.106 295.176 859.478 289.526C877.182 287.219 891.477 290.391 905.426 301.735C873.338 299.637 842.771 315.661 826.242 343.244C809.714 370.828 809.999 405.339 826.981 432.645ZM875.771 301.527L876.481 301.247C878.965 300.33 875.309 300.044 874.697 299.945L874.005 300.239C873.79 300.326 873.223 300.493 873.202 300.823C873.198 300.889 873.223 300.952 873.27 300.998C873.623 301.346 875.401 301.472 875.771 301.527Z" /><path fill="#A57B61" fill-opacity="0.92941177" d="M874.697 299.945C875.309 300.044 878.965 300.33 876.481 301.247L875.771 301.527C875.401 301.472 873.623 301.346 873.27 300.998C873.223 300.952 873.198 300.889 873.202 300.823C873.223 300.493 873.79 300.326 874.005 300.239L874.697 299.945Z" /><path fill="#A97E66" d="M905.458 345.894C914.943 344.687 929.749 355.429 934.52 363.413C935.223 364.59 937.7 368.684 937.862 369.799C937.182 373.365 937.948 376.798 938.035 380.5C938.312 392.324 936.283 403.982 930.309 414.334C929.018 416.571 928.253 416.895 930.204 418.009L930.148 418.404C928.295 420.819 926.609 422.198 924.144 423.907C907.21 437.222 875.217 431.024 864.266 412.444C881.145 414.759 900.754 416.807 912.695 401.91C925.901 385.436 921.62 358.797 905.458 345.894ZM925.846 420.996C926.809 419.778 927.087 419.301 927.84 417.965C925.528 416.955 924.135 419.242 922.051 420.388C915.692 421.349 915.488 423.374 921.996 421.61C923.47 421.31 924.393 421.317 925.846 420.996ZM909.871 426.031C910.525 425.974 914.544 425.802 914.633 424.809C914.122 424.234 909.177 424.058 908.172 423.953L907.743 423.904C904.018 423.82 904.199 424.519 900.745 424.882C899.693 424.992 897.47 424.467 895.555 424.651C894.461 424.532 893.506 424.433 892.417 424.252C890.712 423.919 878.126 419.943 877.694 420.826C878.061 421.507 888.818 425.091 890.376 425.385C891.173 425.447 891.112 425.459 891.924 425.676C895.402 426.328 905.794 426.152 909.871 426.031Z" /><path fill="#A57B61" fill-opacity="0.94509804" d="M922.051 420.388C924.135 419.242 925.528 416.955 927.84 417.965C927.087 419.301 926.809 419.778 925.846 420.996C924.393 421.317 923.47 421.31 921.996 421.61L922.051 420.388Z" /><path fill="#A57B61" fill-opacity="0.76862746" d="M922.051 420.388L921.996 421.61C915.488 423.374 915.692 421.349 922.051 420.388Z" /><path fill="#F6EBE8" d="M927.84 417.965C928.856 418.247 929.096 418.269 930.148 418.404C928.295 420.819 926.609 422.198 924.144 423.907C924.409 422.943 924.656 422.495 925.292 421.714L925.846 420.996C926.809 419.778 927.087 419.301 927.84 417.965Z" /><path fill="#A57B61" fill-opacity="0.86274511" d="M895.555 424.651C897.47 424.467 899.693 424.992 900.745 424.882C904.199 424.519 904.018 423.82 907.743 423.904L906.502 424.978C906.718 424.929 905.693 425.118 905.597 425.226C906.009 425.291 906.409 425.236 906.832 425.23C907.927 425.49 908.785 425.705 909.871 426.031C905.794 426.152 895.402 426.328 891.924 425.676C892.692 425.611 893.461 425.561 894.231 425.527C894.746 425.505 895.438 425.571 895.836 425.188C895.868 424.952 895.743 424.909 895.555 424.651Z" /><path fill="#A57B61" fill-opacity="0.19215687" d="M890.376 425.385C888.818 425.091 878.061 421.507 877.694 420.826C878.126 419.943 890.712 423.919 892.417 424.252L890.376 425.385Z" /><path fill="#A57B61" fill-opacity="0.10980392" d="M907.743 423.904L908.172 423.953C909.177 424.058 914.122 424.234 914.633 424.809C914.544 425.802 910.525 425.974 909.871 426.031C908.785 425.705 907.927 425.49 906.832 425.23L906.502 424.978L907.743 423.904Z" /><path fill="#A57B61" fill-opacity="0.36862746" d="M892.417 424.252C893.506 424.433 894.461 424.532 895.555 424.651C895.743 424.909 895.868 424.952 895.836 425.188C895.438 425.571 894.746 425.505 894.231 425.527C893.461 425.561 892.692 425.611 891.924 425.676C891.112 425.459 891.173 425.447 890.376 425.385L892.417 424.252Z" /><path fill="#A57B61" fill-opacity="0.49411765" d="M906.832 425.23C906.409 425.236 906.009 425.291 905.597 425.226C905.693 425.118 906.718 424.929 906.502 424.978L906.832 425.23Z" /></svg>