<?xml version='1.0' encoding='utf-8'?>
<svg xmlns="http://www.w3.org/2000/svg" viewBox="39.2 279.7 222.6 200.9" width="512" height="512"><path fill="#F74C1B" d="M164.1 299.086C168.83 302.163 179.184 311.741 183.899 315.807L220.823 347.673L240.31 364.679C243.366 367.346 248.819 371.767 251.19 374.681C251.445 376.603 251.738 375.903 250.894 377.113C246.652 376.877 242.152 369.424 237.587 369.603C236.661 370.432 236.473 370.511 236.424 372.165C236.155 381.249 236.169 390.539 236.189 399.606L236.175 444.544C236.191 451.297 236.836 464.627 235.745 470.493L140.015 470.467C123.606 470.47 106.019 470.141 89.6912 470.556C88.801 461.495 88.2111 452.116 88.3961 443.002C88.5764 434.119 90.3543 413.868 88.3195 406.07C86.4864 399.045 92.7495 373.704 87.3302 369.72C82.0572 370.444 78.1686 381.819 74.0736 375.586L74.2195 374.564C99.6767 353.527 124.902 332.21 149.891 310.619C151.642 309.534 154.211 307.225 155.866 305.828C158.844 303.02 160.783 301.534 164.1 299.086ZM132.763 347.054C132.747 349.258 132.681 349.911 133.076 352.078C130.462 353.026 122.788 353.253 120.199 352.814L120.57 352.83C119.862 352.308 115.934 349.612 115.888 349.505C114.162 345.421 131.147 346.875 132.763 347.054ZM232.278 404.434C232.702 391.188 232.208 376.732 232.425 363.206C226.313 358.24 219.676 351.952 213.594 346.744C197.073 332.593 180.734 317.675 163.952 303.857C163.968 303.843 162.465 305.161 162.566 305.1C159.665 306.862 157.18 312.355 155.253 313.795C154.798 313.704 153.287 313.396 153.031 313.605C144.491 320.545 121.897 339.397 114.89 345.755C116.306 349.294 111.126 351.59 108.44 353.319C108.223 367.489 107.907 384.91 108.524 398.928C107.426 401.838 105.423 400.204 102.298 400.19C101.897 399.986 101.209 399.774 101.059 399.281C101.237 399.026 102.271 398.991 102.278 398.706C102.591 385.39 101.156 371.522 103.07 358.304C103.113 358.007 101.604 357.197 101.46 357.114C98.5956 359.385 95.9242 361.49 93.0885 363.84C93.4617 376.364 92.9202 388.549 93.2639 400.637C94.2006 403.004 99.5145 401.925 101.878 401.699C104.537 401.637 107.161 402.067 109.747 401.857C113.2 401.577 112.356 400.62 111.91 398.134C114.031 398.683 117.79 400.688 118.22 402.978L118.355 403.738C118.404 403.986 118.454 404.234 118.503 404.483C123.883 404.238 130.762 404.48 136.393 404.38C136.631 387.312 136.027 369.97 136.397 352.856C136.422 350.817 136.466 348.779 136.529 346.741C140.321 345.897 183.9 346.025 189.051 346.539C189.721 351.804 189.523 360.643 189.529 366.254C189.43 378.982 189.414 391.712 189.483 404.441L232.278 404.434ZM232.48 408.515C228.565 408.262 225.539 408.197 221.612 408.241C210.812 408.543 200.116 408.249 189.439 408.488C189.451 416.365 188.845 462.691 190.272 465.832C192.961 466.898 197.702 466.575 200.75 466.53C205.39 466.55 229.03 467.38 231.224 465.411C233.859 459.653 232.495 417.791 232.48 408.515ZM140.396 408.503C141.153 421.308 140.135 436.172 140.488 449.094C140.633 454.409 140.155 460.964 140.852 466.194C152.829 467.618 170.712 466.242 182.91 466.027C186.752 465.96 185.664 443.6 185.634 440.448C185.519 429.829 185.511 419.209 185.609 408.59C181.036 408.418 176.059 408.506 171.453 408.498C167.247 408.435 163.041 408.453 158.836 408.553C156.62 408.511 154.497 408.664 152.247 408.623C148.631 408.426 144.082 408.525 140.396 408.503ZM108.453 446.11C106.861 446.143 102.018 446.564 100.883 445.502C100.043 444.715 99.3572 444.183 97.9797 444.544C95.5025 445.194 95.9076 445.927 93.0695 445.98C93.2026 449.363 91.9052 466.391 96.4858 466.281C104.578 466.087 129.637 468.127 136.08 465.141C136.843 461.68 136.545 450.386 136.539 446.189L136.476 408.526C128.017 408.114 116.911 408.45 108.272 408.481C108.622 421.021 108.682 433.567 108.453 446.11ZM140.382 404.327C142.359 404.385 144.265 404.39 146.238 404.419C151.805 404.744 172.646 404.744 178.01 404.404C180.422 404.459 182.907 404.362 185.325 404.306C186.084 398.35 184.872 398.47 183.975 393.359C183.794 392.328 185.437 387.601 185.446 385.281C185.493 373.614 185.526 361.953 185.486 350.287C174.845 349.664 150.627 349.087 140.589 350.618C139.913 361.811 140.461 377.568 140.519 389.095C140.654 391.44 140.621 393.284 140.538 395.631C140.456 398.414 140.561 401.691 140.382 404.327ZM145.226 392.641C145.343 390.85 148.086 389.939 149.567 388.919C149.84 388.909 152.318 388.774 152.349 388.352C152.778 382.51 152.276 376.19 152.321 370.319C157.942 370.326 165.589 370.291 171.03 371.068C171.166 375.67 171.348 384.379 171.03 388.862C170.982 388.893 170.715 389.118 170.586 389.055C170.343 388.937 170.306 388.419 170.25 388.25C170.125 387.871 169.906 387.79 169.582 387.581L169.548 387.599L169.541 387.651C166.513 385.899 168.349 379.775 166.947 378.302C165.57 376.855 159.421 376.92 157.181 376.874C156.864 380.829 157.665 397.754 155.927 399.775C150.737 397.453 149.514 395.402 145.226 392.641ZM93.0233 408.538L93.0491 440.171C98.0621 442.151 97.5207 442.997 102.084 439.834C102.092 432.678 101.528 414.338 102.526 408.557L93.0233 408.538Z" /><path fill="url(#gradient_2)" d="M157.181 376.874C159.421 376.92 165.57 376.855 166.947 378.302C168.349 379.775 166.513 385.899 169.541 387.651L169.548 387.599L169.582 387.581C169.906 387.79 170.125 387.871 170.25 388.25C170.306 388.419 170.343 388.937 170.586 389.055C170.715 389.118 170.982 388.893 171.03 388.862C172.563 389.838 176.662 390.356 178.102 392.512C179.43 394.499 173.184 396.716 171.652 396.755L170.671 397.039C166.278 398.338 161.356 399.679 156.771 400.073L155.927 399.775C157.665 397.754 156.864 380.829 157.181 376.874Z" /><path fill="#DAB6A7" d="M101.46 357.114C102.326 355.709 112.986 347.212 114.89 345.755C116.306 349.294 111.126 351.59 108.44 353.319C108.223 367.489 107.907 384.91 108.524 398.928C107.426 401.838 105.423 400.204 102.298 400.19C101.897 399.986 101.209 399.774 101.059 399.281C101.237 399.026 102.271 398.991 102.278 398.706C102.591 385.39 101.156 371.522 103.07 358.304C103.113 358.007 101.604 357.197 101.46 357.114Z" /><path fill="#D6B8AB" d="M152.321 370.319C157.942 370.326 165.589 370.291 171.03 371.068C171.166 375.67 171.348 384.379 171.03 388.862C170.982 388.893 170.715 389.118 170.586 389.055C170.343 388.937 170.306 388.419 170.25 388.25C170.125 387.871 169.906 387.79 169.582 387.581L169.548 387.599L169.541 387.651C166.513 385.899 168.349 379.775 166.947 378.302C165.57 376.855 159.421 376.92 157.181 376.874C156.864 380.829 157.665 397.754 155.927 399.775C150.737 397.453 149.514 395.402 145.226 392.641C145.343 390.85 148.086 389.939 149.567 388.919C149.84 388.909 152.318 388.774 152.349 388.352C152.778 382.51 152.276 376.19 152.321 370.319Z" /><path fill="#D8BAAE" d="M102.526 408.557C104.455 408.46 106.34 408.479 108.272 408.481C108.622 421.021 108.682 433.567 108.453 446.11C106.861 446.143 102.018 446.564 100.883 445.502C100.043 444.715 99.3572 444.183 97.9797 444.544C95.5025 445.194 95.9076 445.927 93.0695 445.98C92.9645 444.045 92.9577 442.106 93.0491 440.171C98.0621 442.151 97.5207 442.997 102.084 439.834C102.092 432.678 101.528 414.338 102.526 408.557Z" /><path fill="#DAB6A7" d="M120.57 352.83C119.862 352.308 115.934 349.612 115.888 349.505C114.162 345.421 131.147 346.875 132.763 347.054C132.747 349.258 132.681 349.911 133.076 352.078C130.462 353.026 122.788 353.253 120.199 352.814L120.57 352.83Z" /><path fill="#D6B8AB" fill-opacity="0.70588237" d="M156.771 400.073C161.356 399.679 166.278 398.338 170.671 397.039L171.652 396.755C170.287 398.969 166.409 400.647 166.517 401.971C166.488 402.035 166.459 402.1 166.431 402.164C167.548 403.72 176.332 404.215 178.01 404.404C172.646 404.744 151.805 404.744 146.238 404.419C148.073 404.095 156.362 403.259 156.661 400.801L156.771 400.073Z" /><path fill="#D6B8AB" d="M111.91 398.134C114.031 398.683 117.79 400.688 118.22 402.978L118.355 403.738C118.404 403.986 118.454 404.234 118.503 404.483C110.258 404.6 101.984 404.488 93.7425 404.487C92.3334 404.487 93.1222 401.336 93.2639 400.637C94.2006 403.004 99.5145 401.925 101.878 401.699C104.537 401.637 107.161 402.067 109.747 401.857C113.2 401.577 112.356 400.62 111.91 398.134Z" /><path fill="#D8BAAE" fill-opacity="0.49411765" d="M152.247 408.623C154.497 408.664 156.62 408.511 158.836 408.553C162.139 409.299 162.243 408.718 164.199 411.87C165.116 413.347 167.282 414.075 169.038 415.676C162.719 414.955 159.154 415.449 153.145 415.314C153.103 414.941 153.066 414.569 153.032 414.196C152.851 412.329 152.569 410.471 152.247 408.623Z" /><path fill="#D8BAAE" fill-opacity="0.77254903" d="M158.836 408.553C163.041 408.453 167.247 408.435 171.453 408.498L171.423 409.014C171.304 411.358 171.675 414.796 169.038 415.676C167.282 414.075 165.116 413.347 164.199 411.87C162.243 408.718 162.139 409.299 158.836 408.553Z" /><path fill="#D6B8AB" fill-opacity="0.28235295" d="M140.519 389.095C142.099 390.11 147.542 389.08 149.567 388.919C148.086 389.939 145.343 390.85 145.226 392.641C144.542 393.042 141.061 395.171 140.538 395.631C140.621 393.284 140.654 391.44 140.519 389.095Z" /><path fill="#D6B8AB" fill-opacity="0.078431375" d="M108.524 398.928C109.866 398.293 110.386 398.32 111.91 398.134C112.356 400.62 113.2 401.577 109.747 401.857C107.161 402.067 104.537 401.637 101.878 401.699L102.298 400.19C105.423 400.204 107.426 401.838 108.524 398.928Z" /><path fill="#DAB6A7" fill-opacity="0.97647059" d="M132.763 347.054C134.338 347.025 134.978 346.982 136.529 346.741C136.466 348.779 136.422 350.817 136.397 352.856C134.691 352.126 134.747 351.492 133.076 352.078C132.681 349.911 132.747 349.258 132.763 347.054Z" /><path fill="#D8BAAE" d="M66.5253 357.416C63.091 359.993 53.3623 368.903 49.5176 364.627C49.1761 362.648 50.6147 360.748 52.0469 359.527C69.7227 344.456 87.444 328.978 105.4 314.278C112.379 308.564 127.869 292.682 134.509 289.687C138.161 289.813 149.903 302.93 155.866 305.828C154.211 307.225 151.642 309.534 149.891 310.619C147.574 307.804 137.881 298.9 134.884 296.912C126.683 304.534 117.659 311.113 109.512 318.521C97.8183 329.153 84.4092 339.303 73.0592 350.071C73.1454 355.153 73.0508 370.592 74.2195 374.564L74.0736 375.586C72.9628 377.986 73.2086 394.639 73.1257 398.986C77.0794 398.807 81.0967 398.028 83.9216 401.372C84.3951 406.271 76.6048 406.137 73.4178 406.149C73.6155 417.321 73.1809 428.789 73.1613 440.015C76.6115 440.222 81.7004 439.946 83.3198 443.365C80.0963 447.192 71.4687 446.6 66.9113 446.491C66.0572 439.969 66.4034 422.951 66.3908 415.741C66.2577 396.299 66.3025 376.857 66.5253 357.416Z" /></svg>