<?xml version='1.0' encoding='utf-8'?>
<svg xmlns="http://www.w3.org/2000/svg" viewBox="23.4 168.6 256.8 382.5" width="512" height="512"><path fill="#EFD4C3" fill-opacity="0.63137257" d="M180.061 269.476C180.734 269.71 181.404 269.953 182.071 270.204C180.959 272.251 179.95 274.906 177.67 276.309C176.847 276.815 175.56 275.281 175.753 274.806C176.416 273.172 178.868 270.836 180.061 269.476Z" /><path fill="#EFD4C3" fill-opacity="0.94117647" d="M166.177 283.955C167.868 281.544 170.243 278.516 172.461 276.843C174.145 275.62 176.462 278.747 173.985 279.041C171.838 279.296 172.062 279.966 170.459 281.673L170.098 281.944C168.261 283.336 168.411 283.713 166.177 283.955Z" /><path fill="#EFD4C3" fill-opacity="0.40392157" d="M153.88 293.403C160.255 296.723 157.322 300.661 153.641 297.615C154.419 296.222 154.589 297.64 155.499 297.69C157.921 294.657 149.485 298.984 153.88 293.403Z" /><path fill="#EFD4C3" fill-opacity="0.57254905" d="M185.083 262.458C186.716 262.564 189.935 262.779 189.683 265.105C186.888 266.327 186.278 265.25 185.083 262.458Z" /><path fill="#EFD4C3" fill-opacity="0.93725491" d="M180.061 269.476C183.7 262.565 184.74 266.89 182.071 270.204C181.404 269.953 180.734 269.71 180.061 269.476Z" /><path fill="#EFD4C3" fill-opacity="0.58431375" d="M166.177 283.955C168.411 283.713 168.261 283.336 170.098 281.944L170.459 281.673C169.585 283.02 167.606 284.944 166.846 286.473C166.428 287.313 164.089 286.764 166.177 283.955Z" /><path fill="#EFD4C3" fill-opacity="0.8509804" d="M163.186 287.736C165.281 289.451 164.319 289.854 163.125 292.118C161.051 289.846 161.638 290.047 163.186 287.736Z" /><path fill="#EFD4C3" fill-opacity="0.69411767" d="M194.045 256.916C196.794 258.029 193.682 259.277 192.649 259.927C190.792 258.034 192.14 258.197 194.045 256.916Z" /><path fill="#EFD4C3" fill-opacity="0.58039218" d="M149.483 299.954C152.544 300.546 152.348 300.107 154.093 302.608L153.571 302.503C151.318 302.062 151.196 301.611 149.483 299.954Z" /><path fill="#CEA083" d="M117.609 270.781C119.399 273.07 123.021 270.471 120.848 277.732C119.868 281.007 116.908 283.451 114.006 284.942C111.596 286.343 111.492 287.534 108.468 288.976L108.132 289.021C106.066 286.415 107.91 283.651 108.67 280.043C111.883 276.81 114.719 274.392 117.609 270.781Z" /><path fill="url(#gradient_1)" d="M108.132 289.021L108.468 288.976L108.925 289.314C110.994 290.881 111.97 288.639 113.325 289.225C113.484 289.734 113.09 289.601 113.181 290.209C115.644 291.399 117.246 287.496 119.212 295.263C119.588 296.751 120.38 297.487 121.611 298.366C120.333 299.72 119.546 300.791 118.082 301.958C113.85 298.709 106.584 292.635 101.749 290.94C103.879 290.731 107.002 291.643 107.722 289.916L108.132 289.021Z" /><path fill="#D19E7F" fill-opacity="0.89019608" d="M129.942 308.109C131.787 306.329 134.066 304.14 135.943 302.459L136.707 303.499C136.141 305.083 136.028 307.398 134.834 308.381C132.312 310.457 133.889 313.38 133.346 314.465C133.036 314.586 131.849 314.202 131.339 314.134C131.982 312.32 133.668 307.669 129.714 311.101L129.003 311.616C129.372 310.692 129.78 309.817 129.862 308.813L129.942 308.109Z" /><path fill="#CEA083" fill-opacity="0.60784316" d="M129.003 311.616L129.714 311.101C133.668 307.669 131.982 312.32 131.339 314.134C129.245 313.375 129.259 313.73 129.003 311.616Z" /><path fill="#CEA083" d="M255.854 181.736C257.352 188.058 268.516 178.566 261.94 203.268C267.732 209.724 270.165 212.679 263.232 219.711C254.662 228.401 246.035 237.061 237.422 245.711L187.218 296.113C178.524 304.915 169.755 313.643 160.913 322.295C158.52 324.663 148.572 335.31 146.087 335.424C140.69 334.041 124.963 318.904 121.117 314.466C124.139 313.792 127.552 310.242 129.942 308.109L129.862 308.813C129.78 309.817 129.372 310.692 129.003 311.616C129.259 313.73 129.245 313.375 131.339 314.134C131.849 314.202 133.036 314.586 133.346 314.465C133.889 313.38 132.312 310.457 134.834 308.381C136.028 307.398 136.141 305.083 136.707 303.499C140.556 310.554 140.855 313.656 142.712 321.416C145.49 319.001 147.955 316.479 150.573 313.911C167.343 297.459 183.418 280.364 199.817 263.551L236.334 226.471C242.036 220.721 248.362 215.052 253.727 209.086C251.927 205.975 249.723 203.513 248.136 200.365C246.901 197.913 247.386 197.59 248.162 195.342C249.711 192.957 249.567 192.778 252.772 191.419C257.437 189.441 256.53 185.574 251.092 187.418C252.956 185.385 254.237 184.016 255.854 181.736Z" /><path fill="#F54915" d="M58.4971 242.225C62.6341 238.241 60.7481 239.324 64.8795 242.787C74.8077 251.107 84.0672 260.405 94.3556 268.276C93.2807 269.115 91.8149 270.968 90.5555 270.9C89.911 271.8 89.9141 271.749 88.9519 272.412C89.0225 273.686 88.2798 274.222 87.58 275.323C79.8064 268.878 72.3168 261.955 64.5138 255.445C62.2024 253.517 57.5535 249.785 55.6698 247.234C55.1753 246.564 56.601 244.162 56.9894 243.478C57.4983 243.068 58.001 242.65 58.4971 242.225Z" /><path fill="#FAF4F3" d="M58.4971 242.225C67.8102 251.176 81.7604 261.178 90.5555 270.9C89.911 271.8 89.9141 271.749 88.9519 272.412C81.1544 265.065 73.4255 257.762 65.1871 250.901C62.3854 248.567 59.5016 246.115 56.9894 243.478C57.4983 243.068 58.001 242.65 58.4971 242.225Z" /><path fill="#D19E7F" d="M94.3556 268.276C98.8647 264.17 100.912 266.62 105.915 270.041C102.716 273.964 91.3297 285.86 87.5322 289.126C87.4884 284.712 87.5856 281.044 88.6278 276.766C88.7328 276.335 87.8161 275.558 87.58 275.323C88.2798 274.222 89.0225 273.686 88.9519 272.412C89.9141 271.749 89.911 271.8 90.5555 270.9C91.8149 270.968 93.2807 269.115 94.3556 268.276ZM94.9424 275.867C95.6756 275.434 98.3279 274.034 98.6509 273.276C98.5826 272.56 94.9625 273.042 94.4465 273.069C93.982 273.73 92.342 276.418 93.2702 277.153C93.7213 277.217 94.6723 276.113 94.9424 275.867Z" /><path fill="#D09F81" fill-opacity="0.21176471" d="M94.4465 273.069C94.9625 273.042 98.5826 272.56 98.6509 273.276C98.3279 274.034 95.6756 275.434 94.9424 275.867C94.6723 276.113 93.7213 277.217 93.2702 277.153C92.342 276.418 93.982 273.73 94.4465 273.069Z" /><path fill="#F54915" d="M129.286 498.627C135.992 480.915 156.583 484.75 160.307 503.13C160.465 505.149 160.472 507.99 160.801 509.833C161.147 520.824 162.695 532.552 152.302 538.959L151.702 539.338L150.987 539.577C146.865 541.017 145.082 540.511 140.981 540.653C137.294 539.872 135.68 538.623 132.724 536.484C132.23 535.213 130.821 533.025 129.912 531.944C128.924 529.082 128.087 526.145 127.95 523.107C127.967 518.702 128.011 511.331 127.898 507.054C127.992 506.066 128.075 505.139 128.205 504.155C128.654 502.209 129.036 500.604 129.286 498.627ZM147.62 502.448L148.501 500.63L148.125 499.866L147.834 499.068C146.979 496.68 145.494 495.726 142.44 496.367C141.488 496.567 140.573 499.356 140.203 500.306C138.041 505.359 138.261 507.816 138.42 513.184C138.596 516.772 139.023 521.764 139.653 525.311C140.179 527.787 140.982 532.186 145.223 531.872C147.359 531.714 148.099 528.336 148.942 526.735C148.536 525.739 148.304 525.207 148.03 524.157C147.933 519.106 147.822 514.546 147.499 509.5C147.348 507.146 148.063 505.317 147.62 502.448Z" /><path fill="#D19E7F" fill-opacity="0.29019609" d="M138.42 513.184C138.261 507.816 138.041 505.359 140.203 500.306C140.859 500.802 141.924 500.884 143.007 501.42C146.141 502.972 146.542 501.669 148.125 499.866L148.501 500.63L147.62 502.448C146.861 504.106 146.343 510.338 144.746 511.006C140.522 512.772 141.974 509.031 138.42 513.184Z" /><path fill="#D19E7F" fill-opacity="0.0078431377" d="M140.203 500.306C140.573 499.356 141.488 496.567 142.44 496.367C145.494 495.726 146.979 496.68 147.834 499.068L148.125 499.866C146.542 501.669 146.141 502.972 143.007 501.42C141.924 500.884 140.859 500.802 140.203 500.306Z" /><path fill="#F54915" d="M101.44 540.295C97.0883 538.067 94.0783 535.237 92.3392 530.37C89.394 521.641 88.8861 504.52 93.018 496.173C99.713 482.65 116.734 485.345 121.868 499.373C122.069 501.79 122.732 504.453 122.569 506.688L122.873 507.701C122.975 511.642 122.765 518.265 123.04 521.828C122.963 523.898 122.602 525.892 122.006 527.879C120.256 533.744 117.895 536.869 112.667 540.056C107.43 540.859 106.77 540.946 101.44 540.295ZM100.913 508.554C101.012 510.09 100.955 511.48 101.038 513.005C101.067 518.384 100.762 523.948 102.956 528.999L103.169 529.498C104.564 531.293 105.942 533.128 108.118 531.399C112.488 527.346 112.088 521.915 112.023 516.175C111.884 513.142 112.478 499.732 109.718 497.578C101.669 491.295 101.036 506.538 100.913 508.554Z" /><path fill="#F54915" d="M48.6625 467.893L48.7057 468.606C49.0912 475.758 48.394 484.41 43.4193 490.017C41.287 492.421 37.5446 493.69 34.4631 492.547C33.3569 490.996 33.5495 491.82 33.7431 490.024C34.6409 488.921 35.253 488.325 36.5102 487.605C42.0743 484.42 42.713 476.535 42.6119 470.72C42.444 461.064 44.631 461.768 53.1801 461.754C93.0232 461.687 132.87 461.712 172.715 461.729L203.494 461.709C208.563 461.694 214.258 461.549 219.322 462C220.269 462.084 220.649 462.402 221.018 463.09C221.856 464.653 221.887 466.417 221.961 468.129C222.408 478.529 220.537 482.589 230.7 488.785C231.283 489.14 231.154 489.054 231.651 489.537C228.03 496.507 227.039 492.316 221.884 490.015C216.192 482.715 215.94 476.58 215.91 467.776C168.667 466.663 120.909 468.509 73.6256 467.747C65.5352 467.617 56.7147 467.519 48.6625 467.893Z" /><path fill="#CEA083" d="M231.651 489.537C236.111 491.333 246.865 488.311 251.345 491.162C256.999 494.584 252.402 507.088 254.44 511.254C256.974 516.438 259.675 520.702 249.629 518.324C243.774 516.939 244.85 503.809 244.761 498.148C235.429 497.927 226.072 497.982 216.744 497.849C213.772 497.807 211.333 496.534 211.856 493.252C212.618 488.465 218.519 489.705 221.884 490.015C227.039 492.316 228.03 496.507 231.651 489.537Z" /><path fill="#D19E7F" d="M102.045 298.395C104.059 298.695 112.131 305.182 112.624 306.849C109.338 311.364 95.7558 329.485 91.941 314.756C89.932 307 97.5929 304.357 102.045 298.395ZM105.888 303.081C105.875 301.518 105.096 301.887 103.951 302.426C104.306 303.734 104.703 303.618 105.888 303.081Z" /><path fill="#CEA083" fill-opacity="0.89411765" d="M103.951 302.426C105.096 301.887 105.875 301.518 105.888 303.081C104.703 303.618 104.306 303.734 103.951 302.426Z" /><path fill="#D19E7F" fill-opacity="0.94117647" d="M160.307 503.13C162.553 503.396 164.497 503.337 166.705 503.6C166.521 505.186 166.162 509.726 165.712 511.022C165.211 506.215 161.402 506.511 160.801 509.833C160.472 507.99 160.465 505.149 160.307 503.13Z" /><path fill="#D09F81" fill-opacity="0.92941177" d="M121.868 499.373C125.88 500.925 125.258 500.347 129.286 498.627C129.036 500.604 128.654 502.209 128.205 504.155C123.905 503.965 123.087 502.68 122.569 506.688C122.732 504.453 122.069 501.79 121.868 499.373Z" /><path fill="#CEA083" fill-opacity="0.69803923" d="M122.569 506.688C123.087 502.68 123.905 503.965 128.205 504.155C128.075 505.139 127.992 506.066 127.898 507.054C127.705 507.296 127.521 507.666 127.185 507.717C127.025 507.63 123.131 507.709 122.873 507.701L122.569 506.688Z" /></svg>