<?xml version='1.0' encoding='utf-8'?>
<svg xmlns="http://www.w3.org/2000/svg" viewBox="761.3 554.0 229.4 166.0" width="512" height="512"><path fill="#F74C1B" d="M794.701 693.536C771.301 684.931 772.22 672.262 772.303 650.507L772.422 624.048C772.463 613.022 771.996 601.53 772.758 590.581C773.66 577.62 785.216 565.762 798.279 564.995C814.763 564.028 831.43 564.823 847.952 564.769L891.903 564.499C899.892 564.457 910.237 564.173 917.811 565.059C924.469 565.838 932.844 573.54 936.292 578.982C937.388 580.713 937.495 580.56 938.897 580.747C950.594 580.242 962.914 579.007 972.234 587.474C977.842 592.568 980.452 599.105 980.503 606.618C980.669 631.006 980.637 655.401 980.509 679.787C980.464 687.311 978.932 694.309 973.544 699.786C968.24 705.517 961.519 708.178 953.76 708.38C923.689 708.485 893.51 708.364 863.432 708.37L830.945 708.391C815.165 708.387 803.204 710.067 794.701 693.536ZM871.668 642.582C876.517 647.003 877.799 646.594 874.667 640.329C891.824 624.915 909.043 609.265 926.186 593.809C929.062 591.215 932.899 587.904 935.353 585.001C919.176 583.733 892.124 584.557 875.445 584.575L839.317 584.563C833.195 584.547 810.642 583.154 807.404 588.41C808.35 590.901 823.523 603.338 826.496 605.92L850.236 626.724C856.61 632.229 862.653 638.47 869.108 643.596L871.668 642.582ZM938.897 580.747C937.495 580.56 937.388 580.713 936.292 578.982C932.844 573.54 924.469 565.838 917.811 565.059C910.237 564.173 899.892 564.457 891.903 564.499L847.952 564.769C831.43 564.823 814.763 564.028 798.279 564.995C785.216 565.762 773.66 577.62 772.758 590.581C771.996 601.53 772.463 613.022 772.422 624.048L772.303 650.507C772.22 672.262 771.301 684.931 794.701 693.536C791.12 678.629 794.04 669.751 792.428 655.807C792.529 645.065 792.551 634.322 792.494 623.58C792.475 611.666 791.227 602.983 797.04 592.1C800.626 588.703 806.739 582.758 811.575 582.026C825.445 579.928 844.48 580.941 858.705 581.01L916.355 581.024C919.261 581.024 936.988 581.219 938.897 580.747ZM813.577 685.453C811.749 686.974 806.916 690.636 806.504 692.621C803.544 693.131 802.549 696.566 803.736 699.149C807.154 701.986 810.716 703.863 815.207 704.028C825.544 704.408 836.132 704.295 846.471 704.304L906.145 704.232L939.45 704.256C952.043 704.271 960.436 706.286 970.576 697.358C966.816 694.144 939.992 670.51 938.046 670.065C933.181 668.896 934.821 668.055 931.843 666.499C930.359 664.057 930.266 662.963 928.066 660.889C921.768 654.952 914.991 649.529 908.577 643.722C882.9 666.727 886.92 666.402 861.62 642.061C856.797 647.215 850.022 652.99 844.683 657.777L813.577 685.453ZM917.849 686.51C916.688 680.118 921.314 672.243 925.411 667.658C927.806 667.792 928.149 667.707 930.547 667.262C932.812 668.203 932.44 669.139 932.69 671.506C924.732 678.049 924.807 684.41 925.451 693.796C896.794 694.09 863.824 694.59 835.376 693.868C831.922 691.349 817.711 696.949 817.745 690.157L818.368 689.771C819.845 688.903 821.342 687.65 822.719 686.59C830.474 685.825 848.435 686.409 857.152 686.43C877.385 686.324 897.617 686.35 917.849 686.51ZM942.136 667.52C952.557 676.603 962.703 685.027 973.237 693.891C976.778 688.818 976.46 685.115 976.47 679.142L976.372 626.097C976.342 618.061 976.61 608.627 975.759 600.703C975.342 596.819 972.2 593.067 969.486 590.344C960.387 598.02 951.394 605.821 942.51 613.745C942.48 629.078 943.271 652.996 942.136 667.52ZM803.008 591.019C798.228 597.478 796.681 602.435 796.877 610.505C797.223 624.736 796.266 639.576 796.922 653.751C796.613 655.725 796.913 662.122 796.927 664.604C796.692 670.971 795.927 684.06 797.974 689.368C799.802 691.007 803.67 688.351 805.168 687.014C812.208 680.73 820.301 674.324 827.018 667.773C835.693 659.314 850.848 648.998 857.494 639.319C853.649 635.23 845.706 628.204 841.325 624.46C829.31 635.874 817.062 647.041 804.59 657.954C799.943 656.065 802.151 655.221 801.602 649.548C810.335 642.143 818.463 633.954 827.455 626.904C830.762 624.311 832.82 622.798 835.477 619.461C825.726 610.853 813.055 599.028 803.008 591.019ZM941.813 608.423C944.975 605.465 963.877 590.483 964.143 587.755C964.169 587.483 964.125 587.347 963.93 587.165C960.365 583.835 945.305 584.741 940.432 584.982C940.704 592.22 941.22 597.233 940.959 604.809C938.453 605.629 933.812 607.255 932.385 609.716C931.572 611.118 931.898 611.089 930.467 612.052L929.719 612.436C924.93 614.86 918.366 615.529 915.202 617.662C909.253 621.673 879.877 647.12 877.837 651.294C880.714 653.887 882.296 655.362 885.518 657.452C890.006 654.928 897.211 648.194 901.378 644.507C911.022 635.957 920.585 627.314 930.064 618.581C930.75 614.844 930.054 616.08 932.178 612.646C934.514 610.324 937.68 607.68 940.943 607.097L941.813 608.423ZM935.808 661.496C937.131 656.605 938.26 623.318 935.379 619.967C927.504 626.544 919.41 633.906 911.794 640.821C917.63 646.077 925.866 653.776 932.045 658.41L934.015 659.914C934.705 660.442 935.179 660.903 935.808 661.496Z" /><path fill="#A97E66" fill-opacity="0.5411765" d="M788.334 666.824C788.69 669.125 787.945 673.415 788.803 674.664C789.627 674.76 791.657 672.338 792.408 671.697C791.459 674.406 789.708 676.066 789.983 678.998C790.058 679.79 790.154 683.901 788.987 684.056C787.473 683.176 787.987 669.216 788.334 666.824Z" /><path fill="#A57B61" d="M794.701 693.536C771.301 684.931 772.22 672.262 772.303 650.507L772.422 624.048C772.463 613.022 771.996 601.53 772.758 590.581C773.66 577.62 785.216 565.762 798.279 564.995C814.763 564.028 831.43 564.823 847.952 564.769L891.903 564.499C899.892 564.457 910.237 564.173 917.811 565.059C924.469 565.838 932.844 573.54 936.292 578.982C937.388 580.713 937.495 580.56 938.897 580.747C936.988 581.219 919.261 581.024 916.355 581.024L858.705 581.01C844.48 580.941 825.445 579.928 811.575 582.026C806.739 582.758 800.626 588.703 797.04 592.1C790.474 590.561 783.354 606.329 783.386 611.97C783.478 628.156 779.91 652.635 788.334 666.824C787.987 669.216 787.473 683.176 788.987 684.056C790.154 683.901 790.058 679.79 789.983 678.998C789.708 676.066 791.459 674.406 792.408 671.697C790.796 665.472 791.578 662.222 792.428 655.807C794.04 669.751 791.12 678.629 794.701 693.536ZM809.081 576.834C807.713 577.346 807.038 577.839 805.932 578.791C805.006 579.422 801.776 581.066 801.808 582.182C803.046 583.148 805.718 580.829 806.549 580.05C808.279 578.421 808.317 578.433 810.596 577.66C813.619 577.469 817.358 577.318 820.393 577.325L820.615 577.028L820.935 577.24C820.977 577.206 821.019 577.172 821.061 577.138C820.423 575.985 810.759 576.485 809.081 576.834Z" /><path fill="#A57B61" fill-opacity="0.67058825" d="M809.081 576.834C810.759 576.485 820.423 575.985 821.061 577.138C821.019 577.172 820.977 577.206 820.935 577.24L820.615 577.028L820.393 577.325C817.358 577.318 813.619 577.469 810.596 577.66L809.081 576.834Z" /><path fill="#A57B61" fill-opacity="0.65882355" d="M805.932 578.791L806.549 580.05C805.718 580.829 803.046 583.148 801.808 582.182C801.776 581.066 805.006 579.422 805.932 578.791Z" /><path fill="#A57B61" fill-opacity="0.78039217" d="M809.081 576.834L810.596 577.66C808.317 578.433 808.279 578.421 806.549 580.05L805.932 578.791C807.038 577.839 807.713 577.346 809.081 576.834Z" /><path fill="#D6B8AB" d="M935.353 585.001C936.983 584.966 938.831 584.88 940.432 584.982C940.704 592.22 941.22 597.233 940.959 604.809C938.453 605.629 933.812 607.255 932.385 609.716C931.572 611.118 931.898 611.089 930.467 612.052L929.719 612.436C924.93 614.86 918.366 615.529 915.202 617.662C909.253 621.673 879.877 647.12 877.837 651.294C874.898 648.906 871.938 646.145 869.108 643.596L871.668 642.582C876.517 647.003 877.799 646.594 874.667 640.329C891.824 624.915 909.043 609.265 926.186 593.809C929.062 591.215 932.899 587.904 935.353 585.001Z" /><path fill="#D8BAAE" d="M930.547 667.262C932.812 668.203 932.44 669.139 932.69 671.506C924.732 678.049 924.807 684.41 925.451 693.796C896.794 694.09 863.824 694.59 835.376 693.868C831.922 691.349 817.711 696.949 817.745 690.157L818.368 689.771C819.845 688.903 821.342 687.65 822.719 686.59C830.474 685.825 848.435 686.409 857.152 686.43C877.385 686.324 897.617 686.35 917.849 686.51C916.688 680.118 921.314 672.243 925.411 667.658C927.806 667.792 928.149 667.707 930.547 667.262Z" /><path fill="#D6B8AB" d="M835.477 619.461C837.902 621.202 839.177 622.359 841.325 624.46C829.31 635.874 817.062 647.041 804.59 657.954C799.943 656.065 802.151 655.221 801.602 649.548C810.335 642.143 818.463 633.954 827.455 626.904C830.762 624.311 832.82 622.798 835.477 619.461Z" /><path fill="#DAB6A7" d="M942.51 613.745C942.48 629.078 943.271 652.996 942.136 667.52C939.977 665.662 937.489 663.742 935.808 661.496C937.131 656.605 938.26 623.318 935.379 619.967C936.725 618.198 940.68 615.186 942.51 613.745Z" /><path fill="#D6B8AB" fill-opacity="0.65490198" d="M796.922 653.751C798.582 652.262 799.848 650.991 801.602 649.548C802.151 655.221 799.943 656.065 804.59 657.954C802.786 659.056 801.361 659.537 799.411 660.372C798.285 662.505 798.427 662.658 796.927 664.604C796.913 662.122 796.613 655.725 796.922 653.751Z" /><path fill="#D6B8AB" d="M932.178 612.646C934.514 610.324 937.68 607.68 940.943 607.097L941.813 608.423C940.829 609.535 931.043 617.934 930.064 618.581C930.75 614.844 930.054 616.08 932.178 612.646Z" /><path fill="#D8BAAE" fill-opacity="0.27450982" d="M930.467 612.052C931.898 611.089 931.572 611.118 932.385 609.716C933.812 607.255 938.453 605.629 940.959 604.809C940.965 605.588 940.956 606.319 940.943 607.097C937.68 607.68 934.514 610.324 932.178 612.646L930.467 612.052Z" /><path fill="#D8BAAE" fill-opacity="0.59607846" d="M806.504 692.621C806.916 690.636 811.749 686.974 813.577 685.453C813.355 689.056 814.59 689.362 818.368 689.771L817.745 690.157L816.885 690.095C815.486 689.978 815.224 690.066 814.021 690.803C813.124 690.759 811.696 690.032 811.289 690.302C809.329 691.603 808.703 692.001 806.504 692.621Z" /><path fill="#D8BAAE" fill-opacity="0.84313726" d="M814.021 690.803C815.224 690.066 815.486 689.978 816.885 690.095L817.745 690.157C817.711 696.949 831.922 691.349 835.376 693.868C831.545 694.223 826.829 693.717 823.202 693.978C816.766 694.442 818.975 693.135 814.021 690.803Z" /><path fill="#D8BAAE" fill-opacity="0.023529412" d="M871.668 642.582C872.66 641.804 873.61 641.017 874.667 640.329C877.799 646.594 876.517 647.003 871.668 642.582Z" /><path fill="#D8BAAE" fill-opacity="0.12156863" d="M931.843 666.499C934.821 668.055 933.181 668.896 938.046 670.065C934.552 670.292 936.139 669.818 932.69 671.506C932.44 669.139 932.812 668.203 930.547 667.262C931.118 666.769 931.131 666.787 931.843 666.499Z" /></svg>