<?xml version='1.0' encoding='utf-8'?>
<svg xmlns="http://www.w3.org/2000/svg" viewBox="781.1 104.7 229.6 222.3" width="512" height="512"><path fill="#F54915" d="M864.234 197.117C848.142 195.766 835.888 189.827 828.573 174.477C820.067 155.26 828.38 132.072 847.557 123.383C866.827 114.651 890.99 122.033 899.755 141.943C919.517 144.668 926.979 151.944 935.216 169.671C946.374 176.908 953.632 183.055 956.682 196.784C958.795 206.291 957.059 217.771 951.78 226.029C949.197 230.069 944.473 234.613 941.206 238.276C950.605 244.493 952.524 249.091 959.994 256.219C977.078 263.072 1000.64 291.763 997.313 313.898C997.193 314.7 995.789 315.936 995.012 315.908C986.93 316.984 975.561 316.557 967.441 316.579C943.815 316.718 920.188 316.699 896.562 316.521C883.04 316.496 869.52 316.751 856.011 316.771C851.772 316.777 848.225 316.278 848.047 311.347C847.9 307.267 848.619 301.494 849.463 297.498C841.983 297.477 834.447 297.563 826.977 297.877C825.385 297.944 822.957 297.306 822.079 295.944C819.59 292.084 823.12 280.525 824.244 275.988C818.093 275.789 797.067 276.622 792.743 275.5C791.643 274.46 791.084 273.583 791.211 271.97C792.786 255.299 799.302 240.104 811.031 228.071C827.748 210.92 846.728 206.253 869.814 205.927C868.114 203.598 865.822 199.668 864.234 197.117ZM861.272 306.204C872.923 305.66 888.532 306.445 900.485 306.363C929.532 306.165 958.852 306.858 987.885 306.536C985.856 293.642 981.102 287.25 974.388 276.556C973.234 274.719 972.135 269.567 970.566 268.177C969.821 269.479 969.522 270.15 968.284 271.078L968.389 271.63C969.519 277.369 974.645 291.919 971.457 296.782C966.904 298.007 935.171 297.733 928.853 297.607C907.339 297.179 884.052 298.16 862.711 297.562C862.134 300.083 861.683 303.565 861.272 306.204ZM906.194 162.761C907.702 160.64 907.535 158.861 907.01 156.26C909.169 155.359 908.885 155.652 911.181 155.224L911.641 155.134C913.54 159.024 914.825 161.91 916.406 165.978C919.486 166.013 922.681 166.262 925.889 166.336C921.673 159.668 917.237 154.615 909.505 151.792C908.101 151.05 906.589 150.628 905.121 150.021C904.603 149.564 903.921 149.339 903.232 149.396C902.937 149.421 902.849 149.459 902.661 149.646C902.49 150.286 903.391 152.208 903.431 152.98C903.578 155.864 903.621 159.121 903.607 161.992C902.492 180.265 889.351 191.96 872.48 196.465C875.322 200.776 878.849 204.735 883.461 207.205C900.095 199.729 906.7 187.591 906.43 169.251C906.399 167.155 905.758 164.695 906.194 162.761ZM886.015 266.572C885.471 267.192 884.895 267.826 884.369 268.457C888.319 268.482 892.709 268.865 896.26 267.027C900.343 264.934 903.443 261.323 904.893 256.97C905.232 255.648 905.442 254.101 905.7 252.737C899.508 252.112 899.569 252.52 900.471 258.833C896.241 259.673 892.352 263.149 888.71 264.779C885.678 263.357 875.059 264.613 886.015 266.572ZM928.571 175.536C923.826 175.032 920.921 175.04 916.198 175.029C915.89 177.452 915.477 179.86 914.958 182.246C912.877 192.099 907.011 203.707 898.201 208.912C897.218 209.493 896.485 209.915 895.525 210.576C909.937 210.302 921.274 203.997 926.886 190.277C929.117 184.824 928.409 181.114 928.571 175.536ZM828.651 287.567C829.395 287.999 829.395 287.966 829.974 288.428C830.731 289.033 830.577 287.416 831.019 287.169C833.148 285.975 836.513 286.709 838.896 286.46C843.769 286.344 848.939 286.368 853.786 286.502C855.615 282.208 857.36 279.777 859.799 275.947C851.255 276.028 840.928 275.74 832.27 275.584C830.774 279.901 829.649 283.086 828.651 287.567ZM866.302 268.659C879.715 259.013 888.289 248.599 906.019 247.349C906.038 241.719 905.453 237.374 903.204 232.104C898.428 231.961 893.774 231.835 889.006 232.357C867.611 234.7 844.687 248.77 835.668 268.845C844.282 269.164 857.634 269.096 866.302 268.659ZM914.146 233.784C911.805 235.394 913.417 241.854 913.703 244.513L913.759 245.085C917.347 244.884 930.298 243.284 932.676 244.035C934.824 247.189 937.546 247.505 941.218 248.713C939.194 247.173 935.636 245.049 934.408 243.364C931.223 240.741 927.637 240.364 923.815 239.261C920.656 238.349 916.733 235.809 914.146 233.784ZM933.947 253.661C928.077 253.432 918.895 253.794 913.644 253.118C911.956 260.793 909.449 267.473 902.436 271.897C893.647 277.441 884.757 274.991 875.899 275.802C873.555 278.9 871.454 281.954 869.252 285.156C884.619 285.162 899.99 286.089 915.358 285.589C933.85 284.987 935.493 268.002 933.947 253.661ZM936.178 182.303C934.091 203.953 919.999 214.787 899.505 217.767C902.11 220.084 904.264 222.315 906.694 224.818C918.47 226.872 922.431 227.705 933.513 232.981C935.539 230.434 937.659 228.299 939.658 225.606C950.653 210.792 950.526 194.034 938.582 179.392L937.707 179.366C936.193 180.989 936.717 180.063 936.178 182.303ZM860.59 284.362C859.422 288.808 862.655 287.474 865.882 286.801C868.58 284.819 861.312 284.416 860.59 284.362ZM933.868 290.379C943.765 290.411 955.659 290.763 965.415 290.306C965.316 289.703 965.217 289.1 965.118 288.497C963.713 279.746 960.538 271.373 955.786 263.891C953.726 260.577 950.766 258.098 949.24 255.582C947.533 254.818 946.703 254.226 945.132 253.198C944.122 252.013 942.197 248.81 940.774 248.512C939.469 248.239 939.887 250.84 941.081 251.37C942.816 252.14 943.286 251.929 944.288 253.465C943.559 257.428 944.316 259.804 944.418 263.745C944.724 275.507 942.544 282.495 933.868 290.379ZM893.032 149.589C875.141 153.38 865.847 168.79 868.65 186.499C869.009 188.767 869.495 189.151 871.627 188.885C880.353 187.187 886.248 182.294 891.29 175.152C896.545 167.71 896.492 159.359 895.531 150.678C895.359 149.124 894.356 149.427 893.032 149.589ZM863.249 126.665C852.904 128 845.968 130.495 839.242 139.103C833.941 145.793 831.615 154.364 832.805 162.816C833.818 170.924 838.077 178.273 844.606 183.184C846.776 184.798 860.032 191.794 861.698 189.443C859.283 165.213 866.899 148.424 892.105 142.913C886.144 132.738 875.432 125.528 863.249 126.665ZM857.243 213.693C839.702 215.131 824.455 223.169 813.121 236.577C804.199 247.133 800.882 255.7 798.864 269.106C807.409 269.671 817.927 269.006 826.775 269.14C828.138 266.498 829.411 264.263 830.919 261.702C841.532 245.292 854.768 234.576 873.564 228.402C881.448 225.812 888.382 225.311 896.535 224.51C888.152 215.763 868.834 212.772 857.243 213.693Z" /><path fill="#D09F81" d="M935.216 169.671C946.374 176.908 953.632 183.055 956.682 196.784C958.795 206.291 957.059 217.771 951.78 226.029C949.197 230.069 944.473 234.613 941.206 238.276C938.807 236.521 935.99 234.681 933.513 232.981C935.539 230.434 937.659 228.299 939.658 225.606C950.653 210.792 950.526 194.034 938.582 179.392L937.707 179.366C936.193 180.989 936.717 180.063 936.178 182.303C936.026 177.221 935.974 174.73 935.216 169.671Z" /><path fill="#D19E7F" d="M911.641 155.134C913.54 159.024 914.825 161.91 916.406 165.978C919.486 166.013 922.681 166.262 925.889 166.336C927.708 169.705 928.151 171.712 928.571 175.536C923.826 175.032 920.921 175.04 916.198 175.029C915.89 177.452 915.477 179.86 914.958 182.246C912.877 192.099 907.011 203.707 898.201 208.912C897.218 209.493 896.485 209.915 895.525 210.576C891.806 211.073 886.83 208.802 883.461 207.205C900.095 199.729 906.7 187.591 906.43 169.251C906.399 167.155 905.758 164.695 906.194 162.761C907.702 160.64 907.535 158.861 907.01 156.26C909.169 155.359 908.885 155.652 911.181 155.224L911.641 155.134Z" /><path fill="#CEA083" fill-opacity="0.94509804" d="M903.607 161.992C903.621 159.121 903.578 155.864 903.431 152.98C903.391 152.208 902.49 150.286 902.661 149.646C902.849 149.459 902.937 149.421 903.232 149.396C903.921 149.339 904.603 149.564 905.121 150.021C905.152 152.601 904.525 155.388 907.01 156.26C907.535 158.861 907.702 160.64 906.194 162.761C904.745 159.423 904.586 158.382 903.607 161.992Z" /><path fill="#CEA083" fill-opacity="0.14509805" d="M900.471 258.833C899.569 252.52 899.508 252.112 905.7 252.737C905.442 254.101 905.232 255.648 904.893 256.97C903.795 255.068 903.771 257.359 901.393 258.417L900.471 258.833Z" /><path fill="#D19E7F" fill-opacity="0.050980393" d="M907.01 156.26C904.525 155.388 905.152 152.601 905.121 150.021C906.589 150.628 908.101 151.05 909.505 151.792C909.198 152.749 910.812 153.841 911.641 155.134L911.181 155.224C908.885 155.652 909.169 155.359 907.01 156.26Z" /><path fill="#D09F81" fill-opacity="0.52549022" d="M934.408 243.364C935.636 245.049 939.194 247.173 941.218 248.713C937.546 247.505 934.824 247.189 932.676 244.035C933.354 243.803 933.774 243.679 934.408 243.364Z" /><path fill="#D19E7F" fill-opacity="0.4509804" d="M944.288 253.465C943.286 251.929 942.816 252.14 941.081 251.37C939.887 250.84 939.469 248.239 940.774 248.512C942.197 248.81 944.122 252.013 945.132 253.198C944.873 253.369 944.605 253.393 944.288 253.465Z" /></svg>