<?xml version='1.0' encoding='utf-8'?>
<svg xmlns="http://www.w3.org/2000/svg" viewBox="532.8 518.4 223.5 213.5" width="512" height="512"><path fill="#F74C1B" d="M646.827 535.004C651.318 536.514 657.205 539.584 661.346 542.01C698.788 549.001 724.28 573.812 728.993 612.254C737.491 614.296 744.434 622.969 745.39 631.61C746.005 637.175 745.424 642.804 745.694 648.266C746.284 660.167 744.983 669.161 733.745 675.904C725.985 680.56 712.432 682.167 706.929 672.946C703.311 666.588 704.413 655.593 704.622 648.379L704.342 647.216C704.086 647.112 703.831 647.008 703.575 646.904C677.041 663.664 682.431 634.112 681.769 618.162C681.493 611.502 682.035 603.122 690.255 601.216C691.726 593.513 686.523 580.668 683.798 573.432C675.285 566.329 660.909 564.322 650.198 565.328C634.715 566.758 620.464 574.375 610.673 586.455C604.219 594.343 601.464 602.013 599.158 611.773C606.959 616.639 607.165 621.749 607.052 630.251C606.889 642.5 607.426 654.877 606.579 667.098C606.058 674.617 602.074 677.234 595.509 679.998C600.888 689.522 611.302 693.671 621.397 695.866L622.371 695.593C625.1 694.819 628.095 687.875 633.004 690.508C636.269 692.258 636.811 696.485 635.057 699.498C632.017 704.718 626.241 700.934 622.033 699.581C608.83 697.849 597.664 692.468 590.796 680.501C578.085 677.548 568.404 672.791 566.22 658.49C549.963 658.665 545.09 651.74 545.702 636.126C546.227 622.734 542.759 613.211 555.942 604.151C559.264 602.456 561.862 602.119 565.05 600.654C569.446 601.124 571.273 601.67 575.115 603.87C577.205 605.066 580.034 608.785 581.148 608.71L581.309 608.567C586.033 574.062 609.04 550.845 642.383 542.645C643.704 540.377 644.195 538.691 646.581 537.651C648.62 537.311 648.244 536.763 646.92 535.455L646.827 535.004ZM699.001 591.706C697.73 591.296 697.738 591.366 696.717 590.504C696.124 589.498 694.259 586.947 693.19 586.629C691.925 586.253 692.954 589.647 693.503 589.987C694.888 590.842 695.152 591.088 695.96 592.411C696.236 594.955 696.199 596.706 697.514 598.772C697.691 599.255 698.099 600.15 698.037 600.697C697.764 600.966 691.184 601.433 690.255 601.216C682.035 603.122 681.493 611.502 681.769 618.162C682.431 634.112 677.041 663.664 703.575 646.904C703.831 647.008 704.086 647.112 704.342 647.216L704.622 648.379C705.724 644.651 704.622 631.673 705.166 627.005C706.081 619.145 707.203 610.459 704.402 602.918C702.837 598.538 701.738 595.584 699.46 591.466L699.001 591.706ZM708.534 621.886C708.565 634.651 707.95 657.398 709.063 669.378C714.401 677.639 722.676 677.158 730.825 673.13C735.853 669.661 741.017 664.827 741.516 658.549C741.972 652.802 742.204 635.48 741.16 630.563C740.561 627.7 739.34 625.002 737.585 622.662C732.359 615.823 724.716 614.045 716.591 614.544C711.989 616.922 711.351 617.473 708.534 621.886ZM657.521 546.075C644.631 543.885 626.164 550.885 615.834 558.314C598.66 570.664 588.181 588.351 584.654 609.079C584.519 609.866 584.408 610.657 584.319 611.451C587.808 611.081 591.919 610.543 595.366 610.418C596.482 606.796 597.556 603.029 598.783 599.562C605.285 581.188 621.573 567.399 640.438 563.033C641.435 562.802 645.572 561.826 646.387 561.436C653.153 561.794 658.673 560.911 665.757 561.99C674.968 563.392 679.002 566.382 686.799 570.049C702.339 584.739 707.103 591.75 710.275 613.047L710.873 612.838C715.889 611.032 719.319 610.797 724.567 610.043C722.155 581.943 698.39 555.343 671.232 548.376C668.089 546.863 660.928 545.844 657.521 546.075ZM583.413 674.231C588.133 675.655 593.209 676.968 597.862 674.522C599.448 673.688 601.26 672.175 601.978 670.503C603.181 667.698 603.226 621.825 602.163 619.889C600.548 616.951 597.692 615.496 594.503 614.87C593.944 614.761 593.413 614.729 592.845 614.703C585.804 615.462 578.992 616.751 574.156 622.62C572.347 624.856 571.093 627.489 570.498 630.303C569.5 634.804 569.859 639.222 569.809 643.753C569.649 657.958 568.516 667.347 583.413 674.231Z" /><path fill="#D8BAAE" fill-opacity="0.023529412" d="M696.717 590.504C697.738 591.366 697.73 591.296 699.001 591.706C698.293 594.565 698.693 595.957 698.813 598.873L697.514 598.772C696.199 596.706 696.236 594.955 695.96 592.411C696.219 591.778 696.471 591.142 696.717 590.504Z" /><path fill="#D6B8AB" fill-opacity="0.74509805" d="M695.96 592.411C695.152 591.088 694.888 590.842 693.503 589.987C692.954 589.647 691.925 586.253 693.19 586.629C694.259 586.947 696.124 589.498 696.717 590.504C696.471 591.142 696.219 591.778 695.96 592.411Z" /><path fill="#A57B61" d="M565.05 600.654C569.446 601.124 571.273 601.67 575.115 603.87C577.205 605.066 580.034 608.785 581.148 608.71L581.309 608.567C581.395 612.872 579.439 613.639 575.663 616.123C568.067 621.119 566.875 626.993 566.238 635.522C566.004 641.509 565.758 652.355 566.22 658.49C549.963 658.665 545.09 651.74 545.702 636.126C546.227 622.734 542.759 613.211 555.942 604.151C559.264 602.456 561.862 602.119 565.05 600.654Z" /><path fill="#A57B61" d="M697.514 598.772L698.813 598.873C698.517 602.445 701.095 602.468 704.402 602.918C707.203 610.459 706.081 619.145 705.166 627.005C704.622 631.673 705.724 644.651 704.622 648.379L704.342 647.216C704.086 647.112 703.831 647.008 703.575 646.904C677.041 663.664 682.431 634.112 681.769 618.162C681.493 611.502 682.035 603.122 690.255 601.216C691.184 601.433 697.764 600.966 698.037 600.697C698.099 600.15 697.691 599.255 697.514 598.772ZM701.83 622.94C702.891 614.212 704.687 616.07 701.199 607.354C700.936 612.117 700.87 617.431 700.392 622.083C700.262 623.714 700.304 642.019 700.743 642.776C701.22 643.054 701.732 641.703 701.75 641.386C701.962 637.664 701.914 633.64 701.968 629.929C702.001 627.68 702.112 625.054 701.83 622.94Z" /><path fill="#A57B61" fill-opacity="0.80000001" d="M700.392 622.083C700.965 622.839 700.91 622.756 701.83 622.94C702.112 625.054 702.001 627.68 701.968 629.929C701.914 633.64 701.962 637.664 701.75 641.386C701.732 641.703 701.22 643.054 700.743 642.776C700.304 642.019 700.262 623.714 700.392 622.083Z" /><path fill="#A57B61" fill-opacity="0.44313726" d="M701.199 607.354C704.687 616.07 702.891 614.212 701.83 622.94C700.91 622.756 700.965 622.839 700.392 622.083C700.87 617.431 700.936 612.117 701.199 607.354Z" /><path fill="#D6B8AB" d="M683.798 573.432L684.628 573.987C689.095 576.871 697.747 586.482 699.46 591.466L699.001 591.706C697.73 591.296 697.738 591.366 696.717 590.504C696.124 589.498 694.259 586.947 693.19 586.629C691.925 586.253 692.954 589.647 693.503 589.987C694.888 590.842 695.152 591.088 695.96 592.411C696.236 594.955 696.199 596.706 697.514 598.772C697.691 599.255 698.099 600.15 698.037 600.697C697.764 600.966 691.184 601.433 690.255 601.216C691.726 593.513 686.523 580.668 683.798 573.432Z" /><path fill="#DAB6A7" d="M646.827 535.004C651.318 536.514 657.205 539.584 661.346 542.01C658.085 542.058 654.121 541.688 651 541.904C647.768 542.127 645.747 542.533 642.383 542.645C643.704 540.377 644.195 538.691 646.581 537.651C648.62 537.311 648.244 536.763 646.92 535.455L646.827 535.004Z" /><path fill="#D6B8AB" fill-opacity="0.98823529" d="M657.521 546.075C660.928 545.844 668.089 546.863 671.232 548.376C671.76 550.41 679.349 557.11 681.215 560.126C683.363 563.598 685.049 566.148 686.799 570.049C679.002 566.382 674.968 563.392 665.757 561.99C658.673 560.911 653.153 561.794 646.387 561.436C651.034 558.49 668.107 560.089 673.767 561.748C674.592 560.578 671.434 558.842 672.154 557.817C673.516 555.343 668.434 554.262 667.846 553.817C665.14 551.774 660.387 547.764 657.521 546.075Z" /><path fill="#D6B8AB" d="M628.52 694.383C629.175 693.837 630.077 693.697 630.866 694.019C631.655 694.341 632.202 695.072 632.288 695.92C632.374 696.768 631.985 697.594 631.277 698.068C630.259 698.75 628.885 698.515 628.15 697.533C627.416 696.552 627.579 695.167 628.52 694.383Z" /><path fill="#F74C1B" d="M621.397 695.866C622.131 691.579 623.869 686.272 629.25 686.056C636.631 685.984 644.171 685.914 651.544 685.987C654.316 686.015 660.014 685.545 662.461 686.206C669.34 688.064 669.034 694.276 667.428 699.333C671.81 700.944 675.568 699.901 680.749 701.832C683.624 702.413 686.23 703.438 687.89 706.007C689.267 708.138 689.803 711.278 689.141 713.735C688.528 716.008 686.93 717.73 684.895 718.849C679.389 721.877 650.457 720.752 643.106 720.428C637.305 717.108 636.036 714.15 636.647 707.519C635.609 707.154 629.889 706.994 628.433 706.896C624.843 704.12 624.104 703.553 622.033 699.581C626.241 700.934 632.017 704.718 635.057 699.498C636.811 696.485 636.269 692.258 633.004 690.508C628.095 687.875 625.1 694.819 622.371 695.593L621.397 695.866ZM628.433 706.896C629.889 706.994 635.609 707.154 636.647 707.519C641.52 701.669 642.264 702.122 650.334 702.016C655.051 701.954 660.019 702.076 664.737 702.011C665.579 701.144 666.505 699.957 667.428 699.333C669.034 694.276 669.34 688.064 662.461 686.206C660.014 685.545 654.316 686.015 651.544 685.987C644.171 685.914 636.631 685.984 629.25 686.056C623.869 686.272 622.131 691.579 621.397 695.866L622.371 695.593C625.1 694.819 628.095 687.875 633.004 690.508C636.269 692.258 636.811 696.485 635.057 699.498C632.017 704.718 626.241 700.934 622.033 699.581C624.104 703.553 624.843 704.12 628.433 706.896ZM677.065 716.474C679.73 716.466 682.183 716.977 684.207 714.929C685.33 713.793 685.652 712.295 685.577 710.752C685.504 709.232 684.888 707.952 683.768 706.909C681.435 704.734 651.112 705.66 646.014 705.746L644.234 705.99C638.331 706.791 639.306 717.549 646.743 716.195C648.963 715.791 656.815 716.952 659.749 716.316C664.488 716.015 669.19 714.757 674.006 715.083C675.743 715.201 675.612 715.782 677.065 716.474Z" /><path fill="#A97E66" d="M621.397 695.866C622.131 691.579 623.869 686.272 629.25 686.056C636.631 685.984 644.171 685.914 651.544 685.987C654.316 686.015 660.014 685.545 662.461 686.206C669.34 688.064 669.034 694.276 667.428 699.333C666.505 699.957 665.579 701.144 664.737 702.011C660.019 702.076 655.051 701.954 650.334 702.016C642.264 702.122 641.52 701.669 636.647 707.519C635.609 707.154 629.889 706.994 628.433 706.896C624.843 704.12 624.104 703.553 622.033 699.581C626.241 700.934 632.017 704.718 635.057 699.498C636.811 696.485 636.269 692.258 633.004 690.508C628.095 687.875 625.1 694.819 622.371 695.593L621.397 695.866ZM643.394 697.11C645.8 697.095 646.864 697.315 649.046 697.378C650.726 697.503 652.302 697.571 653.981 697.656C655.654 697.665 657.332 697.682 659.001 697.529C659.165 697.514 661.937 697.454 661.656 696.701C661.031 696.428 655.793 696.438 654.768 696.452L653.541 696.458C650.156 695.71 648.023 696.104 644.604 695.775C642.219 694.961 639.793 694.441 639.204 697.301C639.111 697.751 638.953 698.416 639.139 698.852C640.206 698.899 639.559 698.357 640.25 697.759C641.333 697.667 642.422 697.64 643.394 697.11Z" /><path fill="#A57B61" fill-opacity="0.61176473" d="M643.394 697.11C642.422 697.64 641.333 697.667 640.25 697.759C639.559 698.357 640.206 698.899 639.139 698.852C638.953 698.416 639.111 697.751 639.204 697.301C639.793 694.441 642.219 694.961 644.604 695.775C643.75 695.995 641.746 696.22 643.394 697.11Z" /><path fill="#A57B61" fill-opacity="0.36470589" d="M644.604 695.775C648.023 696.104 650.156 695.71 653.541 696.458C651.684 696.485 649.386 695.641 649.046 697.378C646.864 697.315 645.8 697.095 643.394 697.11C641.746 696.22 643.75 695.995 644.604 695.775Z" /><path fill="#A57B61" fill-opacity="0.39215687" d="M654.768 696.452C655.793 696.438 661.031 696.428 661.656 696.701C661.937 697.454 659.165 697.514 659.001 697.529C657.332 697.682 655.654 697.665 653.981 697.656L654.768 696.452Z" /><path fill="#A57B61" fill-opacity="0.13725491" d="M649.046 697.378C649.386 695.641 651.684 696.485 653.541 696.458L654.768 696.452L653.981 697.656C652.302 697.571 650.726 697.503 649.046 697.378Z" /><path fill="#FEFEFE" d="M667.428 699.333C671.81 700.944 675.568 699.901 680.749 701.832C676.007 702.23 669.637 701.999 664.737 702.011C665.579 701.144 666.505 699.957 667.428 699.333Z" /><path fill="#D6B8AB" d="M555.942 604.151C557.024 591.152 556.017 584.231 561.576 570.988C568.555 554.513 581.842 541.519 598.469 534.91C613.729 528.821 631.681 528.413 646.827 535.004L646.92 535.455C645.746 536.015 645.797 535.967 644.918 536.942C619.859 536.557 602.839 535.467 583.169 554.735C571.554 566.253 564.982 581.908 564.898 598.266C564.899 599.077 564.937 599.852 565.05 600.654C561.862 602.119 559.264 602.456 555.942 604.151Z" /><path fill="#DAB6A7" fill-opacity="0.93725491" d="M646.92 535.455C648.244 536.763 648.62 537.311 646.581 537.651L644.918 536.942C645.797 535.967 645.746 536.015 646.92 535.455Z" /></svg>