<?xml version='1.0' encoding='utf-8'?>
<svg xmlns="http://www.w3.org/2000/svg" viewBox="294.1 108.4 206.0 231.4" width="512" height="512"><path fill="#F54915" d="M338.515 144.276C339.043 137.333 336.629 128.714 341.863 123.053C345.719 118.882 352.405 118.82 356.396 122.937C360.28 126.943 359.924 131.449 359.803 136.627C359.788 138.908 359.866 141.188 360.037 143.463C367.635 141.197 370.728 138.929 377.201 144.254L419.782 144.309C419.818 140.088 419.384 129.204 420.588 126.019C423.065 119.466 432.987 118.447 437.858 122.855C442.615 127.16 438.732 141.317 441.311 143.985C442.508 143.998 443.706 144.019 444.903 144.046C450.022 141.516 454.735 141.094 459.53 144.309C465.761 148.682 464.752 152.526 464.616 159.617C464.464 162.455 464.53 166.806 464.567 169.692C464.502 174.908 464.529 180.124 464.651 185.338C464.612 185.235 465.389 187.691 465.783 187.292C468.175 184.871 473.134 185.971 476.781 185.696L478.46 185.555C478.95 179.275 478.54 175.383 478.769 169.546C475.27 169.44 470.79 169.306 467.317 169.032C467.12 163.989 466.164 165.209 467.671 160.158C473.01 159.978 483.405 158.888 487.586 161.705C490.098 165.063 489.394 198.628 489.397 204.538L489.43 263.895L489.481 300.094C489.485 306.76 489.624 313.951 489.037 320.576C488.744 323.89 487.072 326.045 484.592 328.11C478.227 329.807 456.13 329.06 448.345 329.042L388.265 329.112L350.694 329.206C345.533 329.224 337.586 329.61 332.661 329.3C332.263 322.331 333.231 310.599 332.527 304.989C325.263 304.896 310.418 306.585 305.615 302.351C304.467 299.741 304.143 294.551 304.143 291.645C304.143 246.099 304.121 200.541 304.228 154.998C304.421 153.23 304.662 147.872 306.164 146.97C313.416 142.611 330.181 144.329 338.515 144.276ZM469.096 255.77C467.583 253.636 468.765 247.759 469.122 245.031C469.504 246.479 469.861 247.934 470.193 249.394C471.025 253.1 471.012 251.745 470.738 255.228L469.096 255.77ZM465.347 275.674C465.217 277.233 465.313 277.881 465.424 279.472C465.427 281.323 465.397 282.619 465.276 284.461L465.22 284.983C464.418 293.23 467.968 304.772 456.432 304.783C438.808 304.8 420.583 305.496 403.01 305.036C403.008 309.206 403.362 314.211 403.511 318.474L449.71 318.329C458.544 318.381 469.409 318.842 477.972 318.381C478.835 314.137 478.557 294.616 478.577 289.35C478.792 267.412 478.769 245.473 478.506 223.536C475.58 223.272 473.277 223.15 470.348 223.086C469.8 221.082 468.331 215.255 469.395 213.397C470.571 211.342 471.262 211.219 473.238 210.432C475.027 210.561 476.585 210.54 478.37 210.468C478.474 205.661 480.484 193.438 473.495 194.585C468.504 195.405 467.507 189.391 464.811 192.338C464.883 198.271 464.519 206.441 465.491 212.083C464.984 216.444 464.937 219.894 465.091 224.256C465.02 228.632 464.689 237.062 465.466 241.064C465.343 242.203 465.34 242.222 465.433 243.427C465.248 249.602 465.326 255.445 465.558 261.608L465.347 275.674ZM465.666 218.686C465.249 215.468 465.569 215.903 468.549 217.019C468.974 217.178 468.649 221.345 469.074 223.094C465.496 223.296 466.483 221.617 465.666 218.686ZM391.46 318.404C391.659 313.331 391.626 310.03 391.561 305.043C376.004 305.402 359.246 304.871 343.492 305.026C343.474 309.723 343.836 313.89 343.885 318.422C359.713 318.12 375.584 318.525 391.46 318.404ZM470.457 279.952C467.706 280.832 468.883 278.596 469.24 276.508C471.682 275.355 470.658 278.523 470.457 279.952ZM332.04 298.677C334.386 298.984 341.121 298.921 343.521 298.606C348.884 298.476 362.618 298.222 367.775 298.688C368.05 297.271 368.047 295.874 369.5 295.193L370.073 294.904C371.646 294.794 375.285 294.571 374.838 291.896C373.807 290.719 372.19 293.46 370.497 293.347C367.441 290.552 368.519 289.753 367.574 288.815C375 287.218 372.425 289.141 379.587 284.105C379.236 289.192 379.477 293.407 379.552 298.469C383.061 298.554 387.616 298.484 391.004 298.704C392.965 296.253 390.989 274.24 391.454 269.499C391.992 264.009 391.938 264.22 396.358 259.981C391.581 257.248 388.918 255.837 387.156 250.215C385.129 243.746 391.191 235.874 397.224 234.331L397.76 232.644C391.544 228.106 388.387 228.073 387.73 218.828C386.729 217.37 386.343 216.678 385.442 215.124C385.284 215.294 385.126 215.464 384.968 215.634C384.263 216.906 381.909 219.909 381.833 220.371C380.787 226.994 377.263 231.161 370.584 232.69C368.873 232.591 366.693 231.863 365.808 233.272C364.545 230.957 360.94 230.672 358.673 227.347C355.966 223.378 355.564 220.822 356.114 216.144C353.209 216.025 352.376 215.979 349.452 216.377C347.967 212.357 347.982 212.263 345.557 208.822C350.183 209.12 356.175 209.35 360.66 208.368C367.272 204.331 371.222 204.761 377.62 208.89C382.281 209.058 387.865 209.182 392.478 209.054C398.507 204.398 404.1 205.149 410.005 209.676C414.537 209.975 419.548 210.173 424.077 209.974C421.646 213.779 421.879 212.62 420.116 217.422C419.319 217.12 417.502 216.037 416.966 216.357C415.464 217.254 414.176 217.369 413.738 219.065C413.013 226.095 409.427 231.043 402.349 232.724L401.963 234.174C415.904 237.951 418.037 254.69 403.456 260.058C412.168 262.713 418.543 267.084 416.198 277.8C414.88 283.823 408.639 285.4 403.46 286.789C403.187 291.155 403.12 294.579 403.033 298.954C420.67 298.22 441.068 299.729 458.545 298.552L458.734 285.372C458.69 282.291 451.371 283.022 450.158 275.996C449.08 269.745 450.067 262.6 457.23 260.987L457.948 260.796C451.169 255.749 447.475 250.337 453.999 241.265C454.728 240.251 457.261 240.221 458.462 240.372C458.361 234.51 458.398 228.51 458.374 222.635C458.516 220.01 458.565 213.714 458.388 211.097C458.381 204.975 458.325 198.854 458.219 192.733C447.931 192.211 436.058 192.219 425.682 192.462C387.659 193.353 348.576 191.283 310.65 192.719C310.485 214.841 310.452 236.963 310.549 259.085C310.543 270.067 309.971 288.012 310.736 298.517C317.296 298.518 325.622 298.299 332.04 298.677ZM447.289 186.339C443.755 183.299 441.247 179.937 440.98 175.045C441.127 173.471 440.879 165.885 441.295 165.409C441.548 165.471 441.623 165.519 441.792 165.721C441.939 165.896 442.056 166.107 442.245 166.234C442.931 166.014 443.243 165.307 443.337 164.634C444.278 161.589 444.171 160.262 444.062 156.997C444.933 156.458 451.331 154.641 449.505 152.893C448.303 151.742 442.927 150.984 441.097 150.754C441.168 152.182 441.191 152.994 441.097 154.434C440.837 157.518 440.974 160.244 440.568 163.251L440.296 165.4C435.951 169.272 429.011 173.249 423.976 168.121C419.198 163.255 419.848 156.77 419.916 150.527C407.112 150.152 392.624 150.949 379.47 150.874C377.399 150.63 372.632 150.498 370.615 150.82C368.05 151.003 365.436 150.874 362.859 150.797C359.332 151.912 362.631 155.214 362.977 156.294C363.98 159.419 363.967 174.554 363.958 177.547C363.785 179.117 363.001 181.703 364.091 182.919C365.549 184.546 365.878 183.951 365.404 186.163C367.349 186.186 373.601 186.443 375.018 186.202L424.077 186.28C430.136 186.292 441.745 185.916 447.289 186.339ZM310.573 186.008C324.732 186.017 342.011 185.653 355.929 186.19C357.051 186.076 358.144 186.002 359.244 185.76C359.004 184.844 357.83 183.817 357.676 182.966C357.808 182.575 358.229 182.647 358.389 182.315C357.559 181.233 357.123 182.337 356.437 181.645C353.132 178.314 352.95 174.333 352.464 170C338.43 172.568 338.44 161.034 338.47 151.042C332.219 150.612 316.54 150.345 310.5 150.892C310.323 161.996 310.062 175.074 310.573 186.008ZM456.889 267.672C456.242 270.157 455.357 274.455 457.852 276.07C458.886 274.035 459.089 271.678 458.415 269.496C458.106 268.482 457.694 268.251 456.889 267.672ZM425.854 144.324C427.612 144.306 429.348 144.368 431.103 144.315C431.471 144.3 434.21 144.34 434.22 144.075C434.411 139.216 434.556 133.277 434.03 128.493C433.795 126.361 430.678 126.096 429.02 125.939C428.623 126.243 428.24 126.513 427.85 126.804C426.828 127.57 426.168 128.724 426.027 129.994C425.697 133.23 425.749 141.069 425.854 144.324ZM352.084 163.004L352.413 162.158C353.829 158.76 353.32 154.677 353.173 151.073C349.473 150.896 348.677 150.832 344.917 151.028C344.778 155.34 344.143 168.173 352.084 163.004ZM345.009 144.407C347.582 144.408 349.845 144.365 352.421 144.255C353.877 143.683 353.43 138.627 353.27 137.252C352.539 130.994 355.337 126.149 347.538 126.468L346.819 126.492L346.319 127.019C343.935 129.467 344.848 140.782 345.009 144.407ZM409.25 217.007C408.552 214.372 406.651 212.222 404.122 211.207C401.593 210.192 398.733 210.431 396.408 211.852C392.617 214.169 391.205 218.986 393.146 222.983C395.086 226.98 399.745 228.85 403.91 227.304C408.076 225.758 410.387 221.302 409.25 217.007ZM433.664 162.856C434.704 158.507 434.358 155.028 434.353 150.594C431.381 150.492 429.046 150.473 426.084 150.52C425.963 156.638 424.491 166.704 433.664 162.856ZM458.124 182.758C458.027 181.648 458.002 181.562 458.05 180.496C451.796 178.546 457.743 177.564 455.744 173.111C455.347 169.921 456.015 166.956 455.6 163.812C455.086 159.904 456.351 156.011 456.08 152.485C456.022 151.726 451.525 152.012 451.156 152.334C451.144 152.371 451.963 176.631 452.077 178.166C451.544 181.362 450.647 181.271 452.585 184.41C454.071 186.815 456.144 183.842 458.124 182.758ZM363.311 213.525C361.324 216.997 359.844 221.975 362.88 225.105C371.06 233.535 383.137 220.837 373.376 212.14C369.759 210.61 366.046 209.92 363.311 213.525ZM429.93 260.173C431.871 259.882 433.124 259.792 434.978 260.347C438.873 262.559 441.323 262.195 444.232 266.584C448.12 272.45 446.615 280.838 440.518 284.62C434.423 288.401 425.655 286.461 422.037 280.001C418.642 273.939 420.424 265.499 426.916 262.254C427.784 261.825 428.583 261.494 429.298 260.796L429.93 260.173ZM398.377 241.569C388.165 249.662 398.543 251.904 400.597 250.724C401.123 250.644 405.621 250.213 405.775 249.704C407.706 243.337 403.885 241.546 398.377 241.569Z" /><path fill="#D09F81" fill-opacity="0.40784314" d="M465.466 241.064C474.489 239.417 468.134 246.714 472.011 252.003C473.06 253.434 471.741 254.47 470.738 255.228C471.012 251.745 471.025 253.1 470.193 249.394C469.861 247.934 469.504 246.479 469.122 245.031C468.765 247.759 467.583 253.636 469.096 255.77C468.378 256.049 468.363 256 467.678 255.592C468.162 251.464 468.448 248.849 466.825 245.221C466.495 244.484 467.275 243.001 465.433 243.427C465.34 242.222 465.343 242.203 465.466 241.064Z" /><path fill="#CEA083" fill-opacity="0.34509805" d="M465.491 212.083C468.4 210.583 470.043 210.416 473.238 210.432C471.262 211.219 470.571 211.342 469.395 213.397C468.331 215.255 469.8 221.082 470.348 223.086L469.074 223.094C468.649 221.345 468.974 217.178 468.549 217.019C465.569 215.903 465.249 215.468 465.666 218.686C465.558 221.078 465.557 221.918 465.091 224.256C464.937 219.894 464.984 216.444 465.491 212.083Z" /><path fill="#CEA083" fill-opacity="0.18431373" d="M465.433 243.427C467.275 243.001 466.495 244.484 466.825 245.221C468.448 248.849 468.162 251.464 467.678 255.592C467.513 256.343 467.317 255.894 467.766 256.719L467.794 256.72C466.569 257.424 466.7 255.89 466.275 255.596L466.272 255.597C466.049 256.224 465.902 260.115 465.558 261.608C465.326 255.445 465.248 249.602 465.433 243.427Z" /><path fill="#CEA083" d="M467.671 160.158C473.01 159.978 483.405 158.888 487.586 161.705C490.098 165.063 489.394 198.628 489.397 204.538L489.43 263.895L489.481 300.094C489.485 306.76 489.624 313.951 489.037 320.576C488.744 323.89 487.072 326.045 484.592 328.11C478.227 329.807 456.13 329.06 448.345 329.042L388.265 329.112L350.694 329.206C345.533 329.224 337.586 329.61 332.661 329.3C332.263 322.331 333.231 310.599 332.527 304.989L343.492 305.026C343.474 309.723 343.836 313.89 343.885 318.422C359.713 318.12 375.584 318.525 391.46 318.404C391.659 313.331 391.626 310.03 391.561 305.043C395.153 305.014 399.485 304.869 403.01 305.036C403.008 309.206 403.362 314.211 403.511 318.474L449.71 318.329C458.544 318.381 469.409 318.842 477.972 318.381C478.835 314.137 478.557 294.616 478.577 289.35C478.792 267.412 478.769 245.473 478.506 223.536C475.58 223.272 473.277 223.15 470.348 223.086C469.8 221.082 468.331 215.255 469.395 213.397C470.571 211.342 471.262 211.219 473.238 210.432C475.027 210.561 476.585 210.54 478.37 210.468C478.474 205.661 480.484 193.438 473.495 194.585C468.504 195.405 467.507 189.391 464.811 192.338C464.593 191.287 464.659 186.683 464.651 185.338C464.612 185.235 465.389 187.691 465.783 187.292C468.175 184.871 473.134 185.971 476.781 185.696L478.46 185.555C478.95 179.275 478.54 175.383 478.769 169.546C475.27 169.44 470.79 169.306 467.317 169.032C467.12 163.989 466.164 165.209 467.671 160.158Z" /><path fill="#D19E7F" d="M359.466 144.226C359.595 142.039 359.49 138.573 359.803 136.627C359.788 138.908 359.866 141.188 360.037 143.463C367.635 141.197 370.728 138.929 377.201 144.254C371.414 144.408 365.435 144.104 359.466 144.226Z" /><path fill="#D68E6A" d="M444.903 144.046C450.022 141.516 454.735 141.094 459.53 144.309C458.204 144.47 446.047 144.277 444.903 144.046Z" /><path fill="#F54915" d="M424.077 209.974C430.958 203.992 437.878 204.812 443.882 211.629C447.607 210.89 448.276 210.855 452.186 210.803L452.652 211.63C456.4 218.176 454.872 213.509 451.163 217.738C449.198 219.653 448.357 219.742 446.212 222.088L445.755 222.535C443.273 228.758 440.722 230.155 434.692 232.742C433.951 233.06 433.208 233.373 432.463 233.683C437.502 235.208 441.523 236.711 444.28 241.763C445.963 244.845 446.317 248.48 445.262 251.829C443.738 256.581 439.607 259.19 434.978 260.347C433.124 259.792 431.871 259.882 429.93 260.173C426.16 258.657 422.873 256.489 421.009 252.723C419.538 249.697 419.422 246.188 420.689 243.07C422.95 237.39 427.288 235.525 432.388 233.44C424.761 229.319 419.494 227.134 420.116 217.422C421.879 212.62 421.646 213.779 424.077 209.974ZM430.529 210.527C425.915 213.644 422.654 219.38 426.62 224.394C428.156 226.354 430.453 227.57 432.938 227.737C433.837 227.803 434.704 227.608 435.587 227.474C445.671 222.591 442.466 210.021 430.529 210.527ZM434.763 255.606C437.727 254.996 440.134 252.841 441.068 249.963C442.001 247.086 441.317 243.928 439.277 241.694C437.236 239.461 434.153 238.495 431.202 239.166C428.27 239.833 425.917 242.014 425.03 244.888C424.143 247.762 424.858 250.89 426.905 253.093C428.906 255.246 431.885 256.199 434.763 255.606Z" /><path fill="#D09F81" d="M443.882 211.629C447.607 210.89 448.276 210.855 452.186 210.803L452.652 211.63C456.4 218.176 454.872 213.509 451.163 217.738C449.198 219.653 448.357 219.742 446.212 222.088L445.755 222.535C445.715 217.429 446.173 216.602 443.882 211.629Z" /><path fill="#D68E6A" d="M430.529 210.527C442.466 210.021 445.671 222.591 435.587 227.474C434.704 227.608 433.837 227.803 432.938 227.737C430.453 227.57 428.156 226.354 426.62 224.394C422.654 219.38 425.915 213.644 430.529 210.527ZM437.073 222.659C437.796 221.94 438.146 221.644 438.727 220.832C438.204 217.978 439.056 216.27 437.109 213.913L436.311 213.668C432.885 212.598 430.998 213.104 428.455 215.9C427.486 219.712 426.824 222.697 431.923 223.073C433.796 222.849 435.262 223.097 437.073 222.659Z" /><path fill="#D68E6A" fill-opacity="0.76862746" d="M437.109 213.913C439.056 216.27 438.204 217.978 438.727 220.832C436.987 217.141 435.431 221.095 437.073 222.659C435.262 223.097 433.796 222.849 431.923 223.073L432.031 222.674C432.934 220.724 432.633 220.667 432.642 218.494C432.649 216.64 435.505 215.504 437.109 213.913Z" /><path fill="#D68E6A" fill-opacity="0.70588237" d="M428.455 215.9C430.998 213.104 432.885 212.598 436.311 213.668L437.109 213.913C435.505 215.504 432.649 216.64 432.642 218.494C432.633 220.667 432.934 220.724 432.031 222.674C431.988 220.179 432.509 216.279 429.385 216.037L428.455 215.9Z" /><path fill="#D09F81" fill-opacity="0.30980393" d="M428.455 215.9L429.385 216.037C432.509 216.279 431.988 220.179 432.031 222.674L431.923 223.073C426.824 222.697 427.486 219.712 428.455 215.9Z" /><path fill="#D09F81" fill-opacity="0.65882355" d="M437.073 222.659C435.431 221.095 436.987 217.141 438.727 220.832C438.146 221.644 437.796 221.94 437.073 222.659Z" /><path fill="#D09F81" d="M431.202 239.166C434.153 238.495 437.236 239.461 439.277 241.694C441.317 243.928 442.001 247.086 441.068 249.963C440.134 252.841 437.727 254.996 434.763 255.606C431.885 256.199 428.906 255.246 426.905 253.093C424.858 250.89 424.143 247.762 425.03 244.888C425.917 242.014 428.27 239.833 431.202 239.166ZM432.773 248.414C434.342 248.728 435.036 249.527 436.351 250.455C438.856 249.951 438.071 245.502 437.92 243.546C436.95 241.505 434.853 242.058 432.867 242.153L431.91 242.191C427.009 244.386 424.724 247.557 430.789 251.173C431.881 251.823 432.553 249.018 432.773 248.414Z" /><path fill="#D09F81" fill-opacity="0.70980394" d="M431.91 242.191L432.867 242.153C434.853 242.058 436.95 241.505 437.92 243.546C434.5 244.291 435.666 248.172 436.351 250.455C435.036 249.527 434.342 248.728 432.773 248.414C432.651 244.518 433.033 246.355 431.91 242.191Z" /><path fill="#D09F81" fill-opacity="0.40000001" d="M436.351 250.455C435.666 248.172 434.5 244.291 437.92 243.546C438.071 245.502 438.856 249.951 436.351 250.455Z" /><path fill="#D09F81" d="M366.741 239.241C369.691 238.566 372.777 239.532 374.816 241.769C376.855 244.006 377.532 247.168 376.586 250.043C375.641 252.919 373.221 255.063 370.252 255.654C365.752 256.55 361.366 253.666 360.406 249.178C359.446 244.691 362.267 240.265 366.741 239.241ZM373.405 249.98C374.486 248.016 374.477 246.675 374.021 244.458L373.845 243.541C372.005 241.819 368.101 240.489 366.263 242.671C362.131 246.772 361.306 248.238 366.953 251.269C368.974 250.824 371.736 250.733 373.405 249.98Z" /><path fill="#D09F81" fill-opacity="0.76078433" d="M366.263 242.671C368.101 240.489 372.005 241.819 373.845 243.541C372.6 245.048 370.441 249.51 373.405 249.98C371.736 250.733 368.974 250.824 366.953 251.269C368.007 248.439 369.422 244.477 366.263 242.671Z" /><path fill="#D19E7F" fill-opacity="0.34509805" d="M366.263 242.671C369.422 244.477 368.007 248.439 366.953 251.269C361.306 248.238 362.131 246.772 366.263 242.671Z" /><path fill="#D09F81" fill-opacity="0.64313728" d="M373.845 243.541L374.021 244.458C374.477 246.675 374.486 248.016 373.405 249.98C370.441 249.51 372.6 245.048 373.845 243.541Z" /><path fill="#F54915" d="M335.945 233.294C330.984 230.842 326.514 228.919 324.494 223.113C323.357 219.816 323.613 216.198 325.204 213.095C329.45 204.834 338.254 204.677 345.557 208.822C347.982 212.263 347.967 212.357 349.452 216.377C351.06 231.202 340.506 228.566 338.233 233.801C341.111 236.778 345.763 235.792 348.805 242.969C350.113 246.023 350.106 249.48 348.785 252.528C346.754 257.258 342.823 259.534 338.162 261.078C336.973 260.948 336.129 260.573 335.292 261.421C331.21 259.807 327.582 257.614 325.407 253.633C323.785 250.64 323.499 247.102 324.619 243.888C326.64 238.017 330.919 235.841 335.945 233.294ZM336.148 238.989C325.58 243.37 327.268 256.897 339.109 256.201C349.179 250.403 346.801 239.932 336.148 238.989ZM343.96 214.44C340.509 209.647 335.011 208.871 331.286 213.812C320.766 228.122 349.736 234.945 343.96 214.44ZM337.117 219.566C338.944 222.479 341.93 218.376 339.238 215.537C337.864 217.134 337.945 217.546 337.117 219.566Z" /><path fill="#D19E7F" d="M336.148 238.989C346.801 239.932 349.179 250.403 339.109 256.201C327.268 256.897 325.58 243.37 336.148 238.989ZM337.619 247.43C338.639 248.142 338.719 248.302 339.58 249.241C341.913 252.3 344 246.64 341.198 242.432C339.064 242.019 338.877 242.233 336.826 242.117C330.505 243.304 329.886 248.202 334.871 251.674C336.102 252.531 337.154 248.424 337.619 247.43Z" /><path fill="#D19E7F" fill-opacity="0.1882353" d="M339.58 249.241C339.519 245.903 339.36 245.324 341.198 242.432C344 246.64 341.913 252.3 339.58 249.241Z" /><path fill="#D19E7F" fill-opacity="0.45490196" d="M336.826 242.117C338.877 242.233 339.064 242.019 341.198 242.432C339.36 245.324 339.519 245.903 339.58 249.241C338.719 248.302 338.639 248.142 337.619 247.43C337.449 244.917 337.347 244.651 336.826 242.117Z" /><path fill="#D19E7F" d="M331.286 213.812C335.011 208.871 340.509 209.647 343.96 214.44C349.736 234.945 320.766 228.122 331.286 213.812ZM337.058 222.661C338.623 221.386 341.116 222.383 341.425 221.87C342.215 220.556 341.739 216.802 341.823 215C339.086 211.666 334.984 212.993 332.154 215.459L331.918 216.323C330.523 221.008 332.068 222.55 336.728 222.651L337.058 222.661ZM339.238 215.537C341.93 218.376 338.944 222.479 337.117 219.566C337.945 217.546 337.864 217.134 339.238 215.537Z" /><path fill="#D19E7F" fill-opacity="0.38431373" d="M339.238 215.537C340.193 214.832 340.65 214.989 341.823 215C341.739 216.802 342.215 220.556 341.425 221.87C341.116 222.383 338.623 221.386 337.058 222.661C337.074 221.6 336.916 220.575 337.117 219.566C338.944 222.479 341.93 218.376 339.238 215.537Z" /><path fill="#D68E6A" d="M331.286 213.812C335.011 208.871 340.509 209.647 343.96 214.44C342.872 214.484 342.827 214.612 341.823 215C339.086 211.666 334.984 212.993 332.154 215.459L331.286 213.812Z" /><path fill="#D19E7F" fill-opacity="0.94901961" d="M339.238 215.537C341.93 218.376 338.944 222.479 337.117 219.566C337.945 217.546 337.864 217.134 339.238 215.537Z" /><path fill="#F54915" d="M360.66 208.368C367.272 204.331 371.222 204.761 377.62 208.89C382.281 209.058 387.865 209.182 392.478 209.054C391.488 210.383 390.358 212.173 389.304 213.37C386.683 213.188 386.637 212.858 385.442 215.124C385.284 215.294 385.126 215.464 384.968 215.634C384.263 216.906 381.909 219.909 381.833 220.371C380.787 226.994 377.263 231.161 370.584 232.69C368.873 232.591 366.693 231.863 365.808 233.272C364.545 230.957 360.94 230.672 358.673 227.347C355.966 223.378 355.564 220.822 356.114 216.144C357.324 211.849 358.03 211.767 360.66 208.368ZM373.376 212.14C369.759 210.61 366.046 209.92 363.311 213.525C361.324 216.997 359.844 221.975 362.88 225.105C371.06 233.535 383.137 220.837 373.376 212.14Z" /><path fill="#D19E7F" d="M377.62 208.89C382.281 209.058 387.865 209.182 392.478 209.054C391.488 210.383 390.358 212.173 389.304 213.37C386.683 213.188 386.637 212.858 385.442 215.124C385.284 215.294 385.126 215.464 384.968 215.634C384.53 212.889 383.462 212.817 380.675 213.902C379.549 211.887 378.991 210.83 377.62 208.89Z" /><path fill="#D19E7F" d="M380.675 213.902C383.462 212.817 384.53 212.889 384.968 215.634C384.263 216.906 381.909 219.909 381.833 220.371C381.376 218.475 381.56 216.97 380.925 214.825L380.675 213.902Z" /><path fill="#D19E7F" d="M363.311 213.525C366.046 209.92 369.759 210.61 373.376 212.14C383.137 220.837 371.06 233.535 362.88 225.105C359.844 221.975 361.324 216.997 363.311 213.525ZM366.485 223.832C368.801 224.4 370.653 223.318 373.135 222.968C374.743 220.743 375.045 215.755 372.744 213.967L371.824 213.523C368.484 212.455 367.37 212.681 364.636 214.563C362.691 219.582 362.734 220.021 366.485 223.832Z" /><path fill="#D09F81" fill-opacity="0.32156864" d="M364.636 214.563C367.37 212.681 368.484 212.455 371.824 213.523L372.744 213.967C367.649 216.699 367.941 217.403 367.672 223.039L366.485 223.832C362.734 220.021 362.691 219.582 364.636 214.563Z" /><path fill="#D09F81" fill-opacity="0.68235296" d="M372.744 213.967C375.045 215.755 374.743 220.743 373.135 222.968L372.91 221.986C372.765 221.33 372.938 215.872 370.223 217.262C367.974 218.413 369.606 220.429 367.672 223.039C367.941 217.403 367.649 216.699 372.744 213.967Z" /><path fill="#D09F81" fill-opacity="0.74509805" d="M367.672 223.039C369.606 220.429 367.974 218.413 370.223 217.262C372.938 215.872 372.765 221.33 372.91 221.986L373.135 222.968C370.653 223.318 368.801 224.4 366.485 223.832L367.672 223.039Z" /><path fill="#D68E6A" d="M363.311 213.525C366.046 209.92 369.759 210.61 373.376 212.14C372.864 212.607 372.346 213.068 371.824 213.523C368.484 212.455 367.37 212.681 364.636 214.563C364.198 214.213 363.756 213.867 363.311 213.525Z" /><path fill="#F54915" d="M392.478 209.054C398.507 204.398 404.1 205.149 410.005 209.676C414.537 209.975 419.548 210.173 424.077 209.974C421.646 213.779 421.879 212.62 420.116 217.422C419.319 217.12 417.502 216.037 416.966 216.357C415.464 217.254 414.176 217.369 413.738 219.065C413.013 226.095 409.427 231.043 402.349 232.724C400.832 232.535 399.235 232.3 397.76 232.644C391.544 228.106 388.387 228.073 387.73 218.828C386.729 217.37 386.343 216.678 385.442 215.124C386.637 212.858 386.683 213.188 389.304 213.37C390.358 212.173 391.488 210.383 392.478 209.054ZM409.25 217.007C408.552 214.372 406.651 212.222 404.122 211.207C401.593 210.192 398.733 210.431 396.408 211.852C392.617 214.169 391.205 218.986 393.146 222.983C395.086 226.98 399.745 228.85 403.91 227.304C408.076 225.758 410.387 221.302 409.25 217.007Z" /><path fill="#D09F81" d="M410.005 209.676C414.537 209.975 419.548 210.173 424.077 209.974C421.646 213.779 421.879 212.62 420.116 217.422C419.319 217.12 417.502 216.037 416.966 216.357C415.464 217.254 414.176 217.369 413.738 219.065C412.911 214.523 412.602 213.711 410.005 209.676Z" /><path fill="#CEA083" d="M385.442 215.124C386.637 212.858 386.683 213.188 389.304 213.37C388.554 215.307 388.37 217.079 387.73 218.828C386.729 217.37 386.343 216.678 385.442 215.124Z" /><path fill="#D19E7F" d="M396.408 211.852C398.733 210.431 401.593 210.192 404.122 211.207C406.651 212.222 408.552 214.372 409.25 217.007C410.387 221.302 408.076 225.758 403.91 227.304C399.745 228.85 395.086 226.98 393.146 222.983C391.205 218.986 392.617 214.169 396.408 211.852ZM405.011 222.61C406.747 220.728 405.952 217.788 406.027 214.716C404.984 214.34 404.136 213.999 403.124 213.569C401.329 213.5 399.577 213.18 397.662 213.088C396.822 214.077 396.295 214.787 395.537 215.852C393.489 219.801 394.971 221.086 398.691 223.177L399.398 223.582C400.808 223.405 400.688 222.522 402.005 222.741C403.314 222.959 403.78 222.961 405.011 222.61Z" /><path fill="#D09F81" fill-opacity="0.88235295" d="M399.764 218.408C400.305 217.023 400.261 216.92 401.284 215.819L402.131 215.984C407.268 216.587 401.505 220.066 405.011 222.61C403.78 222.961 403.314 222.959 402.005 222.741C400.688 222.522 400.808 223.405 399.398 223.582C400.1 221.556 400.048 220.566 399.764 218.408Z" /><path fill="#D09F81" fill-opacity="0.24705882" d="M395.537 215.852C397.788 216.615 397.742 217.997 399.764 218.408C400.048 220.566 400.1 221.556 399.398 223.582L398.691 223.177C394.971 221.086 393.489 219.801 395.537 215.852Z" /><path fill="#D09F81" fill-opacity="0.11372549" d="M397.662 213.088C399.577 213.18 401.329 213.5 403.124 213.569C402.478 214.425 402.003 215.003 401.284 215.819C400.261 216.92 400.305 217.023 399.764 218.408C397.742 217.997 397.788 216.615 395.537 215.852C396.295 214.787 396.822 214.077 397.662 213.088Z" /><path fill="#D09F81" fill-opacity="0.81568629" d="M403.124 213.569C404.136 213.999 404.984 214.34 406.027 214.716C405.952 217.788 406.747 220.728 405.011 222.61C401.505 220.066 407.268 216.587 402.131 215.984L401.284 215.819C402.003 215.003 402.478 214.425 403.124 213.569Z" /><path fill="#D68E6A" d="M396.408 211.852C398.733 210.431 401.593 210.192 404.122 211.207C406.651 212.222 408.552 214.372 409.25 217.007C407.468 215.874 407.97 214.972 406.027 214.716C404.984 214.34 404.136 213.999 403.124 213.569C401.329 213.5 399.577 213.18 397.662 213.088C397.139 212.623 397.029 212.342 396.408 211.852Z" /><path fill="#F54915" d="M397.76 232.644C399.235 232.3 400.832 232.535 402.349 232.724L401.963 234.174C415.904 237.951 418.037 254.69 403.456 260.058C401.614 259.94 398.142 259.899 396.358 259.981C391.581 257.248 388.918 255.837 387.156 250.215C385.129 243.746 391.191 235.874 397.224 234.331L397.76 232.644ZM400.597 250.724C401.123 250.644 405.621 250.213 405.775 249.704C407.706 243.337 403.885 241.546 398.377 241.569C388.165 249.662 398.543 251.904 400.597 250.724Z" /><path fill="#FEFEFE" d="M397.76 232.644C399.235 232.3 400.832 232.535 402.349 232.724L401.963 234.174C400.298 234.188 398.872 234.254 397.224 234.331L397.76 232.644Z" /><path fill="#D09F81" d="M398.423 239.595C402.874 238.494 407.37 241.229 408.438 245.688C409.506 250.147 406.736 254.622 402.269 255.655C397.85 256.678 393.434 253.945 392.377 249.534C391.321 245.123 394.02 240.685 398.423 239.595ZM400.597 250.724C401.123 250.644 405.621 250.213 405.775 249.704C407.706 243.337 403.885 241.546 398.377 241.569C388.165 249.662 398.543 251.904 400.597 250.724Z" /><path fill="#D09F81" fill-opacity="0.60000002" d="M398.377 241.569C403.885 241.546 407.706 243.337 405.775 249.704C405.621 250.213 401.123 250.644 400.597 250.724C398.543 251.904 388.165 249.662 398.377 241.569Z" /><path fill="#D19E7F" d="M441.097 150.754C446.974 150.48 452.655 150.424 458.505 150.96C458.731 160.924 458.312 170.585 458.05 180.496C451.796 178.546 457.743 177.564 455.744 173.111C455.347 169.921 456.015 166.956 455.6 163.812C455.086 159.904 456.351 156.011 456.08 152.485C456.022 151.726 451.525 152.012 451.156 152.334C451.144 152.371 451.963 176.631 452.077 178.166C451.544 181.362 450.647 181.271 452.585 184.41C454.071 186.815 456.144 183.842 458.124 182.758L458.153 184.741C458.155 185.137 458.09 186.128 457.856 186.203C456.482 186.647 448.321 186.426 447.289 186.339C443.755 183.299 441.247 179.937 440.98 175.045C441.127 173.471 440.879 165.885 441.295 165.409C441.548 165.471 441.623 165.519 441.792 165.721C441.939 165.896 442.056 166.107 442.245 166.234C442.931 166.014 443.243 165.307 443.337 164.634C444.278 161.589 444.171 160.262 444.062 156.997C444.933 156.458 451.331 154.641 449.505 152.893C448.303 151.742 442.927 150.984 441.097 150.754Z" /><path fill="url(#gradient_0)" d="M370.615 150.82C372.632 150.498 377.399 150.63 379.47 150.874C379.402 160.235 380.395 170.14 378.824 179.401C378.332 182.301 374.612 185.281 375.018 186.202C373.601 186.443 367.349 186.186 365.404 186.163C365.878 183.951 365.549 184.546 364.091 182.919C363.001 181.703 363.785 179.117 363.958 177.547C364.975 178.055 366.105 178.296 367.241 178.248C371.781 178.049 370.744 172.347 370.643 169.127C370.452 163.033 370.87 156.866 370.615 150.82Z" /><path fill="#CEA083" d="M352.464 170C361.494 164.171 359.831 161.763 360.017 151.694C360.045 150.164 361.887 150.541 362.859 150.797C359.332 151.912 362.631 155.214 362.977 156.294C363.98 159.419 363.967 174.554 363.958 177.547C363.785 179.117 363.001 181.703 364.091 182.919C365.549 184.546 365.878 183.951 365.404 186.163C362.11 186.172 359.23 186.358 355.929 186.19C357.051 186.076 358.144 186.002 359.244 185.76C359.004 184.844 357.83 183.817 357.676 182.966C357.808 182.575 358.229 182.647 358.389 182.315C357.559 181.233 357.123 182.337 356.437 181.645C353.132 178.314 352.95 174.333 352.464 170Z" /><path fill="#D09F81" d="M458.462 240.372C458.821 246.552 458.791 254.875 458.746 261.162L457.948 260.796C451.169 255.749 447.475 250.337 453.999 241.265C454.728 240.251 457.261 240.221 458.462 240.372Z" /><path fill="#D19E7F" d="M345.557 208.822C350.183 209.12 356.175 209.35 360.66 208.368C358.03 211.767 357.324 211.849 356.114 216.144C353.209 216.025 352.376 215.979 349.452 216.377C347.967 212.357 347.982 212.263 345.557 208.822Z" /><path fill="#D09F81" fill-opacity="0.39215687" d="M455.744 173.111C457.743 177.564 451.796 178.546 458.05 180.496C458.002 181.562 458.027 181.648 458.124 182.758C456.144 183.842 454.071 186.815 452.585 184.41C450.647 181.271 451.544 181.362 452.077 178.166C452.871 177.542 453.651 176.902 454.418 176.244C455.713 175.124 455.625 174.827 455.744 173.111Z" /><path fill="#D19E7F" fill-opacity="0.73333335" d="M451.163 217.738C456.484 217.778 457.485 216.68 458.164 222.451C455.118 222.424 450.677 221.502 448.242 221.811L446.212 222.088C448.357 219.742 449.198 219.653 451.163 217.738Z" /><path fill="#D19E7F" fill-opacity="0.0078431377" d="M441.097 150.754C442.927 150.984 448.303 151.742 449.505 152.893C451.331 154.641 444.933 156.458 444.062 156.997C443.193 157.129 442.385 157.248 441.511 157.357C441.391 156.302 441.32 155.468 441.097 154.434C441.191 152.994 441.168 152.182 441.097 150.754Z" /><path fill="#D09F81" fill-opacity="0.84705883" d="M452.186 210.803C453.724 210.875 457.637 211.711 458.388 211.097C458.565 213.714 458.516 220.01 458.374 222.635L458.164 222.451C457.485 216.68 456.484 217.778 451.163 217.738C454.872 213.509 456.4 218.176 452.652 211.63L452.186 210.803Z" /><path fill="#D09F81" fill-opacity="0.90980393" d="M441.097 154.434C441.32 155.468 441.391 156.302 441.511 157.357C441.335 159.771 441.184 163.229 443.337 164.634C443.243 165.307 442.931 166.014 442.245 166.234C442.056 166.107 441.939 165.896 441.792 165.721C441.623 165.519 441.548 165.471 441.295 165.409C440.879 165.885 441.127 173.471 440.98 175.045C440.269 171.37 440.779 168.937 440.296 165.4L440.568 163.251C440.974 160.244 440.837 157.518 441.097 154.434Z" /><path fill="#D09F81" fill-opacity="0.74509805" d="M441.511 157.357C442.385 157.248 443.193 157.129 444.062 156.997C444.171 160.262 444.278 161.589 443.337 164.634C441.184 163.229 441.335 159.771 441.511 157.357Z" /><path fill="#FEFEFE" fill-opacity="0.98431373" d="M365.808 233.272C366.693 231.863 368.873 232.591 370.584 232.69L369.931 234.097C368.308 234.152 367.099 234.235 365.486 234.394L365.808 233.272Z" /><path fill="#D19E7F" fill-opacity="0.90980393" d="M464.616 159.617C465.62 160.856 466.06 160.391 467.671 160.158C466.164 165.209 467.12 163.989 467.317 169.032C465.294 166.854 465.509 167.222 464.567 169.692C464.53 166.806 464.464 162.455 464.616 159.617Z" /><path fill="#D19E7F" fill-opacity="0.070588239" d="M465.666 218.686C465.249 215.468 465.569 215.903 468.549 217.019C468.974 217.178 468.649 221.345 469.074 223.094C465.496 223.296 466.483 221.617 465.666 218.686Z" /><path fill="#D19E7F" fill-opacity="0.84313726" d="M469.122 245.031C469.504 246.479 469.861 247.934 470.193 249.394C471.025 253.1 471.012 251.745 470.738 255.228L469.096 255.77C467.583 253.636 468.765 247.759 469.122 245.031Z" /></svg>