<?xml version='1.0' encoding='utf-8'?>
<svg xmlns="http://www.w3.org/2000/svg" viewBox="267.2 714.4 249.5 209.5" width="512" height="512"><path fill="#F54915" d="M402.383 811.267C399.491 810.529 398.779 809.457 396.644 807.422C385.402 796.708 374.655 785.506 363.604 774.595L335.2 746.686C331.155 742.695 319.365 732.176 318.093 727.599C318.605 725.975 318.106 726.555 319.306 725.591C322.923 724.76 332.874 725.112 337.158 725.116L365.548 725.036L432.276 725.021C438.645 725.008 476.259 724.376 479.445 725.864C481.092 729.292 480.649 744.061 480.727 748.97L481.278 750.566L482.124 750.908C487.591 748.003 502.523 752.429 503.778 757.897C506.642 770.371 505.668 785.913 505.734 798.917L505.834 857.327C505.815 868.19 505.821 879.218 505.752 890.09C505.727 893.949 506.519 902.378 503.215 904.703C501.602 905.17 500.245 904.996 498.841 904.129C493.214 900.658 480.591 887.521 477.056 882.527C471.182 875.886 460.416 869.056 453.379 861.015C443.491 851.257 433.096 842.164 423.31 832.487C415.713 824.974 410.728 818.574 402.383 811.267ZM424.002 824.368C430.67 818.566 436.923 810.967 443.248 804.676C451.398 796.569 459.175 788.192 467.232 780.022C468.648 781.542 468.581 781.282 469.383 783.103C467.774 787.033 468.545 787.425 468.902 791.171C455.717 804.909 444.895 816.226 431.094 829.298C438.128 836.115 451.798 847.403 457.467 854.315C460.957 857.047 468.474 866.758 473.764 871.36C474.446 862.951 474.09 850.276 474.094 841.613L473.976 787.066C474.008 785.821 474.027 784.576 474.033 783.331C473.94 779.903 474.038 776.5 473.995 773.079C473.999 761.49 474.226 749.009 473.881 737.472C468.659 742.211 464.423 747.503 459.578 752.575C443.45 769.457 427.193 786.185 410.815 802.825C409.382 804.28 407.377 806.366 406.209 807.961C410.016 813.743 418.277 820.403 424.002 824.368ZM480.807 876.696C483.618 880.422 492.646 889.396 496.386 891.661C496.745 886.188 496.474 879.219 496.456 873.582L496.433 842.787L496.537 790.571C496.555 782.954 496.856 771.871 496.069 764.261C495.72 760.892 486.395 757.734 483.343 756.075L482.465 755.591L480.905 756.053L480.745 839.133C480.718 848.578 479.962 868.293 480.807 876.696ZM359.286 750.069C388.981 749.751 422.323 749.508 451.878 750.542C454.578 746.546 465.425 736.527 469.441 732.073C460.088 731.249 447.459 731.6 437.897 731.602L387.939 731.559L351.606 731.526C345.769 731.517 335.54 731.226 330.122 731.957C332.789 735.368 345.42 747.371 348.999 750.085C349.975 751.311 354.435 756.441 355.627 757.003C370.189 772.74 386.599 787.55 401.692 802.69C414.158 789.273 427.293 776.616 439.771 763.223C441.549 761.314 443.358 759.288 445.187 757.443C429.759 757.795 414.326 757.866 398.896 757.656C387.65 757.525 373.707 757.079 362.569 757.56C361.824 757.226 361.08 756.892 360.335 756.558C359.743 755.604 358.695 755.408 357.71 755.06C357.366 754.946 357.022 754.831 356.678 754.717C355.764 754.105 356.26 752.768 355.41 752.133C355.301 752.174 354.52 751.446 354.756 751.244C355.588 750.53 358.273 750.319 359.286 750.069Z" /><path fill="#D19E7F" fill-opacity="0.0078431377" d="M469.383 783.103C472.76 782.61 471.556 783.547 473.976 787.066L474.094 841.613C474.09 850.276 474.446 862.951 473.764 871.36C468.474 866.758 460.957 857.047 457.467 854.315C451.798 847.403 438.128 836.115 431.094 829.298C444.895 816.226 455.717 804.909 468.902 791.171C468.545 787.425 467.774 787.033 469.383 783.103Z" /><path fill="#CEA083" fill-opacity="0.90196079" d="M467.232 780.022C468.648 778.609 469.849 777.655 471.38 776.412L471.244 777.415C470.415 783.29 471.905 778.295 474.033 783.331C474.027 784.576 474.008 785.821 473.976 787.066C471.556 783.547 472.76 782.61 469.383 783.103C468.581 781.282 468.648 781.542 467.232 780.022Z" /><path fill="#D19E7F" fill-opacity="0.98823529" d="M473.995 773.079C474.038 776.5 473.94 779.903 474.033 783.331C471.905 778.295 470.415 783.29 471.244 777.415L471.38 776.412C472.38 774.883 472.781 774.457 473.995 773.079Z" /><path fill="#CEA083" d="M480.727 748.97L481.278 750.566L482.124 750.908C487.591 748.003 502.523 752.429 503.778 757.897C506.642 770.371 505.668 785.913 505.734 798.917L505.834 857.327C505.815 868.19 505.821 879.218 505.752 890.09C505.727 893.949 506.519 902.378 503.215 904.703C501.602 905.17 500.245 904.996 498.841 904.129C493.214 900.658 480.591 887.521 477.056 882.527C480.625 880.742 480.432 880.662 480.807 876.696C483.618 880.422 492.646 889.396 496.386 891.661C496.745 886.188 496.474 879.219 496.456 873.582L496.433 842.787L496.537 790.571C496.555 782.954 496.856 771.871 496.069 764.261C495.72 760.892 486.395 757.734 483.343 756.075L482.465 755.591L480.905 756.053C480.459 754.46 480.664 750.745 480.727 748.97Z" /><path fill="#D09F81" d="M467.232 780.022C468.648 781.542 468.581 781.282 469.383 783.103C467.774 787.033 468.545 787.425 468.902 791.171C455.717 804.909 444.895 816.226 431.094 829.298C429.271 829.155 425.09 826.015 424.002 824.368C430.67 818.566 436.923 810.967 443.248 804.676C451.398 796.569 459.175 788.192 467.232 780.022Z" /><path fill="#D68E6A" d="M402.383 811.267C404.151 810.249 404.764 809.446 406.209 807.961C410.016 813.743 418.277 820.403 424.002 824.368C425.09 826.015 429.271 829.155 431.094 829.298C438.128 836.115 451.798 847.403 457.467 854.315C455.28 853.804 452.078 850.07 450.263 848.232L446.299 852.28C448.501 854.462 453.231 858.354 453.379 861.015C443.491 851.257 433.096 842.164 423.31 832.487C415.713 824.974 410.728 818.574 402.383 811.267Z" /><path fill="#F54915" d="M381.52 878.609C379.454 876.583 367.298 869.896 363.357 866.859C349.343 856.493 338.463 845.878 326.08 833.378C307.189 814.305 277.186 764.875 314.87 748.174C329.531 741.676 333.179 754.048 337.63 765.076C342.345 776.758 347.744 784.514 335.743 794.095C338.767 801.672 343.254 806.609 348.917 812.337L350.206 813.964C350.979 815.328 351.974 816.13 352.993 817.376C354.963 819.403 357.004 821.353 358.954 823.364C362.112 826.705 376.645 839.434 380.388 839.912C383.155 842.177 385.028 843.155 388.372 844.468C389.234 842.149 390.1 839.509 391.84 837.594C402.877 825.448 410.002 833.859 418.759 841.973C429.44 851.871 437.787 865.465 423.826 877.878C420.39 879.837 418.108 881.057 414.142 881.926C412.456 882.302 411.797 882.353 410.077 882.504C408.483 882.94 406.86 883.297 405.284 883.79C402.08 884.19 398.091 883.664 395.97 884.788C395.487 882.483 396.371 883.774 396.805 882.07C392.49 881.453 383.858 878.665 381.52 878.609ZM372.437 843.275C371.081 843.122 362.627 841.709 362.873 839.679L362.912 839.945L363.271 839.247L362.907 839.653L363.286 839.224C362.274 838.023 352.02 828.407 351.212 828.114L351.041 828.196C350.693 828.784 350.885 828.538 350.579 828.683C349.47 827.929 346.995 822.208 346.166 820.541C341.262 814.33 327.411 801.01 329.809 791.166C330.423 788.644 335.467 786.315 336.06 784.835C338.508 778.718 326.801 755.841 323.704 752.907C306.59 755.42 301.081 766.501 304.258 782.482C309.507 808.889 329.175 829.074 348.647 846.251C366.564 862.058 386.584 880.154 412.552 875.608C420.787 874.166 423.39 868.959 424.749 861.509C422.137 854.297 418.954 852.927 414.843 847.857C394.018 822.171 400.709 857.574 382.809 849.646C380.374 848.568 374.255 845.11 372.437 843.275Z" /><path fill="#D09F81" d="M396.805 882.07C399.891 882.024 406.87 882.361 410.077 882.504C408.483 882.94 406.86 883.297 405.284 883.79C402.08 884.19 398.091 883.664 395.97 884.788C395.487 882.483 396.371 883.774 396.805 882.07Z" /><path fill="#D19E7F" d="M346.166 820.541C347.967 821.7 355.801 829.047 357.795 830.92C361.711 834.597 369.171 839.912 372.437 843.275C371.081 843.122 362.627 841.709 362.873 839.679L362.912 839.945L363.271 839.247L362.907 839.653L363.286 839.224C362.274 838.023 352.02 828.407 351.212 828.114L351.041 828.196C350.693 828.784 350.885 828.538 350.579 828.683C349.47 827.929 346.995 822.208 346.166 820.541Z" /><path fill="#CEA083" d="M442.203 859.65C448.649 860.637 454.678 865.947 458.349 871.02C475.468 894.682 449.792 913.833 426.944 908.727C408.375 904.576 393.526 892.422 381.52 878.609C383.858 878.665 392.49 881.453 396.805 882.07C396.371 883.774 395.487 882.483 395.97 884.788C400.693 888.112 403.944 887.523 409.493 887.587C411.909 887.614 413.834 887.429 416.206 887.199C418.563 885.489 419.839 884.352 422.332 882.73C418.559 882.175 418.009 881.952 414.142 881.926C418.108 881.057 420.39 879.837 423.826 877.878C445.16 890.502 440.007 875.049 442.203 859.65Z" /><path fill="#D09F81" d="M351.459 807.975C353.454 800.574 354.971 791.626 353.548 783.921C353.034 781.135 351.042 777.867 352.641 775.893C355.348 775.087 358.886 775.44 361.613 776.082C362.29 776.756 362.402 776.609 362.51 777.353C363.334 782.998 369.353 785.363 371.986 789.35C374.942 793.826 379.058 807.998 376.413 813.06C374.545 816.632 367.804 814.778 368.807 819.811C370.11 826.351 376.796 834.281 380.388 839.912C376.645 839.434 362.112 826.705 358.954 823.364C361.078 823.873 364.946 819.195 359.074 814.62C355.226 811.581 353.501 814.281 352.205 812.536L351.459 807.975ZM364.549 797.086C364.701 793.145 363.918 792.365 362.152 788.511C361.345 793.231 361.228 795.346 360.889 800.075C360.622 801.924 360.162 809.558 361.007 811.023C361.54 811.946 364.928 810.785 364.631 807.512C364.423 805.211 364.652 799.867 364.549 797.086Z" /><path fill="url(#gradient_3)" d="M360.889 800.075C361.964 798.893 362.384 798.439 363.776 797.585L364.549 797.086C364.652 799.867 364.423 805.211 364.631 807.512C364.928 810.785 361.54 811.946 361.007 811.023C360.162 809.558 360.622 801.924 360.889 800.075Z" /><path fill="#CEA083" fill-opacity="0.43137255" d="M362.152 788.511C363.918 792.365 364.701 793.145 364.549 797.086L363.776 797.585C362.384 798.439 361.964 798.893 360.889 800.075C361.228 795.346 361.345 793.231 362.152 788.511Z" /><path fill="#CEA083" fill-opacity="0.38431373" d="M414.142 881.926C418.009 881.952 418.559 882.175 422.332 882.73C419.839 884.352 418.563 885.489 416.206 887.199C413.834 887.429 411.909 887.614 409.493 887.587C406.851 884.862 409.045 884.483 405.284 883.79C406.86 883.297 408.483 882.94 410.077 882.504C411.797 882.353 412.456 882.302 414.142 881.926Z" /><path fill="#CEA083" fill-opacity="0.58823532" d="M352.993 817.376C357.148 814.697 357.791 817.9 359.074 814.62C364.946 819.195 361.078 823.873 358.954 823.364C357.004 821.353 354.963 819.403 352.993 817.376Z" /><path fill="#D19E7F" fill-opacity="0.015686275" d="M405.284 883.79C409.045 884.483 406.851 884.862 409.493 887.587C403.944 887.523 400.693 888.112 395.97 884.788C398.091 883.664 402.08 884.19 405.284 883.79Z" /><path fill="#CEA083" fill-opacity="0.63529414" d="M352.205 812.536C353.501 814.281 355.226 811.581 359.074 814.62C357.791 817.9 357.148 814.697 352.993 817.376C351.974 816.13 350.979 815.328 350.206 813.964C351.19 813.365 351.317 813.293 352.205 812.536Z" /><path fill="#D19E7F" fill-opacity="0.015686275" d="M348.917 812.337C350.355 809.707 348.52 810.939 351.459 807.975L352.205 812.536C351.317 813.293 351.19 813.365 350.206 813.964L348.917 812.337Z" /></svg>