<?xml version='1.0' encoding='utf-8'?>
<svg xmlns="http://www.w3.org/2000/svg" viewBox="23.8 475.2 247.3 299.8" width="512" height="512"><path fill="#D19E7F" fill-opacity="0.12941177" d="M205.047 763.197C205.836 762.404 206.082 761.993 206.399 760.886C206.487 760.579 206.961 759.92 207.1 760.22C207.586 761.266 208.407 764.07 208.75 765.053C207.089 764.057 206.958 763.788 205.115 763.486L205.047 763.197Z" /><path fill="#CEA083" d="M241.146 589.416C241.739 583.996 242.287 558.586 256.97 565.558C261.032 567.487 254.973 574.027 253.587 576.995C249.951 584.781 256.031 598.418 242.607 597.889C234.774 598.003 227.297 598.069 219.709 598.083L177.627 598.129C144.214 598.152 108.706 598.794 75.5266 597.966C65.4833 591.655 73.8108 582.528 68.6801 570.418C71.4202 570.08 74.9845 570.168 77.7513 570.416C79.4925 577.415 79.0728 582.321 79.0706 589.511C86.4417 590.095 97.1291 589.79 104.715 589.775L148.19 589.778L207.661 589.735C217.85 589.712 231.221 590.125 241.146 589.416Z" /><path fill="#F54915" d="M166.705 503.6C169.678 492.385 173.942 485.208 187.069 488.196C190.766 489.037 194.846 493.133 196.21 496.545C200.777 507.967 202.454 529.708 192.533 538.604C188.715 540.483 187.483 540.319 183.932 541.536C180.071 541.606 177.645 540.902 174.178 539.421C173.475 538.764 172.685 538.021 171.927 537.435C170.248 535.482 169.66 534.607 168.201 532.493C167.76 530.842 167.041 529.309 166.424 527.721C164.668 523.346 164.875 515.648 165.712 511.022C166.162 509.726 166.521 505.186 166.705 503.6ZM187.927 504.595C184.961 492.544 177.887 494.037 177.297 505.255C177.128 508.466 176.458 511.992 176.559 515.276C177.006 522.285 175.007 532.779 184.916 530.864C185.308 527.132 186.001 525.262 183.785 521.551C181.113 517.076 185.117 513.441 185.451 508.989C185.682 505.904 186.053 506.402 187.927 504.595Z" /><path fill="#D09F81" d="M187.927 504.595C187.346 512.227 190.317 525.377 184.916 530.864C185.308 527.132 186.001 525.262 183.785 521.551C181.113 517.076 185.117 513.441 185.451 508.989C185.682 505.904 186.053 506.402 187.927 504.595Z" /><path fill="#F54915" d="M221.121 542.027C225.939 538.134 227.595 536.464 233.215 539.352L233.256 541.485C233.582 543.81 233.599 548.629 231.896 550.476C228.913 553.711 226.898 549.23 226.75 549.16C226.11 549.256 224.25 550.954 223.274 551.586C221.479 557.046 223.898 567.115 219.937 569.933C215.288 570.797 206.855 570.509 201.872 570.491L174.611 570.397L77.7513 570.416C74.9845 570.168 71.4202 570.08 68.6801 570.418C62.2371 570.12 51.676 570.721 45.5186 569.963C41.6824 568.026 43.3683 556.153 42.8563 552.731C42.0217 547.154 33.7794 543.064 35.2381 538.896L36.6273 538.256C49.1044 539.16 48.4943 555.477 48.5683 564.322C58.1922 563.919 69.6596 564.142 79.4158 564.115L139.502 564.086L188.953 564.113C197.302 564.129 208.177 563.87 216.309 564.347C216.253 555.519 215.742 549.662 221.121 542.027Z" /><path fill="#D19E7F" d="M233.256 541.485C233.582 543.81 233.599 548.629 231.896 550.476C228.913 553.711 226.898 549.23 226.75 549.16C226.11 549.256 224.25 550.954 223.274 551.586C225.215 542.85 227.007 544.66 233.256 541.485Z" /><path fill="#D19E7F" fill-opacity="0.43137255" d="M138.42 513.184C141.974 509.031 140.522 512.772 144.746 511.006C146.343 510.338 146.861 504.106 147.62 502.448C148.063 505.317 147.348 507.146 147.499 509.5C147.822 514.546 147.933 519.106 148.03 524.157C147.716 523.133 147.631 521.54 147.043 520.991C144.882 521.512 144.395 521.189 142.154 522.163C139.415 523.354 140.149 521.068 139.653 525.311C139.023 521.764 138.596 516.772 138.42 513.184Z" /><path fill="#D19E7F" d="M148.501 500.63C150.556 506.236 150.674 521.025 148.942 526.735C148.536 525.739 148.304 525.207 148.03 524.157C147.933 519.106 147.822 514.546 147.499 509.5C147.348 507.146 148.063 505.317 147.62 502.448L148.501 500.63Z" /><path fill="#D19E7F" fill-opacity="0.80000001" d="M100.913 508.554C110.136 508.841 107.225 512.632 108.328 520.752L108.696 523.543C107.457 523.631 107.434 523.697 106.19 524.162C106.364 522.102 106.479 512.935 105.566 511.906C105.321 511.906 105.465 511.88 105.167 512.094L105.566 512.451L105.016 512.301C104.523 513.427 104.549 515.293 104.422 516.625C104.347 516.205 103.869 509.471 101.4 512.566L101.038 513.005C100.955 511.48 101.012 510.09 100.913 508.554Z" /><path fill="#D19E7F" fill-opacity="0.015686275" d="M101.038 513.005L101.4 512.566C103.869 509.471 104.347 516.205 104.422 516.625C104.348 519.443 104.473 522.29 104.462 525.124C103.445 526.01 103.528 527.666 103.169 529.498L102.956 528.999C100.762 523.948 101.067 518.384 101.038 513.005Z" /><path fill="#D09F81" fill-opacity="0.043137256" d="M108.696 523.543C108.715 526.848 106.657 529.413 108.118 531.399C105.942 533.128 104.564 531.293 103.169 529.498C103.528 527.666 103.445 526.01 104.462 525.124C105.693 525.869 105.724 525.354 106.19 524.162C107.434 523.697 107.457 523.631 108.696 523.543Z" /><path fill="#D09F81" fill-opacity="0.9254902" d="M104.422 516.625C104.549 515.293 104.523 513.427 105.016 512.301L105.566 512.451L105.167 512.094C105.465 511.88 105.321 511.906 105.566 511.906C106.479 512.935 106.364 522.102 106.19 524.162C105.724 525.354 105.693 525.869 104.462 525.124C104.473 522.29 104.348 519.443 104.422 516.625Z" /><path fill="#D09F81" d="M203.242 518.654C211.134 517.523 232.331 514.758 233.423 527.505C233.688 530.592 233.318 536.019 233.215 539.352C227.595 536.464 225.939 538.134 221.121 542.027C218.331 541.945 216.789 541.774 214.05 541.453C212.972 545.595 212.193 548.43 209.63 552.113C205.21 558.466 193.895 557.908 188.444 553.27C184.528 549.938 184.118 546.569 183.932 541.536C187.483 540.319 188.715 540.483 192.533 538.604C193.683 542.898 198.053 551.065 201.841 542.973C204.291 537.74 203.63 524.738 203.242 518.654Z" /><path fill="#F54915" d="M74.8214 488.062C77.4785 487.713 80.0829 487.756 81.911 489.923C83.1096 497.938 81.9487 508.24 82.3014 516.468C82.5037 521.187 84.3582 549.826 72.968 537.753C71.9366 533.626 72.3436 506.616 72.3348 499.881C65.6877 502.226 58.4876 500.05 65.2796 492.851C66.0318 492.054 73.2132 488.818 74.8214 488.062Z" /><path fill="#D19E7F" d="M129.912 531.944C130.821 533.025 132.23 535.213 132.724 536.484C134.608 550.914 124.019 562.116 108.765 553.985C105.721 552.362 102.636 543.888 101.44 540.295C106.77 540.946 107.43 540.859 112.667 540.056C113.848 548.847 123.576 547.922 122.205 536.293C124.799 534.738 126.408 531.734 128.979 531.898L129.912 531.944Z" /><path fill="#D09F81" d="M166.424 527.721C167.041 529.309 167.76 530.842 168.201 532.493C168.482 535.741 168.266 538.36 171.927 537.435C172.685 538.021 173.475 538.764 174.178 539.421C173.951 544.127 172.953 549.704 169.35 552.71C162.305 558.589 150.653 557.24 145.423 549.502C143.054 545.998 142.387 544.409 140.981 540.653C145.082 540.511 146.865 541.017 150.987 539.577L151.702 539.338C152.131 540.337 152.61 541.913 153.158 542.679C157.737 549.145 162.14 545.268 162.879 538.743C163.191 535.984 164.961 534.704 165.464 531.997C165.717 530.64 166.11 529.084 166.424 527.721Z" /><path fill="#CEA083" fill-opacity="0.015686275" d="M123.04 521.828C123.792 520.54 125.452 519.625 127.096 519.352C127.488 519.287 127.79 522.378 127.95 523.107C128.087 526.145 128.924 529.082 129.912 531.944L128.979 531.898C126.408 531.734 124.799 534.738 122.205 536.293C122.741 532.277 124.043 532.413 122.006 527.879C122.602 525.892 122.963 523.898 123.04 521.828Z" /><path fill="#CEA083" fill-opacity="0.8392157" d="M122.873 507.701C123.131 507.709 127.025 507.63 127.185 507.717C127.521 507.666 127.705 507.296 127.898 507.054C128.011 511.331 127.967 518.702 127.95 523.107C127.79 522.378 127.488 519.287 127.096 519.352C125.452 519.625 123.792 520.54 123.04 521.828C122.765 518.265 122.975 511.642 122.873 507.701Z" /><path fill="#D19E7F" fill-opacity="0.65882355" d="M186.026 744.86C188.182 746.724 193.125 753.816 193.53 756.881C191.63 755.775 189.63 752.559 188.983 752.664C187.372 754.16 188.235 755.695 183.064 754.249C183.544 754.112 184.555 753.969 184.948 753.672C185.566 752.054 184.423 747.297 183.74 745.572C184.543 745.342 185.233 745.149 186.026 744.86Z" /><path fill="#CEA083" fill-opacity="0.81568629" d="M168.201 532.493C169.66 534.607 170.248 535.482 171.927 537.435C168.266 538.36 168.482 535.741 168.201 532.493Z" /></svg>