<?xml version='1.0' encoding='utf-8'?>
<svg xmlns="http://www.w3.org/2000/svg" viewBox="526.7 768.8 229.1 200.7" width="512" height="512"><path fill="#F74C1B" d="M624.688 799.672C626.333 797.796 628.088 796.02 629.945 794.353C647.172 778.874 675.271 778.813 691.136 796.679C708.832 803.532 721.308 807.817 729.424 827.044C745.867 865.995 712.779 893.921 687.312 917.74C672.489 931.56 658.757 946.515 643.628 959.535C634.567 951.869 623.15 939.664 614.302 931.111L590.255 907.679C584.191 901.818 577.568 895.986 571.73 889.963C567.551 885.652 562.959 879.355 559.291 874.479C547.219 862.461 537.037 851.017 536.872 833.247C536.748 819.901 540.274 807.231 549.679 797.436C559.08 787.644 569.886 783.791 583.272 783.486C595.549 783.206 603.332 787.388 612.002 795.781C615.993 797.138 621.042 798.106 624.688 799.672ZM612.002 795.781C603.332 787.388 595.549 783.206 583.272 783.486C569.886 783.791 559.08 787.644 549.679 797.436C540.274 807.231 536.748 819.901 536.872 833.247C537.037 851.017 547.219 862.461 559.291 874.479C559.508 870.066 553.199 859.761 553.573 848.841C554.097 834.226 560.444 820.427 571.201 810.519C583.498 799.117 595.449 795.154 612.002 795.781ZM643.832 814.952C645.915 812.887 648.052 810.876 650.241 808.923C662.94 797.786 674.846 795.643 691.136 796.679C675.271 778.813 647.172 778.874 629.945 794.353C628.088 796.02 626.333 797.796 624.688 799.672C625.627 800.38 629.426 802.187 630.762 802.968C636.847 806.524 639.366 809.594 643.832 814.952ZM691.028 801.573C688.342 799.9 683.499 799.582 680.424 799.813C665.267 800.951 653.295 810.025 643.782 821.352C634.398 809.963 625.202 800.473 609.099 799.845C566.664 798.19 540.02 851.017 571.277 882.817C587.555 899.377 604.267 916.112 621.244 932.015C622.868 933.666 624.52 935.288 626.2 936.88C631.422 942.239 638.219 949.07 643.761 953.841C653.146 945.672 666.718 931.67 676.12 922.664L697.729 901.789C709.262 890.629 719.903 880.902 726.139 865.591C731.014 853.683 730.873 840.311 725.749 828.509C720.664 816.805 711.312 808.723 699.608 804.058C703.022 812.656 705.286 818.039 706.056 827.398C708.925 862.263 678.141 884.485 656.282 906.699C651.757 911.298 637.195 926.751 632.515 929.621C629.267 930.572 626.946 932.149 626.025 927.746C634.235 920.516 643.242 911.788 651.239 903.987C670.281 885.416 698.018 864.884 700.956 836.676C702.32 823.576 699.167 811.796 691.028 801.573Z" /><path fill="#A57B61" d="M559.291 874.479C547.219 862.461 537.037 851.017 536.872 833.247C536.748 819.901 540.274 807.231 549.679 797.436C559.08 787.644 569.886 783.791 583.272 783.486C595.549 783.206 603.332 787.388 612.002 795.781C595.449 795.154 583.498 799.117 571.201 810.519C560.444 820.427 554.097 834.226 553.573 848.841C553.199 859.761 559.508 870.066 559.291 874.479ZM549.824 854.643C550.073 852.681 550.744 848.954 549.176 847.418C548.99 849.473 548.215 853.212 549.824 854.643ZM598.581 793.222C598.361 791.607 592.623 792.64 591.419 792.785C591.629 794.295 597.382 793.385 598.581 793.222Z" /><path fill="#A57B61" fill-opacity="0.87058824" d="M549.176 847.418C550.744 848.954 550.073 852.681 549.824 854.643C548.215 853.212 548.99 849.473 549.176 847.418Z" /><path fill="#A57B61" fill-opacity="0.69803923" d="M591.419 792.785C592.623 792.64 598.361 791.607 598.581 793.222C597.382 793.385 591.629 794.295 591.419 792.785Z" /><path fill="#A57B61" d="M624.688 799.672C626.333 797.796 628.088 796.02 629.945 794.353C647.172 778.874 675.271 778.813 691.136 796.679C674.846 795.643 662.94 797.786 650.241 808.923C648.052 810.876 645.915 812.887 643.832 814.952C639.366 809.594 636.847 806.524 630.762 802.968C629.426 802.187 625.627 800.38 624.688 799.672ZM677.215 793.057C674.415 791.764 671.384 792.594 668.295 792.817C671.031 793.825 674.396 793.827 677.215 793.057ZM643.82 809.08C644.214 807.889 643.879 808.113 642.4 807.543C642.553 808.99 642.399 810.552 643.82 809.08Z" /><path fill="#A57B61" fill-opacity="0.67843139" d="M668.295 792.817C671.384 792.594 674.415 791.764 677.215 793.057C674.396 793.827 671.031 793.825 668.295 792.817Z" /><path fill="#A57B61" fill-opacity="0.24313726" d="M642.4 807.543C643.879 808.113 644.214 807.889 643.82 809.08C642.399 810.552 642.553 808.99 642.4 807.543Z" /><path fill="#D6B8AB" d="M691.028 801.573C692.854 801.691 698.53 802.669 699.608 804.058C703.022 812.656 705.286 818.039 706.056 827.398C708.925 862.263 678.141 884.485 656.282 906.699C651.757 911.298 637.195 926.751 632.515 929.621C629.267 930.572 626.946 932.149 626.025 927.746C634.235 920.516 643.242 911.788 651.239 903.987C670.281 885.416 698.018 864.884 700.956 836.676C702.32 823.576 699.167 811.796 691.028 801.573Z" /><path fill="#D6B8AB" fill-opacity="0.97647059" d="M621.244 932.015C622.588 930.253 624.034 928.799 626.025 927.746C626.946 932.149 629.267 930.572 632.515 929.621C629.416 933.087 628.454 932.804 626.2 936.88C624.52 935.288 622.868 933.666 621.244 932.015Z" /></svg>