<?xml version='1.0' encoding='utf-8'?>
<svg xmlns="http://www.w3.org/2000/svg" viewBox="533.2 712.5 230.1 219.7" width="512" height="512"><path fill="#F54915" d="M579.24 730.528C573.508 730.266 546.67 731.38 544.091 729.264C543.205 727.638 543.351 727.556 543.485 725.75C543.868 725.175 544.416 724.188 545.232 724.237C552.254 724.651 578.033 722.533 583.116 725.456C585.86 729.075 588.617 743.169 589.943 748.507L681.075 748.442C688.539 748.434 720.114 747.95 725.117 749.186C726.906 752.312 720.047 767.96 718.677 772.135C726.435 773.618 753.312 767.794 749.744 781.95C747.832 789.538 742.776 798.103 740.169 805.627C735.417 816.551 729.59 837.61 723.999 847.029L723.663 847.603C721.366 849.976 718.904 849.669 715.483 849.683C696.667 849.763 677.784 849.485 658.97 849.545C652.431 849.566 643.397 849.244 637.026 849.601C633.278 849.109 629.482 849.121 625.737 849.637C620.33 849.114 612.545 850.779 608.333 848.018C606.227 844.583 600.52 819.147 599.08 813.211C592.431 785.8 584.903 758.112 579.24 730.528ZM631.67 825.401C632.832 830.944 634.748 837.177 636.222 842.721C650.632 842.156 667.689 843.258 682.535 842.987C687.831 842.89 710.776 842.671 715.025 843.232C717.733 838.701 719.927 832.515 721.861 827.497C725.506 818.015 729.062 808.499 732.529 798.95C734.413 793.816 736.817 786.532 739.115 781.804C731.262 780.533 723.315 779.942 715.36 780.037C713.26 785.744 699.678 821.491 696.632 824.634C690.837 826.606 641.111 825.477 631.67 825.401ZM612.827 842.832C615.389 842.487 617.511 842.622 620.086 842.724C620.963 842.696 624.313 842.761 624.82 842.368C624.623 842.898 620.45 827.253 620.124 825.277C616.408 825.111 612.951 825.287 609.254 825.473C609.475 827.072 609.747 828.663 610.071 830.245C610.233 831.052 610.432 831.927 610.603 832.744C611.291 836.118 612.033 839.481 612.827 842.832ZM591.577 754.792C593.115 762.916 595.571 772.173 597.59 780.28C600.711 792.813 603.864 806.044 607.378 818.468C610.856 818.442 614.823 818.316 618.257 818.398C616.138 806.997 612.124 793.67 609.327 782.28C607.535 774.985 603.936 765.716 603.41 758.468L604.168 757.611L604.046 757L600.911 755.014C596.702 754.337 595.784 754.574 591.577 754.792ZM612.761 754.949C613.453 759.768 616.236 767.219 617.918 771.994L711.691 771.551C712.713 767.984 716.53 759.031 718.05 755.192C710.208 754.268 684.096 754.646 675.529 754.8C655.474 755.161 632.485 754.07 612.761 754.949ZM630.285 818.586C644.782 818.19 659.828 818.688 674.369 818.541C680.739 818.477 687.023 818.937 693.442 818.614C698.197 805.676 703.175 792.821 708.374 780.055L650.366 779.996C642.222 779.965 627.685 779.436 619.962 779.99C622.963 787.365 629.142 810.54 630.285 818.586Z" /><path fill="#CEA083" d="M718.677 772.135C726.435 773.618 753.312 767.794 749.744 781.95C747.832 789.538 742.776 798.103 740.169 805.627C735.417 816.551 729.59 837.61 723.999 847.029L723.663 847.603C721.943 842.516 719.807 843.343 715.025 843.232C717.733 838.701 719.927 832.515 721.861 827.497C725.506 818.015 729.062 808.499 732.529 798.95C734.413 793.816 736.817 786.532 739.115 781.804C731.262 780.533 723.315 779.942 715.36 780.037C716.589 777.418 717.121 774.956 718.677 772.135Z" /><path fill="#D09F81" d="M620.124 825.277C623.731 825.183 628.078 825.159 631.67 825.401C632.832 830.944 634.748 837.177 636.222 842.721C632.057 843.024 624.332 842.912 620.086 842.724C620.963 842.696 624.313 842.761 624.82 842.368C624.623 842.898 620.45 827.253 620.124 825.277Z" /><path fill="#D19E7F" d="M600.911 755.014L612.761 754.949C613.453 759.768 616.236 767.219 617.918 771.994L711.691 771.551C711.059 773.21 709.068 778.773 708.374 780.055L650.366 779.996C642.222 779.965 627.685 779.436 619.962 779.99C622.963 787.365 629.142 810.54 630.285 818.586C626.199 818.588 622.337 818.58 618.257 818.398C616.138 806.997 612.124 793.67 609.327 782.28C607.535 774.985 603.936 765.716 603.41 758.468L604.168 757.611L604.046 757L600.911 755.014Z" /><path fill="#F54915" d="M625.737 849.637C629.482 849.121 633.278 849.109 637.026 849.601C638.657 855.638 639.948 860.282 641.165 866.585C641.511 868.224 641.82 869.871 642.091 871.524C650.013 871.267 656.173 870.908 662.378 876.792C679.337 892.877 653.289 922.26 636.559 904.469C632.743 900.448 630.375 895.27 629.829 889.753C625.248 890.086 621.482 890.08 617.587 887.372C613.828 884.778 611.293 880.758 610.573 876.248C609.104 867.121 616.216 858.944 625.237 857.912C627.71 857.158 629.134 855.767 632.346 855.819C633.416 855.837 632.956 852.472 631.962 851.499C630.157 849.732 628.172 850.03 625.737 849.637ZM639.374 884.592L639.104 885.495C637.985 889.098 638.312 891.222 640.272 894.44C647.42 906.18 661.218 891.176 653.491 882.748C649.531 878.428 646.826 879.972 641.89 879.321C641.229 881.157 640.386 882.923 639.374 884.592ZM632.25 876.822C632.598 876.074 632.699 875.952 632.868 875.161C633.527 871.872 633.973 871.952 632.687 868.977C633.32 868.439 633.808 868.007 634.414 867.436C632.633 865.816 632.732 865.763 630.66 864.56C625.842 864.42 624.5 863.935 620.541 867.064C616.526 870.239 616.362 877.182 619.821 880.675C622.621 883.503 624.664 883.457 628.098 883.035C630.512 880.242 630.323 880.141 632.25 876.822Z" /><path fill="#CEA083" d="M642.091 871.524C650.013 871.267 656.173 870.908 662.378 876.792C679.337 892.877 653.289 922.26 636.559 904.469C632.743 900.448 630.375 895.27 629.829 889.753C635.335 888.014 634.847 887.681 639.374 884.592L639.104 885.495C637.985 889.098 638.312 891.222 640.272 894.44C647.42 906.18 661.218 891.176 653.491 882.748C649.531 878.428 646.826 879.972 641.89 879.321C641.991 876.71 641.987 874.107 642.091 871.524Z" /><path fill="#D19E7F" d="M625.737 849.637C629.482 849.121 633.278 849.109 637.026 849.601C638.657 855.638 639.948 860.282 641.165 866.585C635.517 860.101 634.579 858.36 625.237 857.912C627.71 857.158 629.134 855.767 632.346 855.819C633.416 855.837 632.956 852.472 631.962 851.499C630.157 849.732 628.172 850.03 625.737 849.637Z" /><path fill="#D19E7F" d="M632.687 868.977C633.32 868.439 633.808 868.007 634.414 867.436C635.269 869.478 635.582 870.512 636.134 872.698C635.092 877.461 633.71 882.127 628.098 883.035C630.512 880.242 630.323 880.141 632.25 876.822C632.598 876.074 632.699 875.952 632.868 875.161C633.527 871.872 633.973 871.952 632.687 868.977Z" /><path fill="#D19E7F" fill-opacity="0.96470588" d="M630.66 864.56C632.732 865.763 632.633 865.816 634.414 867.436C633.808 868.007 633.32 868.439 632.687 868.977C632.016 871.666 632.028 872.611 632.868 875.161C632.699 875.952 632.598 876.074 632.25 876.822C629.851 872.373 630.466 869.701 630.66 864.56Z" /><path fill="#D19E7F" fill-opacity="0.54901963" d="M632.868 875.161C632.028 872.611 632.016 871.666 632.687 868.977C633.973 871.952 633.527 871.872 632.868 875.161Z" /><path fill="#F54915" d="M698.317 889.145C690.954 891.165 686.358 890.129 681.266 884.444C672.832 875.03 677.973 860.407 690.255 858.131C697.727 856.746 707.502 862.256 708.479 870.248C708.626 871.45 708.808 872.554 708.984 873.725C708.886 874.816 708.736 875.875 708.855 876.969C707.231 882.289 705.096 885.305 700.012 888.119C699.173 888.583 698.997 888.546 698.317 889.145ZM693.894 883.486C706.034 878.598 704.044 864.801 692.102 864.106L691.869 864.09C679.618 868.861 681.867 882.755 693.894 883.486Z" /><path fill="#CEA083" d="M711.66 872.618C717.422 871.077 721.165 870.786 726.503 873.992C735.684 879.506 739.689 890.895 733.666 900.307C723.232 916.612 700.719 909.995 698.515 891.001L698.317 889.145C698.997 888.546 699.173 888.583 700.012 888.119C705.096 885.305 707.231 882.289 708.855 876.969C709.55 878.326 710.236 880.578 710.815 882.129C705.963 888.846 708.438 896.408 715.963 898.767C722.321 900.761 725.974 890.322 724.834 885.506C723.285 878.966 718.036 879.905 712.846 880.831C710.713 876.497 712.493 876.435 711.66 872.618Z" /><path fill="#D19E7F" fill-opacity="0.93333334" d="M711.66 872.618C712.493 876.435 710.713 876.497 712.846 880.831C712.162 881.253 711.485 881.685 710.815 882.129C710.236 880.578 709.55 878.326 708.855 876.969C708.736 875.875 708.886 874.816 708.984 873.725C709.936 873.297 710.694 872.984 711.66 872.618Z" /></svg>