<?xml version='1.0' encoding='utf-8'?>
<svg xmlns="http://www.w3.org/2000/svg" viewBox="527.5 429.2 227.4 206.9" width="512" height="512"><path fill="#F54915" d="M575.307 562.026C565.881 561.748 555.878 563.327 547.776 557.413C537.511 549.921 538.986 537.643 539.02 526.562C539.041 519.994 539.041 513.451 539.053 506.902L539.157 476.93C539.234 468.86 538.567 457.541 542.769 450.53C549.584 439.16 566.339 441.384 577.644 441.395L617.007 441.421L669.244 441.336C678.159 441.352 687.073 441.133 695.958 441.829C708.475 442.81 714.946 453.11 716.074 464.756C724.826 466.034 732.363 466.167 738.331 473.963C740.227 476.439 742.596 480.96 742.829 484.004C743.843 497.206 743.501 512.004 743.511 525.275L743.536 551.313C743.528 562.978 744.901 576.719 734.304 584.538C727.161 589.807 714.866 588.581 706.246 588.692C694.451 588.874 682.654 588.86 670.859 588.65C663.609 588.556 654.357 588.228 647.203 588.594C635.801 595.447 625.138 608.493 614.535 616.887C611.319 619.433 608.599 622.703 605.03 624.891C603.205 626.011 598.777 625.497 598.291 623.504C595.792 613.254 596.797 599.665 596.994 589.002C597.971 588.217 600.71 588.267 599.87 586.759C599.71 586.472 597.543 586.7 597.202 586.702L596.877 587.034C591.578 591.479 585.939 598.102 580.236 601.889C579.062 602.669 578.475 602.226 577.522 601.801C574.562 598.055 575.356 589.779 575.366 585.003C575.451 577.344 575.431 569.685 575.307 562.026ZM715.938 515.724C716.622 516.402 717.331 517.005 717.76 517.876L717.838 518.894C718.212 523.559 715.166 529.654 716.715 535.262C717.252 537.209 717.191 539.622 718.456 541.524C720.098 545.027 718.575 544.753 717.119 547.316L716.871 547.743C716.054 547.683 715.703 547.633 714.938 547.67C709.15 557.399 703.391 562.084 691.56 562.155C684.593 562.196 677.542 562.173 670.57 562.156C655.088 562.075 639.606 562.078 624.124 562.167C618.703 567.002 611.981 572.754 606.953 577.86C607.205 587.672 607.061 597.67 607.562 607.42C615.596 601.674 622.804 593.918 630.153 587.288C633.453 584.311 636.353 581.113 640.134 578.704C666.776 576.872 695.964 580.961 722.495 577.623C733.412 574.829 734.548 554.425 733.087 546.55C729.28 526.027 742.637 480.287 718.153 471.31L715.95 472.449L715.938 515.724ZM570.547 553.239C571.231 553.347 580.889 551.85 580.997 551.74C581.197 550.974 580.14 550.48 580.447 549.82C580.88 549.664 583.61 549.454 584.801 549.126C595.405 549.131 606.008 549.194 616.611 549.313C621.156 549.355 626.267 549.297 630.806 549.621C632.228 549.723 632.442 550.292 633.488 551.283C634.877 553.147 634.94 553.661 635.919 555.727C639.022 555.459 646.558 555.753 650.026 555.767L679.497 555.846C689.629 555.863 699.463 557.428 706.339 548.55L705.801 548.155L705.875 547.609C706.442 543.128 708.437 543.688 707.464 537.502C706.761 533.032 708.534 523.405 706.703 519.275C701.953 521.237 703.793 521.745 703.748 525.902C703.638 526.021 702.339 527.594 702.324 527.603C700.276 526.946 700.623 527.092 699.206 528.268L699.104 528.253C698.8 527.167 698.762 526.731 697.534 527.626C695.041 529.446 694.586 534.002 693.718 536.98C692.776 540.213 699.833 538.769 700.546 538.636C701.539 538.189 702.486 537.715 703.53 537.399C703.973 539.811 704.583 543.062 703.739 545.499C703.624 545.831 702.888 546.266 702.724 546.743C702.892 547.223 703.304 547.641 703.588 548.059C701.278 547.281 691.382 547.043 688.243 548.416C682.418 550.965 673.941 553.085 674.232 542.865C674.312 540.063 685.065 529.87 684.775 527.717C684.503 527.439 683.852 527.481 683.506 527.464C685.117 526.001 685.812 525.254 687.232 523.571C695.332 519.194 693.951 515.876 705.652 514.712C706.879 514.56 708.116 514.504 709.352 514.545C709.937 501.503 709.454 484.85 709.436 471.62C703.064 471.097 689.652 471.879 681.748 471.599C662.518 470.918 638.764 469.434 619.681 470.713C616.068 471.858 562.732 471.943 560.679 470.926C559.494 470.339 558.975 469.841 558.656 468.521C558.367 467.328 558.954 466.363 559.566 465.428C563.597 463.691 610.364 464.552 618.869 464.232C642.77 463.621 667.22 464.303 691.163 464.437C695.812 464.462 704.27 465.826 708.539 464.817C709.211 464.659 709.129 463.987 709.334 463.081C708.482 456.008 703.989 448.546 696.385 448.132C686.305 447.583 675.843 447.821 665.737 447.836L610.126 447.932L575.245 447.968C569.49 447.976 562.526 447.667 556.913 448.389C551.177 449.128 545.952 456.469 545.781 462.231C545.439 473.789 545.599 485.46 545.579 497.071L545.514 525.452C545.472 534.478 543.376 547.425 552.098 552.721C557.912 556.251 563.628 555.152 569.809 555.664L570.547 553.239ZM623.511 487.289C623.63 491.262 623.679 490.371 621.059 493.513C605.629 493.129 576.955 493.786 560.494 492.593C559.523 492.522 558.897 491.081 558.493 490.218C558.515 488.633 558.503 488.747 559.437 487.457C563.803 485.18 595.963 487.303 603.085 486.479C606.501 486.084 620.3 486.538 623.511 487.289ZM607.075 563.552C599.023 563.644 589.963 563.235 582.122 563.552C582.119 572.608 581.833 582.006 582.052 590.981C589.649 584.521 596.195 577.718 603.74 571.241C606.322 569.024 609.089 566.669 611.547 564.331C611.345 560.17 615.504 559.148 618.527 556.23C621.854 553.899 623.51 553.693 627.322 552.353L626.851 552.323C623.107 552.055 617.857 551.431 615.372 554.763L614.442 555.148C608.423 557.58 609.162 557.219 607.075 563.552ZM650.755 517.51C635.768 517.464 620.662 517.646 605.695 517.323C597.532 517.148 591.294 515.74 582.777 516.111C585.81 511.861 594.651 515.173 598.047 513.324C597.211 512.839 574.362 513.53 570.214 512.653L569.264 512.657C565.86 512.682 560.258 513.536 558.71 510.076C558.96 508.502 559.238 508.379 560.217 507.125C564.7 504.582 614.043 506.806 622.231 506.329C625.056 506.164 626.503 507.544 627.793 509.936C635.127 511.181 645.419 509.205 651.956 512.185C651.573 513.938 651.202 515.778 650.755 517.51Z" /><path fill="#D09F81" fill-opacity="0.73333335" d="M717.76 517.876C719.753 519.759 720.451 520.357 722.1 522.467C722.229 529.412 724.964 545.625 716.871 547.743L717.119 547.316C718.575 544.753 720.098 545.027 718.456 541.524C717.191 539.622 717.252 537.209 716.715 535.262C715.166 529.654 718.212 523.559 717.838 518.894L717.76 517.876ZM718.713 532.742C721.066 531.682 721.046 526.031 719.022 524.79C716.388 527.884 716.513 529.333 718.713 532.742Z" /><path fill="#D09F81" fill-opacity="0.58823532" d="M719.022 524.79C721.046 526.031 721.066 531.682 718.713 532.742C716.513 529.333 716.388 527.884 719.022 524.79Z" /><path fill="#CEA083" d="M716.074 464.756C724.826 466.034 732.363 466.167 738.331 473.963C740.227 476.439 742.596 480.96 742.829 484.004C743.843 497.206 743.501 512.004 743.511 525.275L743.536 551.313C743.528 562.978 744.901 576.719 734.304 584.538C727.161 589.807 714.866 588.581 706.246 588.692C694.451 588.874 682.654 588.86 670.859 588.65C663.609 588.556 654.357 588.228 647.203 588.594C635.801 595.447 625.138 608.493 614.535 616.887C611.319 619.433 608.599 622.703 605.03 624.891C603.205 626.011 598.777 625.497 598.291 623.504C595.792 613.254 596.797 599.665 596.994 589.002C597.971 588.217 600.71 588.267 599.87 586.759C599.71 586.472 597.543 586.7 597.202 586.702C599.846 583.799 603.952 580.405 606.953 577.86C607.205 587.672 607.061 597.67 607.562 607.42C615.596 601.674 622.804 593.918 630.153 587.288C633.453 584.311 636.353 581.113 640.134 578.704C666.776 576.872 695.964 580.961 722.495 577.623C733.412 574.829 734.548 554.425 733.087 546.55C729.28 526.027 742.637 480.287 718.153 471.31L715.95 472.449C715.919 469.882 716.008 467.323 716.074 464.756Z" /><path fill="#D19E7F" d="M715.938 515.724C716.622 516.402 717.331 517.005 717.76 517.876L717.838 518.894C718.212 523.559 715.166 529.654 716.715 535.262C717.252 537.209 717.191 539.622 718.456 541.524C720.098 545.027 718.575 544.753 717.119 547.316L716.871 547.743C716.054 547.683 715.703 547.633 714.938 547.67C716.876 539.366 715.904 524.732 715.938 515.724Z" /><path fill="#D19E7F" d="M570.555 531.869C566.828 531.96 561.781 532.621 559.221 529.574C559.267 527.605 559.075 528.582 560.257 526.636C562.781 524.877 588.589 525.596 593.578 525.581C601.665 525.558 612.617 525.358 620.701 525.836C622.439 526.905 621.92 526.637 622.997 528.739L623.476 529.391C627.81 529.99 636.265 528.671 639.143 532.654C640.158 534.059 640.582 536.394 640.125 538.078C639.719 539.574 638.864 540.779 637.417 541.424C633.866 543.008 578.647 542.481 574.737 541.005C572.86 540.296 571.35 538.132 570.726 536.303C570.653 536.09 570.609 535.868 570.55 535.65C575.255 535.425 583.066 535.997 588.403 536.029C597.031 536.203 609.584 535.775 618.328 535.403C612.811 531.971 610.155 533.505 603.75 532.902C599.294 532.482 594.086 532.494 589.551 532.449L589.13 532.454C585.047 532.473 578.724 531.703 575.501 533.425C574.001 534.227 572.641 533.569 570.896 533.146L570.555 531.869Z" /><path fill="#F54915" d="M570.555 531.869C566.828 531.96 561.781 532.621 559.221 529.574C559.267 527.605 559.075 528.582 560.257 526.636C562.781 524.877 588.589 525.596 593.578 525.581C601.665 525.558 612.617 525.358 620.701 525.836C622.439 526.905 621.92 526.637 622.997 528.739C622.318 529.713 621.541 531.394 620.219 531.48C604.05 532.529 586.62 530.792 570.555 531.869Z" /><path fill="#D19E7F" fill-opacity="0.34509805" d="M589.551 532.449C594.086 532.494 599.294 532.482 603.75 532.902C610.155 533.505 612.811 531.971 618.328 535.403C609.584 535.775 597.031 536.203 588.403 536.029C589.183 535.795 589.954 535.585 590.754 535.436L591.092 535.094L591.303 535.203L591.314 535.244L591.327 535.207C590.47 534.306 590.217 533.724 591.858 533.327C591.252 533.079 590.617 532.851 589.992 532.628L589.551 532.449Z" /><path fill="#D19E7F" fill-opacity="0.11764706" d="M570.896 533.146C572.641 533.569 574.001 534.227 575.501 533.425C578.724 531.703 585.047 532.473 589.13 532.454L589.551 532.449L589.992 532.628C590.617 532.851 591.252 533.079 591.858 533.327C590.217 533.724 590.47 534.306 591.327 535.207L591.314 535.244L591.303 535.203L591.092 535.094L590.754 535.436C589.954 535.585 589.183 535.795 588.403 536.029C583.066 535.997 575.255 535.425 570.55 535.65C570.643 534.792 570.766 533.996 570.896 533.146Z" /><path fill="#D09F81" d="M660.142 507.357L660.425 507.371C661.102 510.244 660.856 510.468 661.167 513.37C664.799 511.655 664.888 511.588 668.575 510.765C671.463 512.027 671.491 512.322 673.472 514.714C663.823 511.299 667.145 512.117 657.567 517.022C658.323 514.084 659.17 510.123 660.142 507.357Z" /><path fill="#D19E7F" d="M570.214 512.653C582.53 512.264 595.174 512.731 607.534 512.598C612.889 512.54 619.034 512.889 624.352 512.127C625.394 511.978 626.96 510.636 627.793 509.936C635.127 511.181 645.419 509.205 651.956 512.185C651.573 513.938 651.202 515.778 650.755 517.51C635.768 517.464 620.662 517.646 605.695 517.323C597.532 517.148 591.294 515.74 582.777 516.111C585.81 511.861 594.651 515.173 598.047 513.324C597.211 512.839 574.362 513.53 570.214 512.653Z" /><path fill="#CEA083" d="M687.232 523.571C695.332 519.194 693.951 515.876 705.652 514.712C706.521 517.526 706.179 516.534 706.703 519.275C701.953 521.237 703.793 521.745 703.748 525.902C703.638 526.021 702.339 527.594 702.324 527.603C700.276 526.946 700.623 527.092 699.206 528.268L699.104 528.253C698.8 527.167 698.762 526.731 697.534 527.626C695.041 529.446 694.586 534.002 693.718 536.98C692.776 540.213 699.833 538.769 700.546 538.636C701.539 538.189 702.486 537.715 703.53 537.399C703.973 539.811 704.583 543.062 703.739 545.499C703.624 545.831 702.888 546.266 702.724 546.743C702.892 547.223 703.304 547.641 703.588 548.059C701.278 547.281 691.382 547.043 688.243 548.416C682.418 550.965 673.941 553.085 674.232 542.865C674.312 540.063 685.065 529.87 684.775 527.717C684.503 527.439 683.852 527.481 683.506 527.464C685.117 526.001 685.812 525.254 687.232 523.571Z" /><path fill="#D09F81" d="M584.801 549.126C595.405 549.131 606.008 549.194 616.611 549.313C621.156 549.355 626.267 549.297 630.806 549.621C632.228 549.723 632.442 550.292 633.488 551.283C631.791 553.336 629.574 552.768 627.322 552.353L626.851 552.323C623.107 552.055 617.857 551.431 615.372 554.763L614.442 555.148C608.423 557.58 609.162 557.219 607.075 563.552C599.023 563.644 589.963 563.235 582.122 563.552C582.58 553.556 577.793 556.296 569.809 555.664L570.547 553.239C571.231 553.347 580.889 551.85 580.997 551.74C581.197 550.974 580.14 550.48 580.447 549.82C580.88 549.664 583.61 549.454 584.801 549.126Z" /><path fill="#CEA083" fill-opacity="0.16078432" d="M706.703 519.275C708.534 523.405 706.761 533.032 707.464 537.502C708.437 543.688 706.442 543.128 705.875 547.609L705.801 548.155C704.977 548.183 704.408 548.123 703.588 548.059C703.304 547.641 702.892 547.223 702.724 546.743C702.888 546.266 703.624 545.831 703.739 545.499C704.583 543.062 703.973 539.811 703.53 537.399C703.55 535.075 703.537 531.844 703.486 529.52C703.581 528.315 703.668 527.109 703.748 525.902C703.793 521.745 701.953 521.237 706.703 519.275Z" /><path fill="#D19E7F" d="M709.352 514.545C709.815 523.852 709.31 533.893 709.42 543.24C709.438 544.764 707.415 547.465 706.339 548.55L705.801 548.155L705.875 547.609C706.442 543.128 708.437 543.688 707.464 537.502C706.761 533.032 708.534 523.405 706.703 519.275C706.179 516.534 706.521 517.526 705.652 514.712C706.879 514.56 708.116 514.504 709.352 514.545Z" /><path fill="#CEA083" fill-opacity="0.98823529" d="M569.264 512.657L570.214 512.653C574.362 513.53 597.211 512.839 598.047 513.324C594.651 515.173 585.81 511.861 582.777 516.111C581.32 517.469 572.435 517.994 570.342 516.803C569.637 516.403 569.354 513.447 569.264 512.657Z" /><path fill="#D19E7F" d="M633.488 551.283C634.877 553.147 634.94 553.661 635.919 555.727C631.725 556.14 625.864 555.917 621.433 556.056C618.02 558.688 614.738 562.128 611.547 564.331C611.345 560.17 615.504 559.148 618.527 556.23C621.854 553.899 623.51 553.693 627.322 552.353C629.574 552.768 631.791 553.336 633.488 551.283Z" /><path fill="#D09F81" fill-opacity="0.85490197" d="M698.174 530.835C702.845 528.104 701.769 530.41 703.486 529.52C703.537 531.844 703.55 535.075 703.53 537.399C702.486 537.715 701.539 538.189 700.546 538.636C694.025 538.299 695.69 537.593 698.174 530.835Z" /><path fill="#D09F81" fill-opacity="0.9254902" d="M703.748 525.902C703.668 527.109 703.581 528.315 703.486 529.52C701.769 530.41 702.845 528.104 698.174 530.835C695.69 537.593 694.025 538.299 700.546 538.636C699.833 538.769 692.776 540.213 693.718 536.98C694.586 534.002 695.041 529.446 697.534 527.626C698.762 526.731 698.8 527.167 699.104 528.253L699.206 528.268C700.623 527.092 700.276 526.946 702.324 527.603C702.339 527.594 703.638 526.021 703.748 525.902Z" /><path fill="#D09F81" fill-opacity="0.90588236" d="M570.547 553.239C574.06 547.537 578.45 548.973 584.801 549.126C583.61 549.454 580.88 549.664 580.447 549.82C580.14 550.48 581.197 550.974 580.997 551.74C580.889 551.85 571.231 553.347 570.547 553.239Z" /><path fill="#D19E7F" fill-opacity="0.81176472" d="M615.372 554.763C617.857 551.431 623.107 552.055 626.851 552.323L627.322 552.353C623.51 553.693 621.854 553.899 618.527 556.23C617.679 555.257 617.457 555.119 616.166 554.909L615.372 554.763Z" /><path fill="#D19E7F" fill-opacity="0.71764708" d="M597.202 586.702C597.543 586.7 599.71 586.472 599.87 586.759C600.71 588.267 597.971 588.217 596.994 589.002C596.964 588.345 596.925 587.689 596.877 587.034L597.202 586.702Z" /></svg>