<?xml version='1.0' encoding='utf-8'?>
<svg xmlns="http://www.w3.org/2000/svg" viewBox="9.5 112.0 270.6 233.4" width="512" height="512"><path fill="#F54915" d="M151.089 121.974C155.455 124.626 158.792 128.331 162.002 132.229C161.759 136.748 161.454 139.574 163.307 143.927C168.068 155.115 178.139 157.072 188.589 152.644C191.592 154.946 193.272 156.593 195.983 159.264C200.901 153.755 206.242 147.847 211.502 142.711C213.656 144.467 216.304 147.056 218.398 148.991C218.591 160.213 222.765 167.242 233.753 170.289C236.814 169.616 238.067 169.135 240.905 168.025C244.957 170.977 253.361 177.809 255.854 181.736C257.352 188.058 268.516 178.566 261.94 203.268C267.732 209.724 270.165 212.679 263.232 219.711C254.662 228.401 246.035 237.061 237.422 245.711L187.218 296.113C178.524 304.915 169.755 313.643 160.913 322.295C158.52 324.663 148.572 335.31 146.087 335.424C140.69 334.041 124.963 318.904 121.117 314.466C118.899 312.224 115.185 309.253 112.624 306.849C112.131 305.182 104.059 298.695 102.045 298.395C99.3676 296.819 97.1416 296.376 94.1017 296.029C87.5359 295.282 82.7985 302.923 77.8347 306.714C74.0276 303.945 68.2268 298.947 64.8931 295.744C65.6238 278.195 54.1833 265.929 37.2262 262.316C33.689 261.562 29.756 261.92 26.1424 262.067C23.1183 259.44 21.9796 258.276 19.5471 255.161C22.4374 250.562 38.5498 235.22 43.1998 230.569L92.9431 180.665L128.937 144.212C135.19 137.802 144.642 127.45 151.089 121.974ZM219.792 218.937C219.004 219.658 218.274 220.433 217.5 221.168C190.612 247.484 163.567 277.213 135.943 302.459C134.066 304.14 131.787 306.329 129.942 308.109L129.862 308.813C129.78 309.817 129.372 310.692 129.003 311.616C129.259 313.73 129.245 313.375 131.339 314.134C131.849 314.202 133.036 314.586 133.346 314.465C133.889 313.38 132.312 310.457 134.834 308.381C136.028 307.398 136.141 305.083 136.707 303.499C140.556 310.554 140.855 313.656 142.712 321.416C145.49 319.001 147.955 316.479 150.573 313.911C167.343 297.459 183.418 280.364 199.817 263.551L236.334 226.471C242.036 220.721 248.362 215.052 253.727 209.086C251.927 205.975 249.723 203.513 248.136 200.365C246.901 197.913 247.386 197.59 248.162 195.342C249.711 192.957 249.567 192.778 252.772 191.419C257.437 189.441 256.53 185.574 251.092 187.418C250.054 188.175 246.013 192.33 245.337 193.385C237.014 201.655 228.187 210.941 219.792 218.937ZM194.578 189.092C193.223 190.668 191.097 192.667 189.559 194.149C171.822 211.786 154.238 229.576 136.807 247.516C134.53 249.876 120.455 264.318 119.346 265.925C114.347 270.763 108.729 276.045 103.878 281.307C103.121 282.128 97.0651 287.059 99.111 289.844C99.2353 290.013 101.214 290.697 101.749 290.94C106.584 292.635 113.85 298.709 118.082 301.958L121.526 304.739C131.317 295.367 140.19 284.233 149.232 274.504C159.672 263.272 172.137 251.752 183.075 240.973C187.249 236.86 191.575 231.585 195.855 227.878C201.341 222.529 207.056 215.408 212.523 209.721C211.462 208.08 208.669 205.44 207.224 204.028C206.923 202.742 204.121 200.335 203.032 199.405C199.36 198.067 199.336 197.558 196.65 195.678C195.836 192.985 196.086 193.2 196.016 190.356L195.69 189.955C195.315 189.673 194.944 189.386 194.578 189.092ZM87.58 275.323C79.8064 268.878 72.3168 261.955 64.5138 255.445C62.2024 253.517 57.5535 249.785 55.6698 247.234C55.1753 246.564 56.601 244.162 56.9894 243.478C57.4983 243.068 58.001 242.65 58.4971 242.225C62.6341 238.241 60.7481 239.324 64.8795 242.787C74.8077 251.107 84.0672 260.405 94.3556 268.276C98.8647 264.17 100.912 266.62 105.915 270.041C107.006 268.543 113.037 262.724 114.832 260.908L132.913 242.441L170.578 203.715C176.012 198.219 182.586 191.255 188.291 186.18C187.037 185.255 179.484 179.865 178.184 180.7C178.003 181.065 177.819 183.033 177.742 183.519C176.006 182.216 174.755 181.004 173.118 179.592C171.338 178.629 166.473 174.636 165.249 172.967C167.355 170.565 174.469 163.909 177.115 161.677C160.82 157.398 154.467 149.296 155.499 132.459L151.466 130.155C141.972 140.87 131.316 150.868 121.224 161.094L64.0349 218.691C53.5938 229.114 38.1959 244.132 28.7299 255.3C52.0126 256.35 70.9302 268.606 72.1668 293.515C73.8979 295.279 75.4031 296.681 76.8294 298.712C80.778 295.501 83.857 292.606 87.5322 289.126C87.4884 284.712 87.5856 281.044 88.6278 276.766C88.7328 276.335 87.8161 275.558 87.58 275.323ZM204.663 183.775L205.72 181.777C205.052 180.577 204.93 180.391 204.502 179.149C203.192 180.712 201.788 181.98 200.425 183.548L200.99 183.87C203.544 182.7 202.254 183.728 204.663 183.775ZM201.211 173.474C199.461 171.581 188.763 159.758 186.902 160.298C184.817 163.555 182.034 166.959 179.753 170.117C184.923 172.214 190.397 176.288 195.405 179.229C197.146 177.177 199.108 175.15 201.211 173.474ZM108.67 280.043C111.883 276.81 114.719 274.392 117.609 270.781C119.399 273.07 123.021 270.471 120.848 277.732C119.868 281.007 116.908 283.451 114.006 284.942C111.596 286.343 111.492 287.534 108.468 288.976L108.132 289.021C106.066 286.415 107.91 283.651 108.67 280.043ZM218.621 195.628C222.928 200.804 221.689 200.788 227.565 199.847C228.344 196.856 228.62 196.164 228.993 193.158C231.904 189.779 234.91 186.483 238.008 183.275C242.717 178.398 242.401 182.993 243.253 177.637C240.139 174.522 241.159 174.998 236.936 175.738C229.152 177.101 221.936 172.198 217.382 166.303C213.818 161.689 213.009 156.684 212.245 151.089C207.936 154.749 204.556 158.383 200.718 162.541C202.377 164.223 204 166 205.705 167.63C210.391 172.111 210.646 171.911 206.927 176.722C208.208 178.193 232.083 197.431 219.728 194.514L218.621 195.628ZM94.4465 273.069C93.982 273.73 92.342 276.418 93.2702 277.153C93.7213 277.217 94.6723 276.113 94.9424 275.867C95.6756 275.434 98.3279 274.034 98.6509 273.276C98.5826 272.56 94.9625 273.042 94.4465 273.069Z" /><path fill="#EFD4C3" fill-opacity="0.92941177" d="M209.466 239.738C214.414 233.682 216.634 239.445 210.639 240.8L209.466 239.738Z" /><path fill="#EFD4C3" fill-opacity="0.90980393" d="M198.213 251.236C200.914 252.526 199.553 254.419 198.303 256.389C195.352 254.106 195.832 254.486 198.213 251.236Z" /><path fill="#EFD4C3" fill-opacity="0.23921569" d="M232.849 215.816C234.439 216.997 233.896 218.568 233.509 220.604C231.133 219.145 231.021 218.627 232.457 216.508L232.849 215.816Z" /><path fill="#EFD4C3" fill-opacity="0.93333334" d="M224.194 225.139L224.607 226.019C224.191 226.843 222.926 229.836 222.164 230.118L221.54 229.763C220.808 227.927 222.916 226.278 224.194 225.139Z" /><path fill="#FAF4F3" fill-opacity="0.67450982" d="M209.466 239.738L210.639 240.8C210.141 241.239 208.499 243.027 208.163 243.19C204.891 244.773 207.703 241.774 208.208 241.206L208.856 240.46L209.466 239.738Z" /><path fill="#EFD4C3" fill-opacity="0.25490198" d="M219.553 231.939C220.731 232.146 220.827 232.432 219.92 233.409L218.259 235.178C216.497 233.227 217.567 233.672 219.553 231.939Z" /><path fill="#EFD4C3" fill-opacity="0.66274512" d="M202.459 246.396C203.499 248.039 204.49 248.276 204.13 249.908L203.484 249.458C202.504 248.788 201.212 248.215 202.123 246.915L202.459 246.396Z" /><path fill="#EFD4C3" fill-opacity="0.88235295" d="M225.02 224.062C226.982 221.349 228.49 221.42 226.385 224.759L225.02 224.062Z" /><path fill="#FAF4F3" fill-opacity="0.6901961" d="M224.194 225.139C224.47 224.78 224.745 224.421 225.02 224.062L226.385 224.759C225.774 225.214 225.237 225.593 224.607 226.019L224.194 225.139Z" /><path fill="#CEA083" fill-opacity="0.9137255" d="M149.156 243.608L149.719 244.2C150.979 241.111 152.086 241.05 153.617 238.721C154.813 235.797 159.544 234.192 160.957 232.207C166.794 224.004 174.554 217.495 180.873 209.668C182.741 207.355 191.279 197.389 193.03 196.785C195.898 197.264 203.661 203.381 204.467 206.091C200.452 211.835 194.598 218.313 189.868 223.58C167.268 248.75 144.938 273.861 121.611 298.366C120.38 297.487 119.588 296.751 119.212 295.263C117.246 287.496 115.644 291.399 113.181 290.209C113.09 289.601 113.484 289.734 113.325 289.225C111.97 288.639 110.994 290.881 108.925 289.314L108.468 288.976C111.492 287.534 111.596 286.343 114.006 284.942C116.908 283.451 119.868 281.007 120.848 277.732C123.021 270.471 119.399 273.07 117.609 270.781C118.25 269.918 118.558 269.589 119.323 268.797L120.139 268.777C122.115 268.742 123.939 268.113 125.692 267.332C129.37 265.693 131.008 264.871 133.816 261.841C135.083 261.265 135.566 260.34 136.587 259.479C137.193 258.967 139.338 255.958 139.602 255.688C141.362 253.887 140.409 254.602 140.209 252.774C140.117 251.93 142.603 249.518 143.199 248.61C143.932 248.19 145.428 246.779 145.958 247.016C146.599 247.303 146.318 248.705 146.799 248.798C147.851 248.168 147.468 247.521 146.783 246.79C148.791 245.236 147.6 246.277 149.156 243.608Z" /><path fill="#D19E7F" fill-opacity="0.82745099" d="M196.65 195.678C199.336 197.558 199.36 198.067 203.032 199.405C204.121 200.335 206.923 202.742 207.224 204.028C205.701 204.361 205.473 204.885 204.467 206.091C203.661 203.381 195.898 197.264 193.03 196.785C191.279 197.389 182.741 207.355 180.873 209.668C174.554 217.495 166.794 224.004 160.957 232.207C159.544 234.192 154.813 235.797 153.617 238.721C152.086 241.05 150.979 241.111 149.719 244.2L149.156 243.608C149.891 242.354 150.275 241.437 151.091 240.19L151.919 238.946C154.254 235.421 158.138 231.48 160.354 227.927C162.549 224.409 177.162 215.167 176.697 212.239C176.373 212.099 176.098 212.169 175.754 212.213C175.75 211.359 176.135 210.451 176.367 209.649C179.903 206.07 185.387 199.59 189.586 196.298C190.411 196.26 191.11 196.229 191.686 196.202C193.338 195.963 194.999 195.938 196.65 195.678Z" /><path fill="#D19E7F" fill-opacity="0.63921571" d="M144.439 241.662L144.056 242.711C143.315 244.686 139.976 246.343 140.286 247.802C141.289 248.486 146.743 240.974 147.688 240.901C147.704 240.958 147.721 241.015 147.738 241.073C146.445 243.55 144.158 245.317 143.199 248.61C142.603 249.518 140.117 251.93 140.209 252.774C140.409 254.602 141.362 253.887 139.602 255.688C139.338 255.958 137.193 258.967 136.587 259.479C135.566 260.34 135.083 261.265 133.816 261.841C131.008 264.871 129.37 265.693 125.692 267.332C123.939 268.113 122.115 268.742 120.139 268.777L119.323 268.797L119.804 267.928C123.517 264.298 126.889 259.177 131.222 255.488C132.999 253.975 137.769 248.804 139.24 246.975C140.814 245.056 142.554 243.278 144.439 241.662Z" /><path fill="#CEA083" fill-opacity="0.6901961" d="M176.367 209.649C176.135 210.451 175.75 211.359 175.754 212.213C176.098 212.169 176.373 212.099 176.697 212.239C177.162 215.167 162.549 224.409 160.354 227.927C158.138 231.48 154.254 235.421 151.919 238.946L151.091 240.19C150.275 241.437 149.891 242.354 149.156 243.608C147.6 246.277 148.791 245.236 146.783 246.79C147.468 247.521 147.851 248.168 146.799 248.798C146.318 248.705 146.599 247.303 145.958 247.016C145.428 246.779 143.932 248.19 143.199 248.61C144.158 245.317 146.445 243.55 147.738 241.073C147.721 241.015 147.704 240.958 147.688 240.901C146.743 240.974 141.289 248.486 140.286 247.802C139.976 246.343 143.315 244.686 144.056 242.711L144.439 241.662C146.467 239.012 149.022 236.924 151.24 234.658C159.447 226.271 167.862 217.772 176.367 209.649Z" /><path fill="#EFD4C3" fill-opacity="0.36862746" d="M119.346 265.925C120.455 264.318 134.53 249.876 136.807 247.516C154.238 229.576 171.822 211.786 189.559 194.149C190.276 194.824 190.985 195.509 191.686 196.202C191.11 196.229 190.411 196.26 189.586 196.298C185.387 199.59 179.903 206.07 176.367 209.649C167.862 217.772 159.447 226.271 151.24 234.658C149.022 236.924 146.467 239.012 144.439 241.662C142.554 243.278 140.814 245.056 139.24 246.975C137.769 248.804 132.999 253.975 131.222 255.488C126.889 259.177 123.517 264.298 119.804 267.928C119.677 267.316 119.53 266.493 119.346 265.925Z" /><path fill="#CEA083" fill-opacity="0.76862746" d="M251.092 187.418C256.53 185.574 257.437 189.441 252.772 191.419C249.567 192.778 249.711 192.957 248.162 195.342C247.218 193.84 247.017 193.899 245.337 193.385C246.013 192.33 250.054 188.175 251.092 187.418Z" /><path fill="#D19E7F" fill-opacity="0.10196079" d="M194.578 189.092C194.944 189.386 195.315 189.673 195.69 189.955L196.016 190.356C196.086 193.2 195.836 192.985 196.65 195.678C194.999 195.938 193.338 195.963 191.686 196.202C190.985 195.509 190.276 194.824 189.559 194.149C191.097 192.667 193.223 190.668 194.578 189.092Z" /><path fill="#F54915" d="M204.502 179.149C205.413 178.034 205.843 177.663 206.927 176.722C208.208 178.193 232.083 197.431 219.728 194.514L218.621 195.628C215.876 192.851 208.237 183.899 204.663 183.775L205.72 181.777C205.052 180.577 204.93 180.391 204.502 179.149Z" /><path fill="#EFD4C3" d="M205.72 181.777C207.189 182.497 219.018 193.119 219.728 194.514L218.621 195.628C215.876 192.851 208.237 183.899 204.663 183.775L205.72 181.777Z" /><path fill="#D19E7F" d="M243.253 177.637L243.816 178.159C244.935 179.164 245.984 180.237 247.042 181.305C242.492 185.812 232.523 196.411 227.565 199.847C228.344 196.856 228.62 196.164 228.993 193.158C231.904 189.779 234.91 186.483 238.008 183.275C242.717 178.398 242.401 182.993 243.253 177.637Z" /><path fill="#ED5A27" d="M212.523 209.721L212.863 210.309C213.734 212.143 218.109 217.635 219.792 218.937C219.004 219.658 218.274 220.433 217.5 221.168C216.307 219.631 211.538 215.528 209.981 216.11C206.446 217.434 200.093 226.914 197.271 228.557C196.726 228.57 196.296 228.152 195.855 227.878C201.341 222.529 207.056 215.408 212.523 209.721Z" /><path fill="#D19E7F" d="M196.016 190.356C198.256 193.305 201.084 196.772 203.032 199.405C199.36 198.067 199.336 197.558 196.65 195.678C195.836 192.985 196.086 193.2 196.016 190.356Z" /><path fill="#D68E6A" d="M194.578 189.092C195.685 187.405 198.723 184.699 200.425 183.548L200.99 183.87C199.114 186.376 196.718 187.68 195.69 189.955C195.315 189.673 194.944 189.386 194.578 189.092Z" /><path fill="#F54915" d="M142.156 158.128C143.24 157.36 144.05 156.447 145.062 155.568C151.037 160.496 159.529 167.77 165.249 172.967C166.473 174.636 171.338 178.629 173.118 179.592C174.755 181.004 176.006 182.216 177.742 183.519C177.895 185.84 177.466 186.267 175.299 187.449C174.539 187.916 173.917 188.357 173.194 188.866C172.469 190.055 171.746 190.657 170.729 191.632C170.12 192.178 169.624 192.644 169.043 193.208C167.643 195.252 164.502 198.152 162.618 200.21C162.247 200.582 161.877 200.954 161.506 201.326C160.507 202.417 159.714 203.163 158.629 204.154C157.306 202.895 155.827 201.477 154.455 200.295C153.457 199.405 152.448 198.527 151.428 197.663C150.82 197.062 150.604 196.849 149.95 196.325C149.236 197.59 149.009 197.872 148.118 198.991C148.771 199.555 149.324 200.068 149.951 200.653C150.708 201.228 151.403 201.793 152.137 202.395C153.574 203.689 155.175 204.779 156.734 205.918C155.698 207.016 154.648 208.099 153.582 209.167C153.225 209.535 152.868 209.903 152.511 210.271C150.224 212.738 148.071 214.759 145.737 217.136L145.103 217.524C143.876 218.849 143.155 219.551 141.659 220.532C140.737 221.348 140.158 222.066 139.298 222.961C138.358 224.052 137.444 225.165 136.555 226.298L135.555 227.389C134.084 229.155 131.43 231.76 129.66 233.28C126.886 230.969 123.762 228.234 120.909 226.126C117.943 223.76 114.991 220.883 112.177 218.671C111.137 217.805 110.118 216.913 109.12 215.998C108.622 215.353 108.543 215.334 107.887 214.79C105.935 213.071 104.003 211.328 102.094 209.561C100.254 207.93 98.4816 206.189 96.6431 204.606C98.6104 202.732 100.545 200.824 102.447 198.883L103.462 197.613C104.709 196.736 105.681 195.721 106.816 194.696C107.668 193.667 108.282 192.997 109.214 192.057C110.137 191.013 111.075 189.982 112.028 188.966L113.059 188.17C115.239 186.127 117.34 184.002 119.358 181.798C119.848 181.226 120.263 180.761 120.779 180.197C121.982 178.848 122.516 178.373 123.919 177.241C124.705 176.363 125.093 175.997 125.988 175.226C127.095 174.19 128.075 173.184 129.131 172.099L130.093 171.139C132.058 169.214 134.586 166.261 136.321 164.688C137.035 164.077 137.309 163.839 137.95 163.169C138.875 162.005 139.822 160.934 140.735 159.766L142.156 158.128ZM159.357 183.845C160.89 181.394 154.231 176.949 152.233 175.099C151.368 174.305 150.551 173.644 149.644 172.903C147.916 171.058 146.419 169.923 144.519 168.289C144.902 169.914 145.051 170.255 144.91 171.876C145.951 172.95 148.321 174.861 149.501 175.765C150.268 176.305 150.797 176.723 151.53 177.311C153.946 179.49 156.544 182.213 159.357 183.845ZM107.887 214.79C108.543 215.334 108.622 215.353 109.12 215.998C110.118 216.913 111.137 217.805 112.177 218.671C114.991 220.883 117.943 223.76 120.909 226.126C123.762 228.234 126.886 230.969 129.66 233.28C131.43 231.76 134.084 229.155 135.555 227.389L136.555 226.298C137.444 225.165 138.358 224.052 139.298 222.961C140.158 222.066 140.737 221.348 141.659 220.532C143.155 219.551 143.876 218.849 145.103 217.524L145.737 217.136C148.071 214.759 150.224 212.738 152.511 210.271C145.318 204.369 138.813 197.747 131.536 191.92C127.422 188.613 123.362 185.238 119.358 181.798C117.34 184.002 115.239 186.127 113.059 188.17L112.028 188.966C111.075 189.982 110.137 191.013 109.214 192.057C108.282 192.997 107.668 193.667 106.816 194.696C105.681 195.721 104.709 196.736 103.462 197.613L102.447 198.883C100.545 200.824 98.6104 202.732 96.6431 204.606C98.4816 206.189 100.254 207.93 102.094 209.561C104.003 211.328 105.935 213.071 107.887 214.79ZM153.457 194.152L154.64 192.833C153.33 191.522 151.988 190.244 150.615 189C149.718 188.052 147.041 185.732 145.937 184.82L145.365 186.897C146.93 188.094 148.29 189.541 149.847 190.846C151.07 191.926 152.274 193.028 153.457 194.152Z" /><path fill="#FAF4F3" fill-opacity="0.050980393" d="M152.233 175.099C154.231 176.949 160.89 181.394 159.357 183.845C156.544 182.213 153.946 179.49 151.53 177.311L152.233 175.099Z" /><path fill="#FAF4F3" fill-opacity="0.81960785" d="M144.519 168.289C146.419 169.923 147.916 171.058 149.644 172.903L149.501 175.765C148.321 174.861 145.951 172.95 144.91 171.876C145.051 170.255 144.902 169.914 144.519 168.289Z" /><path fill="#FEFEFE" fill-opacity="0.86274511" d="M145.937 184.82C147.041 185.732 149.718 188.052 150.615 189L149.847 190.846C148.29 189.541 146.93 188.094 145.365 186.897L145.937 184.82Z" /><path fill="#FEFEFE" fill-opacity="0.65490198" d="M149.847 190.846L150.615 189C151.988 190.244 153.33 191.522 154.64 192.833L153.457 194.152C152.274 193.028 151.07 191.926 149.847 190.846Z" /><path fill="#FAF4F3" fill-opacity="0.40784314" d="M149.644 172.903C150.551 173.644 151.368 174.305 152.233 175.099L151.53 177.311C150.797 176.723 150.268 176.305 149.501 175.765L149.644 172.903Z" /><path fill="#F54915" d="M119.358 181.798C123.362 185.238 127.422 188.613 131.536 191.92C138.813 197.747 145.318 204.369 152.511 210.271C150.224 212.738 148.071 214.759 145.737 217.136L145.103 217.524C143.876 218.849 143.155 219.551 141.659 220.532C140.737 221.348 140.158 222.066 139.298 222.961C138.358 224.052 137.444 225.165 136.555 226.298L135.555 227.389C134.084 229.155 131.43 231.76 129.66 233.28C126.886 230.969 123.762 228.234 120.909 226.126C117.943 223.76 114.991 220.883 112.177 218.671C111.137 217.805 110.118 216.913 109.12 215.998C108.622 215.353 108.543 215.334 107.887 214.79C105.935 213.071 104.003 211.328 102.094 209.561C100.254 207.93 98.4816 206.189 96.6431 204.606C98.6104 202.732 100.545 200.824 102.447 198.883L103.462 197.613C104.709 196.736 105.681 195.721 106.816 194.696C107.668 193.667 108.282 192.997 109.214 192.057C110.137 191.013 111.075 189.982 112.028 188.966L113.059 188.17C115.239 186.127 117.34 184.002 119.358 181.798ZM114.698 196.636C114.16 197.519 113.745 198.072 113.133 198.896C112.628 199.106 112.494 199.122 112.134 199.357C113.566 200.63 114.723 201.498 116.18 202.876C116.694 203.336 117.216 203.786 117.747 204.227C118.466 204.815 118.801 205.106 119.46 205.752C121.473 207.576 124.352 210.12 126.431 211.855C127.693 213.14 129.572 214.843 130.95 216.045C131.306 214.263 131.294 213.512 132.112 211.969C131.417 211.185 130.522 210.538 129.699 209.882C127.27 207.607 124.761 205.451 122.298 203.188C121.346 202.414 120.519 201.681 119.609 200.858C119.027 200.331 118.438 199.813 117.841 199.303C117.105 198.752 116.707 198.395 116.043 197.781C115.6 197.393 115.152 197.011 114.698 196.636Z" /><path fill="#FEFEFE" fill-opacity="0.56470591" d="M122.298 203.188C124.761 205.451 127.27 207.607 129.699 209.882C127.112 210.443 128.885 211.092 126.431 211.855C124.352 210.12 121.473 207.576 119.46 205.752C120.69 204.756 121.269 204.403 122.298 203.188Z" /><path fill="#FEFEFE" fill-opacity="0.71764708" d="M129.699 209.882C130.522 210.538 131.417 211.185 132.112 211.969C131.294 213.512 131.306 214.263 130.95 216.045C129.572 214.843 127.693 213.14 126.431 211.855C128.885 211.092 127.112 210.443 129.699 209.882Z" /><path fill="#FEFEFE" fill-opacity="0.90980393" d="M116.043 197.781C116.707 198.395 117.105 198.752 117.841 199.303C117.768 200.89 117.703 200.996 116.697 202.229L116.18 202.876C114.723 201.498 113.566 200.63 112.134 199.357C112.494 199.122 112.628 199.106 113.133 198.896C115.085 200.239 114.829 200.072 116.043 197.781Z" /><path fill="#FEFEFE" fill-opacity="0.88627452" d="M119.609 200.858C120.519 201.681 121.346 202.414 122.298 203.188C121.269 204.403 120.69 204.756 119.46 205.752C118.801 205.106 118.466 204.815 117.747 204.227C118.553 203.319 118.95 202.813 119.329 201.659L119.609 200.858Z" /><path fill="#FEFEFE" fill-opacity="0.75294119" d="M117.841 199.303C118.438 199.813 119.027 200.331 119.609 200.858L119.329 201.659C118.95 202.813 118.553 203.319 117.747 204.227C117.216 203.786 116.694 203.336 116.18 202.876L116.697 202.229C117.703 200.996 117.768 200.89 117.841 199.303Z" /><path fill="#FEFEFE" fill-opacity="0.78431374" d="M114.698 196.636C115.152 197.011 115.6 197.393 116.043 197.781C114.829 200.072 115.085 200.239 113.133 198.896C113.745 198.072 114.16 197.519 114.698 196.636Z" /><path fill="#F54915" d="M103.462 197.613C104.709 196.736 105.681 195.721 106.816 194.696C108.593 196.277 110.376 197.747 112.134 199.357C113.566 200.63 114.723 201.498 116.18 202.876C116.694 203.336 117.216 203.786 117.747 204.227C118.466 204.815 118.801 205.106 119.46 205.752C121.473 207.576 124.352 210.12 126.431 211.855C127.693 213.14 129.572 214.843 130.95 216.045C133.773 218.372 136.423 220.629 139.298 222.961C138.358 224.052 137.444 225.165 136.555 226.298L135.555 227.389C134.084 229.155 131.43 231.76 129.66 233.28C126.886 230.969 123.762 228.234 120.909 226.126C117.943 223.76 114.991 220.883 112.177 218.671C111.137 217.805 110.118 216.913 109.12 215.998C108.622 215.353 108.543 215.334 107.887 214.79C105.935 213.071 104.003 211.328 102.094 209.561C100.254 207.93 98.4816 206.189 96.6431 204.606C98.6104 202.732 100.545 200.824 102.447 198.883L103.462 197.613Z" /><path fill="#F54915" d="M103.462 197.613C104.709 196.736 105.681 195.721 106.816 194.696C108.593 196.277 110.376 197.747 112.134 199.357C113.566 200.63 114.723 201.498 116.18 202.876C116.694 203.336 117.216 203.786 117.747 204.227C118.466 204.815 118.801 205.106 119.46 205.752C121.473 207.576 124.352 210.12 126.431 211.855C127.693 213.14 129.572 214.843 130.95 216.045C133.773 218.372 136.423 220.629 139.298 222.961C138.358 224.052 137.444 225.165 136.555 226.298L135.555 227.389C126.138 218.792 112.725 206.237 102.447 198.883L103.462 197.613Z" /><path fill="#FAF4F3" d="M103.462 197.613C113.57 204.412 127.49 217.737 136.555 226.298L135.555 227.389C126.138 218.792 112.725 206.237 102.447 198.883L103.462 197.613Z" /><path fill="#F54915" d="M113.059 188.17C118.084 191.673 123.59 197.121 128.154 201.276C133.654 206.284 140.834 211.686 145.737 217.136L145.103 217.524C143.876 218.849 143.155 219.551 141.659 220.532C140.737 221.348 140.158 222.066 139.298 222.961C136.423 220.629 133.773 218.372 130.95 216.045C131.306 214.263 131.294 213.512 132.112 211.969C131.417 211.185 130.522 210.538 129.699 209.882C127.27 207.607 124.761 205.451 122.298 203.188C121.346 202.414 120.519 201.681 119.609 200.858C119.027 200.331 118.438 199.813 117.841 199.303C117.105 198.752 116.707 198.395 116.043 197.781C115.6 197.393 115.152 197.011 114.698 196.636C114.16 197.519 113.745 198.072 113.133 198.896C112.628 199.106 112.494 199.122 112.134 199.357C110.376 197.747 108.593 196.277 106.816 194.696C107.668 193.667 108.282 192.997 109.214 192.057C110.137 191.013 111.075 189.982 112.028 188.966L113.059 188.17Z" /><path fill="#FAF4F3" d="M113.059 188.17C118.084 191.673 123.59 197.121 128.154 201.276C133.654 206.284 140.834 211.686 145.737 217.136L145.103 217.524C137.315 211.545 117.904 196.238 112.028 188.966L113.059 188.17Z" /><path fill="#FAF4F3" d="M130.95 216.045C131.306 214.263 131.294 213.512 132.112 211.969C135.265 214.851 138.502 217.609 141.659 220.532C140.737 221.348 140.158 222.066 139.298 222.961C136.423 220.629 133.773 218.372 130.95 216.045Z" /><path fill="#FEFEFE" d="M109.214 192.057C110.939 193.506 112.958 195.298 114.698 196.636C114.16 197.519 113.745 198.072 113.133 198.896C112.628 199.106 112.494 199.122 112.134 199.357C110.376 197.747 108.593 196.277 106.816 194.696C107.668 193.667 108.282 192.997 109.214 192.057Z" /><path fill="#F54915" d="M142.156 158.128C143.24 157.36 144.05 156.447 145.062 155.568C151.037 160.496 159.529 167.77 165.249 172.967C166.473 174.636 171.338 178.629 173.118 179.592C174.755 181.004 176.006 182.216 177.742 183.519C177.895 185.84 177.466 186.267 175.299 187.449C174.539 187.916 173.917 188.357 173.194 188.866C172.469 190.055 171.746 190.657 170.729 191.632C170.12 192.178 169.624 192.644 169.043 193.208C167.297 191.744 159.748 185.867 159.739 183.878L159.357 183.845C160.89 181.394 154.231 176.949 152.233 175.099C151.368 174.305 150.551 173.644 149.644 172.903C147.916 171.058 146.419 169.923 144.519 168.289C142.581 166.518 140.107 164.648 137.95 163.169C138.875 162.005 139.822 160.934 140.735 159.766L142.156 158.128Z" /><path fill="#F54915" d="M140.735 159.766C143.686 162.931 149.05 167.259 152.423 170.268L173.194 188.866C172.469 190.055 171.746 190.657 170.729 191.632C170.12 192.178 169.624 192.644 169.043 193.208C167.297 191.744 159.748 185.867 159.739 183.878L159.357 183.845C160.89 181.394 154.231 176.949 152.233 175.099C151.368 174.305 150.551 173.644 149.644 172.903C147.916 171.058 146.419 169.923 144.519 168.289C142.581 166.518 140.107 164.648 137.95 163.169C138.875 162.005 139.822 160.934 140.735 159.766Z" /><path fill="#FAF4F3" d="M159.739 183.878C161.461 182.647 161.4 183.56 163.245 185.005C165.855 187.051 168.209 189.45 170.729 191.632C170.12 192.178 169.624 192.644 169.043 193.208C167.297 191.744 159.748 185.867 159.739 183.878Z" /><path fill="#FAF4F3" d="M142.156 158.128C151.153 164.966 166.299 179.475 175.299 187.449C174.539 187.916 173.917 188.357 173.194 188.866L152.423 170.268C149.05 167.259 143.686 162.931 140.735 159.766L142.156 158.128Z" /><path fill="#F54915" d="M136.321 164.688C137.035 164.077 137.309 163.839 137.95 163.169C140.107 164.648 142.581 166.518 144.519 168.289C144.902 169.914 145.051 170.255 144.91 171.876C145.951 172.95 148.321 174.861 149.501 175.765C150.268 176.305 150.797 176.723 151.53 177.311C153.946 179.49 156.544 182.213 159.357 183.845L159.739 183.878C159.748 185.867 167.297 191.744 169.043 193.208C167.643 195.252 164.502 198.152 162.618 200.21C162.247 200.582 161.877 200.954 161.506 201.326C158.877 199.33 155.881 196.448 153.457 194.152L154.64 192.833C153.33 191.522 151.988 190.244 150.615 189C149.718 188.052 147.041 185.732 145.937 184.82C140.798 180.075 135.643 175.409 130.093 171.139C132.058 169.214 134.586 166.261 136.321 164.688Z" /><path fill="#FAF4F3" d="M136.321 164.688C137.035 164.077 137.309 163.839 137.95 163.169C140.107 164.648 142.581 166.518 144.519 168.289C144.902 169.914 145.051 170.255 144.91 171.876C142.022 169.51 139.159 167.114 136.321 164.688Z" /><path fill="#FAF4F3" d="M154.64 192.833C157.45 195.389 159.842 197.531 162.618 200.21C162.247 200.582 161.877 200.954 161.506 201.326C158.877 199.33 155.881 196.448 153.457 194.152L154.64 192.833Z" /><path fill="#F54915" d="M130.093 171.139C135.643 175.409 140.798 180.075 145.937 184.82L145.365 186.897C146.93 188.094 148.29 189.541 149.847 190.846C151.07 191.926 152.274 193.028 153.457 194.152C155.881 196.448 158.877 199.33 161.506 201.326C160.507 202.417 159.714 203.163 158.629 204.154C157.306 202.895 155.827 201.477 154.455 200.295C153.457 199.405 152.448 198.527 151.428 197.663C150.82 197.062 150.604 196.849 149.95 196.325C141.9 189.335 134.18 182.189 125.988 175.226C127.095 174.19 128.075 173.184 129.131 172.099L130.093 171.139Z" /><path fill="#FAF4F3" d="M130.093 171.139C135.643 175.409 140.798 180.075 145.937 184.82L145.365 186.897C141.599 183.577 131.853 175.585 129.131 172.099L130.093 171.139Z" /><path fill="#FEFEFE" d="M125.988 175.226C134.18 182.189 141.9 189.335 149.95 196.325C149.236 197.59 149.009 197.872 148.118 198.991C140.394 192.364 131.13 184.279 123.919 177.241C124.705 176.363 125.093 175.997 125.988 175.226Z" /><path fill="#FAF4F3" d="M120.779 180.197C131.51 188.985 143.825 199.37 153.582 209.167C153.225 209.535 152.868 209.903 152.511 210.271C145.318 204.369 138.813 197.747 131.536 191.92C127.422 188.613 123.362 185.238 119.358 181.798C119.848 181.226 120.263 180.761 120.779 180.197Z" /><path fill="#F54915" d="M96.6431 204.606C98.4816 206.189 100.254 207.93 102.094 209.561C101.408 210.185 100.912 210.661 100.262 211.315C102.072 212.743 103.72 214.247 105.452 215.765C106.358 216.612 107.179 217.444 108.174 218.181C109.184 218.985 109.954 219.613 110.891 220.515C113.434 223.044 116.852 225.692 119.586 228.121C122.343 230.583 125.28 232.681 127.983 235.143C126.924 236.204 126.185 236.792 125.018 237.727C124.467 238.269 123.909 238.805 123.345 239.334C121.505 241.249 115.293 247.859 113.279 248.893L112.425 250.055C111.473 251.277 110.844 251.959 109.628 252.901L108.744 253.864C107.924 255.793 103.785 259.891 102.202 261.602C100.737 262.996 99.8981 263.649 98.2516 264.771C95.7284 262.614 64.5344 236.046 64.6273 236.297C64.793 235.367 66.8963 233.653 67.5717 233.089C68.194 232.549 68.2455 232.504 68.9341 232.066C71.6135 229.779 73.2222 227.975 75.6901 225.527C76.0416 225.201 76.3883 224.87 76.7302 224.533C77.6962 223.501 78.6868 222.491 79.7013 221.506L80.9296 220.326C84.002 217.185 87.1094 214.079 90.2512 211.007L91.8458 209.36C92.8229 208.27 93.821 207.199 94.8395 206.147C95.4374 205.629 96.0386 205.116 96.6431 204.606ZM97.879 237.496C99.8964 239.506 103.16 242.005 105.408 244.095L106.736 243.288C108.792 244.878 111.308 247.156 113.279 248.893C115.293 247.859 121.505 241.249 123.345 239.334C123.909 238.805 124.467 238.269 125.018 237.727C126.185 236.792 126.924 236.204 127.983 235.143C125.28 232.681 122.343 230.583 119.586 228.121C116.852 225.692 113.434 223.044 110.891 220.515C109.954 219.613 109.184 218.985 108.174 218.181C107.179 217.444 106.358 216.612 105.452 215.765C103.72 214.247 102.072 212.743 100.262 211.315C100.912 210.661 101.408 210.185 102.094 209.561C100.254 207.93 98.4816 206.189 96.6431 204.606C96.0386 205.116 95.4374 205.629 94.8395 206.147C93.821 207.199 92.8229 208.27 91.8458 209.36L90.2512 211.007C87.1094 214.079 84.002 217.185 80.9296 220.326C82.4467 221.791 84.589 223.606 85.9107 225.133L85.4741 226.761C87.2797 227.941 96.4103 235.899 97.879 237.496Z" /><path fill="#FEFEFE" fill-opacity="0.10196079" d="M85.9107 225.133C89.3868 227.592 96.0338 233.874 99.2956 236.959L97.879 237.496C96.4103 235.899 87.2797 227.941 85.4741 226.761L85.9107 225.133Z" /><path fill="#FEFEFE" fill-opacity="0.48627451" d="M99.2956 236.959C100.18 237.409 105.531 242.286 106.736 243.288L105.408 244.095C103.16 242.005 99.8964 239.506 97.879 237.496L99.2956 236.959Z" /><path fill="#F54915" d="M96.6431 204.606C98.4816 206.189 100.254 207.93 102.094 209.561C101.408 210.185 100.912 210.661 100.262 211.315C102.072 212.743 103.72 214.247 105.452 215.765C106.358 216.612 107.179 217.444 108.174 218.181C109.184 218.985 109.954 219.613 110.891 220.515C113.434 223.044 116.852 225.692 119.586 228.121C122.343 230.583 125.28 232.681 127.983 235.143C126.924 236.204 126.185 236.792 125.018 237.727C124.467 238.269 123.909 238.805 123.345 239.334C121.505 241.249 115.293 247.859 113.279 248.893C111.308 247.156 108.792 244.878 106.736 243.288C105.531 242.286 100.18 237.409 99.2956 236.959C96.0338 233.874 89.3868 227.592 85.9107 225.133C84.589 223.606 82.4467 221.791 80.9296 220.326C84.002 217.185 87.1094 214.079 90.2512 211.007L91.8458 209.36C92.8229 208.27 93.821 207.199 94.8395 206.147C95.4374 205.629 96.0386 205.116 96.6431 204.606ZM109.267 224.119C108.924 225.12 108.546 226.107 108.133 227.081C109.546 228.276 110.856 229.442 112.302 230.61L114.712 232.472C115.403 231.41 115.481 231.288 116.348 230.332L113.535 227.845C112.107 226.607 110.673 225.384 109.267 224.119ZM96.8548 217.109C97.8088 218.052 98.653 218.824 99.6558 219.711C99.8063 217.96 99.623 217.764 100.204 216.106C99.6277 215.491 99.5225 215.446 98.8142 214.901C98.1723 215.647 97.5191 216.383 96.8548 217.109Z" /><path fill="#FEFEFE" fill-opacity="0.5529412" d="M108.133 227.081C108.546 226.107 108.924 225.12 109.267 224.119C110.673 225.384 112.107 226.607 113.535 227.845C113.206 229.382 113.217 229.283 112.302 230.61C110.856 229.442 109.546 228.276 108.133 227.081Z" /><path fill="#FAF4F3" fill-opacity="0.43529412" d="M113.535 227.845L116.348 230.332C115.481 231.288 115.403 231.41 114.712 232.472L112.302 230.61C113.217 229.283 113.206 229.382 113.535 227.845Z" /><path fill="#FEFEFE" fill-opacity="0.71764708" d="M98.8142 214.901C99.5225 215.446 99.6277 215.491 100.204 216.106C99.623 217.764 99.8063 217.96 99.6558 219.711C98.653 218.824 97.8088 218.052 96.8548 217.109C97.5191 216.383 98.1723 215.647 98.8142 214.901Z" /><path fill="#F54915" d="M96.6431 204.606C98.4816 206.189 100.254 207.93 102.094 209.561C101.408 210.185 100.912 210.661 100.262 211.315C102.072 212.743 103.72 214.247 105.452 215.765C106.358 216.612 107.179 217.444 108.174 218.181C109.184 218.985 109.954 219.613 110.891 220.515C113.434 223.044 116.852 225.692 119.586 228.121C122.343 230.583 125.28 232.681 127.983 235.143C126.924 236.204 126.185 236.792 125.018 237.727C124.467 238.269 123.909 238.805 123.345 239.334C120.372 237.2 117.382 234.982 114.712 232.472C115.403 231.41 115.481 231.288 116.348 230.332L113.535 227.845C112.107 226.607 110.673 225.384 109.267 224.119C108.924 225.12 108.546 226.107 108.133 227.081C105.394 224.913 102.4 221.979 99.6558 219.711C99.8063 217.96 99.623 217.764 100.204 216.106C99.6277 215.491 99.5225 215.446 98.8142 214.901C96.3949 212.93 94.3186 211.253 91.8458 209.36C92.8229 208.27 93.821 207.199 94.8395 206.147C95.4374 205.629 96.0386 205.116 96.6431 204.606Z" /><path fill="#FEFEFE" d="M100.204 216.106C103.136 218.74 106.267 221.583 109.267 224.119C108.924 225.12 108.546 226.107 108.133 227.081C105.394 224.913 102.4 221.979 99.6558 219.711C99.8063 217.96 99.623 217.764 100.204 216.106Z" /><path fill="#FAF4F3" d="M116.348 230.332C119.048 232.409 122.465 235.4 125.018 237.727C124.467 238.269 123.909 238.805 123.345 239.334C120.372 237.2 117.382 234.982 114.712 232.472C115.403 231.41 115.481 231.288 116.348 230.332Z" /><path fill="#FAF4F3" d="M96.6431 204.606C98.4816 206.189 100.254 207.93 102.094 209.561C101.408 210.185 100.912 210.661 100.262 211.315C98.3714 209.819 96.5174 207.887 94.8395 206.147C95.4374 205.629 96.0386 205.116 96.6431 204.606Z" /><path fill="#FAF4F3" d="M90.2512 211.007L91.8458 209.36C94.3186 211.253 96.3949 212.93 98.8142 214.901C98.1723 215.647 97.5191 216.383 96.8548 217.109C94.3019 214.891 92.5853 213.565 90.2512 211.007Z" /><path fill="#F54915" d="M67.5717 233.089C68.194 232.549 68.2455 232.504 68.9341 232.066C74.6839 238.029 81.5609 243.506 87.7228 249.088C92.1254 253.077 97.3734 256.663 101.274 261.164L102.202 261.602C100.737 262.996 99.8981 263.649 98.2516 264.771C95.7284 262.614 64.5344 236.046 64.6273 236.297C64.793 235.367 66.8963 233.653 67.5717 233.089Z" /><path fill="#FAF4F3" d="M67.5717 233.089C68.194 232.549 68.2455 232.504 68.9341 232.066C74.6839 238.029 81.5609 243.506 87.7228 249.088C92.1254 253.077 97.3734 256.663 101.274 261.164C96.9385 260.237 83.2968 246.579 78.9369 243.25C76.1947 241.156 69.7666 235.594 67.5717 233.089Z" /><path fill="#F54915" d="M80.9296 220.326C82.4467 221.791 84.589 223.606 85.9107 225.133L85.4741 226.761C87.2797 227.941 96.4103 235.899 97.879 237.496C99.8964 239.506 103.16 242.005 105.408 244.095L106.736 243.288C108.792 244.878 111.308 247.156 113.279 248.893L112.425 250.055C111.473 251.277 110.844 251.959 109.628 252.901C99.7591 243.111 87.1347 233.971 76.7302 224.533C77.6962 223.501 78.6868 222.491 79.7013 221.506L80.9296 220.326Z" /><path fill="#FEFEFE" d="M80.9296 220.326C82.4467 221.791 84.589 223.606 85.9107 225.133L85.4741 226.761C83.4243 225.368 81.4307 223.283 79.7013 221.506L80.9296 220.326Z" /><path fill="#FAF4F3" d="M106.736 243.288C108.792 244.878 111.308 247.156 113.279 248.893L112.425 250.055C110.324 248.047 108.36 246.543 106.132 244.704L105.408 244.095L106.736 243.288Z" /><path fill="#FAF4F3" d="M76.7302 224.533C87.1347 233.971 99.7591 243.111 109.628 252.901L108.744 253.864C105.752 250.697 101.499 247.721 98.1457 244.847L75.6901 225.527C76.0416 225.201 76.3883 224.87 76.7302 224.533Z" /><path fill="#F54915" d="M58.4971 242.225C62.6341 238.241 60.7481 239.324 64.8795 242.787C74.8077 251.107 84.0672 260.405 94.3556 268.276C93.2807 269.115 91.8149 270.968 90.5555 270.9C81.7604 261.178 67.8102 251.176 58.4971 242.225Z" /><path fill="#D09F81" d="M177.115 161.677C178.832 161.387 185.571 160.242 186.902 160.298C184.817 163.555 182.034 166.959 179.753 170.117C184.923 172.214 190.397 176.288 195.405 179.229C194.185 180.77 189.926 184.839 188.291 186.18C187.037 185.255 179.484 179.865 178.184 180.7C178.003 181.065 177.819 183.033 177.742 183.519C176.006 182.216 174.755 181.004 173.118 179.592C171.338 178.629 166.473 174.636 165.249 172.967C167.355 170.565 174.469 163.909 177.115 161.677Z" /><path fill="#FAF4F3" d="M173.118 179.592C177.119 177.993 177.624 180.62 177.742 183.519C176.006 182.216 174.755 181.004 173.118 179.592Z" /><path fill="#FAF4F3" fill-opacity="0.98823529" d="M119.586 228.121L120.909 226.126C123.762 228.234 126.886 230.969 129.66 233.28C129.057 233.919 128.555 234.472 127.983 235.143C125.28 232.681 122.343 230.583 119.586 228.121Z" /><path fill="#FAF4F3" fill-opacity="0.43137255" d="M112.177 218.671C114.991 220.883 117.943 223.76 120.909 226.126L119.586 228.121C116.852 225.692 113.434 223.044 110.891 220.515L112.177 218.671Z" /><path fill="#FAF4F3" fill-opacity="0.4627451" d="M100.262 211.315C100.912 210.661 101.408 210.185 102.094 209.561C104.003 211.328 105.935 213.071 107.887 214.79L105.452 215.765C103.72 214.247 102.072 212.743 100.262 211.315Z" /><path fill="#FEFEFE" fill-opacity="0.94117647" d="M154.455 200.295C155.827 201.477 157.306 202.895 158.629 204.154C157.988 204.732 157.356 205.32 156.734 205.918C155.175 204.779 153.574 203.689 152.137 202.395C153.025 201.576 153.622 201.172 154.455 200.295Z" /><path fill="#FAF4F3" fill-opacity="0.98431373" d="M151.428 197.663C152.448 198.527 153.457 199.405 154.455 200.295C153.622 201.172 153.025 201.576 152.137 202.395C151.403 201.793 150.708 201.228 149.951 200.653C150.456 199.608 150.878 198.696 151.428 197.663Z" /><path fill="#FAF4F3" fill-opacity="0.58039218" d="M107.887 214.79C108.543 215.334 108.622 215.353 109.12 215.998L108.174 218.181C107.179 217.444 106.358 216.612 105.452 215.765L107.887 214.79Z" /><path fill="#FAF4F3" fill-opacity="0.17647059" d="M109.12 215.998C110.118 216.913 111.137 217.805 112.177 218.671L110.891 220.515C109.954 219.613 109.184 218.985 108.174 218.181L109.12 215.998Z" /><path fill="#FEFEFE" fill-opacity="0.89411765" d="M149.95 196.325C150.604 196.849 150.82 197.062 151.428 197.663C150.878 198.696 150.456 199.608 149.951 200.653C149.324 200.068 148.771 199.555 148.118 198.991C149.009 197.872 149.236 197.59 149.95 196.325Z" /></svg>