<?xml version='1.0' encoding='utf-8'?>
<svg xmlns="http://www.w3.org/2000/svg" viewBox="775.1 410.9 225.2 359.2" width="512" height="512"><path fill="#F54915" d="M859.695 444.883C860.463 439.043 861.032 428.454 862.794 423.371C863.662 420.865 888.053 421.435 891.148 423.273C893.272 427.445 893.509 438.84 894.066 444.235C901.788 446.289 904.231 447.402 911.302 450.919C915.446 448.094 923.758 437.297 927.359 437.705C931.556 438.18 944.831 452.008 947.784 455.795C948.796 457.093 948.219 458.573 947.827 459.818C946.595 460.662 945.701 462.006 944.696 463.183C942.8 464.723 935.211 472.892 936.537 475.468C937.402 476.981 937.905 477.622 938.574 479.249L938.962 478.644C940.474 476.329 940.964 474.157 942.93 472.109C947.853 466.953 943.788 466.965 945.508 464.12C946.741 462.938 947.585 461.843 948.55 460.427C952.575 460.565 954.77 461.909 957.37 465.123C961.707 470.484 966.955 474.594 971.512 479.753C978.734 487.93 968.767 491.406 966.399 496.672C966.797 500.831 967.626 509.086 967.35 513.011C972.813 519.818 985.692 513.984 988.736 523.318C990.295 528.098 989.301 536.166 989.551 541.281C989.424 551.47 979.247 551.057 971.587 551.77C968 557.272 964.806 563.02 962.029 568.973C964.468 572.291 973.286 580.601 974.045 582.005C976.796 587.092 953.715 607.074 949.461 607.337C945.667 605.857 936.328 595.388 933.817 591.882C927.808 593.06 924.775 594.331 919.087 596.535C918.483 600.313 917.096 616.269 914.488 617.681C909.488 620.389 886.374 621.679 883.24 615.079C881.372 611.145 880.617 605.04 880.01 600.78C876.307 601.012 865.254 601.475 862.497 599.619C861.24 598.772 860.972 597.018 860.632 595.579C860.417 592.583 858.996 579.397 857.317 577.518C854.081 576.157 848.3 573.263 845.04 571.651L844.014 571.028C843.71 570.839 841.929 569.668 841.453 570.057C839.053 572.024 835.877 574.825 833.83 577.133C830.408 580.268 828.698 581.81 825.041 584.619C823.915 584.51 822.477 584.144 821.686 583.374C818.226 580.003 804.941 568.506 804.276 564.297C805.415 560.945 814.542 552.206 817.591 549.067C816.447 547.341 815.936 546.03 815.09 544.128C811.302 545.455 811.317 544.805 808.034 541.887C812.201 537.96 810.062 538.812 809.848 533.236C809.802 532.041 809.883 531.483 809.06 530.654C808.951 529.792 808.787 529.017 808.876 528.164C802.67 526.966 791.329 527.938 787.404 524.907C785.865 520.721 785.086 498.64 787.74 495.593C792.028 493.73 803.683 494.233 809.129 494.047C811.507 487.304 814.323 480.724 817.557 474.348C814.61 471.217 806.289 462.03 804.717 458.723C802.871 454.84 821.093 439.058 825.302 437.861C828.099 438.149 839.255 449.215 842.139 451.852C848.84 448.42 852.364 446.408 859.695 444.883ZM949.962 563.887C954.139 563.018 957.956 544.432 959.622 541.075C960.501 539.305 973.782 538.976 975.729 538.875C976.359 534.188 976.406 533.402 976.037 528.798C972.783 527.709 970.326 526.686 967.171 525.42C962.52 528.714 951.231 527.307 944.299 527.913C944.02 529.195 943.716 530.472 943.387 531.743C941.363 539.778 939.836 542.11 936.013 549.239C941.135 554.451 945.195 558.09 949.962 563.887ZM894.619 576.965C894.378 582.356 892.98 595.302 891.433 600.562C891.132 604.073 891.667 605.327 892.615 608.705C897.013 608.782 899.929 608.675 904.28 608.39C905.173 603.996 905.423 599.844 906.163 595.503C906.633 592.598 907.262 589.721 908.046 586.884C912.335 584.739 918.795 582.474 923.62 582.355C919.519 578.323 916.318 574.909 911.906 571.183C904.405 574.542 902.719 575.377 894.619 576.965ZM935.795 580.691C940.09 584.66 945.694 590.425 950.151 593.501C952.004 591.612 953.382 590.1 955.074 588.04L959.776 582.327C956.049 577.407 952.381 572.502 948.574 567.641C944.139 573.476 939.676 576.282 935.795 580.691ZM941.208 484.499C946.553 486.814 949.517 488.268 954.634 490.935C956.558 488.264 958.244 485.661 960.061 482.936C958.989 481.732 956.624 479.154 955.902 477.802C951.689 469.911 945.51 478.236 940.678 483.567C940.855 483.878 941.032 484.188 941.208 484.499ZM879.505 555.922C888.939 562.15 899.983 564.282 911.062 563.409L913.479 562.799C919.249 559.936 925.019 556.384 928.891 551.071C927.065 547.6 934.065 540.488 934.853 536.37C935.15 534.818 936.725 531.528 936.993 529.613C938.997 515.293 948.916 524.889 960.027 518.078L959.5 510.11C959.83 501.54 962.53 500.564 954.455 500.467L953.581 500.486C951.627 501.086 949.162 502.189 947.175 501.3C945.572 500.572 942.542 503.526 945.773 503.866C947.138 504.01 948.365 505.19 949.422 505.768C952.552 507.48 950.466 504.295 955.142 504.69C955.102 507.422 953.946 510.066 955 511.327C955.009 512.353 955.162 513.491 954.909 514.479C954.813 515.207 952.141 515.578 951.983 515.484C946.456 512.175 941.462 507.136 935.694 504.168C933.635 503.108 931.227 502.285 929.055 501.158C926.498 495.592 925.496 496.102 931.454 495.369C934.502 497.753 935.13 499.424 936.011 494.398C936.234 492.423 936.253 491.661 936.223 489.64C934.767 485.747 933.617 482.238 930.771 479.071C929.348 477.701 927.579 475.751 926.13 474.27C922.045 475.14 918.952 477.397 915.642 479.799C912.02 477.451 913.54 479.091 911.869 475.617C911.084 474.948 910.421 474.362 909.672 473.641C908.731 471.97 907.43 473.101 906.318 471.687C906.005 471.288 905.851 470.854 905.48 470.429L904.793 469.66L905.446 469.14C916.619 460.076 920.247 455.548 930.227 469.295C933.662 465.139 937.021 461.476 940.663 457.517C936.205 453.047 932.215 448.963 927.404 444.871C923.885 448.476 916.032 457.518 911.32 458.211C909.733 457.831 905.39 455.394 903.745 454.469C901.475 453.191 889.352 449.84 888.784 448.359C886.647 442.791 886.473 434.227 886.326 428.181C880.197 428.085 874.068 428.103 867.94 428.235C867.44 433.224 866.534 444.985 865.52 449.338C862.25 450.527 857.826 451.635 854.846 452.465C850.983 453.539 841.496 460.632 838.072 457.441C834.429 454.044 829.474 448.919 825.462 445.264C821.65 448.596 815.059 454.42 811.731 458.196C816.174 463.371 821.977 469.074 825.766 474.433C820.739 482.496 817.588 488.627 815.021 497.479C813.806 501.667 798.17 500.466 793.023 501.034C792.977 506.639 792.67 515.058 793.022 520.445C795.739 520.642 814.022 521.635 815.289 522.49C819.324 525.716 819.06 526.61 820.156 531.727L820.59 533.742C820.819 534.793 821.131 535.826 821.376 536.875L819.402 537.789C821 541.222 823.007 546.337 825.629 549.011C824.857 551.649 823.978 551.484 822.957 553.573C819.341 557.342 815.413 560.689 811.602 564.728C815.681 568.855 820.341 572.933 824.547 577.099C826.626 575.171 828.917 572.751 830.978 571.017C829.559 568.897 826.405 567.586 825.165 564.421C824.231 562.036 824.113 560.541 823.696 558.114C826.23 557.203 825.982 556.675 827.537 554.496C828.339 553.373 830.892 552.611 831.922 553.795C832.129 554.032 833.222 555.401 833.78 554.869C834.275 554.219 834.277 552.831 834.327 552.082C834.579 550.738 834.817 549.545 835.129 548.216C837.394 545.601 837.959 547.234 840.542 543.952C844.39 551.768 839.679 552.525 841.92 560.516L842.571 560.484C842.989 560.626 843.407 560.768 843.825 560.91C844.756 561.281 845.042 561.417 845.982 561.625C847.64 562.563 847.979 562.693 849.21 564.164C850.477 565.676 853.543 566.555 855.462 567.351C856.448 568.19 858.476 569.431 859.751 569.461C864.039 569.564 863.001 565.241 862.899 562.828C864.015 560.064 863.657 560.368 866.76 560.093C867.626 564.014 869 567.855 869.732 571.948C869.576 572.006 869.42 572.064 869.263 572.123C869.11 572.065 868.958 572.008 868.805 571.95C868.787 571.935 868.769 571.92 868.752 571.906C866.38 571.447 865.5 571.796 866.206 574.393C865.669 575.945 865.61 576.158 864.762 577.55C865.28 579.518 865.405 580.302 865.696 582.313C865.912 583.882 866.16 585.446 866.44 587.005C866.504 587.368 866.581 587.555 866.705 587.893L868.308 594.378L871.251 594.007C872.137 593.897 872.654 593.699 873.507 593.4C876.813 592.24 879.046 593.662 882.303 594.109L883.093 594.223C883.461 594.22 886.011 594.34 886.213 593.9C887.139 591.886 887.065 586.933 887.096 584.822C887.924 580.599 887.881 576.033 888.083 571.743C884.589 570.298 881.383 568.602 878.309 566.356C876.416 564.972 873.543 562.606 872.582 560.463C872.456 560.182 873.442 559.73 873.665 559.227C873.456 556.944 869.322 555.882 867.639 554.848C871.529 555.727 875.519 556.089 879.505 555.922ZM855.319 555.174C856.424 555.765 857.186 556.062 858.352 556.521C858.052 559.253 856.389 559.579 855.443 562.471L854.714 562.706C851.026 562.297 851.62 562.109 848.08 560.476L847.048 559.893C846.034 559.512 846.05 559.415 845.236 558.627C847.042 557.34 848.279 556.279 850.494 555.87L851.295 555.708C853.041 555.367 853.782 554.89 855.319 555.174ZM929.215 577.975C933.189 574.328 937.858 569.44 941.7 565.516C939.549 562.863 937.887 560.948 935.599 558.406L934.994 559.027C934.656 559.38 934.496 559.862 934.262 560.282C932.437 563.554 929.229 565.841 926.208 567.908C924.603 569.005 923.528 567.06 922.025 567.467C921.23 567.683 921.089 569.346 920.961 570.015C923.986 573.014 925.914 575.188 929.215 577.975ZM833.096 560.564C832.805 562.138 830.996 567.815 834.111 565.761C835.883 562.423 836.641 561.422 833.096 560.564Z" /><path fill="#CEA083" d="M967.35 513.011C972.813 519.818 985.692 513.984 988.736 523.318C990.295 528.098 989.301 536.166 989.551 541.281C989.424 551.47 979.247 551.057 971.587 551.77C968 557.272 964.806 563.02 962.029 568.973C964.468 572.291 973.286 580.601 974.045 582.005C976.796 587.092 953.715 607.074 949.461 607.337C945.667 605.857 936.328 595.388 933.817 591.882C927.808 593.06 924.775 594.331 919.087 596.535C918.483 600.313 917.096 616.269 914.488 617.681C909.488 620.389 886.374 621.679 883.24 615.079C881.372 611.145 880.617 605.04 880.01 600.78C882.334 600.486 888.801 600.59 891.433 600.562C891.132 604.073 891.667 605.327 892.615 608.705C897.013 608.782 899.929 608.675 904.28 608.39C905.173 603.996 905.423 599.844 906.163 595.503C906.633 592.598 907.262 589.721 908.046 586.884C912.335 584.739 918.795 582.474 923.62 582.355L929.057 587.133C931.296 585.109 933.606 582.799 935.795 580.691C940.09 584.66 945.694 590.425 950.151 593.501C952.004 591.612 953.382 590.1 955.074 588.04L959.776 582.327C956.049 577.407 952.381 572.502 948.574 567.641L949.962 563.887C954.139 563.018 957.956 544.432 959.622 541.075C960.501 539.305 973.782 538.976 975.729 538.875C976.359 534.188 976.406 533.402 976.037 528.798C972.783 527.709 970.326 526.686 967.171 525.42C966.945 522.054 966.723 516.224 967.35 513.011Z" /><path fill="#D19E7F" d="M808.876 528.164C809.712 529.197 814.078 541.559 815.09 544.128C811.302 545.455 811.317 544.805 808.034 541.887C812.201 537.96 810.062 538.812 809.848 533.236C809.802 532.041 809.883 531.483 809.06 530.654C808.951 529.792 808.787 529.017 808.876 528.164Z" /><path fill="#D19E7F" d="M852.27 548.193C855.608 550.452 859.233 552.254 863.049 553.552C861.168 553.885 859.066 553.748 857.528 554.11C855.335 552.519 853.932 550.349 852.27 548.193Z" /><path fill="#CEA083" fill-opacity="0.81176472" d="M859.538 540.011C863.399 540.513 865.032 543.031 863.029 546.454C859.204 544.887 855.655 542.717 852.518 540.026C853.53 540.264 854.536 540.526 855.536 540.81C858.556 542.41 859.459 543.438 859.538 540.011Z" /><path fill="#D19E7F" fill-opacity="0.11372549" d="M851.986 539.561C852.294 539.458 852.857 539.432 852.935 539.03C852.694 537.6 852.495 535.404 853.147 534.095C853.792 536.045 854.812 536.136 856.073 538.204L856.522 538.924C856.169 539.655 855.932 540.111 855.536 540.81C854.536 540.526 853.53 540.264 852.518 540.026C852.339 539.873 852.162 539.718 851.986 539.561Z" /><path fill="#D19E7F" fill-opacity="0.45882353" d="M856.522 538.924C857.794 539.632 858.119 539.622 859.538 540.011C859.459 543.438 858.556 542.41 855.536 540.81C855.932 540.111 856.169 539.655 856.522 538.924Z" /><path fill="#D19E7F" d="M867.639 554.848C871.529 555.727 875.519 556.089 879.505 555.922C888.939 562.15 899.983 564.282 911.062 563.409C904.638 568.162 896.035 571.06 888.083 571.743C884.589 570.298 881.383 568.602 878.309 566.356C876.416 564.972 873.543 562.606 872.582 560.463C872.456 560.182 873.442 559.73 873.665 559.227C873.456 556.944 869.322 555.882 867.639 554.848Z" /><path fill="#D09F81" d="M840.542 543.952C844.39 551.768 839.679 552.525 841.92 560.516C842.092 561.152 842.058 561.195 842.029 561.86C838.09 563.64 833.574 569.755 830.978 571.017C829.559 568.897 826.405 567.586 825.165 564.421C824.231 562.036 824.113 560.541 823.696 558.114C826.23 557.203 825.982 556.675 827.537 554.496C828.339 553.373 830.892 552.611 831.922 553.795C832.129 554.032 833.222 555.401 833.78 554.869C834.275 554.219 834.277 552.831 834.327 552.082C834.579 550.738 834.817 549.545 835.129 548.216C837.394 545.601 837.959 547.234 840.542 543.952ZM834.111 565.761C835.883 562.423 836.641 561.422 833.096 560.564C832.805 562.138 830.996 567.815 834.111 565.761Z" /><path fill="#D19E7F" fill-opacity="0.090196081" d="M833.096 560.564C836.641 561.422 835.883 562.423 834.111 565.761C830.996 567.815 832.805 562.138 833.096 560.564Z" /><path fill="#D09F81" d="M928.891 551.071C930.653 552.615 934.327 556.559 935.599 558.406L934.994 559.027C934.656 559.38 934.496 559.862 934.262 560.282C932.437 563.554 929.229 565.841 926.208 567.908C924.603 569.005 923.528 567.06 922.025 567.467C921.23 567.683 921.089 569.346 920.961 570.015C919.247 568.623 915.385 564.601 913.479 562.799C919.249 559.936 925.019 556.384 928.891 551.071Z" /><path fill="#D19E7F" d="M866.76 560.093C867.626 564.014 869 567.855 869.732 571.948C869.576 572.006 869.42 572.064 869.263 572.123C869.11 572.065 868.958 572.008 868.805 571.95C868.787 571.935 868.769 571.92 868.752 571.906C866.38 571.447 865.5 571.796 866.206 574.393C865.669 575.945 865.61 576.158 864.762 577.55L864.614 576.993C864.135 575.241 864.002 573.854 863.657 572.086C857.411 570.325 846.646 566.48 842.029 561.86C842.058 561.195 842.092 561.152 841.92 560.516L842.571 560.484C842.989 560.626 843.407 560.768 843.825 560.91C844.756 561.281 845.042 561.417 845.982 561.625C847.64 562.563 847.979 562.693 849.21 564.164C850.477 565.676 853.543 566.555 855.462 567.351C856.448 568.19 858.476 569.431 859.751 569.461C864.039 569.564 863.001 565.241 862.899 562.828C864.015 560.064 863.657 560.368 866.76 560.093Z" /><path fill="#CEA083" d="M845.236 558.627C847.042 557.34 848.279 556.279 850.494 555.87L851.295 555.708C853.041 555.367 853.782 554.89 855.319 555.174C856.424 555.765 857.186 556.062 858.352 556.521C858.052 559.253 856.389 559.579 855.443 562.471L854.714 562.706C851.026 562.297 851.62 562.109 848.08 560.476L847.048 559.893C846.034 559.512 846.05 559.415 845.236 558.627Z" /><path fill="#D19E7F" fill-opacity="0.78823531" d="M821.376 536.875L821.452 537.623C821.658 540.079 821.759 542.064 823.927 540.303C825.621 538.927 830.065 538.765 832.392 538.488C834.18 539.226 834.306 539.451 835.938 540.34C833.955 540.229 827.936 540.713 829.531 543.782C828.761 543.766 828.486 543.684 827.665 543.539C824.094 545.184 825.139 545.505 825.629 549.011C823.007 546.337 821 541.222 819.402 537.789L821.376 536.875Z" /><path fill="#D09F81" fill-opacity="0.78039217" d="M827.665 543.539C828.486 543.684 828.761 543.766 829.531 543.782C833.654 544.666 834.232 544.227 835.129 548.216C834.817 549.545 834.579 550.738 834.327 552.082C834.216 552.159 834.105 552.236 833.993 552.313C833.54 552.356 833.13 551.758 832.462 551.663C831.082 551.435 829.667 550.665 828.269 551.271C827.985 551.348 826.84 552.025 826.446 551.594C826.057 551.168 825.956 549.576 825.872 549.09C829.021 548.046 829.276 546.25 827.665 543.539Z" /><path fill="#D19E7F" fill-opacity="0.98431373" d="M872.936 580.935C876.531 585.896 880.102 580.024 884.805 585.998C883.89 587.251 881.634 586.87 879.704 587.384C876.859 587.593 873.947 587.954 871.778 586.097C871.949 583.258 872.062 583.664 872.936 580.935Z" /><path fill="#D09F81" fill-opacity="0.88235295" d="M829.531 543.782C827.936 540.713 833.955 540.229 835.938 540.34C839.382 541.672 838.474 541.055 840.542 543.952C837.959 547.234 837.394 545.601 835.129 548.216C834.232 544.227 833.654 544.666 829.531 543.782Z" /><path fill="#CEA083" fill-opacity="0.87843138" d="M863.049 553.552C863.906 553.844 864.772 554.109 865.645 554.349C865.716 557.208 865.585 557.249 866.76 560.093C863.657 560.368 864.015 560.064 862.899 562.828C860.497 562.884 858.384 563.003 855.991 562.679C856.307 562.388 857.046 561.512 857.293 561.362L857.248 561.364C858.384 561.804 859.122 561.745 860.339 561.03L860.246 561.005C861.8 560.075 864.756 557.054 861.25 555.987C861.382 556.027 858.437 556.507 858.352 556.521C857.186 556.062 856.424 555.765 855.319 555.174C856.024 554.844 856.862 554.476 857.528 554.11C859.066 553.748 861.168 553.885 863.049 553.552Z" /><path fill="#D19E7F" fill-opacity="0.90588236" d="M869.732 571.948C870.614 574.143 872.208 578.641 872.936 580.935C872.062 583.664 871.949 583.258 871.778 586.097L871.522 585.882C867.692 581.772 868.963 583.106 868.363 577.254C867.804 575.568 867.957 574.603 866.206 574.393C865.5 571.796 866.38 571.447 868.752 571.906C868.769 571.92 868.787 571.935 868.805 571.95C868.958 572.008 869.11 572.065 869.263 572.123C869.42 572.064 869.576 572.006 869.732 571.948Z" /><path fill="#D19E7F" fill-opacity="0.32941177" d="M855.443 562.471L855.991 562.679C858.384 563.003 860.497 562.884 862.899 562.828C863.001 565.241 864.039 569.564 859.751 569.461C858.476 569.431 856.448 568.19 855.462 567.351C856.093 564.925 857.193 563.932 854.714 562.706L855.443 562.471Z" /><path fill="#D19E7F" fill-opacity="0.84313726" d="M825.629 549.011L825.872 549.09C825.956 549.576 826.057 551.168 826.446 551.594C826.84 552.025 827.985 551.348 828.269 551.271C829.667 550.665 831.082 551.435 832.462 551.663C833.13 551.758 833.54 552.356 833.993 552.313C834.105 552.236 834.216 552.159 834.327 552.082C834.277 552.831 834.275 554.219 833.78 554.869C833.222 555.401 832.129 554.032 831.922 553.795C830.892 552.611 828.339 553.373 827.537 554.496C825.982 556.675 826.23 557.203 823.696 558.114C823.457 556.098 823.717 555.407 822.957 553.573C823.978 551.484 824.857 551.649 825.629 549.011Z" /><path fill="#D09F81" d="M815.289 522.49C819.324 525.716 819.06 526.61 820.156 531.727L820.59 533.742C820.819 534.793 821.131 535.826 821.376 536.875L819.402 537.789C816.873 532.299 816.081 528.382 815.289 522.49Z" /><path fill="#CEA083" fill-opacity="0.17647059" d="M848.08 560.476C851.62 562.109 851.026 562.297 854.714 562.706C857.193 563.932 856.093 564.925 855.462 567.351C853.543 566.555 850.477 565.676 849.21 564.164C847.979 562.693 847.64 562.563 845.982 561.625C846.896 561.04 847.111 560.9 848.08 560.476Z" /><path fill="#CEA083" fill-opacity="0.92941177" d="M858.352 556.521C858.437 556.507 861.382 556.027 861.25 555.987C864.756 557.054 861.8 560.075 860.246 561.005L860.339 561.03C859.122 561.745 858.384 561.804 857.248 561.364L857.293 561.362C857.046 561.512 856.307 562.388 855.991 562.679L855.443 562.471C856.389 559.579 858.052 559.253 858.352 556.521Z" /><path fill="#CEA083" fill-opacity="0.41176471" d="M868.363 577.254C868.963 583.106 867.692 581.772 871.522 585.882C871.058 586.035 866.835 587.69 866.705 587.893C866.581 587.555 866.504 587.368 866.44 587.005C866.16 585.446 865.912 583.882 865.696 582.313C867.813 581.66 868.047 578.988 868.363 577.254Z" /><path fill="#D19E7F" fill-opacity="0.80392158" d="M887.096 584.822C887.065 586.933 887.139 591.886 886.213 593.9C886.011 594.34 883.461 594.22 883.093 594.223C889.854 587.393 885.796 587.367 879.704 587.384C881.634 586.87 883.89 587.251 884.805 585.998C885.843 585.146 885.799 585.205 887.096 584.822Z" /><path fill="#CEA083" fill-opacity="0.20784314" d="M866.206 574.393C867.957 574.603 867.804 575.568 868.363 577.254C868.047 578.988 867.813 581.66 865.696 582.313C865.405 580.302 865.28 579.518 864.762 577.55C865.61 576.158 865.669 575.945 866.206 574.393Z" /><path fill="#D19E7F" fill-opacity="0.59607846" d="M827.665 543.539C829.276 546.25 829.021 548.046 825.872 549.09L825.629 549.011C825.139 545.505 824.094 545.184 827.665 543.539Z" /><path fill="#D19E7F" fill-opacity="0.83137256" d="M845.236 558.627C846.05 559.415 846.034 559.512 847.048 559.893C845.969 560.217 844.894 560.556 843.825 560.91C843.407 560.768 842.989 560.626 842.571 560.484C843.719 559.548 843.967 559.325 845.236 558.627Z" /><path fill="#CEA083" fill-opacity="0.34117648" d="M843.825 560.91C844.894 560.556 845.969 560.217 847.048 559.893L848.08 560.476C847.111 560.9 846.896 561.04 845.982 561.625C845.042 561.417 844.756 561.281 843.825 560.91Z" /><path fill="#D19E7F" fill-opacity="0.25882354" d="M947.804 754.653C948.375 755.714 948.589 756.338 948.973 757.458C947.902 760.099 947.146 759.683 944.136 759.685C944.493 757.32 944.589 757.66 944.296 755.296C945.877 755.384 947.141 755.835 947.804 754.653Z" /><path fill="#CEA083" d="M833.83 577.133C832.974 580.212 830.079 585.477 835.813 581.563C837.069 580.705 837.824 581.598 839.234 582.104C842.051 584.598 843.788 586.803 847.038 589.534L847.861 588.938C850.066 587.417 853.342 584.076 855.168 582.033C856.414 584.722 856.278 584.356 856.458 587.264C855.997 588.943 855.992 593.355 856.003 595.191C857.051 596.477 857.724 596.493 859.424 596.824C858.01 598.858 855.277 603.194 852.999 603.884C843.684 606.706 835.618 589.509 825.041 584.619C828.698 581.81 830.408 580.268 833.83 577.133Z" /><path fill="#D09F81" fill-opacity="0.81960785" d="M833.83 577.133C835.877 574.825 839.053 572.024 841.453 570.057C841.929 569.668 843.71 570.839 844.014 571.028L845.04 571.651L842.967 572.405C841.396 572.979 841.96 573.926 842.047 575.258C842.18 577.306 840.17 580.333 839.234 582.104C837.824 581.598 837.069 580.705 835.813 581.563C830.079 585.477 832.974 580.212 833.83 577.133Z" /><path fill="#D09F81" fill-opacity="0.80784315" d="M857.317 577.518C858.996 579.397 860.417 592.583 860.632 595.579L859.424 596.824C857.724 596.493 857.051 596.477 856.003 595.191C860.74 594.001 858.682 589.887 858.196 586.782C857.974 585.297 857.646 584.081 857.435 582.749L857.089 580.495C857.15 579.462 857.216 578.549 857.317 577.518Z" /><path fill="#D19E7F" fill-opacity="0.24705882" d="M809.06 530.654C809.883 531.483 809.802 532.041 809.848 533.236C810.062 538.812 812.201 537.96 808.034 541.887C807.567 540.735 807.356 540.182 807.149 538.953C808.493 536.754 808.54 534.545 807.131 532.407C807.404 530.239 808.377 532.769 809.06 530.654Z" /><path fill="#CEA083" fill-opacity="0.56470591" d="M856.458 587.264L858.196 586.782C858.682 589.887 860.74 594.001 856.003 595.191C855.992 593.355 855.997 588.943 856.458 587.264Z" /><path fill="#D19E7F" fill-opacity="0.21960784" d="M855.168 582.033C855.799 581.064 856.077 581.001 857.089 580.495L857.435 582.749C857.646 584.081 857.974 585.297 858.196 586.782L856.458 587.264C856.278 584.356 856.414 584.722 855.168 582.033Z" /><path fill="#D19E7F" fill-opacity="0.59607846" d="M807.131 532.407C808.54 534.545 808.493 536.754 807.149 538.953C806.687 535.722 806.687 535.655 807.131 532.407Z" /></svg>