<?xml version='1.0' encoding='utf-8'?>
<svg xmlns="http://www.w3.org/2000/svg" viewBox="278.4 287.5 233.6 193.1" width="512" height="512"><path fill="#F74C1B" d="M298.127 402.033C296.89 399.523 295.865 396.995 295.709 394.162C295.768 382.362 294.736 369.233 295.534 357.455C296.87 337.751 288.444 309.975 310.744 300.084C313.288 298.948 316.003 298.242 318.779 297.998C325.265 297.472 334.641 297.657 341.275 297.641C354.747 297.611 368.218 297.65 381.689 297.758C400.512 297.848 419.454 297.469 438.248 298.083C447.859 298.397 454.753 306.192 458.391 314.348C470.512 314.135 486.202 311.862 495.329 321.189C500.533 326.506 501.947 332.059 501.944 339.28C501.934 362.532 502.039 385.784 501.909 409.034C501.481 438.393 475.446 433.905 454.933 434.053C432.314 434.555 408.632 433.148 386.203 434.25C377.779 443.238 369.212 452.093 360.506 460.809C358.345 463.006 352.818 469.178 350.532 470.541L349.446 470.544C347.489 467.744 348.299 439.631 348.319 434.515C331.173 433.458 320.812 434.281 314.142 415.004C312.957 414.374 312.204 413.837 310.929 413.577C310.975 412.05 310.881 411.016 311.286 409.54C312.021 407.474 313.209 405.923 313.532 404.004C314.358 401.158 312.347 396.868 312.584 394.5C313.611 384.198 312.696 372.977 313.362 362.805C313.564 347.847 311.29 345.881 314.05 330.189C298.461 331.119 301.543 346.837 301.371 357.918C301.198 369.059 301.768 380.296 301.44 391.442C299.761 394.568 300.251 398.068 298.127 402.033ZM314.05 330.189C315.652 326.249 317.324 322.748 320.47 319.732C323.208 317.084 326.693 315.341 330.454 314.737C337.936 313.482 363.488 314.031 372.673 314.032C401.246 313.929 429.82 314.035 458.391 314.348C454.753 306.192 447.859 298.397 438.248 298.083C419.454 297.469 400.512 297.848 381.689 297.758C368.218 297.65 354.747 297.611 341.275 297.641C334.641 297.657 325.265 297.472 318.779 297.998C316.003 298.242 313.288 298.948 310.744 300.084C288.444 309.975 296.87 337.751 295.534 357.455C294.736 369.233 295.768 382.362 295.709 394.162C295.865 396.995 296.89 399.523 298.127 402.033C300.251 398.068 299.761 394.568 301.44 391.442C301.768 380.296 301.198 369.059 301.371 357.918C301.543 346.837 298.461 331.119 314.05 330.189ZM394.201 318.131L352.786 318.122C344.306 318.134 332.993 316.908 325.439 320.596C320.139 324.566 322.141 325.229 319.769 330.679C318.599 330.95 318.991 330.768 317.991 331.477C317.182 335.731 317.453 360.042 317.568 366.658C317.833 381.802 316.842 400.556 318.499 415.598C318.769 418.05 321.826 422.454 323.735 424.3C331.556 431.859 341.911 430.579 351.961 430.432C351.935 438.205 351.484 456.141 352.685 462.94C356.258 460.151 362.099 453.802 365.37 450.392L384.458 430.406C391.27 429.936 402.432 430.286 409.503 430.289L456.643 430.24C467.187 430.201 484.426 432.21 492.165 424.468C497.63 419 497.983 414.021 498.035 406.799L498.035 358.654C498.058 352.483 497.916 345.995 498.088 339.877C498.815 314.027 474.22 317.929 456.005 317.906C440.501 317.836 424.997 317.867 409.494 317.998C404.362 318.203 399.338 318.005 394.201 318.131ZM409.591 327.122C409.353 328.659 409.371 330.395 408.476 331.353C399.086 331.888 386.63 331.547 377.015 331.529C360.356 331.571 343.697 331.45 327.04 331.166C327.904 328.655 327.425 328.884 329.483 327.097C334.599 325.177 342.891 325.959 348.731 325.953L383.433 326.049C387.369 326.07 401.633 326.752 404.141 324.924C407.604 323.252 408.538 324.229 409.591 327.122Z" /><path fill="#A97E66" d="M298.127 402.033C296.89 399.523 295.865 396.995 295.709 394.162C295.768 382.362 294.736 369.233 295.534 357.455C296.87 337.751 288.444 309.975 310.744 300.084C313.288 298.948 316.003 298.242 318.779 297.998C325.265 297.472 334.641 297.657 341.275 297.641C354.747 297.611 368.218 297.65 381.689 297.758C400.512 297.848 419.454 297.469 438.248 298.083C447.859 298.397 454.753 306.192 458.391 314.348C429.82 314.035 401.246 313.929 372.673 314.032C363.488 314.031 337.936 313.482 330.454 314.737C326.693 315.341 323.208 317.084 320.47 319.732C317.324 322.748 315.652 326.249 314.05 330.189C298.461 331.119 301.543 346.837 301.371 357.918C301.198 369.059 301.768 380.296 301.44 391.442C299.761 394.568 300.251 398.068 298.127 402.033ZM449.375 309.29C444.752 307.792 417.767 308.422 411.88 308.763C415.613 309.46 445.082 309.851 449.375 309.29ZM390.127 309.253C385.986 308.458 373.005 308.465 368.874 309.246C373.576 309.702 385.498 309.695 390.127 309.253ZM313.66 321.838C313.841 321.627 314.022 321.416 314.202 321.205C314 321.362 313.798 321.519 313.596 321.676C313.465 322.009 313.335 322.342 313.204 322.675C313.356 322.396 313.508 322.117 313.66 321.838Z" /><path fill="#A57B61" fill-opacity="0.53725493" d="M411.88 308.763C417.767 308.422 444.752 307.792 449.375 309.29C445.082 309.851 415.613 309.46 411.88 308.763Z" /><path fill="#A57B61" fill-opacity="0.67058825" d="M368.874 309.246C373.005 308.465 385.986 308.458 390.127 309.253C385.498 309.695 373.576 309.702 368.874 309.246Z" /><path fill="#A57B61" fill-opacity="0.92941177" d="M313.596 321.676C313.798 321.519 314 321.362 314.202 321.205C314.022 321.416 313.841 321.627 313.66 321.838C313.508 322.117 313.356 322.396 313.204 322.675C313.335 322.342 313.465 322.009 313.596 321.676Z" /><path fill="#C39C8A" d="M311.286 409.54C312.021 407.474 313.209 405.923 313.532 404.004C314.358 401.158 312.347 396.868 312.584 394.5C313.611 384.198 312.696 372.977 313.362 362.805C314.67 379.73 313.063 397.997 314.142 415.004C312.957 414.374 312.204 413.837 310.929 413.577C310.975 412.05 310.881 411.016 311.286 409.54Z" /><path fill="#F74C1B" d="M461.762 331.738C463.619 333.228 465.793 339.425 466.402 341.762L467.154 344.676C471.804 344.828 476.722 345.09 481.401 345.291C478.055 348.55 474.904 351.983 471.616 355.147C472.453 359.884 473.103 363.96 474.251 368.677C469.553 366.468 466.353 365.074 461.833 362.522C460.575 361.825 451.132 368.161 448.938 369.282C449.295 367.859 449.626 366.429 449.931 364.994C450.09 364.159 450.264 363.328 450.44 362.496L450.944 359.747C451.251 358.102 451.512 356.449 451.728 354.79C447.538 350.835 445.871 349.986 442.662 345.059C447.961 344.441 450.768 344.557 456.053 344.472C458.226 340.211 459.836 336.117 461.762 331.738ZM455.92 356.116C456.953 358.494 457.572 358.002 460.052 357.911C463.315 357.261 465.812 360.667 467.211 360.062C469.591 357.833 466.433 355.35 468.205 352.147C471.076 346.96 465.003 351.016 463.23 345.497C462.032 345.603 461.426 345.682 460.251 345.901C458.943 351.179 454.013 345.628 453.534 350.783C453.417 352.046 455.572 353.32 455.92 356.116Z" /><path fill="#FEFEFE" d="M455.92 356.116C456.953 358.494 457.572 358.002 460.052 357.911C458.534 359.383 456.024 361.346 454.291 362.84C454.77 360.955 455.373 357.764 455.92 356.116Z" /><path fill="#FEFEFE" d="M460.251 345.901C461.501 341.461 463.331 339.086 463.23 345.497C462.032 345.603 461.426 345.682 460.251 345.901Z" /><path fill="#F75322" d="M474.466 378.338C475.018 378.303 474.662 378.273 475.451 378.762C475.813 381.014 475.979 380.004 475.212 381.933C473.529 382.968 467.423 382.485 465.036 382.482L439.178 382.473L343.478 382.616C342.524 381.729 342.392 380.852 342.502 379.687C344.893 377.635 356.149 378.46 360.058 378.473L387.202 378.489L474.466 378.338Z" /><path fill="#F75322" d="M344.13 401.803C354.375 400.952 372.827 401.757 384.003 401.862C407.666 402.07 431.33 402.131 454.993 402.044C460.018 402.028 469.475 401.474 474.224 402.48C475.041 402.653 474.986 403.171 475.337 404.11C474.945 405.336 475.02 405.282 474.003 406.055L381.179 405.887L357.721 405.824C354.547 405.837 345.27 406.588 343.089 404.951C342.666 403.479 342.695 403.586 343.215 402.134L344.13 401.803Z" /><path fill="#F74C1B" d="M342.7 354.491L390.154 354.435C399.155 354.427 410.801 354.078 419.633 354.653C420.305 355.727 420.114 357.014 420.195 358.497C395.908 358.647 367.649 359.082 343.554 358.322C342.605 357.3 342.866 356.261 342.7 354.491Z" /><path fill="#D6B8AB" d="M404.141 324.924C407.604 323.252 408.538 324.229 409.591 327.122C409.353 328.659 409.371 330.395 408.476 331.353C399.086 331.888 386.63 331.547 377.015 331.529C360.356 331.571 343.697 331.45 327.04 331.166C327.904 328.655 327.425 328.884 329.483 327.097C334.599 325.177 342.891 325.959 348.731 325.953L383.433 326.049C387.369 326.07 401.633 326.752 404.141 324.924Z" /><path fill="#D6B8AB" fill-opacity="0.19607843" d="M325.439 320.596C324.581 322.582 323.688 324.285 322.791 326.232C325.08 326.464 326.725 326.537 328.988 326.999L329.483 327.097C327.425 328.884 327.904 328.655 327.04 331.166C323.527 330.859 323.437 330.53 319.769 330.679C322.141 325.229 320.139 324.566 325.439 320.596Z" /><path fill="#D6B8AB" fill-opacity="0.10980392" d="M394.201 318.131C399.338 318.005 404.362 318.203 409.494 317.998C409.033 321.417 409.706 323.757 409.591 327.122C408.538 324.229 407.604 323.252 404.141 324.924C404.098 323.519 403.962 321.876 404.005 320.499L404.073 318.709C400.392 318.627 397.677 319.071 394.201 318.131Z" /><path fill="#C39C8A" d="M298.127 402.033C300.251 398.068 299.761 394.568 301.44 391.442C301.799 395.696 303.365 404.162 307.983 405.946C308.01 408.879 308.111 409.131 307.577 411.953C302.764 409.528 300.373 407.025 298.127 402.033Z" /><path fill="#C39C8A" fill-opacity="0.015686275" d="M307.983 405.946C308.682 406.67 308.826 406.978 309.426 407.709L309.411 407.658C309.991 407.599 311.066 409.262 311.286 409.54C310.881 411.016 310.975 412.05 310.929 413.577C309.815 413.028 308.683 412.516 307.577 411.953C308.111 409.131 308.01 408.879 307.983 405.946Z" /></svg>