<?xml version='1.0' encoding='utf-8'?>
<svg xmlns="http://www.w3.org/2000/svg" viewBox="25.5 510.9 227.3 218.7" width="512" height="512"><path fill="#F74C1B" d="M121.246 526.074C124.068 524.02 127.062 522.962 130.639 523.865C135.739 525.153 154.149 520.945 154.567 525.992C156.75 534.255 153.381 537.159 162.711 537.901C163.785 538.125 164.463 537.997 164.682 538.76C166.405 544.747 166.729 553.204 167.809 559.463C174.54 561.587 179.199 563.353 185.502 566.515C190.733 562.142 197.559 556.138 203.111 552.501C211.107 559.419 216.907 566.647 223.828 574.551C220.545 579.329 215.73 585.891 213.69 591.122C217.182 597.59 219.714 603.035 220.972 610.385C227.384 611.086 235.749 612.011 242.027 613.253C242.265 619.255 242.786 636.208 242.184 641.782C235.587 643.247 227.762 644.42 221.044 645.34C218.699 653.486 216.904 658.358 212.888 665.878C215.857 670.639 220.642 679.233 223.576 683.367C220.261 689.07 209.534 698.914 203.79 702.257C201.795 703.419 189.785 691.96 187.657 690.049C180.992 692.991 175.297 695.333 168.284 697.595C166.892 702.964 164.289 714.453 162.525 719.201C153.51 719.376 143.765 719.612 134.77 719.425C133.144 712.368 131.927 704.381 130.689 697.174C124.377 696.205 117.94 693.296 112.453 690.097C106.074 694.817 101.045 699.646 95.0893 704.358C89.1775 698.548 78.2157 688.47 74.4933 681.748C71.3764 678.848 68.2282 681.086 64.7275 682.546C61.3032 679.144 59.4674 676.123 55.5678 673.397C53.6172 672.033 51.5073 669.789 49.944 667.966C53.5574 662.295 62.435 650.304 66.5832 644.906C64.2038 643.662 64.7653 642.319 61.6933 641.045C58.4226 639.871 59.4478 634.992 59.5917 632.056C51.8963 630.455 44.6007 630.42 36.8595 629.865C35.9832 621.935 35.5842 608.915 35.4814 600.827C37.0933 600.46 38.8971 600.088 40.5257 599.794L56.5679 596.646C58.581 590.262 60.0153 586.475 64.1937 581.239C60.0456 574.471 54.1898 569.051 50.3143 562.099C53.7999 558.093 56.2872 556.202 60.089 552.595C65.6537 547.315 71.0351 541.653 76.8588 536.644C79.3809 539.073 81.9731 541.428 84.6319 543.707C85.5568 544.507 85.634 544.421 86.2646 545.376C87.8856 547.353 88.9203 548.702 90.7065 550.62C96.4872 548.087 101.412 546.457 107.775 545.988C110.411 539.741 113.049 533.269 115.858 527.143C117.808 526.539 119.17 526.108 121.246 526.074ZM71.911 606.29C79.402 607.798 78.9799 609.626 81.1736 601.848L81.3026 601.404C81.4467 601.03 82.1133 599.54 82.1038 599.235C81.9587 594.542 88.5398 591.9 85.164 587.624L84.5935 586.876C83.1882 585.629 83.0245 585.306 81.7679 583.887L81.1654 583.218C80.1573 581.614 79.2407 580.009 78.2356 578.402L77.6989 577.537L78.5362 576.185L75.9272 572.233C80.7977 567.505 93.0177 555.954 98.3592 552.191C99.9719 553.355 101.42 554.488 102.98 555.723L105.135 554.33C106.673 555.786 107.015 556.058 108.259 557.799C113.192 563.921 114.688 565.357 121.66 560.974C122.666 560.678 122.992 560.369 123.908 559.933C126.156 559.518 129.873 559.623 131.141 557.628L131.43 557.187C131.696 555.346 131.533 555.046 132.468 553.525C133.253 549.097 133.84 542.804 134.561 538.077C143.516 538.091 153.867 538.351 162.711 537.901C153.381 537.159 156.75 534.255 154.567 525.992C154.149 520.945 135.739 525.153 130.639 523.865C127.062 522.962 124.068 524.02 121.246 526.074C119.17 526.108 117.808 526.539 115.858 527.143C113.049 533.269 110.411 539.741 107.775 545.988C101.412 546.457 96.4872 548.087 90.7065 550.62C88.9203 548.702 87.8856 547.353 86.2646 545.376C85.634 544.421 85.5568 544.507 84.6319 543.707C81.9731 541.428 79.3809 539.073 76.8588 536.644C71.0351 541.653 65.6537 547.315 60.089 552.595C56.2872 556.202 53.7999 558.093 50.3143 562.099C54.1898 569.051 60.0456 574.471 64.1937 581.239C60.0153 586.475 58.581 590.262 56.5679 596.646L40.5257 599.794C38.8971 600.088 37.0933 600.46 35.4814 600.827C35.5842 608.915 35.9832 621.935 36.8595 629.865C44.6007 630.42 51.8963 630.455 59.5917 632.056C59.9353 629.973 59.9025 627.809 59.9558 625.691L59.9768 611.565L60.5408 610.35C65.8877 610.87 62.9244 607.228 67.7514 606.913C69.3107 606.811 70.441 606.798 71.911 606.29ZM80.0094 663.124C80.685 664.951 80.6389 665.855 80.6323 667.846C79.2314 669.49 76.6111 673.007 75.5943 674.933C77.0876 673.931 78.2191 672.642 79.5223 671.843C81.1689 670.692 82.2277 670.069 83.837 668.786C84.6939 667.578 85.6382 666.425 86.5253 665.237C85.8319 664.535 85.1444 663.826 84.4629 663.112C84.0038 662.018 83.4954 660.95 83.0742 659.841C82.4684 658.205 81.9734 656.54 81.4513 654.877C80.9531 652.788 79.6828 650.91 79.008 648.034C78.4614 646.013 78.4604 645.78 77.5051 643.943C76.4968 644.389 75.5267 644.831 74.5 645.234C73.3785 646.754 73.6319 646.488 74.8289 647.686C73.9469 650.776 72.9856 652.566 71.984 655.47C79.1637 659.373 78.1419 656.796 80.0094 663.124ZM218.87 574.672C214.149 568.976 207.779 562.547 202.553 557.307C198.036 560.985 190.066 568.562 185.691 571.484C179.399 566.92 172.769 565.188 165.455 563.097C164.703 562.944 164.326 562.971 163.703 562.525C163.462 559.421 162.929 556.846 162.933 553.769C162.393 553.072 161.7 552.472 161.311 551.67L160.916 550.879C161.525 545.021 161.608 546.4 157.582 541.952L157.686 541.587C155.648 541.527 148.967 541.413 147.131 541.841C143.931 541.906 140.731 541.939 137.531 541.939L137.267 543.832C136.79 547.362 136.633 560.272 134.682 563.145C134.151 563.926 128.442 565.053 126.952 565.375C124.578 566.442 117.712 568.483 116.641 570.624C116.3 570.658 114.113 570.991 113.811 570.733C109.121 566.718 105.126 561.768 100.259 557.922C99.6767 557.461 99.351 557.58 98.6869 557.712C95.7809 559.426 95.0334 560.197 92.6079 562.444C91.2792 563.294 87.2764 567.478 85.7009 568.914L85.3104 569.271C83.3601 571.008 83.303 573.992 83.4061 576.418C86.7441 581.181 90.5123 585.318 94.0983 589.842C90.7074 594.898 88.3374 599.17 86.5484 605.033C85.7764 607.563 85.039 612.581 82.9733 613.919C80.6296 613.691 75.1948 614.048 72.881 614.456C69.1186 614.454 67.1234 614.714 63.4914 615.04C63.4898 618.681 62.7299 636.097 64.4822 637.574C69.5281 639.152 78.5963 639.676 84.0338 640.384C84.8437 644.858 85.725 651.029 87.955 655.013C88.0975 655.232 88.1263 655.472 88.1895 655.736C89.5877 659.881 91.872 663.095 93.5664 667.131C91.1166 669.597 81.63 678.874 79.191 681.974C78.9853 682.236 79.8394 683.096 80.1611 683.419C84.8221 687.628 89.3142 693.507 95.0284 698.573C101.58 694.814 105.902 688.767 111.966 685.403C119.423 689.984 125.668 692.05 134.085 694.374C135.279 699.826 136.584 709.733 137.15 715.386C144.728 715.558 152.309 715.582 159.887 715.459C161.669 708.582 163.654 701.454 164.18 694.379C172.813 691.991 179.648 690.352 187.257 685.448C191.624 688.08 198.977 694.69 203.229 698.257C208.324 693.446 214.022 688.533 218.88 683.613C215.597 678.594 211.598 671.395 208.371 666.085C213.362 656.009 214.695 653.012 217.864 642.343C241.525 637.137 238.838 643.59 238.588 616.694C232.362 615.505 224.658 614.564 218.286 613.617C214.623 601.168 214.455 601.873 209.027 590.142C212.16 585.095 215.999 579.745 218.87 574.672ZM94.6567 684.278C94.2378 682.689 91.7461 679.452 90.7849 677.47L90.1419 676.119C92.7447 673.399 92.0466 672.807 95.4028 672.114C96.2941 674.194 96.312 675.629 98.5031 674.994C96.2348 678.648 100.52 678.885 99.6562 684.075C97.9405 684.425 96.1391 685.303 94.6567 684.278Z" /><path fill="#D6B8AB" fill-opacity="0.93333334" d="M61.6819 603.019C64.3523 595.717 66.2719 590.039 71.6194 584.069C73.7459 581.695 71.7208 582.815 75.0438 584.038C75.8797 584.054 76.7155 584.077 77.551 584.107L78.419 584.44C81.5569 585.591 78.3851 587.95 84.5935 586.876L85.164 587.624C88.5398 591.9 81.9587 594.542 82.1038 599.235C82.1133 599.54 81.4467 601.03 81.3026 601.404C80.4734 601.309 77.9151 600.418 77.7167 600.81C76.784 602.652 70.573 604.33 71.911 606.29C70.441 606.798 69.3107 606.811 67.7514 606.913C62.9244 607.228 65.8877 610.87 60.5408 610.35L60.4689 609.027C64.0924 611.039 65.838 604.362 62.3633 603.263L61.6819 603.019Z" /><path fill="#C39C8A" fill-opacity="0.89019608" d="M79.008 648.034C79.6828 650.91 80.9531 652.788 81.4513 654.877C80.0752 657.155 80.1772 657.032 79.7845 659.658C79.9377 660.988 79.9912 661.786 80.0094 663.124C78.1419 656.796 79.1637 659.373 71.984 655.47C72.9856 652.566 73.9469 650.776 74.8289 647.686C76.5958 649.237 77.7632 651.11 79.008 648.034Z" /><path fill="#D8BAAE" fill-opacity="0.019607844" d="M77.6989 577.537L78.2356 578.402C79.2407 580.009 80.1573 581.614 81.1654 583.218C79.1548 583.194 79.3562 583.27 77.551 584.107C76.7155 584.077 75.8797 584.054 75.0438 584.038C74.0967 580.885 73.9845 579.995 77.6989 577.537Z" /><path fill="#D8BAAE" fill-opacity="0.8509804" d="M115.046 553.817C117.128 553.483 117.959 553.417 120.057 553.631C120.448 555.76 122.206 558.646 123.908 559.933C122.992 560.369 122.666 560.678 121.66 560.974C120.037 558.563 117.184 555.996 115.046 553.817Z" /><path fill="#A97E66" fill-opacity="0.7764706" d="M79.7845 659.658C80.8839 659.758 81.8981 659.723 83.0742 659.841C83.4954 660.95 84.0038 662.018 84.4629 663.112C83.4305 666.486 81.7087 664.017 80.8884 667.347L80.6323 667.846C80.6389 665.855 80.685 664.951 80.0094 663.124C79.9912 661.786 79.9377 660.988 79.7845 659.658Z" /><path fill="#C39C8A" fill-opacity="0.14117648" d="M77.5051 643.943C78.4604 645.78 78.4614 646.013 79.008 648.034C77.7632 651.11 76.5958 649.237 74.8289 647.686C73.6319 646.488 73.3785 646.754 74.5 645.234C75.5267 644.831 76.4968 644.389 77.5051 643.943Z" /><path fill="#D6B8AB" fill-opacity="0.81960785" d="M61.6819 603.019L62.3633 603.263C65.838 604.362 64.0924 611.039 60.4689 609.027C60.9211 607.319 61.4497 604.779 61.6819 603.019Z" /><path fill="#A97E66" fill-opacity="0.74509805" d="M84.4629 663.112C85.1444 663.826 85.8319 664.535 86.5253 665.237C85.6382 666.425 84.6939 667.578 83.837 668.786C82.8442 668.291 81.8979 667.811 80.8884 667.347C81.7087 664.017 83.4305 666.486 84.4629 663.112Z" /><path fill="#C39C8A" fill-opacity="0.18039216" d="M80.8884 667.347C81.8979 667.811 82.8442 668.291 83.837 668.786C82.2277 670.069 81.1689 670.692 79.5223 671.843C78.2191 672.642 77.0876 673.931 75.5943 674.933C76.6111 673.007 79.2314 669.49 80.6323 667.846L80.8884 667.347Z" /><path fill="#D6B8AB" fill-opacity="0.39215687" d="M81.1654 583.218L81.7679 583.887C83.0245 585.306 83.1882 585.629 84.5935 586.876C78.3851 587.95 81.5569 585.591 78.419 584.44L77.551 584.107C79.3562 583.27 79.1548 583.194 81.1654 583.218Z" /><path fill="#C39C8A" fill-opacity="0.61176473" d="M79.7845 659.658C80.1772 657.032 80.0752 657.155 81.4513 654.877C81.9734 656.54 82.4684 658.205 83.0742 659.841C81.8981 659.723 80.8839 659.758 79.7845 659.658Z" /><path fill="#C39C8A" fill-opacity="0.50588238" d="M128.625 549.984C128.499 549.231 127.912 545.218 128.888 544.841C130.693 545.2 129.995 548.357 129.847 549.62C129.196 549.732 129.233 549.729 128.625 549.984Z" /><path fill="#C39C8A" fill-opacity="0.16862746" d="M128.625 549.984C129.233 549.729 129.196 549.732 129.847 549.62C130.128 551.182 130.177 551.587 130.73 553.047C129.425 553.031 128.207 553.012 126.903 552.939C128.017 552.216 127.97 552.059 128.351 550.745L128.625 549.984Z" /><path fill="#A97E66" d="M121.246 526.074C124.068 524.02 127.062 522.962 130.639 523.865C135.739 525.153 154.149 520.945 154.567 525.992C156.75 534.255 153.381 537.159 162.711 537.901C153.867 538.351 143.516 538.091 134.561 538.077C133.84 542.804 133.253 549.097 132.468 553.525C131.533 555.046 131.696 555.346 131.43 557.187C131.274 555.49 131.381 554.61 130.73 553.047C130.177 551.587 130.128 551.182 129.847 549.62C129.995 548.357 130.693 545.2 128.888 544.841C127.912 545.218 128.499 549.231 128.625 549.984L128.351 550.745C127.97 552.059 128.017 552.216 126.903 552.939C123.836 553.003 122.968 553.304 120.057 553.631C117.959 553.417 117.128 553.483 115.046 553.817C112.16 554.385 108.061 554.391 105.135 554.33L102.98 555.723C101.42 554.488 99.9719 553.355 98.3592 552.191C93.0177 555.954 80.7977 567.505 75.9272 572.233L78.5362 576.185L77.6989 577.537C73.9845 579.995 74.0967 580.885 75.0438 584.038C71.7208 582.815 73.7459 581.695 71.6194 584.069C66.2719 590.039 64.3523 595.717 61.6819 603.019C61.4497 604.779 60.9211 607.319 60.4689 609.027L60.5408 610.35L59.9768 611.565L59.9558 625.691C59.9025 627.809 59.9353 629.973 59.5917 632.056C51.8963 630.455 44.6007 630.42 36.8595 629.865C35.9832 621.935 35.5842 608.915 35.4814 600.827C37.0933 600.46 38.8971 600.088 40.5257 599.794L56.5679 596.646C58.581 590.262 60.0153 586.475 64.1937 581.239C60.0456 574.471 54.1898 569.051 50.3143 562.099C53.7999 558.093 56.2872 556.202 60.089 552.595C65.6537 547.315 71.0351 541.653 76.8588 536.644C79.3809 539.073 81.9731 541.428 84.6319 543.707C85.5568 544.507 85.634 544.421 86.2646 545.376C87.8856 547.353 88.9203 548.702 90.7065 550.62C96.4872 548.087 101.412 546.457 107.775 545.988C110.411 539.741 113.049 533.269 115.858 527.143C117.808 526.539 119.17 526.108 121.246 526.074ZM141.038 532.419C139.895 532.624 139.235 532.627 138.278 533.244C138.157 534.149 140.755 533.596 141.118 533.557C141.821 533.49 142.524 533.426 143.227 533.366C144.457 533.48 149.857 534.342 150.55 533.505C150.776 531.695 142.359 532.474 141.038 532.419ZM84.8762 559.126C86.2379 558.088 88.8078 556.914 86.196 556.256L85.4549 556.904C84.5777 557.646 83.4055 558.5 84.8762 559.126Z" /><path fill="#C39C8A" d="M76.8588 536.644C79.3809 539.073 81.9731 541.428 84.6319 543.707C85.5568 544.507 85.634 544.421 86.2646 545.376C85.4374 547.243 85.2086 548.736 85.3082 550.785C82.722 548.582 80.842 546.697 78.0988 544.558C72.4002 549.044 68.3481 554.254 61.8877 558.256C64.7372 564.011 69.2742 568.504 73.6943 573.097L69.5756 576.281C67.6606 577.732 66.2345 579.738 64.1937 581.239C60.0456 574.471 54.1898 569.051 50.3143 562.099C53.7999 558.093 56.2872 556.202 60.089 552.595C65.6537 547.315 71.0351 541.653 76.8588 536.644Z" /><path fill="#DAB6A7" d="M35.4814 600.827C37.0933 600.46 38.8971 600.088 40.5257 599.794C40.3172 606.9 40.7908 616.534 41.1769 623.823C47.5924 624.715 53.7167 624.96 59.9558 625.691C59.9025 627.809 59.9353 629.973 59.5917 632.056C51.8963 630.455 44.6007 630.42 36.8595 629.865C35.9832 621.935 35.5842 608.915 35.4814 600.827Z" /><path fill="#DAB6A7" d="M115.858 527.143C117.808 526.539 119.17 526.108 121.246 526.074L122.039 526.96C121.35 532.962 120.24 538.912 119.779 544.917C115.36 545.035 112.056 545.605 107.775 545.988C110.411 539.741 113.049 533.269 115.858 527.143Z" /><path fill="#C39C8A" d="M121.246 526.074C124.068 524.02 127.062 522.962 130.639 523.865C135.739 525.153 154.149 520.945 154.567 525.992C152.672 528.053 126.58 527.056 122.039 526.96L121.246 526.074Z" /><path fill="#D6B8AB" d="M86.2646 545.376C87.8856 547.353 88.9203 548.702 90.7065 550.62C87.6342 552.103 88.0041 552.88 85.3082 550.785C85.2086 548.736 85.4374 547.243 86.2646 545.376Z" /><path fill="#C39C8A" fill-opacity="0.45490196" d="M141.038 532.419C142.359 532.474 150.776 531.695 150.55 533.505C149.857 534.342 144.457 533.48 143.227 533.366C142.484 533.022 141.815 532.682 141.038 532.419Z" /><path fill="#C39C8A" fill-opacity="0.87450981" d="M86.196 556.256C88.8078 556.914 86.2379 558.088 84.8762 559.126C83.4055 558.5 84.5777 557.646 85.4549 556.904L86.196 556.256Z" /><path fill="#A97E66" fill-opacity="0.72156864" d="M143.227 533.366C142.524 533.426 141.821 533.49 141.118 533.557C140.755 533.596 138.157 534.149 138.278 533.244C139.235 532.627 139.895 532.624 141.038 532.419C141.815 532.682 142.484 533.022 143.227 533.366Z" /><path fill="#C39C8A" d="M61.6933 641.045C64.0001 641.112 70.2489 641.567 72.3865 642.231C71.6705 644.547 72.3381 645.16 74.5 645.234C73.3785 646.754 73.6319 646.488 74.8289 647.686C73.9469 650.776 72.9856 652.566 71.984 655.47C79.1637 659.373 78.1419 656.796 80.0094 663.124C80.685 664.951 80.6389 665.855 80.6323 667.846C79.2314 669.49 76.6111 673.007 75.5943 674.933C77.0876 673.931 78.2191 672.642 79.5223 671.843L80.7698 671.641C81.3576 671.539 82.0985 671.094 82.6753 671.2L82.7086 671.256C82.1851 672.666 80.4615 672.098 80.9412 674.561C78.8948 677.178 76.1166 679.427 74.4933 681.748C71.3764 678.848 68.2282 681.086 64.7275 682.546C61.3032 679.144 59.4674 676.123 55.5678 673.397C53.6172 672.033 51.5073 669.789 49.944 667.966C53.5574 662.295 62.435 650.304 66.5832 644.906C64.2038 643.662 64.7653 642.319 61.6933 641.045Z" /><path fill="#DAB6A7" d="M66.5832 644.906C68.3835 646.697 68.8734 647.463 70.2807 649.596C68.0781 653.3 66.2793 655.925 63.7062 659.386L62.1991 661.374C61.2589 662.631 59.492 664.745 58.4882 665.953C59.6688 667.969 60.0202 668.196 61.6059 669.897C63.468 671.028 67.4353 675.617 69.346 677.54C70.2026 677.136 75.4169 675.216 75.5943 674.933C77.0876 673.931 78.2191 672.642 79.5223 671.843L80.7698 671.641C81.3576 671.539 82.0985 671.094 82.6753 671.2L82.7086 671.256C82.1851 672.666 80.4615 672.098 80.9412 674.561C78.8948 677.178 76.1166 679.427 74.4933 681.748C71.3764 678.848 68.2282 681.086 64.7275 682.546C61.3032 679.144 59.4674 676.123 55.5678 673.397C53.6172 672.033 51.5073 669.789 49.944 667.966C53.5574 662.295 62.435 650.304 66.5832 644.906Z" /><path fill="#C39C8A" d="M61.6059 669.897C57.9695 671.36 58.2724 669.45 58.4882 665.953C59.6688 667.969 60.0202 668.196 61.6059 669.897Z" /><path fill="#D6B8AB" d="M78.5362 576.185C81.9949 580.932 85.6652 585.31 89.3222 589.894C84.9812 597.605 83.9227 601.449 81.5821 609.803C74.6305 609.322 67.1863 611.509 59.9768 611.565L60.5408 610.35C65.8877 610.87 62.9244 607.228 67.7514 606.913C69.3107 606.811 70.441 606.798 71.911 606.29C79.402 607.798 78.9799 609.626 81.1736 601.848L81.3026 601.404C81.4467 601.03 82.1133 599.54 82.1038 599.235C81.9587 594.542 88.5398 591.9 85.164 587.624L84.5935 586.876C83.1882 585.629 83.0245 585.306 81.7679 583.887L81.1654 583.218C80.1573 581.614 79.2407 580.009 78.2356 578.402L77.6989 577.537L78.5362 576.185Z" /><path fill="#D6B8AB" d="M132.468 553.525C132.426 556.244 132.235 557.419 131.928 560.046L130.003 560.463C124.046 562.011 120.759 563.669 115.3 566.472C111.724 563.753 108.328 560.807 105.132 557.65C104.33 557.024 103.722 556.42 102.98 555.723L105.135 554.33C106.673 555.786 107.015 556.058 108.259 557.799C113.192 563.921 114.688 565.357 121.66 560.974C122.666 560.678 122.992 560.369 123.908 559.933C126.156 559.518 129.873 559.623 131.141 557.628L131.43 557.187C131.696 555.346 131.533 555.046 132.468 553.525Z" /><path fill="#D8BAAE" d="M102.98 555.723L105.135 554.33C106.673 555.786 107.015 556.058 108.259 557.799C107.541 558.292 106.294 557.713 105.132 557.65C104.33 557.024 103.722 556.42 102.98 555.723Z" /><path fill="#C39C8A" d="M78.6371 643.163C80.9577 643.404 80.8926 643.516 81.2127 645.707C81.8222 649.88 83.3607 654.076 85.1808 657.876C86.2805 660.172 87.3184 662.794 88.7272 664.913C87.9945 665.03 87.2605 665.138 86.5253 665.237C85.8319 664.535 85.1444 663.826 84.4629 663.112C84.0038 662.018 83.4954 660.95 83.0742 659.841C82.4684 658.205 81.9734 656.54 81.4513 654.877C80.9531 652.788 79.6828 650.91 79.008 648.034C78.4614 646.013 78.4604 645.78 77.5051 643.943C78.0144 643.482 78.0124 643.473 78.6371 643.163Z" /><path fill="#C39C8A" d="M86.5253 665.237C87.2605 665.138 87.9945 665.03 88.7272 664.913C88.1036 667.442 82.8321 673.508 80.9412 674.561C80.4615 672.098 82.1851 672.666 82.7086 671.256L82.6753 671.2C82.0985 671.094 81.3576 671.539 80.7698 671.641L79.5223 671.843C81.1689 670.692 82.2277 670.069 83.837 668.786C84.6939 667.578 85.6382 666.425 86.5253 665.237Z" /><path fill="#DAB6A7" d="M72.3865 642.231C74.5282 642.502 76.5166 642.864 78.6371 643.163C78.0124 643.473 78.0144 643.482 77.5051 643.943C76.4968 644.389 75.5267 644.831 74.5 645.234C72.3381 645.16 71.6705 644.547 72.3865 642.231Z" /><path fill="#F74C1B" d="M143.079 580.898C148.259 578.519 156.133 578.217 160.616 582.254C161.502 583.21 169.626 586.326 171.586 587.388C185.331 594.783 194.63 608.391 196.525 623.884C198.003 636.009 194.659 648.229 187.215 657.912C180.099 667.011 166.602 674.471 155.118 675.998C146.337 677.166 140.092 674.86 131.883 672.157C126.144 671.465 122.021 668.978 117.695 665.194C117.131 664.405 116.633 663.804 116.019 663.061C114.857 661.399 112.092 658.357 110.67 656.814C110.081 655.852 109.504 655.385 108.705 654.586C107.861 652.582 107.92 652.335 108.447 650.228L108.279 649.898C98.2656 624.688 104.459 598.696 130.478 586.033C132.897 584.856 141.731 582.44 143.079 580.898ZM138.353 669.906C141.054 670.778 142.242 671.287 145.068 671.822C149.413 671.693 155.297 671.761 159.41 670.867C158.033 669.883 158.451 669.387 158.613 667.601C164.017 667.798 164.816 667.887 169.356 664.715C170.932 663.501 171.245 663.55 173.198 662.988L175.093 663.98C193.908 649.046 198.53 628.86 186.981 607.474L185.162 607.895C183.835 605.484 178.818 600.357 176.625 598.564C176.074 597.902 174.286 596.787 173.477 596.202C172.569 595.469 171.127 594.695 170.086 594.073C169.183 593.314 168.852 591.269 168.597 590.121C163.807 587.687 160.626 586.874 155.386 585.722C141.744 584.842 132.295 587.609 121.683 596.432C104.671 610.575 102.444 636.744 116.079 654.197C119.902 660.849 130.947 668.241 138.353 669.906Z" /><path fill="#D6B8AB" d="M108.447 650.228L108.755 650.688C118.201 664.953 119.41 662.807 131.883 672.157C126.144 671.465 122.021 668.978 117.695 665.194C117.131 664.405 116.633 663.804 116.019 663.061C114.857 661.399 112.092 658.357 110.67 656.814C110.081 655.852 109.504 655.385 108.705 654.586C107.861 652.582 107.92 652.335 108.447 650.228Z" /><path fill="#FEFEFE" d="M143.079 580.898C148.259 578.519 156.133 578.217 160.616 582.254C157.973 582.503 156.123 581.604 153.254 581.395C150.263 581.178 144.491 582.934 143.079 580.898Z" /><path fill="#C39C8A" d="M155.386 585.722C160.626 586.874 163.807 587.687 168.597 590.121C168.852 591.269 169.183 593.314 170.086 594.073C170.282 595.47 171.715 597.847 172.264 599.8L173.335 599.419C175.859 601.34 174.972 601.642 176.758 603.728C178.233 605.008 184.189 609.827 184.865 611.401C182.395 629.221 178.154 640.077 166.278 654.055L165.887 654.027C164.686 655.822 162.014 658.307 162.133 659.491C159.733 661.297 159.187 663.069 158.853 666.008C158.783 666.541 158.703 667.072 158.613 667.601C158.451 669.387 158.033 669.883 159.41 670.867C155.297 671.761 149.413 671.693 145.068 671.822C142.242 671.287 141.054 670.778 138.353 669.906C130.947 668.241 119.902 660.849 116.079 654.197C120.048 654.711 119.603 655.286 123.021 657.282L123.783 656.941L123.69 655.207C125.112 653.866 129.303 653.587 131.438 652.758C159.208 641.982 168.612 611.84 155.386 585.722ZM141.653 666.98C142.92 668.263 143.429 668.616 145.077 669.331L145.491 669.793C146.116 669.353 147.217 668.654 147.767 668.212L147.771 668.217C144.769 666.892 146.533 665.352 143.693 665.474C140.171 664.245 134.568 661.541 131.358 660.957L130.889 660.826C129.951 660.56 127.065 659.96 126.364 660.807C126.285 661.502 128.252 661.707 128.556 661.774L131.21 662.659C134.437 663.869 136.695 666.108 140.713 666.587C140.896 666.609 141.449 666.883 141.653 666.98Z" /><path fill="#DAB6A7" fill-opacity="0.090196081" d="M131.358 660.957C134.568 661.541 140.171 664.245 143.693 665.474C143.009 666 142.351 666.476 141.653 666.98C141.449 666.883 140.896 666.609 140.713 666.587C136.695 666.108 134.437 663.869 131.21 662.659L131.358 660.957Z" /><path fill="#C39C8A" fill-opacity="0.94509804" d="M143.693 665.474C146.533 665.352 144.769 666.892 147.771 668.217L147.767 668.212C147.217 668.654 146.116 669.353 145.491 669.793L145.077 669.331C143.429 668.616 142.92 668.263 141.653 666.98C142.351 666.476 143.009 666 143.693 665.474Z" /><path fill="#DAB6A7" fill-opacity="0.3764706" d="M128.556 661.774C128.252 661.707 126.285 661.502 126.364 660.807C127.065 659.96 129.951 660.56 130.889 660.826C129.601 661.06 129.673 661.077 128.556 661.774Z" /><path fill="#DAB6A7" fill-opacity="0.1882353" d="M130.889 660.826L131.358 660.957L131.21 662.659L128.556 661.774C129.673 661.077 129.601 661.06 130.889 660.826Z" /><path fill="#DAB6A7" d="M172.264 599.8L173.335 599.419C175.859 601.34 174.972 601.642 176.758 603.728C178.233 605.008 184.189 609.827 184.865 611.401C182.395 629.221 178.154 640.077 166.278 654.055L165.887 654.027C163.599 652.402 162.324 649.784 160.937 647.366C168.615 635.326 173.825 625.496 173.632 610.761C173.593 607.735 171.909 602.222 172.264 599.8Z" /><path fill="#F6EBE8" d="M138.353 669.906C141.315 669.178 142.022 669.371 145.077 669.331L145.491 669.793C145.412 670.848 145.431 670.755 145.068 671.822C142.242 671.287 141.054 670.778 138.353 669.906Z" /><path fill="#D6B8AB" d="M168.597 590.121C174.4 593.16 184.868 600.979 186.981 607.474L185.162 607.895C183.835 605.484 178.818 600.357 176.625 598.564C176.074 597.902 174.286 596.787 173.477 596.202C172.569 595.469 171.127 594.695 170.086 594.073C169.183 593.314 168.852 591.269 168.597 590.121Z" /><path fill="#D6B8AB" d="M173.198 662.988L175.093 663.98C170.769 667.363 164.674 669.545 159.41 670.867C158.033 669.883 158.451 669.387 158.613 667.601C164.017 667.798 164.816 667.887 169.356 664.715C170.932 663.501 171.245 663.55 173.198 662.988Z" /><path fill="#DAB6A7" fill-opacity="0.16078432" d="M176.625 598.564C178.818 600.357 183.835 605.484 185.162 607.895C185.091 609.18 185.393 610.29 184.865 611.401C184.189 609.827 178.233 605.008 176.758 603.728C176.686 601.302 176.891 601.112 176.625 598.564Z" /><path fill="#D8BAAE" fill-opacity="0.98823529" d="M165.887 654.027L166.278 654.055C166.219 655.395 167.415 656.574 168.32 657.648C168.125 660.081 168.542 662.342 167.94 664.069C164.484 661.998 165.126 662.219 162.133 659.491C162.014 658.307 164.686 655.822 165.887 654.027Z" /><path fill="#D8BAAE" fill-opacity="0.32941177" d="M168.32 657.648C170.188 659.675 171.198 661.025 173.198 662.988C171.245 663.55 170.932 663.501 169.356 664.715C168.702 664.321 168.635 664.214 167.94 664.069C168.542 662.342 168.125 660.081 168.32 657.648Z" /><path fill="#D8BAAE" fill-opacity="0.3137255" d="M173.335 599.419C172.785 597.905 172.84 597.764 173.477 596.202C174.286 596.787 176.074 597.902 176.625 598.564C176.891 601.112 176.686 601.302 176.758 603.728C174.972 601.642 175.859 601.34 173.335 599.419Z" /><path fill="#D8BAAE" fill-opacity="0.71372551" d="M172.264 599.8C171.715 597.847 170.282 595.47 170.086 594.073C171.127 594.695 172.569 595.469 173.477 596.202C172.84 597.764 172.785 597.905 173.335 599.419L172.264 599.8Z" /><path fill="#D8BAAE" d="M72.881 614.456C75.1948 614.048 80.6296 613.691 82.9733 613.919C80.246 621.918 92.3858 642.835 99.6059 646.944C99.5066 646.887 103.258 652.916 103.461 653.31C100.087 653.041 100.946 654.91 97.6355 656.574C95.2318 651.194 93.7494 648.738 91.0478 643.63L91.1854 643.68C89.1482 642.792 84.1418 641.514 85.9577 646.489C87.8544 651.686 88.3235 648.02 87.955 655.013C85.725 651.029 84.8437 644.858 84.0338 640.384C78.5963 639.676 69.5281 639.152 64.4822 637.574C62.7299 636.097 63.4898 618.681 63.4914 615.04C67.1234 614.714 69.1186 614.454 72.881 614.456ZM73.9 619.429C82.2711 619.928 80.1984 615.204 76.8878 614.77L76.0292 615.117C74.8867 615.602 74.1047 615.84 72.8802 616.051C67.2232 615.867 64.6363 615.683 65.7961 621.622C65.7856 623.102 65.8388 627.036 66.0981 628.411C66.0158 631.035 66.1204 631.26 65.1812 633.572L64.9716 634.102C65.4138 634.201 76.0953 636.509 72.0293 632.544C70.2121 630.772 69.1747 632.622 67.8264 628.716C68.1994 626.1 67.6861 625.182 68.3155 621.616C70.1735 620.917 72.0777 620.084 73.9 619.429Z" /><path fill="url(#gradient_0)" d="M66.0981 628.411C66.963 627.85 66.9746 628.147 67.8264 628.716C69.1747 632.622 70.2121 630.772 72.0293 632.544C76.0953 636.509 65.4138 634.201 64.9716 634.102L65.1812 633.572C66.1204 631.26 66.0158 631.035 66.0981 628.411Z" /><path fill="#D8BAAE" fill-opacity="0.81960785" d="M76.8878 614.77C80.1984 615.204 82.2711 619.928 73.9 619.429C73.5577 618.152 73.3251 617.287 72.8802 616.051C74.1047 615.84 74.8867 615.602 76.0292 615.117L76.8878 614.77Z" /><path fill="#D8BAAE" fill-opacity="0.90588236" d="M65.7961 621.622L68.3155 621.616C67.6861 625.182 68.1994 626.1 67.8264 628.716C66.9746 628.147 66.963 627.85 66.0981 628.411C65.8388 627.036 65.7856 623.102 65.7961 621.622Z" /><path fill="#D6B8AB" d="M63.4914 615.04C67.1234 614.714 69.1186 614.454 72.881 614.456C74.343 614.636 75.4187 614.707 76.8878 614.77L76.0292 615.117C74.8867 615.602 74.1047 615.84 72.8802 616.051C67.2232 615.867 64.6363 615.683 65.7961 621.622C65.7856 623.102 65.8388 627.036 66.0981 628.411C66.0158 631.035 66.1204 631.26 65.1812 633.572L64.9716 634.102C63.5302 636.26 64.5516 636.644 66.159 637.227C66.1206 637.533 64.7465 637.543 64.7348 637.544L64.4822 637.574C62.7299 636.097 63.4898 618.681 63.4914 615.04Z" /><path fill="#D8BAAE" fill-opacity="0.98823529" d="M154.776 557.993C154.875 560.713 155.092 564.665 155.048 567.25C154.998 570.175 154.326 571.137 154.585 574.529C153.11 576.365 149.089 575.782 146.731 575.853C143.464 575.952 134.798 572.516 131.47 571.327C123.465 571.385 124.004 570.47 115.831 573.254C116.368 572.182 117.238 571.541 116.641 570.624C117.712 568.483 124.578 566.442 126.952 565.375C127.991 570.194 126.553 569.007 130.299 570.297C133.572 568.278 135.315 565.934 140.25 566.515C146.193 567.247 145.797 567.933 148.06 562.513C149.513 559.034 148.333 558.026 151.5 557.713C152.875 557.9 153.425 558.012 154.776 557.993Z" /><path fill="#D8BAAE" fill-opacity="0.77254903" d="M106.596 566.189C107.736 566.461 110.66 569.978 110.727 570.745C108.955 572.496 101.444 574.764 99.2091 577.683C97.1378 580.389 92.4004 582.059 98.6638 584.5C96.5625 586.539 95.8646 587.62 94.0983 589.842C90.5123 585.318 86.7441 581.181 83.4061 576.418C85.1407 577.181 85.8277 577.505 87.4116 578.478C87.921 579.247 90.02 583.808 91.6227 581.859C93.241 579.892 92.6763 576.138 92.6189 573.741C93.7914 572.674 94.6368 572.11 95.6958 570.881C96.5705 570.18 97.0896 567.359 98.0168 566.974C101.025 565.725 103.246 567.235 106.596 566.189Z" /><path fill="#C39C8A" fill-opacity="0.95686275" d="M147.131 541.841C148.967 541.413 155.648 541.527 157.686 541.587L157.582 541.952C157.487 541.977 156.343 542.22 156.306 542.438C155.815 545.312 155.551 552.862 155.637 555.415L155.354 556.487L154.776 557.993C153.425 558.012 152.875 557.9 151.5 557.713C150.306 557.224 148.634 557.277 147.284 557.18C141.862 555.429 142.928 553.925 137.237 555.731C137.267 552.514 138.586 553.613 138.138 548.251C140.423 548.536 141.561 548.571 143.873 548.509C145.535 548.401 148.328 549.153 149.328 548.907C153.564 547.865 151.258 540.081 145.372 545.748L144.637 544.39C145.951 543.879 146.713 543.476 147.808 542.498L147.909 542.175L148.076 542.268L148.072 542.217C147.796 542.02 147.467 541.946 147.131 541.841Z" /><path fill="#D8BAAE" fill-opacity="0.98039216" d="M98.6869 557.712C99.351 557.58 99.6767 557.461 100.259 557.922C105.126 561.768 109.121 566.718 113.811 570.733C114.113 570.991 116.3 570.658 116.641 570.624C117.238 571.541 116.368 572.182 115.831 573.254C107.743 577.183 105.542 578.074 98.6638 584.5C92.4004 582.059 97.1378 580.389 99.2091 577.683C101.444 574.764 108.955 572.496 110.727 570.745C110.66 569.978 107.736 566.461 106.596 566.189C105.937 565.642 105.479 565.257 104.793 564.76C103.405 562.964 102.273 560.433 100.63 559.233C99.3979 558.332 99.7271 558.895 98.6869 557.712Z" /><path fill="#DAB6A7" fill-opacity="0.9254902" d="M137.531 541.939C140.731 541.939 143.931 541.906 147.131 541.841C147.467 541.946 147.796 542.02 148.072 542.217L148.076 542.268L147.909 542.175L147.808 542.498C146.713 543.476 145.951 543.879 144.637 544.39C141.248 541.203 138.733 544.544 138.138 548.251C138.586 553.613 137.267 552.514 137.237 555.731L137.251 556.748C137.253 556.859 136.946 561.59 136.91 561.75C136.195 564.9 137.864 566.049 140.982 565.728C142.685 565.553 143.837 566.708 145.298 565.917C145.918 565.521 146.66 564.375 146.271 563.68C144.855 563.043 143.162 564.704 142.744 564.214C144.678 561.745 145.875 559.983 147.284 557.18C148.634 557.277 150.306 557.224 151.5 557.713C148.333 558.026 149.513 559.034 148.06 562.513C145.797 567.933 146.193 567.247 140.25 566.515C135.315 565.934 133.572 568.278 130.299 570.297C126.553 569.007 127.991 570.194 126.952 565.375C128.442 565.053 134.151 563.926 134.682 563.145C136.633 560.272 136.79 547.362 137.267 543.832L137.531 541.939Z" /><path fill="#D8BAAE" fill-opacity="0.78039217" d="M103.461 653.31C103.559 653.538 103.657 653.766 103.755 653.993C105.192 657.035 106.676 660.362 109.117 662.51L109.408 662.825C107.22 663.296 105.761 663.836 103.545 663.637C99.3222 663.864 101.431 665.475 98.0428 666.792C97.2173 667.113 95.4196 664.88 94.7419 664.371C93.4988 663.005 92.8647 662.844 92.6871 661.051L93.3265 660.71C95.9247 659.341 95.687 658.378 97.6355 656.574C100.946 654.91 100.087 653.041 103.461 653.31Z" /><path fill="#D8BAAE" fill-opacity="0.082352944" d="M92.6079 562.444L92.856 563.006C94.7318 567.389 101.189 564.424 103.915 564.69C104.479 564.745 103.776 564.755 104.793 564.76C105.479 565.257 105.937 565.642 106.596 566.189C103.246 567.235 101.025 565.725 98.0168 566.974C97.0896 567.359 96.5705 570.18 95.6958 570.881C94.6368 572.11 93.7914 572.674 92.6189 573.741C92.6763 576.138 93.241 579.892 91.6227 581.859C90.02 583.808 87.921 579.247 87.4116 578.478C90.6364 575.998 90.3602 573.543 88.7247 569.862C88.5374 569.44 86.1879 569.049 85.7009 568.914C87.2764 567.478 91.2792 563.294 92.6079 562.444Z" /><path fill="url(#gradient_1)" d="M109.408 662.825L111.112 663.639L112.186 664.19C111.598 665.226 111.248 665.537 110.452 666.462C109.142 666.496 104.234 675.456 102.932 676.845C101.806 678.046 100.575 681.589 101.04 683.243C101.293 684.673 102.33 684.829 102.8 685.776C102.768 685.823 102.736 685.87 102.704 685.918C101.878 686.018 100.243 684.612 99.6562 684.075C100.52 678.885 96.2348 678.648 98.5031 674.994C99.5661 671.524 101.682 666.823 103.545 663.637C105.761 663.836 107.22 663.296 109.408 662.825Z" /><path fill="#DAB6A7" fill-opacity="0.98823529" d="M88.1895 655.736C90.5069 657.664 91.3677 657.921 92.5759 660.793L92.6871 661.051C92.8647 662.844 93.4988 663.005 94.7419 664.371C94.9833 666.367 94.0437 667.86 93.4854 669.795C92.7778 672.247 94.0827 671.352 95.4028 672.114C92.0466 672.807 92.7447 673.399 90.1419 676.119L90.7849 677.47C91.7461 679.452 94.2378 682.689 94.6567 684.278C94.2919 684.135 93.925 683.997 93.5562 683.864C90.9743 682.942 89.05 678.797 87.1931 676.406C82.5763 679.856 83.5662 679.179 80.1611 683.419C79.8394 683.096 78.9853 682.236 79.191 681.974C81.63 678.874 91.1166 669.597 93.5664 667.131C91.872 663.095 89.5877 659.881 88.1895 655.736Z" /><path fill="#D8BAAE" fill-opacity="0.79607844" d="M137.237 555.731C142.928 553.925 141.862 555.429 147.284 557.18C145.875 559.983 144.678 561.745 142.744 564.214C143.162 564.704 144.855 563.043 146.271 563.68C146.66 564.375 145.918 565.521 145.298 565.917C143.837 566.708 142.685 565.553 140.982 565.728C137.864 566.049 136.195 564.9 136.91 561.75C136.946 561.59 137.253 556.859 137.251 556.748L137.237 555.731Z" /><path fill="#F6EBE8" fill-opacity="0.76862746" d="M154.776 557.993L155.354 556.487C156.08 567.699 159.351 562.833 163.451 568.424C159.413 572.248 163.021 572.682 165.471 573.918C161.993 574.352 156.11 571.662 154.585 574.529C154.326 571.137 154.998 570.175 155.048 567.25C155.092 564.665 154.875 560.713 154.776 557.993Z" /><path fill="#C39C8A" d="M90.1419 676.119C92.7447 673.399 92.0466 672.807 95.4028 672.114C96.2941 674.194 96.312 675.629 98.5031 674.994C96.2348 678.648 100.52 678.885 99.6562 684.075C97.9405 684.425 96.1391 685.303 94.6567 684.278C94.2378 682.689 91.7461 679.452 90.7849 677.47L90.1419 676.119Z" /><path fill="#D6B8AB" fill-opacity="0.79607844" d="M94.7419 664.371C95.4196 664.88 97.2173 667.113 98.0428 666.792C101.431 665.475 99.3222 663.864 103.545 663.637C101.682 666.823 99.5661 671.524 98.5031 674.994C96.312 675.629 96.2941 674.194 95.4028 672.114C94.0827 671.352 92.7778 672.247 93.4854 669.795C94.0437 667.86 94.9833 666.367 94.7419 664.371Z" /><path fill="#F6EBE8" fill-opacity="0.97647059" d="M163.451 568.424L163.874 568.456C164.866 569.617 165.791 570.8 166.767 571.974C171.079 573.339 173.462 573.703 177.143 576.514C176.759 577.243 176.408 577.885 176.005 578.599C173.171 578.241 172.103 577.381 169.5 576.044C168.144 575.361 166.8 574.652 165.471 573.918C163.021 572.682 159.413 572.248 163.451 568.424Z" /><path fill="#F6EBE8" fill-opacity="0.23921569" d="M155.637 555.415L155.869 556.187C156.656 558.995 157.129 556.97 158.186 557.696C160.113 559.017 160.21 563.61 163.703 562.525C164.326 562.971 164.703 562.944 165.455 563.097C163.768 564.441 163.596 566.369 163.874 568.456L163.451 568.424C159.351 562.833 156.08 567.699 155.354 556.487L155.637 555.415Z" /><path fill="#F6EBE8" fill-opacity="0.062745102" d="M160.916 550.879L161.311 551.67C161.7 552.472 162.393 553.072 162.933 553.769C162.929 556.846 163.462 559.421 163.703 562.525C160.21 563.61 160.113 559.017 158.186 557.696C157.129 556.97 156.656 558.995 155.869 556.187C156.092 556.099 156.319 556.018 156.547 555.945C157.818 555.524 156.865 554.569 157.99 554.294C159.17 554.628 158.962 555.591 160.215 555.176C161.238 553.868 160.87 552.582 160.916 550.879Z" /><path fill="#D6B8AB" fill-opacity="0.24705882" d="M108.279 649.898L108.447 650.228C107.92 652.335 107.861 652.582 108.705 654.586C108.735 657.419 108.845 659.688 109.117 662.51C106.676 660.362 105.192 657.035 103.755 653.993C107.143 652.041 106.567 653.437 108.279 649.898Z" /><path fill="#C39C8A" fill-opacity="0.88627452" d="M145.372 545.748C151.258 540.081 153.564 547.865 149.328 548.907C148.328 549.153 145.535 548.401 143.873 548.509C145.071 547.433 144.971 547.334 145.372 545.748Z" /><path fill="#F6EBE8" d="M157.686 541.587C158.488 541.55 161.685 541.319 161.829 541.751C162.39 543.438 162.926 552.027 162.933 553.769C162.393 553.072 161.7 552.472 161.311 551.67L160.916 550.879C161.525 545.021 161.608 546.4 157.582 541.952L157.686 541.587Z" /><path fill="#D6B8AB" fill-opacity="0.011764706" d="M110.67 656.814C112.092 658.357 114.857 661.399 116.019 663.061C115.067 663.573 114.905 663.587 114.2 664.323C113.52 664.285 112.865 664.257 112.186 664.19L111.112 663.639C111.632 659.273 109.847 660.119 110.67 656.814Z" /><path fill="#D6B8AB" fill-opacity="0.050980393" d="M108.705 654.586C109.504 655.385 110.081 655.852 110.67 656.814C109.847 660.119 111.632 659.273 111.112 663.639L109.408 662.825L109.117 662.51C108.845 659.688 108.735 657.419 108.705 654.586Z" /><path fill="#F6EBE8" fill-opacity="0.90980393" d="M177.143 576.514C178.679 577.231 180.072 577.775 181.647 578.387L181.933 579.361C182.697 581.887 182.852 583.002 183.184 585.605C180.63 581.166 181.026 578.433 176.005 578.599C176.408 577.885 176.759 577.243 177.143 576.514Z" /><path fill="#D6B8AB" fill-opacity="0.32941177" d="M116.019 663.061C116.633 663.804 117.131 664.405 117.695 665.194C116.564 666.471 115.884 666.686 114.198 666.862C114.219 665.956 114.227 665.23 114.2 664.323C114.905 663.587 115.067 663.573 116.019 663.061Z" /><path fill="#D6B8AB" fill-opacity="0.84313726" d="M112.186 664.19C112.865 664.257 113.52 664.285 114.2 664.323C114.227 665.23 114.219 665.956 114.198 666.862C112.947 666.751 111.698 666.617 110.452 666.462C111.248 665.537 111.598 665.226 112.186 664.19Z" /></svg>