<?xml version='1.0' encoding='utf-8'?>
<svg xmlns="http://www.w3.org/2000/svg" viewBox="276.9 414.4 235.9 353.5" width="512" height="512"><path fill="#F54915" d="M384.76 424.414C392.65 430.161 397.662 434.973 404.842 441.323L433.044 466.262C445.363 476.874 457.561 487.626 469.634 498.518C473.268 501.801 481.218 507.636 483.223 511.604L483.67 512.21C488.045 518.076 502.784 531.109 501.694 537.599C498.333 539.711 486.727 538.413 481.445 539.032C481.639 554.854 481.673 570.679 481.549 586.502C481.517 595.19 481.467 603.884 481.112 612.558C480.76 621.174 466.068 618.745 459.573 618.689C450.828 618.596 442.083 618.554 433.339 618.565C405.39 618.558 377.41 618.603 349.46 618.609C347.22 618.609 343.722 618.383 341.546 617.854C338.065 613.533 339.554 597.316 339.497 590.776C333.761 590.336 319.422 591.409 315.686 589.617C312.867 583.72 314.304 523.42 314.319 512.505C308.737 512.332 291.497 513.281 287.636 511.391C286.927 509.934 287.109 510.716 287.322 508.926C289.342 506.336 301.577 495.781 304.718 493.025L346.825 456.581C355.92 448.752 375.991 429.863 384.76 424.414ZM347.962 590.926C347.936 597.161 348.01 603.397 348.185 609.63C353.098 609.909 359.831 609.637 364.951 609.615L396.18 609.548C421.412 609.507 447.893 609.972 472.965 609.311C473.887 587.631 472.516 562.406 472.917 540.036C468.862 539.732 466.046 539.537 462.008 539.673C459.892 535.864 457.84 530.494 463.208 528.453C469.842 528.563 479.48 528.42 485.986 527.83C481.233 522.575 476.435 517.85 471.534 512.744C469.78 512.291 460.127 512.522 457.628 512.544L457.623 528.679C457.507 531.637 457.449 536.036 457.592 538.973C457.612 546.078 458.206 584.974 456.924 589.336C453.563 591.421 445.689 590.951 441.67 591.004C410.529 591.41 379.074 590.188 347.962 590.926ZM394.55 537.73C390.247 536.019 391.565 532.133 392.924 528.181C397.597 531.085 399.337 533.389 394.55 537.73ZM419.683 470.807C421.115 466.995 419.723 467.546 418.362 463.962C418.077 463.21 417.948 463.174 417.31 462.858C415.171 460.662 415.617 460.741 413.043 459.322C412.351 461.46 412.192 462.085 413.425 463.934C415.314 466.658 413.656 466.136 413.964 469.151C414.47 480.116 414.323 494.921 414.053 506.036C424.817 505.693 435.772 506.178 446.534 506.031C450.44 505.978 462.517 507.153 464.549 504.068C463.879 501.027 454.983 494.35 452.302 492.002C444.452 485.104 436.638 478.164 428.861 471.182C426.958 478.759 423.277 473.471 419.683 470.807ZM388.682 584.299C392.602 584.287 402.424 584.011 405.886 584.349C406.48 581.243 406.047 578.176 406.07 575.029C406.225 554.215 405.439 533.289 406.019 512.494C400.269 512.181 394.678 512.364 388.927 512.478C388.947 517.004 388.774 525.275 389.187 529.46C389.132 532.368 389.046 534.61 389.14 537.562C388.64 549.823 388.937 562.194 388.695 574.469C388.632 577.695 388.501 581.097 388.682 584.299ZM414.169 527.812C423.342 527.974 433.959 527.719 443.218 528.127C443.687 528.147 444.538 529.072 444.871 529.376L445.242 529.964C446.788 532.318 445.696 532.97 446.988 535.28C447.825 536.778 446.729 538.269 446.101 539.637C437.911 539.419 422.627 539.525 414.414 539.77C414.07 553.457 414.386 567.088 413.984 580.75C413.946 582.027 414.091 583.103 414.162 584.38C426.24 584.047 438.794 584.669 450.989 584.439C451.279 569.961 450.801 553.581 450.509 539.055L450.554 528.434C450.476 523.848 450.329 516.947 450.762 512.509C438.66 512.225 425.74 512.47 413.598 512.546C414.286 517.138 414.215 523.052 414.169 527.812ZM343.867 516.403C339.414 520.759 335.684 523.657 330.297 526.74C327.677 526.622 326.67 526.443 323.965 526.582C324.059 525.111 324.058 524.433 323.22 523.204L322.814 522.591C323.927 521.914 334.314 513.308 334.999 512.522C330.16 512.43 325.523 512.31 320.677 512.513C321.161 532.3 322.032 551.825 321.317 571.688C321.172 575.69 320.989 580.374 321.2 584.339C326.836 584.321 334.414 584.066 339.889 584.32C340.31 566.882 339.978 545.867 339.547 528.417C343.556 528.062 372.948 528.19 375.749 528.903C377.32 532.568 376.149 531.859 376.765 535.392C377.12 537.429 376.744 538.165 375.372 539.528L347.69 539.54C347.87 554.463 347.412 569.524 347.596 584.37C358.84 584.141 370.897 584.225 382.162 584.306C382.384 579.575 382.087 574.645 382.095 569.813C382.122 559.51 382.093 549.206 382.009 538.902C381.999 535.605 381.962 532.386 381.997 529.079L382.009 512.534C372.026 512.047 358.203 512.435 347.987 512.454C347.192 512.465 346.398 512.488 345.604 512.525C342.54 514.303 341.043 513.486 343.867 516.403ZM405.482 450.698C400.016 445.125 394.204 441.205 388.68 436.138L388.763 505.974C392.61 505.935 402.054 505.613 405.472 505.91C406.113 501.1 405.844 491.437 405.84 486.158C405.899 474.337 405.78 462.516 405.482 450.698ZM382.028 505.831C382.707 483.642 382.126 457.275 382.068 434.861C378.502 437.613 375.311 440.426 371.967 443.433C354.778 458.889 336.907 473.535 319.765 489.055C313.485 494.741 306.801 499.817 300.694 505.761C311.876 506.347 330.55 506.267 341.784 505.72C352.469 498.05 363.548 483.075 374.507 475.958C375.61 475.247 376.962 475.033 378.231 475.369C382.029 476.337 382.932 480.352 378.882 481.26C378.711 481.298 378.634 482.058 378.625 482.744C378.609 483.875 377.413 485.109 376.722 485.914C370.593 491.65 363.813 498.16 357.349 503.43C357.891 501.211 357.786 500.891 355.534 501.035C354.178 500.802 351.766 500.024 352.538 502.368C354.35 503.689 354.627 503.217 355.909 505.015L355.556 505.831C357.682 505.485 377.856 505.955 382.028 505.831Z" /><path fill="#D09F81" fill-opacity="0.90588236" d="M457.623 528.679C458.353 529.283 461.652 528.475 463.208 528.453C457.84 530.494 459.892 535.864 462.008 539.673C460.086 539.472 459.446 539.404 457.592 538.973C457.449 536.036 457.507 531.637 457.623 528.679Z" /><path fill="#D09F81" d="M483.223 511.604L483.67 512.21C488.045 518.076 502.784 531.109 501.694 537.599C498.333 539.711 486.727 538.413 481.445 539.032C481.639 554.854 481.673 570.679 481.549 586.502C481.517 595.19 481.467 603.884 481.112 612.558C480.76 621.174 466.068 618.745 459.573 618.689C450.828 618.596 442.083 618.554 433.339 618.565C405.39 618.558 377.41 618.603 349.46 618.609C347.22 618.609 343.722 618.383 341.546 617.854C338.065 613.533 339.554 597.316 339.497 590.776L347.962 590.926C347.936 597.161 348.01 603.397 348.185 609.63C353.098 609.909 359.831 609.637 364.951 609.615L396.18 609.548C421.412 609.507 447.893 609.972 472.965 609.311C473.887 587.631 472.516 562.406 472.917 540.036C468.862 539.732 466.046 539.537 462.008 539.673C459.892 535.864 457.84 530.494 463.208 528.453C469.842 528.563 479.48 528.42 485.986 527.83C481.233 522.575 476.435 517.85 471.534 512.744C475.279 512.815 479.994 513.322 483.223 511.604Z" /><path fill="#D09F81" d="M406.019 512.494C408.358 512.508 411.307 512.449 413.598 512.546C414.286 517.138 414.215 523.052 414.169 527.812C423.342 527.974 433.959 527.719 443.218 528.127C443.687 528.147 444.538 529.072 444.871 529.376L445.242 529.964C446.788 532.318 445.696 532.97 446.988 535.28C447.825 536.778 446.729 538.269 446.101 539.637C437.911 539.419 422.627 539.525 414.414 539.77C414.07 553.457 414.386 567.088 413.984 580.75C413.946 582.027 414.091 583.103 414.162 584.38C411.523 584.48 408.552 584.379 405.886 584.349C406.48 581.243 406.047 578.176 406.07 575.029C406.225 554.215 405.439 533.289 406.019 512.494Z" /><path fill="#D09F81" d="M339.547 528.417C343.556 528.062 372.948 528.19 375.749 528.903C377.32 532.568 376.149 531.859 376.765 535.392C377.12 537.429 376.744 538.165 375.372 539.528L347.69 539.54C347.87 554.463 347.412 569.524 347.596 584.37L339.889 584.32C340.31 566.882 339.978 545.867 339.547 528.417Z" /><path fill="#D09F81" d="M334.999 512.522C338.284 512.338 342.288 512.425 345.604 512.525C342.54 514.303 341.043 513.486 343.867 516.403C339.414 520.759 335.684 523.657 330.297 526.74C327.677 526.622 326.67 526.443 323.965 526.582C324.059 525.111 324.058 524.433 323.22 523.204L322.814 522.591C323.927 521.914 334.314 513.308 334.999 512.522Z" /><path fill="#D09F81" fill-opacity="0.81568629" d="M375.749 528.903C377.844 529.023 379.896 528.993 381.997 529.079C381.962 532.386 381.999 535.605 382.009 538.902C380.462 539.366 377.109 539.442 375.372 539.528C376.744 538.165 377.12 537.429 376.765 535.392C376.149 531.859 377.32 532.568 375.749 528.903Z" /><path fill="#D09F81" fill-opacity="0.73333335" d="M450.554 528.434L450.509 539.055C448.803 539.443 447.831 539.49 446.101 539.637C446.729 538.269 447.825 536.778 446.988 535.28C445.696 532.97 446.788 532.318 445.242 529.964L444.871 529.376C447.093 529.281 449.135 529.971 450.554 528.434Z" /><path fill="#D09F81" d="M392.924 528.181C397.597 531.085 399.337 533.389 394.55 537.73C390.247 536.019 391.565 532.133 392.924 528.181Z" /><path fill="#D09F81" fill-opacity="0.050980393" d="M389.187 529.46C390.982 528.305 390.62 529.073 392.271 528.429L392.924 528.181C391.565 532.133 390.247 536.019 394.55 537.73C390.646 540.472 391.248 538.909 389.698 537.38C389.473 537.332 389.42 537.428 389.14 537.562C389.046 534.61 389.132 532.368 389.187 529.46Z" /><path fill="#D19E7F" fill-opacity="0.90588236" d="M345.604 512.525C346.398 512.488 347.192 512.465 347.987 512.454C346.649 513.806 345.235 515.063 343.867 516.403C341.043 513.486 342.54 514.303 345.604 512.525Z" /><path fill="#D19E7F" fill-opacity="0.22745098" d="M323.965 526.582C321.566 525.882 321.256 524.449 322.814 522.591L323.22 523.204C324.058 524.433 324.059 525.111 323.965 526.582Z" /><path fill="#D09F81" d="M359.286 750.069C388.981 749.751 422.323 749.508 451.878 750.542C449.711 753.009 447.519 755.139 445.187 757.443C429.759 757.795 414.326 757.866 398.896 757.656C387.65 757.525 373.707 757.079 362.569 757.56C361.824 757.226 361.08 756.892 360.335 756.558C359.743 755.604 358.695 755.408 357.71 755.06C357.366 754.946 357.022 754.831 356.678 754.717C355.764 754.105 356.26 752.768 355.41 752.133C355.301 752.174 354.52 751.446 354.756 751.244C355.588 750.53 358.273 750.319 359.286 750.069Z" /><path fill="#D19E7F" fill-opacity="0.70980394" d="M348.999 750.085C351.825 749.961 356.479 750.035 359.286 750.069C358.273 750.319 355.588 750.53 354.756 751.244C354.52 751.446 355.301 752.174 355.41 752.133C356.26 752.768 355.764 754.105 356.678 754.717C357.022 754.831 357.366 754.946 357.71 755.06C358.695 755.408 359.743 755.604 360.335 756.558C361.08 756.892 361.824 757.226 362.569 757.56C360.107 757.437 357.113 756.116 355.627 757.003C354.435 756.441 349.975 751.311 348.999 750.085Z" /></svg>